<svg width="15" height="18" viewBox="0 0 15 18" fill="none" xmlns="http://www.w3.org/2000/svg">
<path fill-rule="evenodd" clip-rule="evenodd" d="M9.93129 0C12.8103 0 14.4619 1.42506 14.4619 3.90767V16.2452C14.4619 16.7629 14.1954 17.2289 13.7473 17.4895C13.3008 17.7509 12.7627 17.756 12.3112 17.5013L7.25261 14.6436L2.14735 17.5073C1.92667 17.6312 1.68478 17.694 1.44204 17.694C1.19165 17.694 0.94127 17.6269 0.713803 17.4928C0.266509 17.2323 0 16.7663 0 16.2494V3.75235C0 1.36734 1.65253 0 4.53405 0H9.93129ZM9.93129 1.27313H4.53405C2.37057 1.27313 1.27313 2.10661 1.27313 3.75235V16.2494C1.27313 16.3292 1.31897 16.3725 1.35716 16.3946C1.39535 16.4183 1.45562 16.4353 1.52521 16.3963L6.94197 13.3577C7.13549 13.2499 7.37229 13.2491 7.56665 13.3586L12.9367 16.392C13.0072 16.4327 13.0674 16.4141 13.1056 16.3912C13.1438 16.3682 13.1888 16.325 13.1888 16.2452L13.1885 3.81095C13.1821 3.08045 13.0407 1.27313 9.93129 1.27313ZM10.3037 5.71085C10.6551 5.71085 10.9403 5.99603 10.9403 6.34742C10.9403 6.6988 10.6551 6.98398 10.3037 6.98398H4.09253C3.74114 6.98398 3.45596 6.6988 3.45596 6.34742C3.45596 5.99603 3.74114 5.71085 4.09253 5.71085H10.3037Z" fill="#F70F21"/>
</svg>
