<svg width="15" height="19" viewBox="0 0 15 19" fill="none" xmlns="http://www.w3.org/2000/svg">
<path fill-rule="evenodd" clip-rule="evenodd" d="M9.93129 0.987793C12.8103 0.987793 14.4619 2.41285 14.4619 4.89546V17.233C14.4619 17.7507 14.1954 18.2167 13.7473 18.4772C13.3008 18.7387 12.7627 18.7438 12.3112 18.4891L7.25261 15.6314L2.14735 18.4951C1.92667 18.619 1.68478 18.6818 1.44204 18.6818C1.19165 18.6818 0.94127 18.6147 0.713803 18.4806C0.266509 18.2201 0 17.7541 0 17.2372V4.74014C0 2.35514 1.65253 0.987793 4.53405 0.987793H9.93129ZM9.93129 2.26093H4.53405C2.37057 2.26093 1.27313 3.0944 1.27313 4.74014V17.2372C1.27313 17.317 1.31897 17.3603 1.35716 17.3823C1.39535 17.4061 1.45562 17.4231 1.52521 17.384L6.94197 14.3455C7.13549 14.2377 7.37229 14.2369 7.56665 14.3464L12.9367 17.3798C13.0072 17.4205 13.0674 17.4019 13.1056 17.379C13.1438 17.356 13.1888 17.3127 13.1888 17.233L13.1885 4.79874C13.1821 4.06824 13.0407 2.26093 9.93129 2.26093ZM10.3037 6.69864C10.6551 6.69864 10.9403 6.98382 10.9403 7.33521C10.9403 7.68659 10.6551 7.97178 10.3037 7.97178H4.09253C3.74114 7.97178 3.45596 7.68659 3.45596 7.33521C3.45596 6.98382 3.74114 6.69864 4.09253 6.69864H10.3037Z" fill="black"/>
</svg>
