<svg width="19" height="19" viewBox="0 0 19 19" fill="none" xmlns="http://www.w3.org/2000/svg">
<path fill-rule="evenodd" clip-rule="evenodd" d="M9.49527 0C12.0333 0 14.4185 0.986768 16.2101 2.77921C19.9133 6.48246 19.9133 12.5073 16.2101 16.2106C14.3947 18.0269 11.9503 18.988 9.47407 18.988C8.12422 18.988 6.76554 18.7027 5.49431 18.1143C5.11974 17.9641 4.76903 17.8228 4.51726 17.8228C4.2275 17.8246 3.83792 17.9588 3.46159 18.0887C2.68949 18.3537 1.72834 18.6841 1.01719 17.9756C0.308696 17.2662 0.635558 16.3077 0.898814 15.5365C1.02868 15.1567 1.16207 14.7644 1.16207 14.4676C1.16207 14.2238 1.04458 13.9128 0.864361 13.4649C-0.790265 9.89153 -0.0252326 5.58491 2.78136 2.78009C4.57291 0.987652 6.95724 0 9.49527 0ZM9.49616 1.32511C7.31148 1.32511 5.25932 2.17495 3.71777 3.71739C1.30253 6.13086 0.645275 9.83676 2.08082 12.9402C2.28753 13.4517 2.48718 13.9499 2.48718 14.4676C2.48718 14.9844 2.30962 15.5047 2.15326 15.9641C2.02428 16.3422 1.82904 16.9129 1.95449 17.0383C2.07728 17.1655 2.6515 16.965 3.03048 16.8351C3.48544 16.6797 4.00135 16.5012 4.51284 16.4977C5.02522 16.4977 5.50845 16.692 6.01994 16.8979C9.15339 18.3466 12.8593 17.6876 15.2737 15.2741C18.4592 12.0868 18.4592 6.90208 15.2737 3.7165C13.7312 2.17407 11.6799 1.32511 9.49616 1.32511ZM12.9829 8.97782C13.4705 8.97782 13.8663 9.37271 13.8663 9.86123C13.8663 10.3498 13.4705 10.7446 12.9829 10.7446C12.4952 10.7446 12.0959 10.3498 12.0959 9.86123C12.0959 9.37271 12.4873 8.97782 12.9749 8.97782H12.9829ZM9.44147 8.97782C9.92912 8.97782 10.3249 9.37271 10.3249 9.86123C10.3249 10.3498 9.92912 10.7446 9.44147 10.7446C8.95383 10.7446 8.55453 10.3498 8.55453 9.86123C8.55453 9.37271 8.945 8.97782 9.43352 8.97782H9.44147ZM5.89971 8.97782C6.38735 8.97782 6.78312 9.37271 6.78312 9.86123C6.78312 10.3498 6.38735 10.7446 5.89971 10.7446C5.41207 10.7446 5.01276 10.3498 5.01276 9.86123C5.01276 9.37271 5.40411 8.97782 5.89176 8.97782H5.89971Z" fill="#F70F21"/>
</svg>
