<svg width="30" height="30" viewBox="0 0 30 30" fill="none" xmlns="http://www.w3.org/2000/svg">
<path d="M23.3789 22.5117C22.084 20.2617 19.6523 18.75 16.875 18.75H13.125C10.3477 18.75 7.91602 20.2617 6.62109 22.5117C8.68359 24.8086 11.6719 26.25 15 26.25C18.3281 26.25 21.3164 24.8027 23.3789 22.5117ZM30 15C30 23.2852 23.2852 30 15 30C6.71484 30 0 23.2852 0 15C0 6.71484 6.71484 0 15 0C23.2852 0 30 6.71484 30 15ZM15 15.9375C17.332 15.9375 19.2188 14.0508 19.2188 11.7188C19.2188 9.38672 17.332 7.5 15 7.5C12.668 7.5 10.7812 9.38672 10.7812 11.7188C10.7812 14.0508 12.668 15.9375 15 15.9375Z" fill="black" fill-opacity="0.5"/>
</svg>
