<svg width="15" height="15" viewBox="0 0 15 15" fill="none" xmlns="http://www.w3.org/2000/svg">
<g clip-path="url(#clip0_119_2)">
<path d="M15 7.5C15 7.52637 15 7.55273 15 7.5791C14.9883 8.64844 14.0156 9.375 12.9463 9.375H10.0781C9.30176 9.375 8.67188 10.0049 8.67188 10.7812C8.67188 10.8809 8.68359 10.9775 8.70117 11.0713C8.7627 11.3701 8.8916 11.6572 9.01758 11.9473C9.19629 12.3516 9.37207 12.7529 9.37207 13.1777C9.37207 14.1094 8.73926 14.9561 7.80762 14.9941C7.70508 14.9971 7.60254 15 7.49707 15C3.35742 15 0 11.6426 0 7.5C0 3.35742 3.35742 0 7.5 0C11.6426 0 15 3.35742 15 7.5ZM3.75 8.4375C3.75 7.91895 3.33105 7.5 2.8125 7.5C2.29395 7.5 1.875 7.91895 1.875 8.4375C1.875 8.95605 2.29395 9.375 2.8125 9.375C3.33105 9.375 3.75 8.95605 3.75 8.4375ZM3.75 5.625C4.26855 5.625 4.6875 5.20605 4.6875 4.6875C4.6875 4.16895 4.26855 3.75 3.75 3.75C3.23145 3.75 2.8125 4.16895 2.8125 4.6875C2.8125 5.20605 3.23145 5.625 3.75 5.625ZM8.4375 2.8125C8.4375 2.29395 8.01855 1.875 7.5 1.875C6.98145 1.875 6.5625 2.29395 6.5625 2.8125C6.5625 3.33105 6.98145 3.75 7.5 3.75C8.01855 3.75 8.4375 3.33105 8.4375 2.8125ZM11.25 5.625C11.7686 5.625 12.1875 5.20605 12.1875 4.6875C12.1875 4.16895 11.7686 3.75 11.25 3.75C10.7314 3.75 10.3125 4.16895 10.3125 4.6875C10.3125 5.20605 10.7314 5.625 11.25 5.625Z" fill="black" fill-opacity="0.5"/>
</g>
<defs>
<clipPath id="clip0_119_2">
<rect width="15" height="15" fill="white"/>
</clipPath>
</defs>
</svg>
