<svg width="20" height="20" viewBox="0 0 20 20" fill="none" xmlns="http://www.w3.org/2000/svg">
<path d="M10.8125 5.9375C10.8125 6.45508 10.3926 6.875 9.875 6.875C9.35742 6.875 8.9375 6.45508 8.9375 5.9375C8.9375 5.41992 9.35742 5 9.875 5C10.3926 5 10.8125 5.41992 10.8125 5.9375ZM8 8.75C8 8.4043 8.2793 8.125 8.625 8.125H9.875C10.2207 8.125 10.5 8.4043 10.5 8.75V13.125H11.125C11.4707 13.125 11.75 13.4043 11.75 13.75C11.75 14.0957 11.4707 14.375 11.125 14.375H8.625C8.2793 14.375 8 14.0957 8 13.75C8 13.4043 8.2793 13.125 8.625 13.125H9.25V9.375H8.625C8.2793 9.375 8 9.0957 8 8.75Z" fill="black" fill-opacity="0.5"/>
<circle cx="10" cy="10" r="9" stroke="black" stroke-opacity="0.5" stroke-width="2"/>
</svg>
