<svg width="5" height="18" viewBox="0 0 5 18" fill="none" xmlns="http://www.w3.org/2000/svg">
<path d="M2.33333 13.3333C3.62083 13.3333 4.66667 14.3792 4.66667 15.6667C4.66667 16.9542 3.62083 18 2.33333 18C1.04583 18 0 16.9542 0 15.6667C0 14.3792 1.04583 13.3333 2.33333 13.3333ZM2.33333 6.66667C3.62083 6.66667 4.66667 7.7125 4.66667 9C4.66667 10.2875 3.62083 11.3333 2.33333 11.3333C1.04583 11.3333 0 10.2875 0 9C0 7.7125 1.04583 6.66667 2.33333 6.66667ZM4.66667 2.33333C4.66667 3.62083 3.62083 4.66667 2.33333 4.66667C1.04583 4.66667 0 3.62083 0 2.33333C0 1.04583 1.04583 0 2.33333 0C3.62083 0 4.66667 1.04583 4.66667 2.33333Z" fill="white"/>
</svg>
