<svg width="15" height="15" viewBox="0 0 15 15" fill="none" xmlns="http://www.w3.org/2000/svg">
<g clip-path="url(#clip0_112_15)">
<path d="M8.4375 0.9375C8.4375 0.418945 8.01855 0 7.5 0C6.98145 0 6.5625 0.418945 6.5625 0.9375V8.04785L4.41211 5.89746C4.0459 5.53125 3.45117 5.53125 3.08496 5.89746C2.71875 6.26367 2.71875 6.8584 3.08496 7.22461L6.83496 10.9746C7.20117 11.3408 7.7959 11.3408 8.16211 10.9746L11.9121 7.22461C12.2783 6.8584 12.2783 6.26367 11.9121 5.89746C11.5459 5.53125 10.9512 5.53125 10.585 5.89746L8.4375 8.04785V0.9375ZM1.875 10.3125C0.84082 10.3125 0 11.1533 0 12.1875V13.125C0 14.1592 0.84082 15 1.875 15H13.125C14.1592 15 15 14.1592 15 13.125V12.1875C15 11.1533 14.1592 10.3125 13.125 10.3125H10.1514L8.82422 11.6396C8.0918 12.3721 6.90527 12.3721 6.17285 11.6396L4.84863 10.3125H1.875ZM12.6562 13.3594C12.2666 13.3594 11.9531 13.0459 11.9531 12.6562C11.9531 12.2666 12.2666 11.9531 12.6562 11.9531C13.0459 11.9531 13.3594 12.2666 13.3594 12.6562C13.3594 13.0459 13.0459 13.3594 12.6562 13.3594Z" fill="black" fill-opacity="0.5"/>
</g>
<defs>
<clipPath id="clip0_112_15">
<rect width="15" height="15" fill="white"/>
</clipPath>
</defs>
</svg>
