<svg width="10" height="14" viewBox="0 0 10 14" fill="none" xmlns="http://www.w3.org/2000/svg">
<g clip-path="url(#clip0_50_22)">
<path d="M1.66667 0C0.747396 0 0 0.747396 0 1.66667V11.6667C0 12.5859 0.747396 13.3333 1.66667 13.3333H8.33333C9.2526 13.3333 10 12.5859 10 11.6667V4.16667H6.66667C6.20573 4.16667 5.83333 3.79427 5.83333 3.33333V0H1.66667ZM6.66667 0V3.33333H10L6.66667 0ZM5.625 10.625C5.625 10.9714 5.34635 11.25 5 11.25C4.65365 11.25 4.375 10.9714 4.375 10.625V7.96615L3.56771 8.77344C3.32292 9.01823 2.92708 9.01823 2.6849 8.77344C2.44271 8.52865 2.4401 8.13281 2.6849 7.89062L4.5599 6.01562C4.80469 5.77083 5.20052 5.77083 5.44271 6.01562L7.31771 7.89062C7.5625 8.13542 7.5625 8.53125 7.31771 8.77344C7.07292 9.01562 6.67708 9.01823 6.4349 8.77344L5.6276 7.96615V10.625H5.625Z" fill="black" fill-opacity="0.5"/>
</g>
<defs>
<clipPath id="clip0_50_22">
<rect width="10" height="13.3333" fill="white"/>
</clipPath>
</defs>
</svg>
