<svg width="15" height="15" viewBox="0 0 15 15" fill="none" xmlns="http://www.w3.org/2000/svg">
<g clip-path="url(#clip0_112_7)">
<path d="M13.0986 2.8125H8.05664L6.6416 1.48682C6.29004 1.13496 5.81543 0.9375 5.31738 0.9375H1.84863C0.812988 0.9375 -0.0263672 1.77715 -0.0263672 2.8125V12.1875C-0.0263672 13.2229 0.812988 14.0625 1.84863 14.0625H13.0986C14.1343 14.0625 14.9736 13.2229 14.9736 12.1875V4.6875C14.9736 3.65332 14.1592 2.8125 13.0986 2.8125ZM13.5674 12.1875C13.5674 12.446 13.3571 12.6562 13.0986 12.6562H1.84863C1.59018 12.6562 1.37988 12.446 1.37988 12.1875V2.8125C1.37988 2.55398 1.59018 2.34375 1.84863 2.34375H5.29102C5.4162 2.34375 5.53397 2.3925 5.62236 2.48109L7.47363 4.21875H13.0986C13.3571 4.21875 13.5674 4.42898 13.5674 4.6875V12.1875Z" fill="black" fill-opacity="0.5"/>
<path d="M10.714 8.80794C10.8771 8.64563 10.8777 8.38141 10.7154 8.21832L8.63794 6.13078C8.47564 5.96769 8.21142 5.96705 8.04833 6.12935C7.88524 6.29166 7.8846 6.55588 8.0469 6.71897L9.41675 8.09414L5.42353 8.08449C5.19315 8.08393 5.00657 8.26961 5.00602 8.49999C5.00546 8.73037 5.19113 8.91694 5.42151 8.9175L9.41343 8.92714L8.03956 10.2957C7.87647 10.458 7.87583 10.7222 8.03814 10.8853C8.20044 11.0484 8.46466 11.049 8.62775 10.8867L10.7153 8.80924L10.714 8.80794Z" fill="black" fill-opacity="0.5"/>
</g>
<defs>
<clipPath id="clip0_112_7">
<rect width="15" height="15" fill="white"/>
</clipPath>
</defs>
</svg>
