<svg width="15" height="15" viewBox="0 0 15 15" fill="none" xmlns="http://www.w3.org/2000/svg">
<g clip-path="url(#clip0_112_14)">
<path d="M13.0986 2.8125H8.05664L6.6416 1.48682C6.29004 1.13496 5.81543 0.9375 5.31738 0.9375H1.84863C0.812988 0.9375 -0.0263672 1.77715 -0.0263672 2.8125V12.1875C-0.0263672 13.2229 0.812988 14.0625 1.84863 14.0625H13.0986C14.1343 14.0625 14.9736 13.2229 14.9736 12.1875V4.6875C14.9736 3.65332 14.1592 2.8125 13.0986 2.8125ZM13.5674 12.1875C13.5674 12.446 13.3571 12.6562 13.0986 12.6562H1.84863C1.59018 12.6562 1.37988 12.446 1.37988 12.1875V2.8125C1.37988 2.55398 1.59018 2.34375 1.84863 2.34375H5.29102C5.4162 2.34375 5.53397 2.3925 5.62236 2.48109L7.47363 4.21875H13.0986C13.3571 4.21875 13.5674 4.42898 13.5674 4.6875V12.1875Z" fill="black" fill-opacity="0.5"/>
<g clip-path="url(#clip1_112_14)">
<path d="M7.99805 6.33984C7.88574 6.38965 7.8125 6.50195 7.8125 6.625V7.25H6.71875C5.76953 7.25 5 8.01953 5 8.96875C5 10.0752 5.7959 10.5693 5.97852 10.6689C6.00293 10.6826 6.03027 10.6875 6.05762 10.6875C6.16406 10.6875 6.25 10.6006 6.25 10.4951C6.25 10.4219 6.20801 10.3545 6.1543 10.3047C6.0625 10.2178 5.9375 10.0469 5.9375 9.75C5.9375 9.23242 6.35742 8.8125 6.875 8.8125H7.8125V9.4375C7.8125 9.56055 7.88477 9.67285 7.99805 9.72266C8.11133 9.77246 8.24219 9.75195 8.33398 9.66992L9.89648 8.26367C9.96191 8.2041 10 8.12012 10 8.03125C10 7.94238 9.96289 7.8584 9.89648 7.79883L8.33398 6.39258C8.24219 6.30957 8.11035 6.28906 7.99805 6.33984V6.33984Z" fill="black" fill-opacity="0.5"/>
</g>
</g>
<defs>
<clipPath id="clip0_112_14">
<rect width="15" height="15" fill="white"/>
</clipPath>
<clipPath id="clip1_112_14">
<rect width="5" height="5" fill="white" transform="translate(5 6)"/>
</clipPath>
</defs>
</svg>
