<svg width="15" height="15" viewBox="0 0 15 15" fill="none" xmlns="http://www.w3.org/2000/svg">
<g clip-path="url(#clip0_50_28)">
<path d="M1.875 14.0625H13.125C14.1592 14.0625 15 13.2217 15 12.1875V4.6875C15 3.65332 14.1592 2.8125 13.125 2.8125H8.74512C8.24707 2.8125 7.76953 2.61621 7.41797 2.26465L6.6416 1.48535C6.29004 1.13379 5.8125 0.9375 5.31445 0.9375H1.875C0.84082 0.9375 0 1.77832 0 2.8125V12.1875C0 13.2217 0.84082 14.0625 1.875 14.0625Z" fill="black" fill-opacity="0.5"/>
<path d="M7.79525 5.12207C7.63249 4.95931 7.36816 4.95931 7.2054 5.12207L5.12207 7.2054C4.95931 7.36816 4.95931 7.63249 5.12207 7.79525C5.28483 7.95801 5.54915 7.95801 5.71191 7.79525L7.08431 6.42155V10.4163C7.08431 10.6468 7.27051 10.833 7.50098 10.833C7.73145 10.833 7.91764 10.6468 7.91764 10.4163V6.42155L9.29004 7.79395C9.4528 7.95671 9.71712 7.95671 9.87988 7.79395C10.0426 7.63118 10.0426 7.36686 9.87988 7.2041L7.79655 5.12077L7.79525 5.12207Z" fill="white"/>
</g>
<defs>
<clipPath id="clip0_50_28">
<rect width="15" height="15" fill="white"/>
</clipPath>
</defs>
</svg>
