<svg width="15" height="15" viewBox="0 0 15 15" fill="none" xmlns="http://www.w3.org/2000/svg">
<g clip-path="url(#clip0_49_20)">
<path d="M15 12.1875C15 13.2217 14.1592 14.0625 13.125 14.0625H1.875C0.84082 14.0625 0 13.2217 0 12.1875V2.8125C0 1.77832 0.84082 0.9375 1.875 0.9375H5.31738C5.81543 0.9375 6.29297 1.13379 6.64453 1.48535L7.4209 2.26172C7.77246 2.61328 8.25 2.80957 8.74805 2.80957H13.125C14.1592 2.80957 15 3.65039 15 4.68457V12.1875ZM6.79688 11.0156C6.79688 11.4053 7.11035 11.7188 7.5 11.7188C7.88965 11.7188 8.20312 11.4053 8.20312 11.0156V9.14062H10.0781C10.4678 9.14062 10.7812 8.82715 10.7812 8.4375C10.7812 8.04785 10.4678 7.73438 10.0781 7.73438H8.20312V5.85938C8.20312 5.46973 7.88965 5.15625 7.5 5.15625C7.11035 5.15625 6.79688 5.46973 6.79688 5.85938V7.73438H4.92188C4.53223 7.73438 4.21875 8.04785 4.21875 8.4375C4.21875 8.82715 4.53223 9.14062 4.92188 9.14062H6.79688V11.0156Z" fill="black" fill-opacity="0.5"/>
</g>
<defs>
<clipPath id="clip0_49_20">
<rect width="15" height="15" fill="white"/>
</clipPath>
</defs>
</svg>
