<svg width="17" height="15" viewBox="0 0 17 15" fill="none" xmlns="http://www.w3.org/2000/svg">
<g clip-path="url(#clip0_112_2)">
<path d="M16.7754 7.91894L13.9629 13.5439C13.8047 13.8633 13.4795 14.0625 13.0986 14.0625H1.875C0.839356 14.0625 0 13.2229 0 12.1875V2.8125C0 1.77715 0.839356 0.9375 1.875 0.9375H5.31738C5.81455 0.9375 6.2915 1.13502 6.64336 1.48682L8.08301 2.8125H12.1875C13.2231 2.8125 14.0625 3.65215 14.0625 4.6875V5.625H12.6562V4.6875C12.6562 4.42898 12.446 4.21875 12.1875 4.21875H7.5L5.64844 2.48115C5.56055 2.39238 5.44336 2.34375 5.31738 2.34375H1.875C1.6166 2.34375 1.40625 2.5541 1.40625 2.8125V11.25L3.49102 7.08105C3.65039 6.76172 3.97559 6.5625 4.33008 6.5625H15.9375C16.6318 6.5625 17.0859 7.29492 16.7754 7.91894Z" fill="black" fill-opacity="0.5"/>
</g>
<defs>
<clipPath id="clip0_112_2">
<rect width="16.875" height="15" fill="white"/>
</clipPath>
</defs>
</svg>
