<svg width="14" height="13" viewBox="0 0 14 13" fill="none" xmlns="http://www.w3.org/2000/svg">
<path d="M13.02 6.28896C13.0273 5.86583 12.9835 5.4427 12.8911 5.03174H7.11328V7.31516H10.5056C10.3767 8.12493 9.92196 8.84473 9.24836 9.31163L9.2362 9.38701L11.0625 10.8023L11.1889 10.8145C12.3489 9.74205 13.02 8.16384 13.02 6.28896Z" fill="#4285F4"/>
<path d="M7.11393 12.3051C8.77482 12.3051 10.1706 11.758 11.1896 10.8144L9.24901 9.30918C8.61919 9.73231 7.87264 9.94631 7.11636 9.92442C5.52113 9.91469 4.11071 8.88363 3.61464 7.36621L3.54168 7.37351L1.64248 8.84229L1.61816 8.91038C2.65896 10.9944 4.78674 12.3075 7.11393 12.3051Z" fill="#34A853"/>
<path d="M3.61155 7.36836C3.4778 6.97685 3.40728 6.56588 3.40728 6.15005C3.40972 5.73666 3.4778 5.32569 3.60669 4.93174L3.60426 4.8515L1.68074 3.3584L1.61751 3.38758C0.742079 5.12628 0.742079 7.17382 1.61751 8.91253L3.61155 7.36836Z" fill="#FBBC05"/>
<path d="M7.11391 2.37863C7.99664 2.36404 8.84775 2.69232 9.49217 3.2954L11.2284 1.60046C10.1147 0.55481 8.63862 -0.0166527 7.11148 0.000369632C4.78429 0.000369632 2.6565 1.31109 1.61328 3.39267L3.60246 4.93683C4.1034 3.41942 5.51625 2.38835 7.11391 2.37863Z" fill="#EB4335"/>
</svg>
