<svg width="20" height="18" viewBox="0 0 20 18" fill="none" xmlns="http://www.w3.org/2000/svg">
<path d="M2.5 0C1.12109 0 0 1.12109 0 2.5V15C0 16.3789 1.12109 17.5 2.5 17.5H17.5C18.8789 17.5 20 16.3789 20 15V2.5C20 1.12109 18.8789 0 17.5 0H2.5ZM5.9375 2.5V5H2.5V2.5H5.9375ZM8.125 2.5H11.5625V5H8.125V2.5ZM17.5 2.5V5H14.0625V2.5H17.5ZM2.5 7.5H5.9375V10H2.5V7.5ZM11.5625 7.5V10H8.125V7.5H11.5625ZM14.0625 7.5H17.5V10H14.0625V7.5ZM5.9375 12.5V15H2.5V12.5H5.9375ZM8.125 12.5H11.5625V15H8.125V12.5ZM17.5 12.5V15H14.0625V12.5H17.5Z" fill="black" fill-opacity="0.5"/>
</svg>
