<svg width="19" height="15" viewBox="0 0 19 15" fill="none" xmlns="http://www.w3.org/2000/svg">
<g clip-path="url(#clip0_125_2)">
<path d="M1.13676 0.149415C0.832074 -0.0908197 0.389691 -0.0351556 0.149457 0.269532C-0.0907777 0.574219 -0.0351136 1.0166 0.269574 1.25684L17.6133 14.8506C17.918 15.0908 18.3604 15.0352 18.6006 14.7305C18.8409 14.4258 18.7852 13.9834 18.4805 13.7432L15.3985 11.3291C16.5586 10.1396 17.3438 8.80664 17.7393 7.86035C17.836 7.62891 17.836 7.37109 17.7393 7.13965C17.3028 6.09375 16.3858 4.57031 15.0147 3.29883C13.6377 2.01563 11.7422 0.937501 9.37504 0.937501C7.377 0.937501 5.71293 1.70801 4.41508 2.71875L1.13676 0.149415ZM6.53618 4.37988C7.28325 3.69727 8.28227 3.28125 9.37504 3.28125C11.7041 3.28125 13.5938 5.1709 13.5938 7.5C13.5938 8.22949 13.4092 8.91504 13.084 9.5127L11.9532 8.62793C12.1055 8.28223 12.1875 7.90137 12.1875 7.5C12.1875 5.94727 10.9278 4.6875 9.37504 4.6875C9.29301 4.6875 9.21098 4.69043 9.12895 4.69922C9.28422 4.97168 9.37504 5.28809 9.37504 5.625C9.37504 5.92383 9.30473 6.20508 9.18168 6.4541L6.53618 4.37988V4.37988ZM13.0723 13.1104L10.9278 11.4229C10.4473 11.6133 9.92289 11.7188 9.37504 11.7188C7.04594 11.7188 5.15629 9.8291 5.15629 7.5C5.15629 7.29785 5.17094 7.10156 5.19731 6.9082L2.43461 4.73145C1.76664 5.60156 1.28911 6.46875 1.01078 7.13965C0.914105 7.37109 0.914105 7.62891 1.01078 7.86035C1.44731 8.90625 2.3643 10.4297 3.73539 11.7012C5.11235 12.9844 7.00785 14.0625 9.37504 14.0625C10.7754 14.0625 12.0088 13.6846 13.0723 13.1104Z" fill="black" fill-opacity="0.5"/>
</g>
<defs>
<clipPath id="clip0_125_2">
<rect width="18.75" height="15" fill="white"/>
</clipPath>
</defs>
</svg>
