<svg width="15" height="15" viewBox="0 0 15 15" fill="none" xmlns="http://www.w3.org/2000/svg">
<g clip-path="url(#clip0_3081_65)">
<path d="M7.67999 7.91816C8.29526 8.54227 8.91133 9.16584 9.53035 9.78619C9.67365 9.92977 9.85472 9.9895 10.057 9.95441C10.2988 9.91262 10.4689 9.77441 10.5437 9.53923C10.6203 9.29869 10.5578 9.08548 10.3811 8.90682C9.87615 8.39575 9.37231 7.88361 8.86285 7.37709C8.77124 7.28602 8.73106 7.19655 8.73187 7.0653C8.73776 6.18887 8.73696 5.31245 8.73401 4.43575C8.73267 4.05352 8.47071 3.78352 8.11553 3.78486C7.76222 3.7862 7.50722 4.06048 7.50642 4.44325C7.50535 4.94146 7.50615 5.43941 7.50615 5.93762C7.50615 6.44521 7.50696 6.95307 7.50562 7.46066C7.50535 7.63664 7.55651 7.79307 7.67999 7.91816Z" fill="#130F40" fill-opacity="0.7"/>
<path d="M14.8495 6.96777C14.846 6.95331 14.8433 6.93858 14.8422 6.92358C14.7884 6.24616 14.6287 5.5942 14.3804 4.96125C13.2702 2.12706 10.2571 0.355719 7.24821 0.827415C4.78955 1.21259 3.05464 2.58483 2.03866 4.85679C1.90875 5.14742 1.81928 5.45625 1.70732 5.7667C1.67732 5.72331 1.64732 5.68152 1.61866 5.63893C1.49143 5.44768 1.37089 5.25108 1.23616 5.06545C1.09125 4.86563 0.855535 4.78286 0.631338 4.82572C0.552588 4.84018 0.475445 4.87072 0.403927 4.91679C0.119195 5.10027 0.0650881 5.49643 0.216427 5.73108C0.249106 5.7817 0.282052 5.83286 0.315267 5.88349C0.739552 6.54027 1.17053 7.19277 1.60928 7.84045C1.79678 8.11768 2.15009 8.19349 2.42357 8.01402C3.1283 7.55224 3.82768 7.08188 4.52062 6.60242C4.80937 6.40233 4.84178 5.99063 4.61625 5.72358C4.41348 5.48304 4.07464 5.43697 3.79902 5.61831C3.49607 5.81733 3.19634 6.02224 2.87839 6.23625C2.88723 6.19259 2.89018 6.16929 2.89607 6.14706C3.66964 3.22822 6.67821 1.46679 9.6225 2.28483C12.5336 3.09375 14.213 6.03108 13.4563 8.9475C12.7366 11.7222 9.93161 13.4778 7.12366 12.9046C5.6933 12.6123 4.56214 11.8556 3.7133 10.6704C3.49821 10.3696 3.12402 10.3039 2.84223 10.5091C2.56259 10.7124 2.50795 11.0772 2.71286 11.3759C4.35991 13.7821 7.51286 14.8575 10.2702 13.9013C12.7071 13.0559 14.1908 11.344 14.7378 8.83607C14.8219 8.39063 14.8661 7.93072 14.8661 7.46116C14.8661 7.29536 14.8607 7.13063 14.8495 6.96777Z" fill="#130F40" fill-opacity="0.7"/>
</g>
<defs>
<clipPath id="clip0_3081_65">
<rect width="15" height="15" fill="white"/>
</clipPath>
</defs>
</svg>
