<svg width="100" height="101" viewBox="0 0 100 101" fill="none" xmlns="http://www.w3.org/2000/svg">
<circle cx="50" cy="50.7998" r="50" fill="#31C97A"/>
<path fill-rule="evenodd" clip-rule="evenodd" d="M28.4178 58.5615L39.7759 71.8996C40.4861 72.7509 41.4267 73.3905 42.4802 73.7338C44.0369 74.223 46.191 74.19 48.0393 71.5516L73.4081 31.9981C73.5962 31.7065 73.742 31.3867 73.836 31.0575C74.2123 29.7641 74.1323 26.9281 71.3152 28.0616C70.5344 28.3814 69.8431 28.894 69.3116 29.5478L45.4008 58.3216C44.4837 59.4269 42.847 59.5774 41.7418 58.6603C41.6383 58.5756 41.5396 58.4815 41.4502 58.3781L36.1121 52.311C35.0304 51.0506 33.4831 50.284 31.8229 50.1805C30.031 50.1052 27.9616 50.632 27.2044 53.2469C26.6964 55.1141 27.1479 57.1035 28.4178 58.5615V58.5615Z" fill="white"/>
</svg>
