<svg width="23" height="20" viewBox="0 0 23 20" fill="none" xmlns="http://www.w3.org/2000/svg">
<path d="M0 2.85714C0 1.28125 1.28125 0 2.85714 0H20C21.5759 0 22.8571 1.28125 22.8571 2.85714V17.1429C22.8571 18.7187 21.5759 20 20 20H2.85714C1.28125 20 0 18.7187 0 17.1429V2.85714ZM14.4554 7.61161C14.2545 7.31696 13.9241 7.14286 13.5714 7.14286C13.2188 7.14286 12.8839 7.31696 12.6875 7.61161L8.80357 13.308L7.62054 11.8304C7.41518 11.5759 7.10714 11.4286 6.78571 11.4286C6.46429 11.4286 6.15179 11.5759 5.95089 11.8304L3.09375 15.4018C2.83482 15.7232 2.78571 16.1652 2.96429 16.5357C3.14286 16.9063 3.51786 17.1429 3.92857 17.1429H8.21429H9.64286H18.9286C19.3259 17.1429 19.692 16.9241 19.875 16.5714C20.058 16.2188 20.0357 15.7946 19.8125 15.4688L14.4554 7.61161ZM5 7.14286C6.18304 7.14286 7.14286 6.18304 7.14286 5C7.14286 3.81696 6.18304 2.85714 5 2.85714C3.81696 2.85714 2.85714 3.81696 2.85714 5C2.85714 6.18304 3.81696 7.14286 5 7.14286Z" fill="#AE00B9"/>
</svg>
