<svg width="15" height="15" viewBox="0 0 15 15" fill="none" xmlns="http://www.w3.org/2000/svg">
<g clip-path="url(#clip0_126_6)">
<path d="M1.875 14.0625H13.125C14.1592 14.0625 15 13.2217 15 12.1875V4.6875C15 3.65332 14.1592 2.8125 13.125 2.8125H8.74512C8.24707 2.8125 7.76953 2.61621 7.41797 2.26465L6.6416 1.48535C6.29004 1.13379 5.8125 0.9375 5.31445 0.9375H1.875C0.84082 0.9375 0 1.77832 0 2.8125V12.1875C0 13.2217 0.84082 14.0625 1.875 14.0625Z" fill="black" fill-opacity="0.5"/>
<g clip-path="url(#clip1_126_6)">
<path d="M6.40625 7.40625V7.875H7.96875V7.40625C7.96875 6.97461 7.61914 6.625 7.1875 6.625C6.75586 6.625 6.40625 6.97461 6.40625 7.40625ZM5.78125 7.875V7.40625C5.78125 6.62988 6.41113 6 7.1875 6C7.96387 6 8.59375 6.62988 8.59375 7.40625V7.875H8.75C9.09473 7.875 9.375 8.15527 9.375 8.5V10.375C9.375 10.7197 9.09473 11 8.75 11H5.625C5.28027 11 5 10.7197 5 10.375V8.5C5 8.15527 5.28027 7.875 5.625 7.875H5.78125Z" fill="white"/>
</g>
</g>
<defs>
<clipPath id="clip0_126_6">
<rect width="15" height="15" fill="white"/>
</clipPath>
<clipPath id="clip1_126_6">
<rect width="4.375" height="5" fill="white" transform="translate(5 6)"/>
</clipPath>
</defs>
</svg>
