<svg width="14" height="15" viewBox="0 0 14 15" fill="none" xmlns="http://www.w3.org/2000/svg">
<g clip-path="url(#clip0_125_4)">
<path d="M4.21875 4.21875V5.625H8.90625V4.21875C8.90625 2.92383 7.85742 1.875 6.5625 1.875C5.26758 1.875 4.21875 2.92383 4.21875 4.21875ZM2.34375 5.625V4.21875C2.34375 1.88965 4.2334 0 6.5625 0C8.8916 0 10.7812 1.88965 10.7812 4.21875V5.625H11.25C12.2842 5.625 13.125 6.46582 13.125 7.5V13.125C13.125 14.1592 12.2842 15 11.25 15H1.875C0.84082 15 0 14.1592 0 13.125V7.5C0 6.46582 0.84082 5.625 1.875 5.625H2.34375Z" fill="black" fill-opacity="0.5"/>
</g>
<defs>
<clipPath id="clip0_125_4">
<rect width="13.125" height="15" fill="white"/>
</clipPath>
</defs>
</svg>
