<svg width="20" height="18" viewBox="0 0 20 18" fill="none" xmlns="http://www.w3.org/2000/svg">
<path d="M13.3333 0.832165C13.3333 0.498832 13.5313 0.200221 13.8368 0.0682767C14.1424 -0.0636678 14.4965 -0.00116777 14.7396 0.227999L19.7396 4.95022C19.9063 5.10647 20 5.32522 20 5.55439C20 5.78355 19.9063 6.0023 19.7396 6.15855L14.7396 10.8808C14.4965 11.1099 14.1424 11.1724 13.8368 11.0405C13.5313 10.9086 13.3333 10.6065 13.3333 10.2766V7.77661H12.2222H11.7188C10.1563 7.77661 8.88889 9.04397 8.88889 10.6065C8.88889 11.3808 9.24653 11.7974 9.55556 12.0127C9.79167 12.1759 10 12.4294 10 12.7176C10 13.0579 9.72222 13.3356 9.38195 13.3356H9.29514C9.21181 13.3356 9.12847 13.3217 9.04861 13.287C8.43056 13.0127 5.55556 11.5752 5.55556 8.33217C5.55556 5.57175 7.79514 3.33217 10.5556 3.33217H13.3333V0.832165ZM0 4.99883C0 3.46411 1.24306 2.22105 2.77778 2.22105H3.33333C3.94792 2.22105 4.44444 2.71758 4.44444 3.33217C4.44444 3.94675 3.94792 4.44328 3.33333 4.44328H2.77778C2.47222 4.44328 2.22222 4.69328 2.22222 4.99883V14.9988C2.22222 15.3044 2.47222 15.5544 2.77778 15.5544H12.7778C13.0833 15.5544 13.3333 15.3044 13.3333 14.9988V14.4433C13.3333 13.8287 13.8299 13.3322 14.4444 13.3322C15.059 13.3322 15.5556 13.8287 15.5556 14.4433V14.9988C15.5556 16.5336 14.3125 17.7766 12.7778 17.7766H2.77778C1.24306 17.7766 0 16.5336 0 14.9988V4.99883Z" fill="black" fill-opacity="0.5"/>
</svg>
