<svg width="15" height="20" viewBox="0 0 15 20" fill="none" xmlns="http://www.w3.org/2000/svg">
<path d="M2.5 0C1.12109 0 0 1.12109 0 2.5V17.5C0 18.8789 1.12109 20 2.5 20H12.5C13.8789 20 15 18.8789 15 17.5V6.25H10C9.30859 6.25 8.75 5.69141 8.75 5V0H2.5ZM10 0V5H15L10 0ZM2.5 8.75H3.4375C4.64453 8.75 5.625 9.73047 5.625 10.9375C5.625 12.1445 4.64453 13.125 3.4375 13.125H3.125V14.375C3.125 14.7188 2.84375 15 2.5 15C2.15625 15 1.875 14.7188 1.875 14.375V12.5V9.375C1.875 9.03125 2.15625 8.75 2.5 8.75ZM3.4375 11.875C3.95703 11.875 4.375 11.457 4.375 10.9375C4.375 10.418 3.95703 10 3.4375 10H3.125V11.875H3.4375ZM6.25 9.375C6.25 9.03125 6.53125 8.75 6.875 8.75H7.8125C8.84766 8.75 9.6875 9.58984 9.6875 10.625V13.125C9.6875 14.1602 8.84766 15 7.8125 15H6.875C6.53125 15 6.25 14.7188 6.25 14.375V9.375ZM7.5 13.75H7.8125C8.15625 13.75 8.4375 13.4688 8.4375 13.125V10.625C8.4375 10.2812 8.15625 10 7.8125 10H7.5V13.75ZM11.25 8.75H13.125C13.4688 8.75 13.75 9.03125 13.75 9.375C13.75 9.71875 13.4688 10 13.125 10H11.875V11.25H13.125C13.4688 11.25 13.75 11.5312 13.75 11.875C13.75 12.2188 13.4688 12.5 13.125 12.5H11.875V14.375C11.875 14.7188 11.5938 15 11.25 15C10.9062 15 10.625 14.7188 10.625 14.375V11.875V9.375C10.625 9.03125 10.9062 8.75 11.25 8.75Z" fill="#AE00B9"/>
</svg>
