<svg width="25" height="25" viewBox="0 0 25 25" fill="none" xmlns="http://www.w3.org/2000/svg">
<path d="M14.4231 1.92308C14.4231 0.859375 13.5637 0 12.5 0C11.4363 0 10.5769 0.859375 10.5769 1.92308V10.5769H1.92308C0.859375 10.5769 0 11.4363 0 12.5C0 13.5637 0.859375 14.4231 1.92308 14.4231H10.5769V23.0769C10.5769 24.1406 11.4363 25 12.5 25C13.5637 25 14.4231 24.1406 14.4231 23.0769V14.4231H23.0769C24.1406 14.4231 25 13.5637 25 12.5C25 11.4363 24.1406 10.5769 23.0769 10.5769H14.4231V1.92308Z" fill="#AE00B9"/>
</svg>
