<svg width="20" height="20" viewBox="0 0 20 20" fill="none" xmlns="http://www.w3.org/2000/svg">
<g clip-path="url(#clip0_121_5)">
<path d="M5 0C3.62109 0 2.5 1.12109 2.5 2.5V6.25H5V2.5H13.8555L15 3.64453V6.25H17.5V3.64453C17.5 2.98047 17.2383 2.34375 16.7695 1.875L15.625 0.730469C15.1562 0.261719 14.5195 0 13.8555 0H5ZM15 13.75V15V17.5H5V15V14.375V13.75H15ZM17.5 15H18.75C19.4414 15 20 14.4414 20 13.75V10C20 8.62109 18.8789 7.5 17.5 7.5H2.5C1.12109 7.5 0 8.62109 0 10V13.75C0 14.4414 0.558594 15 1.25 15H2.5V17.5C2.5 18.8789 3.62109 20 5 20H15C16.3789 20 17.5 18.8789 17.5 17.5V15ZM16.875 11.5625C16.3555 11.5625 15.9375 11.1445 15.9375 10.625C15.9375 10.1055 16.3555 9.6875 16.875 9.6875C17.3945 9.6875 17.8125 10.1055 17.8125 10.625C17.8125 11.1445 17.3945 11.5625 16.875 11.5625Z" fill="white"/>
</g>
<defs>
<clipPath id="clip0_121_5">
<rect width="20" height="20" fill="white"/>
</clipPath>
</defs>
</svg>
