<svg width="17" height="15" viewBox="0 0 17 15" fill="none" xmlns="http://www.w3.org/2000/svg">
<g clip-path="url(#clip0_112_17)">
<path d="M1.875 0C0.84082 0 0 0.84082 0 1.875V13.125C0 14.1592 0.84082 15 1.875 15H9.375C10.4092 15 11.25 14.1592 11.25 13.125V12.5596C11.1709 12.5918 11.0918 12.6182 11.0098 12.6387L9.24902 13.0781C9.16113 13.0986 9.07324 13.1133 8.98535 13.1191C8.95898 13.1221 8.93262 13.125 8.90625 13.125H7.03125C6.85254 13.125 6.69141 13.0254 6.6123 12.8672L6.35449 12.3486C6.30469 12.249 6.20508 12.1875 6.09668 12.1875C5.98828 12.1875 5.88574 12.249 5.83887 12.3486L5.58105 12.8672C5.49609 13.04 5.31152 13.1426 5.12109 13.125C4.93066 13.1074 4.7666 12.9756 4.71387 12.7939L4.21875 11.1621L3.93164 12.123C3.75293 12.7178 3.20508 13.125 2.58398 13.125H2.34375C2.08594 13.125 1.875 12.9141 1.875 12.6562C1.875 12.3984 2.08594 12.1875 2.34375 12.1875H2.58398C2.79199 12.1875 2.97363 12.0527 3.03223 11.8535L3.46875 10.4033C3.56836 10.0723 3.87305 9.84375 4.21875 9.84375C4.56445 9.84375 4.86914 10.0723 4.96875 10.4033L5.30859 11.5342C5.52539 11.3525 5.80078 11.25 6.09375 11.25C6.55957 11.25 6.98437 11.5137 7.19238 11.9297L7.32129 12.1875H7.58203C7.49121 11.9297 7.47363 11.6484 7.54101 11.373L7.98047 9.6123C8.0625 9.28125 8.23242 8.98242 8.47266 8.74219L11.25 5.96484V4.6875H7.5C6.98144 4.6875 6.5625 4.26855 6.5625 3.75V0H1.875ZM7.5 0V3.75H11.25L7.5 0ZM16.1074 4.09277C15.6504 3.63574 14.9092 3.63574 14.4492 4.09277L13.5879 4.9541L15.668 7.03418L16.5293 6.17285C16.9863 5.71582 16.9863 4.97461 16.5293 4.51465L16.1074 4.09277ZM9.13769 9.4043C9.01758 9.52441 8.93262 9.67383 8.8916 9.84082L8.45215 11.6016C8.41113 11.7627 8.45801 11.9297 8.5752 12.0469C8.69238 12.1641 8.85937 12.2109 9.02051 12.1699L10.7812 11.7305C10.9453 11.6895 11.0977 11.6045 11.2178 11.4844L15.0029 7.69629L12.9229 5.61621L9.13769 9.4043Z" fill="black" fill-opacity="0.5"/>
</g>
<defs>
<clipPath id="clip0_112_17">
<rect width="16.875" height="15" fill="white"/>
</clipPath>
</defs>
</svg>
