<svg width="16" height="18" viewBox="0 0 16 18" fill="none" xmlns="http://www.w3.org/2000/svg">
<g clip-path="url(#clip0_114_6)">
<path d="M5.75859 0H9.99141C10.4168 0 10.807 0.239063 10.9969 0.622266L11.25 1.125H14.625C15.2473 1.125 15.75 1.62773 15.75 2.25C15.75 2.87227 15.2473 3.375 14.625 3.375H1.125C0.502734 3.375 0 2.87227 0 2.25C0 1.62773 0.502734 1.125 1.125 1.125H4.5L4.75312 0.622266C4.94297 0.239063 5.3332 0 5.75859 0ZM1.125 4.5H14.625V15.75C14.625 16.991 13.616 18 12.375 18H3.375C2.13398 18 1.125 16.991 1.125 15.75V4.5ZM7.875 6.75C7.65 6.75 7.43555 6.83789 7.27734 6.99609L4.46484 9.80859C4.13438 10.1391 4.13438 10.6734 4.46484 11.0004C4.79531 11.3273 5.32969 11.3309 5.65664 11.0004L7.02773 9.6293V14.3438C7.02773 14.8113 7.40391 15.1875 7.87148 15.1875C8.33906 15.1875 8.71523 14.8113 8.71523 14.3438V9.6293L10.0863 11.0004C10.4168 11.3309 10.9512 11.3309 11.2781 11.0004C11.6051 10.6699 11.6086 10.1355 11.2781 9.80859L8.46563 6.99609C8.30742 6.83789 8.09297 6.75 7.86797 6.75H7.875Z" fill="black" fill-opacity="0.5"/>
</g>
<defs>
<clipPath id="clip0_114_6">
<rect width="15.75" height="18" fill="white"/>
</clipPath>
</defs>
</svg>
