<svg width="20" height="18" viewBox="0 0 20 18" fill="none" xmlns="http://www.w3.org/2000/svg">
<path d="M0 2.5C0 1.12109 1.12109 0 2.5 0H17.5C18.8789 0 20 1.12109 20 2.5V9.70312C19.3359 9.10937 18.4609 8.75 17.5 8.75H2.5C1.53906 8.75 0.664062 9.10937 0 9.70312V2.5ZM2.5 10H17.5C18.8789 10 20 11.1211 20 12.5V15C20 16.3789 18.8789 17.5 17.5 17.5H2.5C1.12109 17.5 0 16.3789 0 15V12.5C0 11.1211 1.12109 10 2.5 10ZM12.5 15C13.1914 15 13.75 14.4414 13.75 13.75C13.75 13.0586 13.1914 12.5 12.5 12.5C11.8086 12.5 11.25 13.0586 11.25 13.75C11.25 14.4414 11.8086 15 12.5 15ZM17.5 13.75C17.5 13.0586 16.9414 12.5 16.25 12.5C15.5586 12.5 15 13.0586 15 13.75C15 14.4414 15.5586 15 16.25 15C16.9414 15 17.5 14.4414 17.5 13.75Z" fill="black" fill-opacity="0.5"/>
</svg>
