<svg width="16" height="17" viewBox="0 0 16 17" fill="none" xmlns="http://www.w3.org/2000/svg">
<path fill-rule="evenodd" clip-rule="evenodd" d="M11.4672 0.681641C14.1784 0.681641 16 2.58404 16 5.41444V11.9488C16 14.7792 14.1784 16.6816 11.4664 16.6816H4.532C1.8208 16.6816 0 14.7792 0 11.9488V5.41444C0 2.58404 1.8208 0.681641 4.532 0.681641H11.4672ZM11.4672 1.88164H4.532C2.508 1.88164 1.2 3.26804 1.2 5.41444V11.9488C1.2 14.0952 2.508 15.4816 4.532 15.4816H11.4664C13.4912 15.4816 14.8 14.0952 14.8 11.9488V5.41444C14.8 3.26804 13.492 1.88164 11.4672 1.88164ZM7.99928 4.58852C8.33048 4.58852 8.59928 4.85732 8.59928 5.18852V8.33732L11.0201 9.77972C11.3041 9.95012 11.3977 10.3181 11.2281 10.6029C11.1153 10.7909 10.9161 10.8957 10.7121 10.8957C10.6073 10.8957 10.5017 10.8685 10.4049 10.8117L7.69208 9.19332C7.51128 9.08452 7.39928 8.88852 7.39928 8.67812V5.18852C7.39928 4.85732 7.66808 4.58852 7.99928 4.58852Z" fill="black"/>
</svg>
