<svg width="23" height="20" viewBox="0 0 23 20" fill="none" xmlns="http://www.w3.org/2000/svg">
<path d="M20 0H16.1563L16.1116 0.0446429L10.442 5.71429H14.5536L14.5982 5.66964L20.2589 0.0133928C20.1741 0.00446425 20.0893 0 20 0V0ZM22.8571 5.71429V2.85714C22.8571 2.18304 22.6205 1.55804 22.2321 1.07143L17.5893 5.71429H22.8571ZM13.1295 0H9.01339L8.96875 0.0446429L3.29911 5.71429H7.41071L7.45536 5.66964L13.125 0H13.1295ZM2.85714 0C1.28125 0 0 1.28125 0 2.85714V5.71429H0.272321L0.316964 5.66964L5.98661 0H2.85714ZM22.8571 7.14286H0V17.1429C0 18.7188 1.28125 20 2.85714 20H20C21.5759 20 22.8571 18.7188 22.8571 17.1429V7.14286Z" fill="#AE00B9"/>
</svg>
