<svg width="20" height="20" viewBox="0 0 20 20" fill="none" xmlns="http://www.w3.org/2000/svg">
<circle cx="10" cy="10" r="9.5" stroke="#130F40" stroke-opacity="0.5"/>
<path d="M14.7398 6.54558C14.5118 6.07286 14.1878 5.63558 13.7798 5.26922C13.3838 4.89104 12.9278 4.6074 12.3878 4.39468C11.8718 4.18195 11.3078 4.0874 10.7318 4.0874H9.38783C8.82383 4.0874 8.25983 4.19377 7.70783 4.40649C7.16783 4.6074 6.67583 4.90286 6.27983 5.26922C5.87183 5.62377 5.53583 6.04922 5.29583 6.54558C5.04383 7.03013 4.92383 7.55013 4.92383 8.09377V10.9183C4.92383 11.4619 5.01983 11.9938 5.21183 12.4783C5.40383 12.9629 5.66783 13.3765 6.01583 13.7547C6.35183 14.0974 6.77183 14.381 7.26383 14.6056C7.75583 14.8183 8.29583 14.9129 8.84783 14.9129H12.5078H13.4798C13.7798 14.9129 14.0198 14.6765 14.0198 14.381C14.0198 14.0974 13.7798 13.8492 13.4798 13.8492H12.5078L9.08783 13.8729C8.72783 13.8729 8.35583 13.8019 7.99583 13.6719C7.62383 13.5183 7.33583 13.3174 7.09583 13.0692C6.83183 12.8092 6.61583 12.5019 6.47183 12.171C6.31583 11.8283 6.24383 11.4383 6.24383 10.9892V8.31831C6.24383 7.94013 6.32783 7.55013 6.47183 7.2074C6.66383 6.8174 6.87983 6.49831 7.11983 6.25013C7.40783 5.97831 7.71983 5.75377 8.06783 5.58831C8.43983 5.42286 8.82383 5.32831 9.21983 5.32831H10.8878C11.2958 5.32831 11.6798 5.42286 12.0398 5.58831C12.3998 5.73013 12.7118 5.95468 12.9998 6.23831C13.2758 6.49831 13.4918 6.8174 13.6478 7.17195C13.8158 7.52649 13.8998 7.91649 13.8998 8.30649L13.8638 11.1429C13.7318 11.4383 13.5038 11.4147 13.4678 11.4147C13.3358 11.3674 13.2518 11.3319 13.1918 11.2729C13.0478 11.1783 12.8798 11.0601 12.6878 10.8947C12.4718 10.6819 12.3758 10.4929 12.3758 10.3274V7.13649H11.5118V7.63286C11.2478 7.42013 10.9118 7.30195 10.5638 7.30195H9.11183C9.06383 7.30195 9.01583 7.30195 8.95583 7.32558L8.94383 7.3374C8.91983 7.3374 8.89583 7.3374 8.87183 7.34922H8.85983C8.16383 7.4674 7.64783 8.05831 7.64783 8.73195V10.8238C7.64783 11.6156 8.30783 12.2656 9.11183 12.2656H10.6838C11.0678 12.2656 11.4398 12.1119 11.7998 11.8047L11.9678 11.6747L12.1478 11.8283C12.2558 11.9347 12.3758 12.0292 12.4838 12.1238L12.5918 12.1829C12.6878 12.2538 12.7958 12.3129 12.9038 12.3838C13.1918 12.5847 13.4438 12.7147 13.6598 12.7619C13.8278 12.8092 13.9958 12.7738 14.1998 12.6556C14.4278 12.5138 14.5958 12.3719 14.7278 12.2419C14.8238 12.1119 14.8958 11.9819 14.9558 11.8283C15.0158 11.6038 15.0398 11.4029 15.0398 11.2019C15.0638 10.9301 15.0758 10.611 15.0758 10.2447V8.09377C15.0758 7.53831 14.9558 7.01831 14.7398 6.54558ZM11.3438 10.7292C11.3438 11.0365 11.0918 11.2965 10.7798 11.2965H9.17183C8.85983 11.2965 8.60783 11.0365 8.60783 10.7292V8.70831C8.60783 8.38922 8.85983 8.14104 9.17183 8.14104H10.7798C11.0918 8.14104 11.3438 8.38922 11.3438 8.70831V10.7292V10.7292Z" fill="#130F40"/>
</svg>
