<svg width="11" height="11" viewBox="0 0 11 11" fill="none" xmlns="http://www.w3.org/2000/svg">
<path fill-rule="evenodd" clip-rule="evenodd" d="M0 5.19932C0 5.77862 0.468887 6.24899 1.04967 6.24899L4.15373 6.24877V9.35033C4.15373 9.92981 4.62393 10.4 5.2034 10.4C5.78287 10.4 6.25306 9.92981 6.25306 9.35033V6.24877L9.35712 6.24899C9.9366 6.24899 10.4068 5.77879 10.4068 5.19932C10.4068 4.61985 9.9366 4.14965 9.35715 4.14965L6.25306 4.14944V1.04967C6.25306 0.470193 5.78287 0 5.2034 0C4.62393 0 4.15373 0.470193 4.15373 1.04967V4.14944L1.04965 4.14965C0.468879 4.14966 0 4.62003 0 5.19932Z" fill="#AE00B9"/>
</svg>
