<svg width="20" height="20" viewBox="0 0 20 20" fill="none" xmlns="http://www.w3.org/2000/svg">
<rect width="20" height="20" rx="4" fill="#25D4A9"/>
<path opacity="0.8" d="M14.3332 13.8115H11.4759C11.1971 13.8115 10.9703 14.0419 10.9703 14.325C10.9703 14.6088 11.1971 14.8386 11.4759 14.8386H14.3332C14.612 14.8386 14.8387 14.6088 14.8387 14.325C14.8387 14.0419 14.612 13.8115 14.3332 13.8115Z" fill="white"/>
<path d="M9.47413 7.76589L12.1817 9.95375C12.247 10.0061 12.2582 10.1021 12.2072 10.169L8.99728 14.3516C8.7955 14.61 8.49814 14.7561 8.17954 14.7615L6.42722 14.7831C6.33376 14.7842 6.25198 14.7195 6.23074 14.6267L5.83249 12.8952C5.76346 12.5769 5.83249 12.2479 6.03427 11.9943L9.26013 7.79178C9.31217 7.72435 9.40828 7.71249 9.47413 7.76589Z" fill="white"/>
<path opacity="0.8" d="M13.3938 8.64951L12.8718 9.30112C12.8193 9.36747 12.7247 9.37826 12.6594 9.3254C12.0249 8.81188 10.4 7.49409 9.94918 7.12891C9.88334 7.07497 9.87431 6.97895 9.92741 6.91206L10.4308 6.28688C10.8875 5.69892 11.684 5.64498 12.3265 6.15743L13.0646 6.74539C13.3673 6.98273 13.569 7.29559 13.6381 7.62463C13.7177 7.98657 13.6328 8.34205 13.3938 8.64951Z" fill="white"/>
</svg>
