<svg width="17" height="15" viewBox="0 0 17 15" fill="none" xmlns="http://www.w3.org/2000/svg">
<path fill-rule="evenodd" clip-rule="evenodd" d="M5.49957 4.71106C8.64537 4.71106 10.996 3.46747 10.996 2.3555C10.996 1.24364 8.64532 0 5.49957 0C2.35382 0 0.00323761 1.24364 0.00323761 2.3555C0.00323761 3.46747 2.35377 4.71106 5.49957 4.71106ZM5.49633 14.1336L5.57097 14.1333C6.11911 14.1299 6.3975 13.4931 6.15278 13.0026L6.13653 12.9698C6.01604 12.7247 5.76936 12.5634 5.49628 12.5634C3.69878 12.5634 1.99651 12.2072 0.70318 11.5605C0.646654 11.5323 0.59113 11.5035 0.536604 11.4743C0.30148 11.3485 0 11.5114 0 11.7781C0 12.8899 2.35053 14.1336 5.49633 14.1336ZM5.53866 10.9446C5.54164 10.97 5.52193 10.9927 5.49638 10.9927C2.35058 10.9927 5.2355e-05 9.74902 0 8.6371C0 8.37042 0.301459 8.20754 0.536598 8.33336C0.591159 8.36255 0.646721 8.39129 0.703285 8.41957C1.99666 9.06626 3.69888 9.42243 5.49638 9.42243C5.5219 9.42243 5.54163 9.44422 5.53865 9.46957C5.51019 9.7114 5.49544 9.95743 5.49544 10.2069C5.49544 10.4564 5.51024 10.7026 5.53866 10.9446ZM5.49638 7.85171L5.56099 7.85153C5.80264 7.85019 6.01381 7.69767 6.119 7.48012C6.12999 7.4574 6.14112 7.43474 6.15237 7.41217C6.38718 6.94118 6.02266 6.28159 5.49638 6.28159C3.69888 6.28159 1.99666 5.92542 0.703285 5.27873C0.646732 5.25044 0.591181 5.2217 0.53663 5.19251C0.301502 5.06669 0 5.22958 0 5.49626C5.2355e-05 6.60818 2.35058 7.85171 5.49638 7.85171ZM7.15034 9.31932C7.26976 8.69546 7.51253 8.11489 7.85232 7.60406C8.55864 6.54236 9.68364 5.78221 10.9898 5.56133C11.2462 5.51798 11.5095 5.49505 11.7781 5.49505C14.3762 5.49505 16.49 7.60878 16.49 10.207C16.49 12.8052 14.3762 14.9189 11.7781 14.9189C10.5562 14.9189 9.44161 14.4514 8.60351 13.6859C8.20022 13.3176 7.86111 12.8802 7.60478 12.3927C7.36049 11.9282 7.19155 11.4182 7.11422 10.8789C7.08275 10.6594 7.0661 10.4351 7.0661 10.207C7.0661 9.9036 7.09521 9.6069 7.15034 9.31932Z" fill="#7D7B96"/>
</svg>
