<svg width="16" height="15" viewBox="0 0 16 15" fill="none" xmlns="http://www.w3.org/2000/svg">
<path fill-rule="evenodd" clip-rule="evenodd" d="M7.90076 0.814894H7.90076H7.90078C7.96104 0.815296 8.02412 0.815718 8.0914 0.815718C8.07329 0.761638 8.05745 0.712143 8.04265 0.665895L8.04265 0.665883L8.04265 0.665872C8.0129 0.572918 7.98735 0.493084 7.95595 0.41552C7.80951 0.0540419 7.5236 -0.0832875 7.15422 0.0498885C5.46848 0.657889 3.78382 1.26951 2.10103 1.88608C1.74036 2.01832 1.61066 2.31884 1.73272 2.68956C1.74102 2.71481 1.7492 2.7402 1.7574 2.76563L1.75741 2.76567L1.75743 2.76572C1.80624 2.91716 1.85556 3.07019 1.93355 3.20565C1.98273 3.291 2.108 3.38264 2.20071 3.38465C2.7365 3.396 3.2726 3.39479 3.80866 3.39357H3.80868H3.80869H3.80871C3.97517 3.3932 4.14163 3.39282 4.30808 3.39282H6.13731C6.13731 3.25774 6.13501 3.12472 6.13273 2.99323C6.12776 2.70634 6.12292 2.42673 6.1424 2.14882C6.19519 1.39558 6.80265 0.837021 7.55616 0.816388C7.66704 0.813333 7.77804 0.814074 7.90076 0.814894ZM13.0213 7.44353H13.0214H13.0214C13.2397 7.44433 13.4604 7.44514 13.6847 7.44514C13.6847 7.24305 13.6852 7.04307 13.6856 6.84455L13.6856 6.84386C13.6866 6.41009 13.6875 5.9833 13.6838 5.55669C13.6764 4.72923 13.215 4.27129 12.3898 4.27102C8.6894 4.26982 4.98901 4.26968 1.28862 4.27102C0.472011 4.27129 0.00107184 4.74504 0.00080388 5.56259C-0.00026796 8.27675 -0.00026796 10.9911 0.00080388 13.7054C0.00107184 14.5212 0.476433 14.9989 1.28929 14.9992C4.98968 15.0003 8.69007 15.0003 12.3905 14.9992C13.21 14.9989 13.6752 14.5355 13.6839 13.71C13.6893 13.198 13.6878 12.6859 13.6862 12.1739L13.6859 12.0697C13.6857 12.0203 13.6775 11.971 13.6686 11.9181C13.6643 11.8925 13.6599 11.866 13.6562 11.8382C13.4577 11.8382 13.261 11.8401 13.0656 11.8419L13.0654 11.8419H13.0654H13.0653C12.596 11.8463 12.1343 11.8507 11.6739 11.8291C11.3497 11.814 11.0077 11.7546 10.7122 11.6264C9.77209 11.2183 9.27717 10.1949 9.48765 9.18675C9.69559 8.19061 10.572 7.46269 11.6007 7.44715C12.0701 7.44005 12.5397 7.44177 13.0213 7.44353ZM13.0174 10.9597C12.8722 10.9597 12.7271 10.9606 12.5819 10.9615C12.2589 10.9635 11.9359 10.9656 11.6131 10.9575C10.8797 10.9392 10.3125 10.3601 10.3143 9.64815C10.3162 8.92988 10.8732 8.34131 11.6055 8.32778C12.4257 8.31275 13.2463 8.31688 14.0667 8.32101H14.0668L14.5017 8.32309C14.8246 8.32443 14.9964 8.49137 15.0004 8.80609C15.0077 9.36184 15.0071 9.91785 15.0007 10.4737C14.9969 10.7953 14.8328 10.9566 14.5094 10.9604C14.1613 10.9645 13.8132 10.9635 13.465 10.9626H13.465C13.3158 10.9622 13.1665 10.9618 13.0173 10.9618L13.0174 10.9597ZM11.6303 9.20454C11.3907 9.20602 11.1862 9.42079 11.1957 9.66074C11.2049 9.89199 11.4024 10.08 11.635 10.0786C11.8682 10.0773 12.0633 9.88771 12.0697 9.65606C12.0766 9.4161 11.8692 9.20307 11.6303 9.20454ZM7.02215 3.37971H12.1303C12.1303 3.25737 12.1312 3.13834 12.132 3.02162C12.134 2.76051 12.1359 2.51099 12.1275 2.26192C12.1165 1.93635 11.8917 1.69961 11.5712 1.6976C10.2336 1.68942 8.89599 1.68942 7.55847 1.69773C7.27256 1.69947 7.05564 1.86936 7.03113 2.15246C7.00656 2.43505 7.01198 2.72026 7.01745 3.008C7.01979 3.13144 7.02215 3.25535 7.02215 3.37971Z" fill="#7D7B96"/>
</svg>
