<svg width="30" height="77" viewBox="0 0 30 77" fill="none" xmlns="http://www.w3.org/2000/svg">
<path opacity="0.1" d="M27 62C28.6569 62 30.0302 60.6438 29.701 59.0199C29.5099 58.0772 29.2281 57.1527 28.8582 56.2597C28.1044 54.4399 26.9995 52.7863 25.6066 51.3934C24.2137 50.0005 22.5601 48.8956 20.7403 48.1418C18.9204 47.388 16.9698 47 15 47C13.0302 47 11.0796 47.388 9.25975 48.1418C7.43986 48.8956 5.78628 50.0005 4.3934 51.3934C3.00052 52.7863 1.89563 54.4399 1.14181 56.2597C0.771917 57.1527 0.490111 58.0772 0.299005 59.0199C-0.0301631 60.6438 1.34315 62 3 62L15 62H27Z" fill="#130F40"/>
<circle cx="15.5" cy="62.5" r="6.5" fill="#130F40"/>
<path d="M8.5 0H9.5L19 59H12L8.5 0Z" fill="#130F40"/>
</svg>
