<svg width="30" height="30" viewBox="0 0 30 30" fill="none" xmlns="http://www.w3.org/2000/svg">
<rect opacity="0.1" width="30" height="30" rx="10" fill="#130F40"/>
<path d="M23.9981 10.9466C23.9981 10.6059 23.8471 10.3181 23.5494 10.0913C23.2996 9.90097 23.0031 9.81607 22.5882 9.81607C22.587 9.81607 22.5859 9.81607 22.5845 9.81607C20.8107 9.81842 19.0368 9.81811 17.2639 9.8178L14.8603 9.81764C13.9356 9.81764 13.0116 9.81748 12.0829 9.81811C11.9892 9.81858 11.9479 9.81827 11.909 9.73806C11.7289 9.36587 11.5307 8.98538 11.3205 8.60708C11.0145 8.05663 10.6928 7.65358 10.3075 7.33888C9.81594 6.93739 9.30231 6.89165 8.82179 7.20698C8.78097 7.23377 8.73774 7.25711 8.69435 7.28045C8.65787 7.30019 8.62123 7.32008 8.58587 7.34154C7.04499 8.28423 6.18359 9.6693 6.02561 11.4582C5.90492 12.8259 6.21123 14.1807 6.93603 15.4851C7.79036 17.0224 8.71379 18.5282 9.42284 19.6683C9.96861 20.5457 10.6843 21.2846 11.5502 21.8648C12.6804 22.6215 13.8189 23.0002 14.9572 23C15.9327 23 16.908 22.7218 17.877 22.1654C18.2109 21.9735 18.3928 21.6864 18.4031 21.3349C18.4104 21.0828 18.3835 20.8538 18.3232 20.6542C18.0275 19.6727 17.4239 18.8411 16.816 18.0881C16.6787 17.9183 16.5037 17.7737 16.3666 17.6668C15.754 17.1886 15.0377 17.1377 14.3502 17.5224C14.2874 17.5577 14.224 17.5923 14.1607 17.6269C14.0141 17.7071 13.8626 17.79 13.7181 17.8802C13.4655 18.0378 13.1973 18.05 12.898 17.9172C12.6054 17.7871 12.3887 17.5979 12.2359 17.3393C11.9494 16.8539 11.661 16.3693 11.3726 15.885C11.0552 15.3519 10.7378 14.8189 10.4231 14.2845C10.3355 14.1357 10.2814 13.9998 10.2621 13.8806C10.1999 13.4961 10.1946 13.1058 10.5716 12.8526C10.7458 12.7356 10.9369 12.634 11.0765 12.5596C11.1153 12.5389 11.1508 12.5199 11.182 12.5029C11.2234 12.5282 11.263 12.5516 11.3006 12.5738C11.3938 12.629 11.4743 12.6766 11.5473 12.7323C12.8495 13.7266 14.1496 14.7227 15.4491 15.72C16.1828 16.2829 16.8349 16.2844 17.5647 15.7263C18.5423 14.9788 19.5192 14.23 20.4962 13.4816L23.0277 11.544V18.3578C23.0277 18.7068 22.9779 18.7552 22.6184 18.7557C21.7451 18.7569 20.8713 18.7565 19.9974 18.7565L18.9656 18.7562C18.9153 18.7557 18.8644 18.7554 18.8136 18.7583C18.5044 18.7773 18.3073 18.9661 18.3115 19.2393C18.3157 19.5092 18.5339 19.7054 18.8304 19.7059L19.4575 19.7073C20.5369 19.7098 21.6528 19.7125 22.7503 19.7031C23.4483 19.697 23.9958 19.1988 23.9971 18.569C24.0011 16.4984 24.0001 14.4282 23.999 12.3578L23.9981 10.9466ZM12.2128 10.7736H22.4536L19.4842 13.0488C18.6649 13.6758 17.8458 14.3027 17.027 14.9302C16.589 15.2661 16.4351 15.2662 15.9967 14.931L12.1903 12.0173C12.1305 11.9715 12.0692 11.9273 12.0043 11.8807L11.9593 11.8481C12.1631 11.5338 12.2481 11.1729 12.2128 10.7736ZM9.27226 13.8979C9.31163 14.1765 9.41449 14.4713 9.56202 14.7279C10.1438 15.7393 10.75 16.7603 11.4153 17.8493C11.8865 18.62 12.5766 18.986 13.4698 18.9371C13.6996 18.9244 13.9277 18.8284 14.1233 18.7394C14.3933 18.6166 14.6498 18.4624 14.8653 18.3279C15.1582 18.1452 15.4367 18.1622 15.7172 18.3796C15.8308 18.4676 15.9611 18.5744 16.0658 18.6979C16.6184 19.3483 17.0236 19.9929 17.3047 20.6683C17.5454 21.2473 17.5335 21.281 16.981 21.5714C16.3859 21.8841 15.7091 22.0413 14.912 22.052C13.6979 22.0344 12.5808 21.5595 11.4966 20.6C10.9478 20.1141 10.53 19.6302 10.2192 19.1213L10.1637 19.0303C9.38074 17.7478 8.57141 16.4218 7.82395 15.0922C7.23463 14.0438 6.95081 12.9336 6.98038 11.7923C7.01815 10.3404 7.64492 9.16552 8.84349 8.30068C9.01721 8.17537 9.21135 8.07746 9.41159 7.98003C9.42461 7.97376 9.4439 7.97063 9.46479 7.97063C9.49918 7.97063 9.53807 7.97862 9.56089 7.99303C9.70264 8.08232 9.8026 8.16409 9.87572 8.25056C10.4615 8.94262 10.9025 9.73524 11.1866 10.6063C11.2218 10.7143 11.235 10.8314 11.2435 10.9319C11.2675 11.2181 11.1641 11.4195 10.9279 11.5476C10.8361 11.5973 10.7461 11.6502 10.6563 11.703C10.5242 11.7809 10.3876 11.8612 10.2486 11.9284C9.38315 12.3476 9.1768 13.2206 9.27226 13.8979Z" fill="#130F40"/>
</svg>
