<svg width="141" height="68" viewBox="0 0 141 68" fill="none" xmlns="http://www.w3.org/2000/svg">
<path opacity="0.1" d="M137.195 48.1545C134.248 40.0455 129.778 32.15 124.292 25.5348C123.073 24.0411 121.651 22.5473 120.33 21.1603L119.822 20.6268C118.501 19.3464 117.079 17.9594 115.555 16.679C106.208 8.6768 94.9309 3.23529 82.9426 1.10136C55.3086 -3.91337 27.3698 8.46341 11.6225 32.7902C5.52679 42.2862 1.56456 52.8491 0.0406233 64.1589C-0.162568 65.546 0.447006 66.3996 0.751793 66.8263C1.05658 67.2531 1.86934 68 3.08849 68H25.9475C27.4714 68 28.6906 66.933 28.9954 65.4393C30.1129 59.7844 32.2464 54.5563 35.3959 49.8616C43.3204 37.4848 56.5278 30.2295 70.548 30.2295C72.9863 30.2295 75.5262 30.4429 77.9645 30.9763C86.2953 32.4701 93.8134 36.6313 99.9091 42.8196C104.379 47.4076 107.935 52.9558 110.17 59.0375C110.881 61.1714 111.491 63.3054 111.999 65.4393C112.304 66.933 113.625 68 115.047 68H137.906C139.125 68 139.938 67.2531 140.243 66.8263C140.649 66.3996 141.157 65.4393 140.954 64.1589C140.344 58.7174 139.023 53.3826 137.195 48.1545Z" fill="#130F40"/>
<path d="M100.282 6.71473C94.7861 4.05016 88.9854 2.23824 83.0829 1.06583C79.0122 0.319749 74.9415 0 70.8708 0C47.4643 0 25.0755 12.0439 11.6422 32.8276C5.53613 42.3135 1.5672 52.8652 0.040692 64.163C-0.162843 65.5486 0.447762 66.4013 0.753064 66.8276C1.05837 67.2539 1.87251 68 3.09371 68H25.9914C27.5179 68 28.7391 66.9342 29.0444 65.442C30.1638 59.7931 32.301 54.5705 35.4558 49.7743C44.7166 35.3856 61.3047 27.8182 78.0963 30.9091C80.6405 31.3354 83.1847 32.0815 85.5253 33.0407C87.0518 33.5737 88.5783 33.1473 89.3925 31.7618L101.503 11.4044C102.215 10.3386 102.012 9.16614 101.808 8.63323C101.808 8.2069 101.401 7.24765 100.282 6.71473Z" fill="url(#paint0_linear_4672_2801)"/>
<defs>
<linearGradient id="paint0_linear_4672_2801" x1="51" y1="-1.76579e-06" x2="11.5" y2="68" gradientUnits="userSpaceOnUse">
<stop stop-color="#F50057"/>
<stop offset="1" stop-color="#FF7EAC" stop-opacity="0.47"/>
</linearGradient>
</defs>
</svg>
