<svg width="20" height="20" viewBox="0 0 20 20" fill="none" xmlns="http://www.w3.org/2000/svg">
<rect opacity="0.1" width="20" height="20" rx="4" fill="#FF2525"/>
<path opacity="0.4" d="M13.452 9.18774C13.452 9.21845 13.2113 12.2627 13.0739 13.5438C12.9878 14.3301 12.4809 14.807 11.7206 14.8205C11.1365 14.8336 10.5646 14.8381 10.002 14.8381C9.40465 14.8381 8.82049 14.8336 8.25346 14.8205C7.51865 14.8029 7.01136 14.3165 6.92966 13.5438C6.78823 12.2582 6.55193 9.21845 6.54754 9.18774C6.54315 9.09517 6.57302 9.0071 6.63363 8.93575C6.69336 8.86982 6.77945 8.83008 6.86993 8.83008H13.134C13.2241 8.83008 13.3058 8.86982 13.3703 8.93575C13.4305 9.0071 13.4608 9.09517 13.452 9.18774Z" fill="#FF2525"/>
<path d="M14.0646 7.60264C14.0646 7.41704 13.9183 7.27162 13.7426 7.27162H12.4259C12.1579 7.27162 11.9252 7.08105 11.8654 6.81235L11.7916 6.48313C11.6884 6.08528 11.3322 5.80664 10.9325 5.80664H9.06804C8.66396 5.80664 8.31127 6.08528 8.2041 6.50481L8.13515 6.8128C8.07497 7.08105 7.84219 7.27162 7.57471 7.27162H6.25793C6.08181 7.27162 5.93555 7.41704 5.93555 7.60264V7.77425C5.93555 7.95534 6.08181 8.10527 6.25793 8.10527H13.7426C13.9183 8.10527 14.0646 7.95534 14.0646 7.77425V7.60264Z" fill="#FF2525"/>
</svg>
