<svg width="30" height="30" viewBox="0 0 30 30" fill="none" xmlns="http://www.w3.org/2000/svg">
<rect opacity="0.1" width="30" height="30" rx="10" fill="#130F40"/>
<path d="M22.9769 11.7084C22.8433 11.1596 22.5034 10.8403 21.9376 10.7325C21.8272 10.7116 21.7118 10.6393 21.651 10.5522C20.3387 8.66039 18.5338 7.50052 16.2858 7.1044C16.1104 7.07342 15.9308 7.05164 15.7468 7.02987C15.6645 7.02094 15.5809 7.01033 15.4983 7L14.499 7.00028L14.1897 7.04048C14.0032 7.0642 13.8099 7.08877 13.6242 7.12394C11.4258 7.52871 9.6591 8.6749 8.37337 10.531C8.28888 10.6532 8.18737 10.7188 8.04433 10.7428C7.41136 10.8464 7.0023 11.3254 7.0023 11.9633C6.99923 14.0271 6.99923 16.0771 7.0023 18.0572C7.00369 18.6822 7.41778 19.1696 8.03206 19.2701C8.22028 19.3005 8.31537 19.4038 8.38369 19.5009C9.75949 21.4723 11.5904 22.6207 13.8255 22.9141C17.0582 23.3404 19.6904 22.1788 21.6501 19.4635C21.7028 19.3921 21.7976 19.3091 21.9067 19.2896C22.4967 19.1877 22.8478 18.8622 22.9799 18.2947C22.9847 18.2738 22.993 18.2565 23 18.2436V11.7676C22.9897 11.7495 22.9821 11.7296 22.9769 11.7084ZM17.139 8.10599C17.1457 8.10572 17.1524 8.10572 17.1591 8.10572C17.9332 8.10572 20.179 9.63379 20.6761 10.5059L20.7972 10.718H18.0729L18.0433 10.6167C17.75 9.64467 17.4365 8.93814 17.0275 8.32624L16.8867 8.11604L17.139 8.10599ZM14.2865 7.98373C14.7558 7.65712 15.2318 7.65433 15.7005 7.97451C16.0591 8.21989 16.3452 8.54984 16.5515 8.95517C16.7288 9.30383 16.8883 9.67817 17.0292 10.0087C17.0905 10.1522 17.1513 10.294 17.214 10.4377C17.2302 10.4726 17.2333 10.5045 17.2361 10.5301C17.2361 10.5301 17.2375 10.5371 17.238 10.5433L17.2391 10.553L17.2687 10.7183H12.6996L12.7573 10.5354C12.9715 9.85208 13.2166 9.30662 13.5292 8.81922C13.7717 8.44042 14.0124 8.17522 14.2865 7.98373ZM9.30665 10.495C10.2477 9.33705 11.3876 8.54873 12.7913 8.08534L13.1145 7.98038L12.962 8.28381C12.9009 8.40441 12.8387 8.52472 12.7777 8.64224L12.7729 8.65145C12.6307 8.92391 12.4966 9.18128 12.38 9.44843C12.2836 9.66756 12.2019 9.904 12.1302 10.1128C12.0853 10.2448 12.0373 10.3811 11.988 10.5142C11.9648 10.5717 11.877 10.7191 11.7437 10.7211C11.2399 10.7255 10.7449 10.7255 10.221 10.7255H9.11844L9.30665 10.495ZM12.8449 21.9231C11.8514 21.7752 9.84341 20.3989 9.3231 19.509L9.1979 19.2966H11.9275L11.957 19.396C12.2465 20.3615 12.5624 21.0742 12.9818 21.7059L13.1588 21.9706L12.8449 21.9231ZM15.6679 22.0607C15.4487 22.2118 15.2214 22.2882 14.9922 22.2882C14.7524 22.2882 14.5215 22.2037 14.3063 22.037C14.0709 21.8547 13.8512 21.6328 13.6711 21.395C13.2171 20.7973 12.9628 20.1217 12.7559 19.4811L12.6946 19.2966H17.2804L17.2299 19.511C17.2232 19.5445 17.2149 19.5755 17.2048 19.6048C16.9879 20.251 16.6932 20.9966 16.1528 21.6244C16.0172 21.7833 15.8497 21.9343 15.6679 22.0607ZM20.697 19.5221C19.7479 20.6828 18.5937 21.4756 17.1691 21.9457L16.8041 22.0666L17.0688 21.6325C17.0972 21.5881 17.1212 21.5488 17.144 21.5111L17.1705 21.4678C17.5085 20.9076 17.779 20.275 17.9973 19.5336C18.0483 19.3644 18.1498 19.2888 18.3266 19.2888C18.8511 19.2918 19.3812 19.2918 19.8937 19.2918H20.8841L20.697 19.5221ZM22.2644 17.9765C22.2644 18.3759 22.0846 18.554 21.6814 18.554L13.0981 18.5554H8.32847C7.91355 18.5554 7.73649 18.3799 7.73649 17.9687V12.0484C7.73649 11.637 7.91355 11.4617 8.32847 11.4617H21.6814C22.0846 11.4617 22.2644 11.6398 22.2644 12.0395V17.9765ZM16.6946 12.8661C16.7629 12.9414 16.7991 13.05 16.7991 13.1804V16.8233C16.7991 17.0528 16.7146 17.1909 16.5409 17.2462C16.3753 17.299 16.2289 17.2381 16.0925 17.0581L15.522 16.306C15.3126 16.0305 15.1035 15.7544 14.8946 15.4789L13.9371 14.2099V15.3086C13.9385 15.8231 13.9385 16.3376 13.9371 16.8518C13.9371 17.091 13.7946 17.2557 13.583 17.2613H13.5771C13.4728 17.2613 13.3828 17.227 13.3164 17.1622C13.2431 17.0902 13.2029 16.9858 13.2029 16.8685C13.2015 16.1866 13.2015 15.5046 13.2015 14.8243V13.7669C13.2015 13.5712 13.2015 13.3752 13.2029 13.1793C13.2029 12.9635 13.2815 12.8351 13.45 12.7756C13.6187 12.7159 13.7656 12.772 13.8992 12.9462C14.2965 13.4696 14.6925 13.993 15.0882 14.5164L15.6559 15.2654C15.6745 15.2905 15.6941 15.3148 15.7155 15.3416L16.0348 15.7508L16.0546 15.3734C16.0563 15.3449 16.0577 15.3215 16.0594 15.2991C16.0599 15.2816 16.0608 15.2654 16.0616 15.25C16.0627 15.2274 16.0638 15.2065 16.0638 15.1858V13.1807C16.0655 13.0503 16.1001 12.9423 16.1645 12.8677C16.2269 12.7946 16.319 12.7561 16.4308 12.7561C16.5387 12.7564 16.6299 12.7943 16.6946 12.8661ZM12.4403 14.5572C12.4372 13.5679 11.6612 12.777 10.673 12.758C10.4803 12.7539 10.2678 12.7522 10.0238 12.7522C9.82083 12.7522 9.61756 12.7536 9.41763 12.7552H9.26204C8.97818 12.7566 8.84572 12.8915 8.84572 13.1796L8.84545 15.9948C8.84517 16.2859 8.84488 16.5771 8.84572 16.8683C8.84711 17.115 8.98766 17.2582 9.23108 17.261L9.47647 17.263C9.89473 17.266 10.3269 17.2688 10.7502 17.2565C11.5795 17.23 12.3078 16.5729 12.409 15.7603C12.4481 15.4465 12.445 15.1185 12.4419 14.8017L12.4417 14.7721C12.4419 14.7001 12.4419 14.6286 12.4403 14.5572ZM11.7033 15.5146C11.6849 16.0601 11.2443 16.502 10.7003 16.5204C10.5918 16.5246 10.475 16.5263 10.3331 16.5263C10.2344 16.5263 10.1357 16.5263 10.0355 16.5249C9.98536 16.5249 9.93432 16.5246 9.88357 16.5241C9.83254 16.5238 9.78124 16.5232 9.72965 16.5232H9.58883V13.5059H9.72965C9.84147 13.5059 9.95467 13.5028 10.0648 13.5C10.3403 13.4922 10.5885 13.4875 10.8389 13.5154C11.3085 13.5679 11.688 14.0025 11.7036 14.5044C11.7145 14.8411 11.7144 15.1716 11.7033 15.5146ZM21.153 16.0464C21.1117 16.6991 20.5696 17.2311 19.9191 17.2574C19.7914 17.2627 19.6606 17.261 19.534 17.2599L19.4886 17.2593C19.4434 17.2591 19.3979 17.2585 19.3528 17.2585H19.2192L19.2186 17.273C19.1818 17.2711 19.1445 17.2694 19.1035 17.2674C18.9133 17.2593 18.7337 17.2515 18.5558 17.2191C18.2639 17.1661 18.0152 17.0006 17.8161 16.7273C17.6892 16.5528 17.7109 16.3345 17.8682 16.2081C17.9343 16.1547 18.0129 16.1263 18.0946 16.1263C18.2067 16.1263 18.3149 16.1801 18.3913 16.2748C18.5291 16.4448 18.7017 16.5277 18.9192 16.5277C18.9228 16.5277 18.9258 16.5277 18.9292 16.5277C19.0845 16.5246 19.2426 16.5252 19.3968 16.526H19.4275C19.5412 16.5266 19.6556 16.5266 19.7702 16.526C19.9793 16.5249 20.1519 16.4607 20.2696 16.3398C20.3705 16.2363 20.4229 16.0992 20.4202 15.9431C20.4146 15.6045 20.1608 15.3818 19.7741 15.3759C19.6617 15.374 19.5479 15.3748 19.4331 15.3759C19.1676 15.379 18.8932 15.3798 18.6345 15.3435C17.9842 15.2525 17.5135 14.6476 17.5629 13.9662C17.6111 13.2988 18.1501 12.7801 18.8168 12.7597C19.2499 12.7463 19.5995 12.7463 19.9182 12.7608C20.3836 12.7815 20.7436 13.0059 20.9884 13.4286C21.0991 13.6192 21.0492 13.8358 20.8696 13.9441C20.689 14.0525 20.4804 13.995 20.3616 13.8037C20.2275 13.588 20.0429 13.4838 19.7933 13.4894C19.6433 13.4919 19.4902 13.4914 19.3424 13.4908H19.3254C19.1866 13.4903 19.0438 13.4897 18.903 13.4916C18.5447 13.4969 18.2948 13.7331 18.2957 14.0661C18.2968 14.3913 18.5528 14.6328 18.9041 14.6406C19.0299 14.6434 19.1562 14.6426 19.2794 14.6417C19.5488 14.6398 19.8271 14.6381 20.0925 14.6752C20.7305 14.764 21.1965 15.3664 21.153 16.0464Z" fill="#130F40"/>
</svg>
