<svg width="30" height="30" viewBox="0 0 30 30" fill="none" xmlns="http://www.w3.org/2000/svg">
<rect opacity="0.1" width="30" height="30" rx="10" fill="#130F40"/>
<path d="M22.6377 11.7974H19.0483V10.0527C19.0483 9.91412 19.0422 9.77552 19.0271 9.63992C19.0119 9.50132 18.9938 9.36874 18.9665 9.23616C18.9514 9.16987 18.9362 9.10358 18.9211 9.0403C18.8968 8.95292 18.8726 8.86252 18.8423 8.77815C18.8272 8.73296 18.812 8.68776 18.7908 8.64256C18.7727 8.5823 18.7515 8.52505 18.7242 8.4678C18.703 8.41959 18.6818 8.37137 18.6606 8.32618C18.6485 8.29906 18.6363 8.27194 18.6212 8.24783C18.5849 8.17552 18.5485 8.10621 18.5091 8.03691C18.4637 7.95857 18.4152 7.88023 18.3668 7.80791C18.3153 7.73258 18.2638 7.66026 18.2093 7.58795C18.0063 7.31676 17.764 7.07269 17.4914 6.86478C17.2612 6.68399 17.0098 6.52731 16.7432 6.39774C16.7402 6.39774 16.7402 6.39473 16.7402 6.39473C16.6402 6.34953 16.5403 6.30734 16.4373 6.26817C16.4342 6.26516 16.4282 6.26516 16.4252 6.26215C16.3828 6.24708 16.3403 6.23202 16.2979 6.21695L16.2676 6.20791C16.2192 6.19284 16.1707 6.17778 16.1192 6.16271C15.9314 6.10847 15.7376 6.07533 15.5407 6.03917C15.5377 6.03917 15.5346 6.03616 15.5316 6.03616C15.3499 6.01205 15.1651 6 14.9773 6C14.8077 6 14.6441 6.00904 14.4805 6.03013C14.3684 6.05122 14.2533 6.0693 14.1443 6.09341C12.4238 6.47307 11.1456 7.8742 10.9881 9.60979C10.9214 10.333 10.9608 11.0712 10.9547 11.7974H7.35928C6.52024 11.7974 6.00227 12.3156 6.00227 13.1563C5.99924 15.2324 5.99924 17.3115 6.00227 19.3906C6.00227 20.2282 6.52326 20.7465 7.36231 20.7495H8.05292V20.9755C8.05292 21.5028 8.04989 22.0301 8.05292 22.5574C8.05898 23.4162 8.64964 23.9977 9.51897 23.9977C13.172 24.0008 16.828 24.0008 20.481 23.9977C21.3504 23.9977 21.941 23.4162 21.9471 22.5574C21.9501 22.0301 21.9471 21.5028 21.9471 20.9755V20.7495H22.6377C23.4767 20.7465 23.9977 20.2252 23.9977 19.3876C24.0008 17.3115 24.0008 15.2324 23.9977 13.1533C23.9977 12.3156 23.4767 11.7974 22.6377 11.7974ZM11.9664 10.0407C11.9725 8.29002 13.4082 6.93107 15.1651 7.00942C16.6826 7.07872 17.9609 8.32919 18.0275 9.84783C18.0517 10.4203 18.0396 10.9989 18.0366 11.5864H18.0336V11.7974H11.9664C11.9664 11.2128 11.9634 10.6252 11.9664 10.0407ZM21.1323 22.5183C21.1323 22.9612 20.9081 23.1872 20.4629 23.1872C16.822 23.1902 13.178 23.1902 9.53715 23.1872C9.09188 23.1872 8.86773 22.9612 8.86773 22.5183C8.8647 21.3371 8.8647 20.1559 8.86773 18.9748C8.86773 18.5288 9.08582 18.3089 9.53715 18.3089H20.4235C20.9263 18.3089 21.1323 18.5137 21.1323 19.0109V22.5183ZM23.1738 19.3454C23.1738 19.8064 23.0496 19.9299 22.5801 19.9299H21.944C21.944 19.5473 21.9531 19.1887 21.944 18.8271C21.9228 18.2034 21.4958 17.6791 20.8869 17.5375C20.7476 17.5013 20.5961 17.4923 20.4507 17.4923C16.8159 17.4893 13.1811 17.4893 9.54623 17.4893C8.63147 17.4893 8.05595 18.0708 8.05292 18.9838C8.04989 19.2881 8.05292 19.5925 8.05292 19.9119C7.73488 19.9119 7.43197 19.933 7.1321 19.9058C6.9655 19.8908 6.85949 19.7461 6.83223 19.5714C6.82314 19.5021 6.82617 19.4328 6.82617 19.3635V13.1864C6.82617 12.7435 6.96247 12.6079 7.41077 12.6079C9.63408 12.6079 11.8574 12.6109 14.0807 12.6049C14.2533 12.6049 14.326 12.6561 14.3684 12.8188C14.4472 13.093 14.5472 13.3612 14.638 13.6294C14.95 14.5454 15.6437 15.0456 16.613 15.0486C18.7151 15.0516 20.8172 15.0486 22.9194 15.0486H23.1738V19.3454ZM23.1738 14.238H16.6523C16.0011 14.238 15.6134 13.9638 15.4074 13.3492C15.3286 13.1171 15.2499 12.8821 15.1621 12.62C15.2529 12.6169 15.3165 12.6079 15.3832 12.6079H22.6074C23.0284 12.6079 23.1738 12.7525 23.1738 13.1684V14.238ZM10.5004 21.9759C10.4943 22.1928 10.3156 22.3676 10.0915 22.3676C9.87034 22.3676 9.69163 22.1928 9.68557 21.9759C9.67951 21.7529 9.86731 21.5601 10.0915 21.5601C10.3186 21.5601 10.5064 21.7529 10.5004 21.9759ZM12.0603 20.3681C12.0543 20.6206 12.0543 20.8782 12.0603 21.1337C12.0673 21.4582 12.2472 21.6318 12.5813 21.6354L12.8303 21.6348C12.9966 21.6339 13.1635 21.6333 13.3286 21.6354C13.5424 21.6378 13.6936 21.7719 13.696 21.9617C13.6972 22.05 13.6672 22.1278 13.6094 22.1865C13.5439 22.2534 13.4461 22.2911 13.3349 22.2923L13.202 22.2938C12.9578 22.2968 12.7052 22.2995 12.4574 22.2893C11.8798 22.267 11.4142 21.7945 11.3973 21.2136C11.3933 21.1105 11.3945 21.0063 11.3961 20.9014C11.3967 20.8478 11.3973 20.7941 11.3973 20.7405L11.3879 20.6823C11.3897 20.6344 11.3906 20.5862 11.3918 20.5377C11.3949 20.3895 11.3982 20.2361 11.4264 20.0918C11.5209 19.5753 11.964 19.2065 12.5038 19.195C12.7755 19.192 13.0508 19.192 13.3259 19.195C13.5449 19.1977 13.6936 19.3276 13.6963 19.5192C13.6984 19.6072 13.6703 19.6844 13.6139 19.7422C13.5467 19.8115 13.4425 19.8504 13.3189 19.8519C13.1777 19.8552 13.0357 19.8555 12.8933 19.8543C12.7861 19.8543 12.6786 19.8537 12.5716 19.8549H12.571C12.2403 19.8615 12.064 20.0393 12.0603 20.3681ZM16.9625 20.5919C16.964 20.4829 16.9652 20.3735 16.9613 20.2647C16.9298 19.6943 16.4558 19.2258 15.8824 19.1977C15.8612 19.1965 15.8393 19.1959 15.8181 19.1959C15.2426 19.1959 14.7543 19.6063 14.6923 20.1553C14.6514 20.5241 14.6495 20.908 14.6862 21.2967C14.7389 21.8427 15.1802 22.26 15.7354 22.2893C16.3294 22.3239 16.8141 21.9644 16.9325 21.4028C16.9631 21.2594 16.9664 21.1042 16.9698 20.9544C16.9707 20.9095 16.9719 20.8643 16.9734 20.82L16.9613 20.7589C16.9613 20.7031 16.9619 20.6477 16.9625 20.5919ZM16.301 21.1626L16.3007 21.1644C16.2828 21.4326 16.078 21.6324 15.8224 21.6324C15.82 21.6324 15.8172 21.6324 15.8151 21.6324C15.5522 21.6324 15.3477 21.4299 15.3411 21.1614C15.332 20.8809 15.332 20.5974 15.3411 20.3195C15.3477 20.0637 15.5489 19.8652 15.8084 19.8579C16.0677 19.8549 16.2837 20.0502 16.2979 20.3211C16.3043 20.4211 16.3034 20.5226 16.3022 20.6251L16.301 20.7435C16.301 20.7893 16.3016 20.8354 16.3022 20.8809C16.3037 20.9749 16.3049 21.0686 16.301 21.1626ZM20.2417 19.5687C20.2448 20.3488 20.2448 21.1322 20.2417 21.9117C20.2393 22.1473 20.1142 22.2896 19.9082 22.2923C19.7001 22.2923 19.5744 22.151 19.5723 21.9144C19.5675 21.5806 19.5681 21.2461 19.569 20.9159L19.5693 20.4639L19.4639 20.5082C19.4178 20.5278 19.373 20.551 19.3297 20.5736C19.2449 20.6176 19.1649 20.6591 19.0937 20.6591C19.0198 20.6591 18.9386 20.6179 18.8526 20.5742C18.8087 20.5522 18.7648 20.5299 18.7199 20.5112L18.6185 20.4717L18.6151 20.5805C18.6148 20.5859 18.6139 20.5937 18.6127 20.6031C18.6097 20.6269 18.6061 20.6582 18.6061 20.6884C18.6045 20.8921 18.6045 21.0957 18.6045 21.2991C18.6045 21.5025 18.6045 21.7056 18.603 21.9093C18.603 22.1428 18.4773 22.2896 18.275 22.292C18.1796 22.2938 18.0999 22.2646 18.0433 22.2091C17.9775 22.1443 17.9427 22.0437 17.9427 21.918C17.9412 21.5248 17.9412 21.1313 17.9412 20.7372C17.9412 20.3431 17.9412 19.9492 17.9394 19.556C17.9394 19.3867 18.0066 19.2794 18.1502 19.2191C18.1941 19.2008 18.2365 19.1917 18.278 19.1917C18.3634 19.1917 18.444 19.2303 18.5215 19.3074C18.6148 19.4017 18.7057 19.4969 18.8011 19.5964C18.8759 19.6747 18.9535 19.7555 19.0362 19.8408L19.0913 19.8974L19.6362 19.3255C19.7577 19.1983 19.8792 19.1652 20.02 19.2197L20.0212 19.2203C20.1696 19.2752 20.2417 19.3891 20.2417 19.5687ZM10.9063 13.8313C10.9063 14.0603 10.7185 14.2441 10.4913 14.238C10.2762 14.232 10.0945 14.0482 10.0945 13.8313C10.0945 13.6053 10.2793 13.4275 10.5095 13.4305C10.7366 13.4365 10.9063 13.6053 10.9063 13.8313ZM12.545 13.8313C12.545 14.0542 12.3541 14.2411 12.13 14.238C11.9119 14.232 11.7362 14.0542 11.7332 13.8343C11.7332 13.6083 11.8998 13.4365 12.127 13.4305C12.3572 13.4245 12.545 13.6023 12.545 13.8313ZM9.27362 13.8343C9.27362 14.0542 9.07976 14.2441 8.85562 14.238C8.63753 14.232 8.45881 14.0482 8.45881 13.8313C8.45578 13.6083 8.64661 13.4275 8.87682 13.4305C9.09794 13.4365 9.27665 13.6143 9.27362 13.8343Z" fill="#130F40"/>
</svg>
