<svg width="19" height="20" viewBox="0 0 19 20" fill="none" xmlns="http://www.w3.org/2000/svg">
<path d="M18.9996 1.9418V12.9379C18.9996 14.0105 18.1301 14.8797 17.0578 14.8797H13.0047V7.3168C13.0047 6.24414 12.1352 5.375 11.0629 5.375H6.03906V1.9418C6.03906 0.869531 6.9082 0 7.98086 0H17.0578C18.1301 0 18.9996 0.869531 18.9996 1.9418Z" fill="white" fill-opacity="0.3"/>
<path d="M11.3684 5.12012H2.29141C1.21914 5.12012 0.349609 5.98926 0.349609 7.06191V18.058C0.349609 19.1303 1.21914 19.9998 2.29141 19.9998H11.3684C12.441 19.9998 13.3102 19.1303 13.3102 18.058V7.06191C13.3102 5.98926 12.441 5.12012 11.3684 5.12012ZM9.29297 14.4463C9.45234 14.6057 9.45234 14.8639 9.29297 15.0229C9.13398 15.1822 8.87578 15.1822 8.71641 15.0229L6.83008 13.1365L4.94336 15.0229C4.78438 15.1822 4.52617 15.1822 4.3668 15.0229C4.20742 14.8639 4.20742 14.6057 4.3668 14.4463L6.25312 12.56L4.3668 10.6736C4.28711 10.5939 4.24727 10.4896 4.24727 10.385C4.24727 10.2807 4.28711 10.1764 4.3668 10.0967C4.52617 9.93731 4.78438 9.93731 4.94336 10.0967L6.83008 11.9834L8.71641 10.0967C8.87578 9.93731 9.13398 9.93731 9.29297 10.0967C9.37266 10.1764 9.4125 10.2807 9.4125 10.385C9.4125 10.4896 9.37266 10.5939 9.29297 10.6736L7.40664 12.56L9.29297 14.4463Z" fill="white"/>
</svg>
