<svg width="95" height="72" viewBox="0 0 95 72" fill="none" xmlns="http://www.w3.org/2000/svg">
<g opacity="0.2">
<path d="M93.919 34.5287L69.8 10.4097C69.05 9.65967 67.723 9.65967 66.973 10.4097L61.744 15.6387C60.963 16.4197 60.963 17.6857 61.744 18.4667L79.221 35.9417L61.745 53.4197C60.964 54.2007 60.964 55.4667 61.745 56.2477L66.974 61.4767C67.349 61.8517 67.858 62.0637 68.388 62.0637C68.917 62.0637 69.427 61.8517 69.802 61.4767L93.919 37.3587C94.7 36.5767 94.7 35.3097 93.919 34.5287Z" fill="#FF95E1"/>
<path d="M32.7598 53.4197L15.2857 35.9437L32.7628 18.4687C33.1378 18.0937 33.3488 17.5857 33.3488 17.0547C33.3488 16.5247 33.1388 16.0157 32.7628 15.6407L27.5338 10.4117C27.1588 10.0367 26.6497 9.82568 26.1197 9.82568C25.5897 9.82568 25.0807 10.0367 24.7057 10.4117L0.58575 34.5287C-0.19525 35.3097 -0.19525 36.5757 0.58575 37.3577L24.7048 61.4757C25.0798 61.8507 25.5887 62.0627 26.1187 62.0627C26.6488 62.0627 27.1577 61.8507 27.5327 61.4757L32.7618 56.2467C33.5428 55.4667 33.5428 54.2007 32.7598 53.4197Z" fill="#FF95E1"/>
<path d="M60.9677 2.29578C60.7137 1.82978 60.2857 1.48378 59.7777 1.33378L55.5387 0.082779C54.4807 -0.231221 53.3667 0.375779 53.0547 1.43478L33.3757 68.0778C33.2257 68.5868 33.2837 69.1338 33.5367 69.5988C33.7897 70.0658 34.2187 70.4108 34.7267 70.5618L38.9657 71.8128C39.1547 71.8688 39.3457 71.8958 39.5327 71.8958C40.3957 71.8958 41.1927 71.3318 41.4497 70.4608L61.1287 3.81678C61.2787 3.30778 61.2217 2.76078 60.9677 2.29578Z" fill="#FF95E1"/>
</g>
</svg>
