<svg width="24" height="24" viewBox="0 0 24 24" fill="none" xmlns="http://www.w3.org/2000/svg">
<path d="M3 6C2.44772 6 2 6.44772 2 7C2 7.55228 2.44772 8 3 8H21C21.5523 8 22 7.55228 22 7C22 6.44772 21.5523 6 21 6H3Z" fill="white" fill-opacity="0.3"/>
<path d="M3 16C2.44772 16 2 16.4477 2 17C2 17.5523 2.44772 18 3 18H21C21.5523 18 22 17.5523 22 17C22 16.4477 21.5523 16 21 16H3Z" fill="white" fill-opacity="0.3"/>
<path d="M8 10C9.65685 10 11 8.65685 11 7C11 5.34315 9.65685 4 8 4C6.34315 4 5 5.34315 5 7C5 8.65685 6.34315 10 8 10Z" fill="white"/>
<path d="M16 20C17.6569 20 19 18.6569 19 17C19 15.3431 17.6569 14 16 14C14.3431 14 13 15.3431 13 17C13 18.6569 14.3431 20 16 20Z" fill="white"/>
</svg>
