<svg width="14" height="14" viewBox="0 0 14 14" fill="none" xmlns="http://www.w3.org/2000/svg">
<path fill-rule="evenodd" clip-rule="evenodd" d="M0.11977 3.21869C0.204505 1.58982 1.20994 0.293606 2.5128 0.183234C3.65003 0.0868962 5.18019 0 7 0C8.81979 0 10.35 0.0868962 11.4872 0.183234C12.7901 0.293606 13.7955 1.58982 13.8802 3.21869C13.9435 4.43495 14 5.84465 14 7C14 8.15535 13.9435 9.56506 13.8802 10.7813C13.7955 12.4102 12.7901 13.7064 11.4872 13.8168C10.35 13.9131 8.81979 14 7 14C5.18019 14 3.65003 13.9131 2.5128 13.8168C1.20994 13.7064 0.204505 12.4102 0.11977 10.7813C0.056504 9.56506 0 8.15535 0 7C0 5.84465 0.056504 4.43495 0.11977 3.21869Z" fill="#130F40" fill-opacity="0.1"/>
<path d="M4.77495 6.01665L3.41239 5.22998C3.14911 5.76203 3.00002 6.36206 3 6.99999C3 7.6291 3.1507 8.23016 3.41803 8.76692L4.77485 7.98357C4.64102 7.68222 4.5652 7.34985 4.56521 6.99999C4.56523 6.65015 4.6411 6.31788 4.77495 6.01665Z" fill="#130F40" fill-opacity="0.5"/>
<path d="M9.62475 3.98075C8.92178 3.36928 8.00319 2.99933 6.99816 3C5.62316 3.00092 4.39588 3.70289 3.6748 4.77849L5.03847 5.56584C5.48192 4.96093 6.19534 4.5652 7.00098 4.56521C7.58827 4.56523 8.12663 4.77517 8.54713 5.12304C8.65006 5.20818 8.80053 5.20038 8.89498 5.10593L9.63765 4.36326C9.74475 4.25617 9.73901 4.08012 9.62475 3.98075Z" fill="#130F40" fill-opacity="0.5"/>
<path d="M10.9735 6.53703C10.9579 6.40461 10.8466 6.30437 10.7133 6.30437L7.43568 6.3042C7.29162 6.3042 7.1748 6.421 7.1748 6.56507V7.60768C7.1748 7.75174 7.2916 7.86855 7.43568 7.86855H9.27236C9.10319 8.30885 8.80934 8.68735 8.43525 8.9625L9.21537 10.3137C10.0006 9.78159 10.5977 8.97705 10.8606 8.0273C11.0036 7.51091 11.0293 7.01157 10.9735 6.53703Z" fill="#130F40" fill-opacity="0.5"/>
<path d="M7.98054 9.22464C7.67968 9.35867 7.34756 9.4347 6.99731 9.43473C6.19076 9.43474 5.47775 9.039 5.03461 8.43433L3.67676 9.21829C4.39179 10.2833 5.60531 10.9999 6.99728 10.9999C7.62652 10.9999 8.22544 10.8461 8.76116 10.5767L7.98054 9.22464Z" fill="#130F40" fill-opacity="0.5"/>
</svg>
