<svg width="21" height="21" viewBox="0 0 21 21" fill="none" xmlns="http://www.w3.org/2000/svg">
<rect opacity="0.1" width="21" height="21" rx="4" fill="#130F40"/>
<path d="M14.4273 13.6225C14.427 13.5093 14.3385 13.4174 14.23 13.4178C14.0533 13.4186 13.8912 13.4197 13.7292 13.4165C13.3269 13.4086 13.1178 13.2004 13.1157 12.7887C13.1107 11.7918 13.1107 10.7949 13.114 9.79818C13.1153 9.398 13.3266 9.18457 13.7076 9.18146C13.8775 9.18006 14.0476 9.1806 14.2257 9.18092C14.3313 9.18114 14.4186 9.09424 14.4233 8.98421C14.4592 8.1518 14.3209 7.37115 13.9195 6.637C13.8599 6.52793 13.719 6.50275 13.6259 6.58236L13.6242 6.58375C13.2886 6.87047 12.8696 6.85118 12.5401 6.51979C11.911 5.887 11.1658 5.59149 10.2915 5.65107C9.63937 5.69553 9.07228 5.95096 8.58661 6.40118C8.09837 6.85376 7.84331 6.91001 7.37296 6.568C7.2792 6.49986 7.14843 6.52643 7.09075 6.62929C6.68497 7.35219 6.54617 8.13648 6.57959 8.98463C6.5839 9.09489 6.67109 9.18231 6.77698 9.18178C6.96142 9.18092 7.14318 9.17964 7.32484 9.18328C7.66627 9.19014 7.88299 9.39725 7.88597 9.75425C7.89461 10.7851 7.89512 11.8161 7.88731 12.847C7.88484 13.1672 7.68642 13.3974 7.39044 13.4075C6.96666 13.422 6.53774 13.4323 6.11798 13.3819C5.47183 13.3044 5.01834 12.7438 5.00775 12.0649C4.99973 11.5541 4.9948 11.0427 5.00909 10.532C5.02461 9.97797 5.35607 9.49593 5.84718 9.28324C6.01681 9.20974 6.05753 9.11931 6.05136 8.93899C6.01383 7.85127 6.26633 6.84797 6.87629 5.95268C7.93069 4.40455 9.79183 3.6824 11.5719 4.13187C13.301 4.56848 14.6625 6.12925 14.9045 7.9717C14.9486 8.30781 14.9463 8.6512 14.9528 8.99149C14.9555 9.13217 14.9757 9.21274 15.1262 9.26964C15.6856 9.48103 15.9933 9.95889 15.9975 10.5833C16.0007 11.0604 16.0009 11.5376 15.9974 12.0147C15.993 12.6348 15.6838 13.1058 15.1212 13.3262C14.9895 13.3779 14.9477 13.4427 14.9525 13.5829C14.9588 13.7694 14.9569 13.959 14.9316 14.1433C14.8373 14.8297 14.3177 15.3082 13.6539 15.3178C13.0572 15.3265 12.4603 15.3253 11.8636 15.318C11.7191 15.3162 11.6351 15.3442 11.5634 15.4957C11.4109 15.8183 11.1412 15.9839 10.7934 15.9947C10.5973 16.0008 10.4008 16.0029 10.2049 15.994C9.70311 15.9712 9.32734 15.5657 9.32447 15.0525C9.32159 14.5344 9.71226 14.113 10.2185 14.0935C10.39 14.0868 10.5618 14.0925 10.7335 14.0915C11.1123 14.0894 11.3982 14.2639 11.5704 14.6095C11.6349 14.7388 11.7059 14.7727 11.8338 14.7714C12.4135 14.7657 12.9933 14.7719 13.573 14.7679C14.0437 14.7646 14.4232 14.3671 14.4268 13.8766C14.4275 13.7939 14.4274 13.711 14.4273 13.6225Z" fill="#130F40"/>
</svg>
