<svg width="13" height="13" viewBox="0 0 13 13" fill="none" xmlns="http://www.w3.org/2000/svg">
<path fill-rule="evenodd" clip-rule="evenodd" d="M6.37724 13.0007C6.99579 13.0007 7.49723 12.4993 7.49723 11.8807C7.49723 11.2622 6.99579 10.7607 6.37724 10.7607C5.75869 10.7607 5.25726 11.2622 5.25726 11.8807C5.25726 12.4993 5.75869 13.0007 6.37724 13.0007ZM4.54655 11.507H0V12.2542H4.54655C4.52194 12.1335 4.50894 12.0086 4.50894 11.8806C4.50896 11.7527 4.52194 11.6278 4.54655 11.507ZM8.24342 11.8806C8.24342 12.0086 8.23045 12.1335 8.20581 12.2542H12.7524V11.507H8.20581C8.23045 11.6278 8.24342 11.7527 8.24342 11.8806Z" fill="url(#paint0_linear_6109_3021)"/>
<path d="M6.31855 0C7.62541 0 8.86446 0.416444 9.94323 1.18743C11.022 1.95279 11.9405 3.07268 12.6001 4.47396C12.6494 4.58089 12.6494 4.70469 12.6001 4.80599C11.2809 7.60855 8.93227 9.28558 6.31855 9.28558H6.31238C3.70483 9.28558 1.35618 7.60855 0.0369866 4.80599C-0.0123289 4.70469 -0.0123289 4.58089 0.0369866 4.47396C1.35618 1.6714 3.70483 0 6.31238 0H6.31855ZM6.31855 2.39174C4.95621 2.39174 3.85277 3.39908 3.85277 4.64279C3.85277 5.88087 4.95621 6.88821 6.31855 6.88821C7.67472 6.88821 8.77816 5.88087 8.77816 4.64279C8.77816 3.39908 7.67472 2.39174 6.31855 2.39174ZM6.31929 3.23465C7.16381 3.23465 7.85423 3.86494 7.85423 4.64155C7.85423 5.41254 7.16381 6.04283 6.31929 6.04283C5.46859 6.04283 4.77818 5.41254 4.77818 4.64155C4.77818 4.54588 4.79051 4.45584 4.809 4.3658H4.83982C5.52407 4.3658 6.07887 3.87057 6.10353 3.25153C6.17134 3.24027 6.24531 3.23465 6.31929 3.23465Z" fill="url(#paint1_linear_6109_3021)"/>
<defs>
<linearGradient id="paint0_linear_6109_3021" x1="2.50834e-05" y1="10.7607" x2="2.54493e-05" y2="13.0007" gradientUnits="userSpaceOnUse">
<stop stop-color="#656096"/>
<stop offset="1" stop-color="#130F40"/>
</linearGradient>
<linearGradient id="paint1_linear_6109_3021" x1="2.48566e-05" y1="4.31779e-06" x2="3.12019e-05" y2="9.28558" gradientUnits="userSpaceOnUse">
<stop stop-color="#656096"/>
<stop offset="1" stop-color="#130F40"/>
</linearGradient>
</defs>
</svg>
