<svg width="66" height="65" viewBox="0 0 66 65" fill="none" xmlns="http://www.w3.org/2000/svg">
<circle cx="33" cy="32.5" r="32.5" fill="#4E59FF" fill-opacity="0.0980392"/>
<path fill-rule="evenodd" clip-rule="evenodd" d="M21.9834 25.4187C22.2664 25.6185 23.1196 26.2117 24.5429 27.1979C25.9662 28.1842 27.0566 28.9437 27.8141 29.4763C27.8973 29.5347 28.0742 29.6616 28.3446 29.8572C28.6152 30.053 28.8399 30.2111 29.0188 30.3318C29.1978 30.4524 29.4142 30.5877 29.6682 30.7375C29.9221 30.8872 30.1615 30.9997 30.3862 31.0743C30.611 31.1494 30.819 31.1866 31.0105 31.1866H31.023H31.0356C31.2271 31.1866 31.4352 31.1494 31.66 31.0743C31.8846 30.9998 32.1242 30.8871 32.3779 30.7375C32.6317 30.5876 32.8481 30.4524 33.027 30.3318C33.206 30.2111 33.4306 30.053 33.7012 29.8572C33.9717 29.6614 34.1487 29.5347 34.2319 29.4763C34.9975 28.9437 36.9455 27.5911 40.0751 25.4185C40.6827 24.9941 41.1903 24.4822 41.5981 23.8828C42.0062 23.2838 42.21 22.6553 42.21 21.9978C42.21 21.4483 42.0122 20.978 41.6168 20.5868C41.2214 20.1956 40.7531 20 40.2123 20H21.8335C21.1926 20 20.6994 20.2164 20.354 20.6491C20.0086 21.0821 19.8359 21.6231 19.8359 22.2723C19.8359 22.7967 20.0649 23.3649 20.5226 23.9767C20.9804 24.5885 21.4674 25.0692 21.9834 25.4187Z" fill="url(#paint0_linear_1_4634)"/>
<path fill-rule="evenodd" clip-rule="evenodd" d="M42.2101 25.6682V31.7587C41.4073 31.4465 40.5339 31.2755 39.6205 31.2755C35.9575 31.2755 32.9383 34.0293 32.5203 37.5797H21.8338C21.2842 37.5797 20.8141 37.3838 20.4229 36.9927C20.0312 36.601 19.8359 36.1314 19.8359 35.5813V25.6682C20.2023 26.0762 20.6225 26.4384 21.0973 26.7543C24.1102 28.8022 26.1787 30.2378 27.3026 31.0623C27.7769 31.4113 28.1618 31.6845 28.4571 31.8798C28.753 32.0751 29.1462 32.2752 29.6369 32.4789C30.1281 32.6832 30.5861 32.7848 31.0105 32.7848H31.0357C31.4606 32.7848 31.9181 32.6832 32.4093 32.4789C32.9004 32.2752 33.2931 32.0751 33.589 31.8798C33.8844 31.6845 34.2692 31.4113 34.7441 31.0623C36.1586 30.0383 38.2318 28.6021 40.9614 26.7543C41.4362 26.43 41.8521 26.0678 42.2101 25.6682Z" fill="#4E59FF"/>
<path fill-rule="evenodd" clip-rule="evenodd" d="M42.4934 41.0643C42.0941 40.665 41.6942 40.2662 41.2944 39.8679C41.2707 39.8442 41.2476 39.8195 41.2203 39.801C41.1251 39.7377 41.0294 39.7408 40.947 39.82C40.8647 39.8993 40.8559 39.9945 40.9208 40.0897C40.9419 40.1216 40.9697 40.1478 40.9964 40.1746C41.3932 40.5703 41.7884 40.9666 42.1877 41.3597C42.2418 41.4132 42.3128 41.4513 42.3452 41.4745C42.5521 41.475 42.656 41.3026 42.5763 41.1611C42.5562 41.125 42.5238 41.0947 42.4934 41.0643Z" fill="#4E59FF"/>
<path fill-rule="evenodd" clip-rule="evenodd" d="M39.8485 32.3674C36.36 32.3674 33.5322 35.1952 33.5322 38.6837C33.5322 42.1722 36.36 45 39.8485 45C43.337 45 46.1648 42.1722 46.1648 38.6837C46.1648 35.1952 43.337 32.3674 39.8485 32.3674ZM36.2654 35.458C36.3791 35.3433 36.4934 35.2295 36.6081 35.1163C36.693 35.0325 36.7903 35.0134 36.8937 35.0752C37.2694 35.298 37.645 35.5203 38.0171 35.7488C38.1463 35.828 38.1581 35.9593 38.0634 36.0786C38.0382 36.1106 38.0099 36.1404 37.9728 36.1826C38.4509 36.6622 38.9218 37.1351 39.3932 37.6086C39.1992 37.8005 39.0041 37.993 38.7823 38.2117C38.313 37.7377 37.8432 37.2628 37.3677 36.7816C37.3229 36.8233 37.2864 36.8598 37.2478 36.8933C37.1207 37.0039 36.9853 36.9921 36.8978 36.8506C36.6714 36.4836 36.4512 36.1131 36.2294 35.7431C36.1676 35.6402 36.1815 35.5429 36.2654 35.458ZM39.2956 40.1323C39.1644 40.2609 39.0718 40.3767 39.1541 40.5676C39.1757 40.617 39.1649 40.6803 39.1701 40.7369C39.2648 41.724 38.3117 42.5324 37.3468 42.2828C37.1307 42.2267 37.0803 42.0512 37.2367 41.8897C37.3751 41.7466 37.5187 41.6071 37.6597 41.4661C37.7035 41.4224 37.7487 41.3802 37.7889 41.3339C37.9479 41.1512 37.9443 40.9042 37.7827 40.7426C37.6221 40.582 37.3659 40.5712 37.1899 40.7333C36.9974 40.9099 36.8188 41.1013 36.631 41.2829C36.4653 41.4435 36.2862 41.3884 36.2312 41.163C36.1689 40.9083 36.1771 40.6546 36.2533 40.4045C36.4818 39.6506 37.2285 39.2142 38.0091 39.3866C38.145 39.4165 38.2309 39.3938 38.3302 39.293C39.0383 38.5766 39.7521 37.866 40.4684 37.1579C40.5523 37.075 40.5852 37.005 40.5503 36.8882C40.5168 36.776 40.5111 36.6556 40.4936 36.5388C40.5009 35.5863 41.3834 34.8684 42.3071 35.0783C42.3884 35.0969 42.4811 35.1612 42.5238 35.2312C42.5809 35.3264 42.516 35.418 42.4389 35.4931C42.2685 35.6588 42.0956 35.8225 41.9366 35.9985C41.8697 36.0726 41.8136 36.1708 41.793 36.2671C41.7539 36.4462 41.8486 36.6119 42.004 36.6952C42.1728 36.7853 42.3581 36.7668 42.5052 36.6288C42.692 36.4534 42.8716 36.2696 43.0523 36.0875C43.1243 36.0149 43.2128 35.9557 43.3039 36.0103C43.3713 36.0504 43.4336 36.1348 43.4542 36.2115C43.5417 36.5295 43.5046 36.8429 43.3677 37.1414C43.0646 37.8032 42.3925 38.1372 41.6731 37.9787C41.5434 37.9498 41.4601 37.9704 41.3638 38.0682C40.6799 38.7614 39.9909 39.4499 39.2956 40.1323ZM43.4557 41.7451C43.2519 42.3533 42.497 42.5273 42.0307 42.0682C41.3767 41.4255 40.7308 40.775 40.0814 40.1277C40.0552 40.1014 40.0325 40.0721 40.0125 40.0494C40.4144 39.6486 40.8106 39.2528 41.213 38.8514C41.2228 38.8561 41.2326 38.8581 41.2393 38.8643C41.9191 39.542 42.603 40.2146 43.2756 40.8996C43.5056 41.1337 43.5612 41.4306 43.4557 41.7451Z" fill="#4E59FF"/>
<defs>
<linearGradient id="paint0_linear_1_4634" x1="13.3426" y1="13.5069" x2="13.3426" y2="31.1866" gradientUnits="userSpaceOnUse">
<stop stop-color="white"/>
<stop offset="1" stop-color="#4E59FF"/>
</linearGradient>
</defs>
</svg>
