<svg width="38" height="38" viewBox="0 0 38 38" fill="none" xmlns="http://www.w3.org/2000/svg">
<rect opacity="0.1" width="38" height="38" rx="10" fill="#FFAC0B"/>
<path d="M18.6665 14.6667C19.7711 14.6667 20.6665 13.8459 20.6665 12.8333C20.6665 11.8208 19.7711 11 18.6665 11C17.5619 11 16.6665 11.8208 16.6665 12.8333C16.6665 13.8459 17.5619 14.6667 18.6665 14.6667Z" fill="#FFAC0B"/>
<path d="M22.3333 25.0666C22.3333 25.5823 21.9231 26 21.4167 26H15.9167C15.4102 26 15 25.5823 15 25.0666C15 24.551 15.4102 24.1333 15.9167 24.1333H16.8333V18.5333H15.9167C15.4102 18.5333 15 18.1156 15 17.6C15 17.0843 15.4102 16.6666 15.9167 16.6666H19.5833C20.0898 16.6666 20.5 17.0843 20.5 17.6V24.1333H21.4167C21.9231 24.1333 22.3333 24.551 22.3333 25.0666Z" fill="#FFAC0B"/>
</svg>
