<svg width="38" height="38" viewBox="0 0 38 38" fill="none" xmlns="http://www.w3.org/2000/svg">
<rect opacity="0.1" width="38" height="38" rx="10" fill="#FF5E84"/>
<mask id="mask0_1050_65" style="mask-type:alpha" maskUnits="userSpaceOnUse" x="12" y="12" width="15" height="15">
<rect x="12" y="12" width="14.7812" height="14.781" fill="white"/>
</mask>
<g mask="url(#mask0_1050_65)">
<path fill-rule="evenodd" clip-rule="evenodd" d="M21.2381 20.0065C20.8976 20.0065 20.6223 20.2824 20.6223 20.6223V23.0859C20.6223 23.4252 20.3463 23.7017 20.0063 23.7017H18.1587V14.4636C18.1587 13.9376 17.8237 13.4677 17.3199 13.2928L17.1376 13.2318H20.0063C20.3463 13.2318 20.6223 13.5083 20.6223 13.8477V15.6954C20.6223 16.0353 20.8976 16.3112 21.2381 16.3112C21.5787 16.3112 21.854 16.0353 21.854 15.6954V13.8477C21.854 12.8291 21.025 12.0001 20.0063 12.0001H13.3857C13.3623 12.0001 13.3426 12.0106 13.3199 12.0137C13.2902 12.0112 13.2619 12.0001 13.2318 12.0001C12.5525 12.0001 12 12.5525 12 13.2318V24.3176C12 24.8435 12.335 25.3134 12.8388 25.4883L16.5452 26.7238C16.6708 26.7626 16.7958 26.7811 16.927 26.7811C17.6064 26.7811 18.1587 26.2287 18.1587 25.5493V24.9335H20.0063C21.025 24.9335 21.854 24.1045 21.854 23.0859V20.6223C21.854 20.2824 21.5787 20.0065 21.2381 20.0065Z" fill="#FF4270"/>
<path fill-rule="evenodd" clip-rule="evenodd" d="M26.6006 17.7235L24.137 15.2601C23.961 15.0839 23.6961 15.0309 23.4658 15.1263C23.2361 15.2219 23.0858 15.4466 23.0858 15.6955V17.5431H20.6223C20.2823 17.5431 20.0063 17.819 20.0063 18.159C20.0063 18.499 20.2823 18.7748 20.6223 18.7748H23.0858V20.6224C23.0858 20.8713 23.2361 21.0961 23.4658 21.1916C23.6961 21.287 23.961 21.234 24.137 21.0579L26.6006 18.5944C26.8413 18.3536 26.8413 17.9643 26.6006 17.7235Z" fill="#FF4270"/>
</g>
</svg>
