<svg width="21" height="21" viewBox="0 0 21 21" fill="none" xmlns="http://www.w3.org/2000/svg">
<path d="M0 5.6C0 3.63982 0 2.65972 0.381477 1.91103C0.717034 1.25247 1.25247 0.717034 1.91103 0.381477C2.65972 0 3.63982 0 5.6 0H15.4C17.3602 0 18.3403 0 19.089 0.381477C19.7475 0.717034 20.283 1.25247 20.6185 1.91103C21 2.65972 21 3.63982 21 5.6V15.4C21 17.3602 21 18.3403 20.6185 19.089C20.283 19.7475 19.7475 20.283 19.089 20.6185C18.3403 21 17.3602 21 15.4 21H5.6C3.63982 21 2.65972 21 1.91103 20.6185C1.25247 20.283 0.717034 19.7475 0.381477 19.089C0 18.3403 0 17.3602 0 15.4V5.6Z" fill="#130F40" fill-opacity="0.1"/>
<path d="M10.4898 13.1564C8.81581 13.1564 7.14184 13.1572 5.46831 13.1551C5.30754 13.1551 5.14504 13.1507 4.98644 13.1291C4.43828 13.0537 4.02098 12.6221 4.01274 12.0739C3.99671 11.0257 3.99498 9.97699 4.01231 8.92919C4.02314 8.28006 4.53534 7.84239 5.24948 7.83892C6.40908 7.83329 7.56824 7.83546 8.72784 7.83502C10.9617 7.83502 13.1964 7.83502 15.4306 7.83589C15.5992 7.83589 15.7695 7.83242 15.9368 7.85106C16.5833 7.92342 16.9928 8.37192 16.9967 9.02106C17.0023 9.97742 16.9993 10.9342 16.998 11.8906C16.9967 12.6836 16.5369 13.1499 15.7422 13.1533C14.5523 13.1585 13.3619 13.1559 12.172 13.1564C11.6112 13.1564 11.0509 13.1564 10.4902 13.1564C10.4898 13.1559 10.4898 13.1559 10.4898 13.1564ZM8.57878 9.82316C8.83228 10.3328 9.07148 10.8112 9.30764 11.2913C9.39301 11.4642 9.49354 11.6068 9.71541 11.6081C9.92644 11.6089 10.0274 11.4776 10.1158 11.3147C10.2432 11.0803 10.3771 10.8493 10.5253 10.5863C10.6648 10.8614 10.7918 11.1045 10.9118 11.3511C10.9877 11.5067 11.0934 11.6206 11.2758 11.6258C11.4695 11.6315 11.5818 11.5153 11.6632 11.352C11.8842 10.9065 12.1096 10.4628 12.3349 10.019C12.36 9.97006 12.3943 9.92542 12.4428 9.85046C12.6915 10.3475 12.9307 10.8086 13.1522 11.2779C13.2358 11.456 13.319 11.602 13.5413 11.6107C13.7827 11.6202 13.8966 11.4724 13.9872 11.28C14.0899 11.0616 14.2026 10.848 14.3347 10.5845C14.4812 10.877 14.6012 11.1141 14.7187 11.3524C14.7984 11.5153 14.9124 11.6323 15.1065 11.6267C15.2881 11.6215 15.3955 11.5088 15.4722 11.3537C15.6993 10.8939 15.932 10.4372 16.1595 9.97742C16.2895 9.71482 16.2397 9.51896 16.0226 9.41019C15.8037 9.30056 15.6161 9.37726 15.4839 9.63552C15.3591 9.87906 15.2391 10.1248 15.0983 10.4073C14.9635 10.1417 14.8474 9.91979 14.7382 9.69446C14.6532 9.51939 14.551 9.38072 14.3282 9.38376C14.1055 9.38679 14.0084 9.53152 13.9248 9.70529C13.8182 9.92672 13.7042 10.1451 13.5729 10.406C13.4356 10.1334 13.3264 9.91502 13.2154 9.69749C13.0044 9.28322 12.7405 9.24942 12.4198 9.59479C12.1226 9.25159 11.8561 9.28626 11.6463 9.69619C11.5341 9.91546 11.4227 10.1352 11.2858 10.4043C11.1393 10.1109 11.0189 9.87386 10.9027 9.63466C10.8 9.42362 10.6193 9.33652 10.41 9.40066C10.2878 9.43792 10.1661 9.55319 10.0959 9.66542C9.95764 9.88556 9.85494 10.1278 9.71541 10.4056C9.57848 10.133 9.47404 9.92109 9.36571 9.71092C9.14644 9.28582 8.89078 9.24899 8.57878 9.59652C8.25551 9.25246 7.99941 9.28842 7.78404 9.70832C7.67268 9.92542 7.56261 10.143 7.43131 10.4012C7.29264 10.1287 7.16914 9.89336 7.05258 9.65459C6.97284 9.49166 6.86451 9.37466 6.66951 9.37336C6.47234 9.37206 6.36661 9.49252 6.28774 9.65502C6.17118 9.89336 6.04898 10.1291 5.90858 10.4064C5.76688 10.1243 5.64598 9.87862 5.52074 9.63509C5.38901 9.37856 5.19791 9.30099 4.98081 9.41062C4.76414 9.52026 4.71518 9.71526 4.84561 9.97872C5.06964 10.4316 5.30018 10.8809 5.52291 11.3342C5.60264 11.4963 5.70621 11.6219 5.89904 11.6271C6.10488 11.6332 6.21494 11.501 6.29728 11.332C6.41038 11.1002 6.52824 10.871 6.66258 10.6032C6.71934 10.7002 6.75964 10.7626 6.79301 10.8276C6.89094 11.0183 6.97891 11.2142 7.08421 11.4005C7.25191 11.6969 7.55784 11.7103 7.74721 11.4295C7.83214 11.303 7.89844 11.1635 7.96821 11.0274C8.16884 10.6331 8.36818 10.2383 8.57878 9.82316Z" fill="#130F40"/>
<path d="M9.90195 4.87207C8.88925 5.217 8.28519 5.9749 7.83582 6.88534C7.75955 7.04004 7.66725 7.0916 7.49955 7.08814C7.00295 7.07817 6.50549 7.08467 6.00195 7.08467C6.29575 6.16817 8.53435 4.9011 9.90195 4.87207Z" fill="#130F40"/>
<path d="M15.0308 7.08364C14.4596 7.08364 13.924 7.09014 13.3889 7.07584C13.3182 7.0741 13.2346 6.97487 13.1839 6.9025C12.9057 6.5021 12.6591 6.077 12.3567 5.6961C12.0364 5.29267 11.5923 5.04264 11.0723 4.88014C12.2241 4.77657 14.4427 6.00854 15.0308 7.08364Z" fill="#130F40"/>
<path d="M5.9668 13.9074C6.5453 13.9074 7.08783 13.9018 7.62993 13.9152C7.69406 13.917 7.76946 14.0136 7.81583 14.0821C8.07713 14.4669 8.30853 14.8742 8.5941 15.2395C8.90046 15.6317 9.31083 15.9038 9.7914 16.0602C9.83256 16.0737 9.8707 16.0966 9.937 16.1274C8.59366 16.1166 6.62503 15.0215 5.9668 13.9074Z" fill="#130F40"/>
<path d="M11.1016 16.1181C12.1091 15.7766 12.7114 15.0261 13.1586 14.123C13.237 13.9644 13.3237 13.8968 13.507 13.9016C14.0036 13.915 14.5002 13.9059 15.0055 13.9059C14.6709 14.848 12.4484 16.1021 11.1016 16.1181Z" fill="#130F40"/>
<path d="M10.0749 7.06897C9.58173 7.06897 9.10506 7.06897 8.58203 7.06897C8.94473 6.422 9.35336 5.8864 10.0749 5.62207C10.0749 6.11434 10.0749 6.58104 10.0749 7.06897Z" fill="#130F40"/>
<path d="M12.4271 7.07222C11.8923 7.07222 11.4148 7.07222 10.9238 7.07222C10.9238 6.58862 10.9238 6.12018 10.9238 5.62012C11.6427 5.87752 12.0518 6.41832 12.4271 7.07222Z" fill="#130F40"/>
<path d="M10.0848 13.9316C10.0848 14.4061 10.0848 14.8694 10.0848 15.3664C9.36117 15.1181 8.95557 14.5764 8.58594 13.9316C9.09944 13.9316 9.57914 13.9316 10.0848 13.9316Z" fill="#130F40"/>
<path d="M12.4136 13.9346C12.0579 14.5694 11.6492 15.105 10.9277 15.3693C10.9277 14.884 10.9277 14.4247 10.9277 13.9346C11.404 13.9346 11.8889 13.9346 12.4136 13.9346Z" fill="#130F40"/>
</svg>
