<svg width="30" height="30" viewBox="0 0 30 30" fill="none" xmlns="http://www.w3.org/2000/svg">
<rect opacity="0.1" width="30" height="30" rx="6" fill="#EC1C24"/>
<path d="M11.0486 15.5369L11.0844 15.5406C11.1644 15.5451 11.2217 15.5451 11.2864 15.5451H18.3422L18.3418 16.3227C18.3414 16.7178 18.341 17.113 18.3435 17.5081C18.3443 17.6924 18.395 17.9377 18.6295 18.0572L18.7272 18.0986L18.7861 18.1141C18.85 18.1285 18.9135 18.1309 18.9708 18.1223L18.979 18.1227L18.9877 18.1211L18.9972 18.1187L19.0244 18.1129C19.1476 18.0793 19.2515 18.0122 19.3669 17.8967C19.9258 17.3402 20.4855 16.7842 21.0448 16.2285C21.9054 15.3735 22.766 14.5181 23.6245 13.6611L23.777 13.5071C23.8586 13.4252 23.9188 13.3425 23.9551 13.2618C23.9852 13.1959 24 13.1296 24 13.064C24 13.0104 23.9897 12.9555 23.9695 12.9011C23.9349 12.8073 23.8693 12.7127 23.7754 12.6193L23.6979 12.5415C22.5113 11.3553 21.3205 10.1727 20.1298 8.99053L19.3854 8.24896C19.3401 8.20392 19.2943 8.15806 19.2445 8.11875C19.153 8.04709 19.047 8.00614 18.937 8.00041L18.9073 8L18.8715 8.00123C18.808 8.00532 18.7515 8.01761 18.6922 8.0389C18.4049 8.14414 18.3435 8.42217 18.3426 8.63674C18.3418 9.02738 18.3418 9.41844 18.3422 9.80908V10.5826L14.8454 10.583C14.587 10.5818 14.3294 10.583 14.071 10.5834L13.6823 10.5842C13.6205 10.5875 13.5702 10.5969 13.5228 10.6129C13.494 10.6227 13.4849 10.6268 13.4758 10.6309L13.4589 10.6375C13.3213 10.7026 13.2269 10.8082 13.1782 10.9478C13.1069 11.1534 13.1527 11.3565 13.3011 11.4978H13.3015L13.3258 11.5199C13.3262 11.5203 13.3266 11.5207 13.3274 11.5211L13.3637 11.5522C13.4066 11.5854 13.4544 11.6108 13.5055 11.628C13.5265 11.6354 13.5479 11.6415 13.5694 11.6464C13.6485 11.6665 13.7178 11.6751 13.7887 11.6751H14.7828H15.2803C15.4006 11.6755 15.5206 11.6755 15.6409 11.6751L18.78 11.6755C18.8348 11.6751 18.8661 11.6759 18.8962 11.6739C19.2453 11.646 19.4472 11.4294 19.4493 11.0801L19.4497 10.2681C19.4501 10.2247 19.4575 10.1809 19.4596 10.169V9.92251L19.6344 10.1121L22.5945 13.053L19.4493 16.1822L19.4497 15.6888C19.4497 15.4726 19.4501 15.2445 19.4485 15.0164C19.4464 14.8121 19.3615 14.6463 19.2094 14.55C19.1567 14.5148 19.1035 14.4911 19.0474 14.4784C19.0169 14.4714 18.9852 14.4665 18.9531 14.4636L18.9275 14.4612C18.8488 14.4554 18.7878 14.4559 18.728 14.4563L11.6569 14.4554L11.6574 13.6205C11.6578 13.2446 11.6582 12.8683 11.6565 12.4924C11.6553 12.3085 11.6046 12.0637 11.3697 11.9433C11.3598 11.938 11.3511 11.9335 11.3412 11.9294C11.326 11.922 11.3157 11.9183 11.3045 11.9142C11.2848 11.906 11.2683 11.9011 11.251 11.8966L11.2159 11.888C11.2019 11.8851 11.1875 11.8827 11.1731 11.8806C11.1475 11.8765 11.1253 11.8749 11.103 11.8749L11.0515 11.8757H11.0502L11.0309 11.8782L11.0136 11.8802L10.9929 11.8843L10.9793 11.8876L10.9653 11.8909C10.8532 11.9212 10.7494 11.9883 10.6327 12.1042L8.9717 13.7561C8.10574 14.6168 7.23938 15.4771 6.37589 16.3403L6.22298 16.4942C6.14055 16.5761 6.08037 16.6593 6.0441 16.7412C6.01607 16.8034 6.00124 16.8636 6 16.9242V16.9545C6.00082 17.0004 6.01072 17.0487 6.03009 17.1003C6.06512 17.1945 6.13024 17.2899 6.2238 17.3824L6.29016 17.4479C7.46442 18.6223 8.63125 19.7811 9.7985 20.9396L10.6171 21.7524C10.6616 21.797 10.7069 21.8425 10.7564 21.881C10.9163 22.0083 11.1174 22.0308 11.3087 21.9612C11.5959 21.856 11.6569 21.5779 11.6574 21.3634C11.6586 20.9826 11.6582 20.6026 11.6578 20.2217V19.4171H13.6312C14.2981 19.4171 14.965 19.4175 15.6318 19.4167H16.2756C16.2884 19.4167 16.3012 19.4163 16.314 19.4155C16.3288 19.4147 16.3387 19.4142 16.3482 19.413C16.3894 19.4097 16.4257 19.4028 16.4611 19.3917C16.476 19.3872 16.4875 19.3831 16.4986 19.3794C16.6631 19.3143 16.7686 19.203 16.8218 19.051C16.8964 18.8377 16.8436 18.6268 16.6808 18.4851L16.6763 18.481C16.6754 18.4806 16.675 18.4802 16.6746 18.4798L16.6627 18.4688C16.6124 18.4245 16.5555 18.3918 16.4941 18.3713C16.4706 18.3627 16.4488 18.357 16.4261 18.3512C16.3511 18.332 16.2818 18.3238 16.2113 18.3238L11.2205 18.3234C11.1681 18.3238 11.136 18.3234 11.1038 18.3254C10.7543 18.3533 10.5532 18.5695 10.5515 18.9184L10.5507 19.7304C10.5507 19.7754 10.5425 19.8205 10.5408 19.8311V20.0784L10.366 19.8872L7.40589 16.9463L10.5515 13.8175L10.5511 14.3375C10.5507 14.5459 10.5499 14.7646 10.5519 14.9833C10.554 15.1876 10.6389 15.353 10.7914 15.4493C10.8429 15.4841 10.8965 15.5078 10.9538 15.5213C10.974 15.5262 10.9954 15.5295 11.0169 15.532L11.0329 15.5344L11.0424 15.5369H11.0486Z" fill="#EC1C24"/>
</svg>
