<svg width="60" height="60" viewBox="0 0 60 60" fill="none" xmlns="http://www.w3.org/2000/svg">
<circle opacity="0.5" cx="30" cy="30" r="29.5" fill="#EA1BFF" fill-opacity="0.0980392" stroke="#EA1BFF"/>
<mask id="mask0_821_49" style="mask-type:alpha" maskUnits="userSpaceOnUse" x="20" y="20" width="20" height="20">
<rect x="20" y="20" width="20" height="20" fill="white"/>
</mask>
<g mask="url(#mask0_821_49)">
<path fill-rule="evenodd" clip-rule="evenodd" d="M39.637 34.2024L39.261 34.0144L30.7861 38.2518C30.2997 38.4982 29.7003 38.4982 29.2139 38.2518L20.739 34.0144L20.363 34.2024C20.1645 34.3016 20.0391 34.5045 20.0391 34.7265C20.0391 34.9484 20.1645 35.1513 20.363 35.2505L29.738 39.938C29.9029 40.0205 30.0971 40.0205 30.262 39.938L39.637 35.2505C39.8355 35.1513 39.9609 34.9484 39.9609 34.7265C39.9609 34.5045 39.8355 34.3016 39.637 34.2024V34.2024Z" fill="#EA1BFF"/>
<path fill-rule="evenodd" clip-rule="evenodd" d="M39.637 31.468L39.261 31.28L30.7861 35.5175C30.2997 35.7639 29.7003 35.7639 29.2139 35.5175L20.739 31.28L20.363 31.468C20.1645 31.5673 20.0391 31.7701 20.0391 31.9921C20.0391 32.2141 20.1645 32.4169 20.363 32.5162L29.738 37.2037C29.9029 37.2862 30.0971 37.2862 30.262 37.2037L39.637 32.5162C39.8355 32.4169 39.9609 32.2141 39.9609 31.9921C39.9609 31.7701 39.8355 31.5673 39.637 31.468V31.468Z" fill="#EA1BFF"/>
<path fill-rule="evenodd" clip-rule="evenodd" d="M24.8472 26.8953L26.019 28.925C26.1808 29.2053 26.5392 29.3013 26.8195 29.1395L27.302 28.8609C27.5945 29.0827 27.9088 29.2655 28.2422 29.4078V29.9609C28.2422 30.2845 28.5045 30.5469 28.8281 30.5469H31.1719C31.4955 30.5469 31.7578 30.2845 31.7578 29.9609V29.4078C32.0912 29.2655 32.4055 29.0827 32.6981 28.8609L33.1806 29.1395C33.4608 29.3013 33.8191 29.2053 33.9809 28.925L35.1528 26.8953C35.3146 26.615 35.2186 26.2567 34.9384 26.0949L34.4579 25.8175C34.4807 25.635 34.4922 25.4531 34.4922 25.2734C34.4922 25.0938 34.4807 24.9119 34.4579 24.7294L34.9384 24.452C35.2186 24.2902 35.3147 23.9318 35.1529 23.6516L33.981 21.6218C33.8192 21.3416 33.4608 21.2455 33.1806 21.4074L32.6981 21.6859C32.4056 21.4641 32.0912 21.2813 31.7578 21.1391V20.5859C31.7578 20.2623 31.4955 20 31.1719 20H28.8281C28.5045 20 28.2422 20.2623 28.2422 20.5859V21.1391C27.9088 21.2813 27.5945 21.4641 27.302 21.6859L26.8195 21.4073C26.5392 21.2455 26.1809 21.3416 26.0191 21.6218L24.8472 23.6516C24.6854 23.9318 24.7814 24.2902 25.0616 24.452L25.5421 24.7294C25.5193 24.9119 25.5078 25.0938 25.5078 25.2734C25.5078 25.4531 25.5193 25.635 25.5421 25.8175L25.0616 26.0949C24.7814 26.2567 24.6854 26.615 24.8472 26.8953L24.8472 26.8953ZM30 23.5156C30.9693 23.5156 31.7578 24.3042 31.7578 25.2734C31.7578 26.2427 30.9693 27.0312 30 27.0312C29.0307 27.0312 28.2422 26.2427 28.2422 25.2734C28.2422 24.3042 29.0307 23.5156 30 23.5156Z" fill="#EA1BFF"/>
<path fill-rule="evenodd" clip-rule="evenodd" d="M20.363 29.7819L29.738 34.4694C29.9029 34.5519 30.0971 34.5519 30.262 34.4694L39.637 29.7819C39.8356 29.6827 39.9609 29.4798 39.9609 29.2579C39.9609 29.0359 39.8356 28.833 39.637 28.7338L36.3359 27.0833C36.2972 27.2195 36.2417 27.3531 36.1678 27.4812L34.9959 29.511C34.6829 30.0531 34.0993 30.39 33.473 30.39C33.473 30.39 33.473 30.39 33.473 30.39C33.277 30.39 33.0826 30.3569 32.8982 30.2931C32.7425 31.1041 32.0276 31.7188 31.1719 31.7188H28.8281C27.9724 31.7188 27.2575 31.1041 27.1018 30.2931C26.9175 30.357 26.7231 30.39 26.527 30.39C25.9007 30.39 25.3171 30.0532 25.0041 29.5109L23.8323 27.4813C23.759 27.3544 23.7025 27.221 23.6632 27.0837L20.363 28.7338C20.1645 28.833 20.0391 29.0359 20.0391 29.2579C20.0391 29.4798 20.1645 29.6827 20.363 29.7819H20.363Z" fill="#EA1BFF"/>
</g>
</svg>
