<svg width="20" height="20" viewBox="0 0 20 20" fill="none" xmlns="http://www.w3.org/2000/svg">
<path d="M5 10C5 12.8 7.2 15 10 15C12.8 15 15 12.8 15 10C15 7.2 12.8 5 10 5C7.2 5 5 7.2 5 10ZM10 7C11.7 7 13 8.3 13 10C13 11.7 11.7 13 10 13C8.3 13 7 11.7 7 10C7 8.3 8.3 7 10 7ZM11 3V1C11 0.4 10.6 0 10 0C9.4 0 9 0.4 9 1V3C9 3.6 9.4 4 10 4C10.6 4 11 3.6 11 3ZM17.1 2.9C16.7 2.5 16.1 2.5 15.7 2.9L14.3 4.3C13.9 4.7 13.9 5.3 14.3 5.7C14.5 5.9 14.8 6 15 6C15.2 6 15.5 5.9 15.7 5.7L17.1 4.3C17.5 4 17.5 3.3 17.1 2.9V2.9ZM19 9H17C16.4 9 16 9.4 16 10C16 10.6 16.4 11 17 11H19C19.6 11 20 10.6 20 10C20 9.4 19.6 9 19 9ZM15.7 14.2C15.3 13.8 14.7 13.8 14.3 14.2C13.9 14.6 13.9 15.2 14.3 15.6L15.7 17C15.9 17.2 16.2 17.3 16.4 17.3C16.6 17.3 16.9 17.2 17.1 17C17.5 16.6 17.5 16 17.1 15.6L15.7 14.2ZM9 17V19C9 19.6 9.4 20 10 20C10.6 20 11 19.6 11 19V17C11 16.4 10.6 16 10 16C9.4 16 9 16.4 9 17ZM2.9 17.1C3.1 17.3 3.4 17.4 3.6 17.4C3.8 17.4 4.1 17.3 4.3 17.1L5.7 15.7C6.1 15.3 6.1 14.7 5.7 14.3C5.3 13.9 4.7 13.9 4.3 14.3L2.9 15.7C2.5 16 2.5 16.7 2.9 17.1ZM0 10C0 10.6 0.4 11 1 11H3C3.6 11 4 10.6 4 10C4 9.4 3.6 9 3 9H1C0.4 9 0 9.4 0 10ZM4.3 2.9C3.9 2.5 3.3 2.5 2.9 2.9C2.5 3.3 2.5 3.9 2.9 4.3L4.3 5.7C4.5 6 4.8 6.1 5.1 6.1C5.4 6.1 5.6 6 5.8 5.8C6.2 5.4 6.2 4.8 5.8 4.4L4.3 2.9Z" fill="black"/>
</svg>
