<svg width="20" height="20" viewBox="0 0 20 20" fill="none" xmlns="http://www.w3.org/2000/svg">
<path d="M9.79363 6.25077C8.09871 5.97445 6.44089 6.14577 4.84535 6.7864C3.07792 7.49648 1.64441 8.61866 0.799018 10.3568C-0.243951 12.5024 0.0210488 14.5729 1.31355 16.5394C1.42246 16.7052 1.5473 16.8606 1.67316 17.0192C1.75753 17.1256 1.75394 17.2773 1.66456 17.3794C1.2298 17.8764 0.794486 18.3719 0.361674 18.8692C0.161518 19.0992 0.11933 19.3431 0.224252 19.5463C0.224252 19.5463 0.224252 19.5469 0.224799 19.5473C0.278314 19.6512 0.370893 19.7444 0.50058 19.8185C0.501596 19.8191 0.502611 19.8195 0.503705 19.8201C0.504252 19.8203 0.504721 19.8206 0.505268 19.8209C0.590814 19.8634 0.686205 19.8823 0.781752 19.8823H9.31222C9.32886 19.8823 9.3455 19.8808 9.36191 19.8778C9.76824 19.8033 10.1819 19.7551 10.5789 19.6457C12.6061 19.088 14.2707 17.9951 15.433 16.2194C16.9133 13.9575 16.724 11.1553 14.9766 9.08734C13.6151 7.47585 11.8513 6.58523 9.79363 6.25077ZM4.79488 14.0259C4.15378 14.0275 3.63253 13.5016 3.63769 12.859C3.6423 12.2266 4.16456 11.7131 4.79902 11.7162C5.43191 11.7193 5.948 12.2389 5.94699 12.8729C5.94644 13.5052 5.42722 14.0249 4.79488 14.0259ZM8.27472 14.0259C7.64386 14.0162 7.13449 13.4887 7.14222 12.8533C7.14996 12.2219 7.6748 11.7105 8.30972 11.7162C8.9416 11.7213 9.45511 12.2441 9.45199 12.8785C9.44886 13.5181 8.91683 14.0362 8.27472 14.0259ZM11.8121 14.0259C11.1782 14.0305 10.6539 13.5176 10.6472 12.8862C10.6405 12.243 11.1597 11.7162 11.8008 11.7162C12.4342 11.7156 12.9539 12.2323 12.9564 12.8651C12.9596 13.498 12.4435 14.0213 11.8121 14.0259Z" fill="#130F40" fill-opacity="0.7"/>
<path d="M19.8832 12.1278L19.8816 12.1284C19.5835 11.7604 19.2875 11.391 18.9863 11.0252C18.7954 10.7936 18.5968 10.5688 18.4043 10.3439C18.6035 10.0691 18.8057 9.81289 18.9821 9.54024C19.1664 9.25571 19.3233 8.96188 19.4525 8.65727C19.6608 8.16641 19.7962 7.64875 19.8553 7.10438C19.8569 7.08946 19.8595 7.07508 19.8621 7.06063C19.911 6.52758 19.8754 6.06344 19.8312 5.74446C19.8312 5.74391 19.8312 5.74344 19.8312 5.74344C19.806 5.59266 19.7803 5.44243 19.7468 5.29477C19.7458 5.29063 19.7453 5.2886 19.7453 5.2886C19.736 5.24797 19.7262 5.20836 19.7154 5.16821C19.2775 3.52016 18.2819 2.26875 16.8382 1.41672C14.0093 -0.253433 11.1036 -0.279683 8.20371 1.23305C6.86543 1.93125 5.84917 2.97993 5.24566 4.38618C5.09386 4.74016 4.99613 5.11782 4.85925 5.52743C4.96011 5.50321 4.99613 5.49704 5.03011 5.48625C6.60253 4.98766 8.20535 4.84665 9.83792 5.08852C11.8307 5.38383 13.6013 6.16594 15.0888 7.5393C16.3 8.6579 17.1186 10.0116 17.4413 11.6407C17.5205 12.0405 17.5493 12.4501 17.6034 12.8715C18.103 12.8715 18.6098 12.8556 19.1146 12.8766C19.3975 12.8884 19.6207 12.8227 19.7775 12.6313L19.7778 12.6317C19.7778 12.6317 19.7784 12.6307 19.7799 12.6291C19.7809 12.6276 19.783 12.6256 19.7855 12.6224C19.7874 12.62 19.7898 12.6168 19.7923 12.6134C19.7927 12.6129 19.7931 12.6124 19.7935 12.6119C19.8007 12.6022 19.8103 12.5888 19.8208 12.5728C19.8257 12.5654 19.8306 12.5577 19.8354 12.55C19.842 12.5395 19.8487 12.5281 19.8557 12.5158C19.8585 12.5108 19.8613 12.5057 19.864 12.5006C19.8729 12.484 19.8818 12.4664 19.8904 12.4474C19.9203 12.3821 19.946 12.3028 19.9547 12.2159L19.8832 12.1278Z" fill="#130F40" fill-opacity="0.7"/>
</svg>
