<svg width="38" height="38" viewBox="0 0 38 38" fill="none" xmlns="http://www.w3.org/2000/svg">
<g filter="url(#filter0_d_5345_3367)">
<rect opacity="0.1" x="4" width="30" height="30" rx="6" fill="#EC1C24"/>
<path d="M15.0486 15.5369L15.0844 15.5406C15.1644 15.5451 15.2217 15.5451 15.2864 15.5451H22.3422L22.3418 16.3227C22.3414 16.7178 22.341 17.113 22.3435 17.5081C22.3443 17.6924 22.395 17.9377 22.6295 18.0572L22.7272 18.0986L22.7861 18.1142C22.85 18.1285 22.9135 18.1309 22.9708 18.1223L22.979 18.1227L22.9877 18.1211L22.9972 18.1187L23.0244 18.1129C23.1476 18.0793 23.2515 18.0122 23.3669 17.8967C23.9258 17.3402 24.4855 16.7842 25.0448 16.2285C25.9054 15.3735 26.766 14.5181 27.6245 13.6611L27.777 13.5071C27.8586 13.4252 27.9188 13.3425 27.9551 13.2618C27.9852 13.1959 28 13.1296 28 13.064C28 13.0104 27.9897 12.9555 27.9695 12.9011C27.9349 12.8073 27.8693 12.7127 27.7754 12.6193L27.6979 12.5415C26.5113 11.3553 25.3205 10.1727 24.1298 8.99053L23.3854 8.24896C23.3401 8.20392 23.2943 8.15806 23.2445 8.11875C23.153 8.04709 23.047 8.00614 22.937 8.00041L22.9073 8L22.8715 8.00123C22.808 8.00532 22.7515 8.01761 22.6922 8.0389C22.4049 8.14414 22.3435 8.42217 22.3426 8.63674C22.3418 9.02738 22.3418 9.41844 22.3422 9.80908V10.5826L18.8454 10.583C18.587 10.5818 18.3294 10.583 18.071 10.5834L17.6823 10.5842C17.6205 10.5875 17.5702 10.5969 17.5228 10.6129C17.494 10.6227 17.4849 10.6268 17.4758 10.6309L17.4589 10.6375C17.3213 10.7026 17.2269 10.8082 17.1782 10.9478C17.1069 11.1534 17.1527 11.3565 17.3011 11.4978H17.3015L17.3258 11.5199C17.3262 11.5203 17.3266 11.5207 17.3274 11.5211L17.3637 11.5522C17.4066 11.5854 17.4544 11.6108 17.5055 11.628C17.5265 11.6354 17.5479 11.6415 17.5694 11.6464C17.6485 11.6665 17.7178 11.6751 17.7887 11.6751H18.7828H19.2803C19.4006 11.6755 19.5206 11.6755 19.6409 11.6751L22.78 11.6755C22.8348 11.6751 22.8661 11.6759 22.8962 11.6739C23.2453 11.646 23.4472 11.4294 23.4493 11.0801L23.4497 10.2681C23.4501 10.2247 23.4575 10.1809 23.4596 10.169V9.92251L23.6344 10.1121L26.5945 13.053L23.4493 16.1822L23.4497 15.6888C23.4497 15.4726 23.4501 15.2445 23.4485 15.0164C23.4464 14.8121 23.3615 14.6463 23.2094 14.55C23.1567 14.5148 23.1035 14.4911 23.0474 14.4784C23.0169 14.4714 22.9852 14.4665 22.9531 14.4636L22.9275 14.4612C22.8488 14.4554 22.7878 14.4559 22.728 14.4563L15.6569 14.4554L15.6574 13.6205C15.6578 13.2446 15.6582 12.8683 15.6565 12.4924C15.6553 12.3085 15.6046 12.0637 15.3697 11.9433C15.3598 11.938 15.3511 11.9335 15.3412 11.9294C15.326 11.922 15.3157 11.9183 15.3045 11.9142C15.2848 11.906 15.2683 11.9011 15.251 11.8966L15.2159 11.888C15.2019 11.8851 15.1875 11.8827 15.1731 11.8806C15.1475 11.8765 15.1253 11.8749 15.103 11.8749L15.0515 11.8757H15.0502L15.0309 11.8782L15.0136 11.8802L14.9929 11.8843L14.9793 11.8876L14.9653 11.8909C14.8532 11.9212 14.7494 11.9883 14.6327 12.1042L12.9717 13.7561C12.1057 14.6168 11.2394 15.4771 10.3759 16.3403L10.223 16.4942C10.1405 16.5761 10.0804 16.6593 10.0441 16.7412C10.0161 16.8034 10.0012 16.8636 10 16.9242V16.9545C10.0008 17.0004 10.0107 17.0487 10.0301 17.1003C10.0651 17.1945 10.1302 17.2899 10.2238 17.3824L10.2902 17.4479C11.4644 18.6223 12.6313 19.7811 13.7985 20.9396L14.6171 21.7524C14.6616 21.797 14.7069 21.8425 14.7564 21.881C14.9163 22.0083 15.1174 22.0308 15.3087 21.9612C15.5959 21.856 15.6569 21.5779 15.6574 21.3634C15.6586 20.9826 15.6582 20.6026 15.6578 20.2217V19.4171H17.6312C18.2981 19.4171 18.965 19.4175 19.6318 19.4167H20.2756C20.2884 19.4167 20.3012 19.4163 20.314 19.4155C20.3288 19.4147 20.3387 19.4142 20.3482 19.413C20.3894 19.4097 20.4257 19.4028 20.4611 19.3917C20.476 19.3872 20.4875 19.3831 20.4986 19.3794C20.6631 19.3143 20.7686 19.203 20.8218 19.051C20.8964 18.8377 20.8436 18.6268 20.6808 18.4851L20.6763 18.481C20.6754 18.4806 20.675 18.4802 20.6746 18.4798L20.6627 18.4688C20.6124 18.4245 20.5555 18.3918 20.4941 18.3713C20.4706 18.3627 20.4488 18.357 20.4261 18.3512C20.3511 18.332 20.2818 18.3238 20.2113 18.3238L15.2205 18.3234C15.1681 18.3238 15.136 18.3234 15.1038 18.3254C14.7543 18.3533 14.5532 18.5695 14.5515 18.9184L14.5507 19.7304C14.5507 19.7754 14.5425 19.8205 14.5408 19.8311V20.0784L14.366 19.8872L11.4059 16.9463L14.5515 13.8175L14.5511 14.3375C14.5507 14.5459 14.5499 14.7646 14.5519 14.9833C14.554 15.1876 14.6389 15.353 14.7914 15.4493C14.8429 15.4841 14.8965 15.5078 14.9538 15.5213C14.974 15.5262 14.9954 15.5295 15.0169 15.532L15.0329 15.5344L15.0424 15.5369H15.0486Z" fill="#EC1C24"/>
</g>
<defs>
<filter id="filter0_d_5345_3367" x="0" y="0" width="38" height="38" filterUnits="userSpaceOnUse" color-interpolation-filters="sRGB">
<feFlood flood-opacity="0" result="BackgroundImageFix"/>
<feColorMatrix in="SourceAlpha" type="matrix" values="0 0 0 0 0 0 0 0 0 0 0 0 0 0 0 0 0 0 127 0" result="hardAlpha"/>
<feOffset dy="4"/>
<feGaussianBlur stdDeviation="2"/>
<feComposite in2="hardAlpha" operator="out"/>
<feColorMatrix type="matrix" values="0 0 0 0 0 0 0 0 0 0 0 0 0 0 0 0 0 0 0.25 0"/>
<feBlend mode="normal" in2="BackgroundImageFix" result="effect1_dropShadow_5345_3367"/>
<feBlend mode="normal" in="SourceGraphic" in2="effect1_dropShadow_5345_3367" result="shape"/>
</filter>
</defs>
</svg>
