<svg width="21" height="21" viewBox="0 0 21 21" fill="none" xmlns="http://www.w3.org/2000/svg">
<path d="M0 5.6C0 3.63982 0 2.65972 0.381477 1.91103C0.717034 1.25247 1.25247 0.717034 1.91103 0.381477C2.65972 0 3.63982 0 5.6 0H15.4C17.3602 0 18.3403 0 19.089 0.381477C19.7475 0.717034 20.283 1.25247 20.6185 1.91103C21 2.65972 21 3.63982 21 5.6V15.4C21 17.3602 21 18.3403 20.6185 19.089C20.283 19.7475 19.7475 20.283 19.089 20.6185C18.3403 21 17.3602 21 15.4 21H5.6C3.63982 21 2.65972 21 1.91103 20.6185C1.25247 20.283 0.717034 19.7475 0.381477 19.089C0 18.3403 0 17.3602 0 15.4V5.6Z" fill="#130F40" fill-opacity="0.1"/>
<path fill-rule="evenodd" clip-rule="evenodd" d="M17.3728 16.863C17.5 16.6134 17.5 16.2867 17.5 15.6333L17.5 5.36667C17.5 4.71327 17.5 4.38657 17.3728 4.13701C17.261 3.91749 17.0825 3.73901 16.863 3.62716C16.6134 3.5 16.2867 3.5 15.6333 3.5L13.5333 3.5C12.8799 3.5 12.5532 3.5 12.3037 3.62716C12.0842 3.73901 11.9057 3.91749 11.7938 4.13701C11.6667 4.38657 11.6667 4.71327 11.6667 5.36667L11.6667 15.6333C11.6667 16.2867 11.6667 16.6134 11.7938 16.863C11.9057 17.0825 12.0842 17.261 12.3037 17.3728C12.5532 17.5 12.8799 17.5 13.5333 17.5L15.6333 17.5C16.2867 17.5 16.6134 17.5 16.863 17.3728C17.0825 17.261 17.261 17.0825 17.3728 16.863ZM9.20617 16.863C9.33333 16.6134 9.33333 16.2867 9.33333 15.6333L9.33333 12.3667C9.33333 11.7133 9.33333 11.3866 9.20617 11.137C9.09432 10.9175 8.91584 10.739 8.69632 10.6272C8.44676 10.5 8.12006 10.5 7.46667 10.5L5.36667 10.5C4.71327 10.5 4.38657 10.5 4.13701 10.6272C3.91749 10.739 3.73901 10.9175 3.62716 11.137C3.5 11.3866 3.5 11.7133 3.5 12.3667L3.5 15.6333C3.5 16.2867 3.5 16.6134 3.62716 16.863C3.73901 17.0825 3.91749 17.261 4.13701 17.3728C4.38657 17.5 4.71327 17.5 5.36667 17.5L7.46667 17.5C8.12006 17.5 8.44676 17.5 8.69632 17.3728C8.91584 17.261 9.09432 17.0825 9.20617 16.863Z" fill="#130F40"/>
</svg>
