<svg width="15" height="13" viewBox="0 0 15 13" fill="none" xmlns="http://www.w3.org/2000/svg">
<path opacity="0.5" d="M7.82617 0.347412V2.91305H9.87205C9.39466 1.52652 8.65769 0.552174 7.82617 0.347412Z" fill="url(#paint0_linear_119_96)"/>
<path opacity="0.5" d="M5.12793 2.91305H7.17381V0.347412C6.34229 0.552174 5.60532 1.52652 5.12793 2.91305Z" fill="url(#paint1_linear_119_96)"/>
<path opacity="0.5" d="M12.108 2.36915C11.3515 1.52525 10.3856 0.91677 9.32715 0.587402C9.83649 1.15348 10.2611 1.95174 10.5656 2.91306H11.8648C11.9932 2.91306 12.11 2.8374 12.1628 2.72001C12.2156 2.60262 12.1941 2.46502 12.108 2.36915Z" fill="url(#paint2_linear_119_96)"/>
<path opacity="0.5" d="M2.89166 2.36915C2.80557 2.46502 2.78405 2.60262 2.83623 2.72001C2.88906 2.8374 3.00514 2.91306 3.13427 2.91306H4.4334C4.73797 1.95177 5.16254 1.15351 5.67187 0.587402C4.61404 0.91677 3.64752 1.52525 2.89166 2.36915Z" fill="url(#paint3_linear_119_96)"/>
<path opacity="0.5" d="M5.12793 10.0869C5.60532 11.4734 6.34229 12.4478 7.17381 12.6526V10.0869H5.12793Z" fill="url(#paint4_linear_119_96)"/>
<path opacity="0.5" d="M7.82617 10.0869V12.6526C8.65769 12.4478 9.39466 11.4734 9.87205 10.0869H7.82617Z" fill="url(#paint5_linear_119_96)"/>
<path opacity="0.5" d="M12.1638 10.28C12.1109 10.1626 11.9942 10.0869 11.8657 10.0869H10.5666C10.262 11.0482 9.83746 11.8465 9.32812 12.4126C10.3866 12.0832 11.3525 11.4748 12.109 10.6308C12.1944 10.535 12.216 10.3974 12.1638 10.28Z" fill="url(#paint6_linear_119_96)"/>
<path opacity="0.5" d="M4.4334 10.0869H3.13427C3.00578 10.0869 2.88906 10.1626 2.83623 10.28C2.78405 10.3974 2.80557 10.535 2.89166 10.6308C3.64819 11.4747 4.61404 12.0832 5.67252 12.4126C5.16254 11.8465 4.73797 11.0482 4.4334 10.0869Z" fill="url(#paint7_linear_119_96)"/>
<path d="M13.3695 3.56519H1.63042C0.731097 3.56519 0 4.29693 0 5.19564V7.80433C0 8.70301 0.731097 9.43475 1.63042 9.43475H13.3695C14.2689 9.43475 15 8.70301 15 7.80433V5.19564C15 4.29693 14.2689 3.56519 13.3695 3.56519ZM5.20762 5.27454L4.55545 7.88323C4.52024 8.0241 4.39633 8.12452 4.25155 8.12975C4.24699 8.12975 4.24241 8.12975 4.2385 8.12975C4.09827 8.12975 3.97372 8.04039 3.92872 7.90671C3.81939 7.57788 3.35404 7.5786 3.24458 7.90738C3.19894 8.04434 3.09525 8.13693 2.9224 8.12978C2.77762 8.12455 2.65371 8.02349 2.6185 7.88326L1.9663 5.27454C1.92262 5.10041 2.02827 4.92301 2.20368 4.87933C2.37586 4.83497 2.55522 4.94129 2.5989 5.11671L2.75071 5.72448C2.81723 5.9908 3.19034 6.00516 3.27714 5.74475C3.3665 5.47866 3.80736 5.47866 3.89604 5.74475C3.98284 6.00516 4.35595 5.9908 4.42247 5.72448L4.57428 5.11671C4.61864 4.94126 4.79277 4.83561 4.97014 4.87933C5.14565 4.92301 5.2513 5.10041 5.20762 5.27454ZM9.12066 5.27454L8.46849 7.88323C8.43328 8.0241 8.30937 8.12452 8.16459 8.12975C8.16004 8.12975 8.15545 8.12975 8.15154 8.12975C8.01131 8.12975 7.88676 8.04039 7.84176 7.90671C7.73243 7.57788 7.26708 7.5786 7.15762 7.90738C7.11198 8.04434 7.00566 8.13693 6.83544 8.12978C6.69066 8.12455 6.56676 8.02349 6.53154 7.88326L5.87937 5.27457C5.83569 5.10044 5.94134 4.92304 6.11676 4.87936C6.28893 4.835 6.46893 4.94132 6.51197 5.11674L6.66378 5.72451C6.7303 5.99083 7.10341 6.00519 7.19021 5.74478C7.27957 5.47869 7.72043 5.47869 7.80912 5.74478C7.89592 6.00519 8.26903 5.99083 8.33555 5.72451L8.48736 5.11674C8.5304 4.94129 8.70517 4.83564 8.88257 4.87936C9.05869 4.92301 9.16434 5.10041 9.12066 5.27454ZM13.0337 5.27454L12.3815 7.88323C12.3463 8.0241 12.2224 8.12452 12.0776 8.12975C12.0731 8.12975 12.0685 8.12975 12.0646 8.12975C11.9243 8.12975 11.7998 8.04039 11.7548 7.90671C11.6455 7.57788 11.1801 7.5786 11.0707 7.90738C11.025 8.04434 10.9155 8.13693 10.7485 8.12978C10.6037 8.12455 10.4798 8.02349 10.4446 7.88326L9.79242 5.27457C9.74937 5.0998 9.85502 4.92304 10.0298 4.87936C10.202 4.835 10.382 4.94132 10.425 5.11674L10.5768 5.72451C10.6433 5.99083 11.0165 6.00519 11.1033 5.74478C11.1926 5.47869 11.6335 5.47869 11.7222 5.74478C11.809 6.00519 12.1821 5.99083 12.2486 5.72451L12.4004 5.11674C12.4434 4.94129 12.6176 4.83564 12.7956 4.87936C12.9717 4.92301 13.0774 5.10041 13.0337 5.27454Z" fill="url(#paint8_linear_119_96)"/>
<defs>
<linearGradient id="paint0_linear_119_96" x1="7.82617" y1="0.347412" x2="7.82617" y2="2.91305" gradientUnits="userSpaceOnUse">
<stop stop-color="#C2FFD5"/>
<stop offset="1" stop-color="#17DC69"/>
</linearGradient>
<linearGradient id="paint1_linear_119_96" x1="5.12793" y1="0.347412" x2="5.12793" y2="2.91305" gradientUnits="userSpaceOnUse">
<stop stop-color="#C2FFD5"/>
<stop offset="1" stop-color="#17DC69"/>
</linearGradient>
<linearGradient id="paint2_linear_119_96" x1="9.32715" y1="0.587402" x2="9.32715" y2="2.91306" gradientUnits="userSpaceOnUse">
<stop stop-color="#C2FFD5"/>
<stop offset="1" stop-color="#17DC69"/>
</linearGradient>
<linearGradient id="paint3_linear_119_96" x1="2.80811" y1="0.587402" x2="2.80811" y2="2.91306" gradientUnits="userSpaceOnUse">
<stop stop-color="#C2FFD5"/>
<stop offset="1" stop-color="#17DC69"/>
</linearGradient>
<linearGradient id="paint4_linear_119_96" x1="5.12793" y1="10.0869" x2="5.12793" y2="12.6526" gradientUnits="userSpaceOnUse">
<stop stop-color="#C2FFD5"/>
<stop offset="1" stop-color="#17DC69"/>
</linearGradient>
<linearGradient id="paint5_linear_119_96" x1="7.82617" y1="10.0869" x2="7.82617" y2="12.6526" gradientUnits="userSpaceOnUse">
<stop stop-color="#C2FFD5"/>
<stop offset="1" stop-color="#17DC69"/>
</linearGradient>
<linearGradient id="paint6_linear_119_96" x1="9.32812" y1="10.0869" x2="9.32812" y2="12.4126" gradientUnits="userSpaceOnUse">
<stop stop-color="#C2FFD5"/>
<stop offset="1" stop-color="#17DC69"/>
</linearGradient>
<linearGradient id="paint7_linear_119_96" x1="2.80811" y1="10.0869" x2="2.80811" y2="12.4126" gradientUnits="userSpaceOnUse">
<stop stop-color="#C2FFD5"/>
<stop offset="1" stop-color="#17DC69"/>
</linearGradient>
<linearGradient id="paint8_linear_119_96" x1="0" y1="3.56519" x2="0" y2="9.43475" gradientUnits="userSpaceOnUse">
<stop stop-color="#C2FFD5"/>
<stop offset="1" stop-color="#17DC69"/>
</linearGradient>
</defs>
</svg>
