<svg xmlns="http://www.w3.org/2000/svg" width="14" height="14" viewBox="0 0 14 14"><path fill-rule="evenodd" d="M10.766 8.392h-.12A2.095 2.095 0 008.678 7c-.897 0-1.688.578-1.974 1.407-.734.1-1.324.659-1.47 1.377h-.036c-.767 0-1.391.624-1.391 1.391 0 .768.624 1.392 1.391 1.392h5.568c1.151 0 2.11-.936 2.11-2.088 0-1.15-.959-2.087-2.11-2.087z" clip-rule="evenodd"/><path fill-rule="evenodd" d="M10.07 1.433H1v2.783h9.07V1.433zM3.11 3.52h-.695v-.695h.696v.695zm1.392 0h-.695v-.695h.695v.695zm1.392 0h-.696v-.695h.696v.695z" clip-rule="evenodd"/><path fill-rule="evenodd" d="M8.678 6.304c.5 0 .977.136 1.392.375V4.912H1V7h5.845a2.777 2.777 0 011.833-.696zm-5.567 0h-.696v-.696h.696v.696zm1.391 0h-.695v-.696h.695v.696zm1.392 0h-.696v-.696h.696v.696zM4.71 9.145a2.44 2.44 0 011.495-1.337c.02-.039.047-.074.069-.112H1v2.784h2.23a2.096 2.096 0 011.48-1.335zm-.903-.753h.695v.696h-.695v-.696zm-.696.696h-.696v-.696h.696v.696z" clip-rule="evenodd"/><path fill-opacity=".05" d="M0 3.733c0-1.306 0-1.96.254-2.459C.478.835.835.478 1.274.254 1.774 0 2.427 0 3.734 0h6.533c1.306 0 1.96 0 2.459.254.439.224.796.581 1.02 1.02.254.5.254 1.153.254 2.46v6.533c0 1.306 0 1.96-.254 2.459-.224.439-.581.796-1.02 1.02-.5.254-1.153.254-2.46.254H3.734c-1.306 0-1.96 0-2.459-.254a2.334 2.334 0 01-1.02-1.02C0 12.226 0 11.573 0 10.266V3.734z"/><defs><linearGradient id="paint0_linear_545:145" x1="3.807" x2="3.807" y1="7" y2="12.567" gradientUnits="userSpaceOnUse"><stop stop-color="#fff"/><stop offset="1" stop-color="#130F40"/></linearGradient><linearGradient id="paint1_linear_545:145" x1="1" x2="1" y1="1.433" y2="4.216" gradientUnits="userSpaceOnUse"><stop stop-color="#fff"/><stop offset="1" stop-color="#130F40"/></linearGradient></defs></svg>
