<svg xmlns="http://www.w3.org/2000/svg" width="14" height="14" viewBox="0 0 14 14"><path fill-rule="evenodd" d="M7.231 10.068v-.843h2.941c1.434 0 2.6-1.256 2.6-2.8 0-1.543-1.166-2.8-2.6-2.8h-.31A4.133 4.133 0 008.56 1.814 3.669 3.669 0 006.26 1C4.29 1 2.642 2.592 2.409 4.67 1.569 5.013 1 5.884 1 6.871c0 1.298.98 2.354 2.186 2.354h3.355v.843a1.605 1.605 0 01.69 0zM6.886 4.09c1.206 0 2.188 1.057 2.188 2.356h-.69c0-.89-.672-1.613-1.498-1.613s-1.498.724-1.498 1.613h-.69c0-1.3.982-2.356 2.188-2.356zM6.542 7.19v-.743h.69v.743h-.69zM1 11.515h4.197a1.998 1.998 0 000 .743H1v-.743zm7.575.743a1.995 1.995 0 000-.743h4.197v.743H8.575zM6.887 13c.57 0 1.034-.498 1.034-1.113s-.463-1.114-1.034-1.114-1.034.499-1.034 1.114c0 .614.463 1.113 1.034 1.113z" clip-rule="evenodd"/><path fill-opacity=".05" d="M0 3.733c0-1.306 0-1.96.254-2.459C.478.835.835.478 1.274.254 1.774 0 2.427 0 3.734 0h6.533c1.306 0 1.96 0 2.459.254.439.224.796.581 1.02 1.02.254.5.254 1.153.254 2.46v6.533c0 1.306 0 1.96-.254 2.459-.224.439-.581.796-1.02 1.02-.5.254-1.153.254-2.46.254H3.734c-1.306 0-1.96 0-2.459-.254a2.334 2.334 0 01-1.02-1.02C0 12.226 0 11.573 0 10.266V3.734z"/><defs><linearGradient id="paint0_linear_545:149" x1="1" x2="1" y1="1" y2="13" gradientUnits="userSpaceOnUse"><stop stop-color="#656096"/><stop offset="1" stop-color="#130F40"/></linearGradient></defs></svg>
