<svg xmlns="http://www.w3.org/2000/svg" width="14" height="14" viewBox="0 0 14 14"><mask id="a" width="12" height="12" x="1" y="1" maskUnits="userSpaceOnUse" style="mask-type:alpha"><path d="M13 1H1v12h12V1z"/></mask><g mask="url(#a)"><path fill-rule="evenodd" d="M3.133 8.055V7A3.872 3.872 0 017 3.133 3.871 3.871 0 0110.867 7v1.055c1.163 0 2.133-.947 2.133-2.11 0-.904-.605-1.702-1.44-1.992-.12-1.248-1.173-2.25-2.45-2.25-.422 0-.83.11-1.199.32A3.124 3.124 0 005.594 1c-1.655 0-3.018 1.3-3.15 2.952C1.606 4.242 1 5.04 1 5.945c0 1.163.97 2.11 2.133 2.11z" clip-rule="evenodd"/><path fill-rule="evenodd" d="M12.93 12.86a.351.351 0 00-.07-.493l-2.696-2.004V9.24c-.2.285-.435.543-.703.764v.535c0 .11.052.215.14.281l2.837 2.11a.351.351 0 00.492-.07z" clip-rule="evenodd"/><path fill-rule="evenodd" d="M9.564 12.897a.352.352 0 00.497-.497l-1.303-1.303v-.633a3.834 3.834 0 01-.703.277v.501c0 .094.037.183.103.249l1.406 1.406z" clip-rule="evenodd"/><path fill-rule="evenodd" d="M6.648 10.873v1.775a.351.351 0 10.704 0v-1.775A3.89 3.89 0 017 10.89a3.89 3.89 0 01-.352-.017z" clip-rule="evenodd"/><path fill-rule="evenodd" d="M4.436 12.897l1.406-1.406a.351.351 0 00.103-.249v-.501a3.834 3.834 0 01-.703-.277v.633L3.94 12.4a.352.352 0 10.497.497z" clip-rule="evenodd"/><path fill-rule="evenodd" d="M4.54 10.54v-.536a3.898 3.898 0 01-.704-.764v1.123l-2.695 2.004a.351.351 0 10.421.563l2.836-2.11a.351.351 0 00.141-.28z" clip-rule="evenodd"/><path fill-rule="evenodd" d="M3.872 6.648h1.735C5.674 5.2 6.146 3.836 7 3.836c-1.624 0-2.95 1.235-3.128 2.812zM10.129 6.648C9.95 5.071 8.623 3.836 7 3.836c.854 0 1.326 1.363 1.393 2.812h1.736zM7 4.54c-.188 0-.622.74-.69 2.108h1.38C7.623 5.281 7.188 4.54 7 4.54zM10.129 7.352H8.393C8.326 8.8 7.854 10.187 7 10.187c1.624 0 2.951-1.258 3.129-2.835zM7 9.484c.188 0 .623-.765.69-2.132H6.31c.068 1.367.502 2.132.69 2.132zM5.607 7.352H3.872C4.049 8.929 5.376 10.187 7 10.187c-.854 0-1.326-1.386-1.393-2.835z" clip-rule="evenodd"/></g><g><path fill-opacity=".05" d="M0 3.733c0-1.306 0-1.96.254-2.459C.478.835.835.478 1.274.254 1.774 0 2.427 0 3.734 0h6.533c1.306 0 1.96 0 2.459.254.439.224.796.581 1.02 1.02.254.5.254 1.153.254 2.46v6.533c0 1.306 0 1.96-.254 2.459-.224.439-.581.796-1.02 1.02-.5.254-1.153.254-2.46.254H3.734c-1.306 0-1.96 0-2.459-.254a2.334 2.334 0 01-1.02-1.02C0 12.226 0 11.573 0 10.266V3.734z"/></g><defs><linearGradient id="paint0_linear_545:148" x1="1" x2="1" y1="1" y2="8.055" gradientUnits="userSpaceOnUse"><stop stop-color="#656096"/><stop offset="1" stop-color="#130F40"/></linearGradient><linearGradient id="paint1_linear_545:148" x1="11.23" x2="11.23" y1="9.24" y2="13" gradientUnits="userSpaceOnUse"><stop stop-color="#fff"/><stop offset="1" stop-color="#130F40"/></linearGradient><linearGradient id="paint2_linear_545:148" x1="9.109" x2="9.109" y1="10.464" y2="13" gradientUnits="userSpaceOnUse"><stop stop-color="#fff"/><stop offset="1" stop-color="#130F40"/></linearGradient><linearGradient id="paint3_linear_545:148" x1="7" x2="7" y1="10.873" y2="13" gradientUnits="userSpaceOnUse"><stop stop-color="#fff"/><stop offset="1" stop-color="#130F40"/></linearGradient><linearGradient id="paint4_linear_545:148" x1="4.891" x2="4.891" y1="10.464" y2="13" gradientUnits="userSpaceOnUse"><stop stop-color="#fff"/><stop offset="1" stop-color="#130F40"/></linearGradient><linearGradient id="paint5_linear_545:148" x1="2.77" x2="2.77" y1="9.24" y2="13" gradientUnits="userSpaceOnUse"><stop stop-color="#fff"/><stop offset="1" stop-color="#130F40"/></linearGradient></defs></svg>
