<svg width="21" height="21" viewBox="0 0 21 21" fill="none" xmlns="http://www.w3.org/2000/svg">
<path d="M0 5.6C0 3.63982 0 2.65972 0.381477 1.91103C0.717034 1.25247 1.25247 0.717034 1.91103 0.381477C2.65972 0 3.63982 0 5.6 0H15.4C17.3602 0 18.3403 0 19.089 0.381477C19.7475 0.717034 20.283 1.25247 20.6185 1.91103C21 2.65972 21 3.63982 21 5.6V15.4C21 17.3602 21 18.3403 20.6185 19.089C20.283 19.7475 19.7475 20.283 19.089 20.6185C18.3403 21 17.3602 21 15.4 21H5.6C3.63982 21 2.65972 21 1.91103 20.6185C1.25247 20.283 0.717034 19.7475 0.381477 19.089C0 18.3403 0 17.3602 0 15.4V5.6Z" fill="#130F40" fill-opacity="0.1"/>
<path fill-rule="evenodd" clip-rule="evenodd" d="M16.9735 6.30619C17.1167 5.37209 16.6079 4.76503 15.6943 4.76462C14.5526 4.76411 13.4098 4.79577 12.2696 4.75457C11.3657 4.72193 10.7784 5.38426 10.9267 6.30619C12.9412 6.30619 14.9584 6.30619 16.9735 6.30619Z" fill="#130F40"/>
<path fill-rule="evenodd" clip-rule="evenodd" d="M16.9884 7.09375C14.9625 7.09375 12.9474 7.09375 10.9189 7.09375C10.9189 7.34039 10.9189 7.57434 10.9189 7.82896C12.934 7.82896 14.9478 7.82896 16.9884 7.82896C16.9884 7.57928 16.9884 7.34444 16.9884 7.09375Z" fill="#130F40"/>
<path fill-rule="evenodd" clip-rule="evenodd" d="M14.7026 8.62207C14.1974 8.62207 13.7047 8.62207 13.2007 8.62207C13.2007 8.87035 13.2007 9.10435 13.2007 9.35806C13.6979 9.35806 14.1899 9.35806 14.7026 9.35806C14.7026 9.10301 14.7026 8.86946 14.7026 8.62207Z" fill="#130F40"/>
<path fill-rule="evenodd" clip-rule="evenodd" d="M16.9998 8.88753V8.62286H15.4755C15.4755 8.97647 15.4774 9.31476 15.4752 9.65305C15.4728 9.99913 15.3447 10.1329 15.0021 10.1346C14.3083 10.1383 13.6148 10.1386 12.921 10.1351C12.558 10.1332 12.4328 10.0042 12.4306 9.64472C12.4288 9.31449 12.4304 8.98399 12.4304 8.63065H10.909V10.1235H9.38415V9.79196C9.38415 8.55327 9.38442 7.31431 9.38361 6.07535C9.38334 5.67929 9.26404 5.5573 8.87228 5.55381C8.54447 5.55112 8.21693 5.55327 7.8609 5.55327C7.8609 5.18569 7.86171 4.84848 7.86064 4.51099C7.85929 4.13025 7.73542 4.00155 7.36489 4.00101C6.40887 3.99966 5.45284 3.99966 4.49682 4.00101C4.12602 4.00155 4.00188 4.12998 4.00134 4.51099C4.00054 5.45305 4.00027 6.39483 4.00134 7.33661C4.00188 7.71628 4.12414 7.84472 4.49951 7.84579C5.45553 7.84875 6.41156 7.84875 7.36731 7.84579C7.74241 7.84445 7.85929 7.7187 7.86064 7.33339C7.86171 7.0045 7.86091 6.67535 7.86091 6.3333H8.60439V10.1171H7.86091C7.86091 9.76509 7.86252 9.42761 7.86037 9.09013C7.85795 8.74673 7.72924 8.61158 7.38451 8.61023C6.41155 8.60647 5.4386 8.6062 4.46592 8.6105C4.13569 8.61211 4.00269 8.74915 4.00188 9.07562C3.99946 10.0343 3.99973 10.9933 4.00188 11.952C4.00242 12.2857 4.13059 12.4263 4.45544 12.4279C5.43672 12.433 6.418 12.4327 7.39928 12.4281C7.73005 12.4268 7.85714 12.2914 7.8601 11.9609C7.86305 11.6226 7.86064 11.2843 7.86064 10.9243H8.60627V13.9396H7.86064C7.86064 13.8334 7.86386 13.7268 7.8601 13.6201C7.85043 13.35 7.72306 13.199 7.4584 13.1972C6.44326 13.1894 5.42786 13.1894 4.41272 13.1964C4.13381 13.1982 4.00349 13.3471 4.00242 13.6357C3.99919 14.6199 3.99919 15.6041 4.00242 16.5886C4.00322 16.8979 4.14402 17.0366 4.45598 17.0374C5.43753 17.0401 6.41881 17.0401 7.40009 17.0374C7.72468 17.0366 7.85849 16.899 7.8601 16.5693C7.86279 15.9682 7.86064 15.3669 7.86064 14.7215C8.23251 14.7215 8.57 14.7252 8.90721 14.7204C9.25195 14.7156 9.38334 14.5847 9.38415 14.2408C9.3863 13.231 9.38442 12.2212 9.38388 11.2115V10.9197H10.906V11.2158C10.906 12.2172 10.9044 13.2184 10.9066 14.2198C10.9082 15.0082 11.3591 15.477 12.1445 15.483C13.3372 15.4924 14.53 15.4932 15.723 15.484C16.5605 15.4779 16.999 15.0213 16.9996 14.1825C17.0004 12.4174 16.9998 10.6523 16.9998 8.88753ZM6.22131 6.50259C6.22131 6.57675 6.16112 6.63694 6.08696 6.63694H5.81826C5.7441 6.63694 5.68391 6.57675 5.68391 6.50259V6.23389C5.68391 6.15973 5.7441 6.09955 5.81826 6.09955H6.08696C6.16112 6.09955 6.22131 6.15973 6.22131 6.23389V6.50259ZM6.22131 5.46861C6.22131 5.54304 6.16112 5.60296 6.08696 5.60296H5.81826C5.7441 5.60296 5.68391 5.54304 5.68391 5.46861V5.19991C5.68391 5.12575 5.7441 5.06556 5.81826 5.06556H6.08696C6.16112 5.06556 6.22131 5.12575 6.22131 5.19991V5.46861ZM6.22131 11.1709C6.22131 11.2451 6.16112 11.3053 6.08696 11.3053H5.81826C5.7441 11.3053 5.68391 11.2451 5.68391 11.1709V10.9022C5.68391 10.8281 5.7441 10.7679 5.81826 10.7679H6.08696C6.16112 10.7679 6.22131 10.8281 6.22131 10.9022V11.1709ZM6.22131 10.1369C6.22131 10.2111 6.16112 10.2713 6.08696 10.2713H5.81826C5.7441 10.2713 5.68391 10.2111 5.68391 10.1369V9.86824C5.68391 9.79408 5.7441 9.73389 5.81826 9.73389H6.08696C6.16112 9.73389 6.22131 9.79408 6.22131 9.86824V10.1369ZM6.22131 15.8393C6.22131 15.9134 6.16112 15.9736 6.08696 15.9736H5.81826C5.7441 15.9736 5.68391 15.9134 5.68391 15.8393V15.5706C5.68391 15.4964 5.7441 15.4362 5.81826 15.4362H6.08696C6.16112 15.4362 6.22131 15.4964 6.22131 15.5706V15.8393ZM6.22131 14.8053C6.22131 14.8794 6.16112 14.9396 6.08696 14.9396H5.81826C5.7441 14.9396 5.68391 14.8794 5.68391 14.8053V14.5366C5.68391 14.4624 5.7441 14.4022 5.81826 14.4022H6.08696C6.16112 14.4022 6.22131 14.4624 6.22131 14.5366V14.8053ZM13.9639 13.9468C13.5423 13.9517 13.2011 13.6214 13.1949 13.2025C13.1887 12.7847 13.5235 12.4419 13.9429 12.4368C14.3618 12.4317 14.706 12.7651 14.7122 13.1824C14.7184 13.5999 14.3836 13.942 13.9639 13.9468Z" fill="#130F40"/>
<path fill-rule="evenodd" clip-rule="evenodd" d="M10.9267 6.30619C12.9413 6.30619 14.9585 6.30619 16.9735 6.30619C17.1167 5.37209 16.608 4.76503 15.6943 4.76462C14.5526 4.76411 13.4098 4.79577 12.2697 4.75457C11.3657 4.72193 10.7784 5.38426 10.9267 6.30619Z" fill="url(#paint0_linear_1:5935)"/>
<path fill-rule="evenodd" clip-rule="evenodd" d="M16.9884 7.82896C16.9884 7.57928 16.9884 7.34444 16.9884 7.09375C14.9625 7.09375 12.9474 7.09375 10.9189 7.09375C10.9189 7.34039 10.9189 7.57434 10.9189 7.82896C12.934 7.82896 14.9478 7.82896 16.9884 7.82896Z" fill="#130F40"/>
<path fill-rule="evenodd" clip-rule="evenodd" d="M14.7026 9.35806C14.7026 9.10301 14.7026 8.86949 14.7026 8.62207C14.1974 8.62207 13.7047 8.62207 13.2007 8.62207C13.2007 8.87035 13.2007 9.10435 13.2007 9.35806C13.6979 9.35806 14.1899 9.35806 14.7026 9.35806Z" fill="#130F40"/>
<defs>
<linearGradient id="paint0_linear_1:5935" x1="9.62315" y1="4.10075" x2="9.62315" y2="6.30619" gradientUnits="userSpaceOnUse">
<stop stop-color="white"/>
<stop offset="1" stop-color="#130F40"/>
</linearGradient>
</defs>
</svg>
