<svg width="40" height="40" viewBox="0 0 40 40" fill="none" xmlns="http://www.w3.org/2000/svg">
<rect width="40" height="40" rx="8" fill="#FF2525"/>
<path fill-rule="evenodd" clip-rule="evenodd" d="M19.1312 11C24.1661 11 28.2615 15.0051 28.2615 19.9289C28.2615 22.2519 27.3499 24.3707 25.8581 25.9608L28.7935 28.8254C29.0682 29.0941 29.0691 29.5287 28.7944 29.7974C28.6575 29.9331 28.4766 30 28.2966 30C28.1175 30 27.9375 29.9331 27.7996 29.7992L24.8288 26.902C23.2661 28.126 21.2846 28.8587 19.1312 28.8587C14.0963 28.8587 10 24.8527 10 19.9289C10 15.0051 14.0963 11 19.1312 11ZM19.1312 12.3754C14.8717 12.3754 11.4064 15.7634 11.4064 19.9289C11.4064 24.0944 14.8717 27.4833 19.1312 27.4833C23.3898 27.4833 26.8551 24.0944 26.8551 19.9289C26.8551 15.7634 23.3898 12.3754 19.1312 12.3754Z" fill="white" stroke="white" stroke-width="0.4"/>
</svg>
