<svg width="20" height="20" viewBox="0 0 20 20" fill="none" xmlns="http://www.w3.org/2000/svg">
<rect width="20" height="20" rx="10" fill="white"/>
<path d="M11.7386 14.9342C12.0654 15.2066 12.3689 15.7632 12.3689 16.6134C12.3689 17.8277 12.3572 18.8034 12.3572 19.0985C12.3572 19.2883 12.4612 19.5076 12.7468 19.5418C12.8063 19.5505 12.8814 19.5552 12.9755 19.5527C12.0607 19.8431 11.0841 20 10.0701 20C9.04614 20 8.12133 19.8961 7.19922 19.6C7.65008 19.6736 7.75487 19.3416 7.75487 19.1046C7.75487 18.8889 7.74723 18.3179 7.74319 17.5614C5.14563 18.1087 4.59775 16.344 4.59775 16.344C4.17315 15.2968 3.55888 15.0165 3.55888 15.0165C2.71298 14.4541 3.62453 14.4656 3.62453 14.4656C4.562 14.5288 5.05483 15.4006 5.05483 15.4006C5.88726 16.788 7.24058 16.3873 7.7746 16.1557C7.85849 15.5684 8.09888 15.169 8.36591 14.9418C6.29216 14.7149 4.11225 13.9346 4.11225 10.4575C4.11225 9.46733 4.47412 8.65784 5.07345 8.02296C4.96841 7.79356 4.65323 6.87077 5.15516 5.62084C5.15516 5.62084 5.93725 5.37769 7.72319 6.55153C8.47027 6.34988 9.26399 6.2496 10.0578 6.24527C10.8515 6.2496 11.6452 6.34988 12.3923 6.55153C14.1666 5.37769 14.9487 5.62084 14.9487 5.62084C15.4506 6.87077 15.1354 7.79352 15.0421 8.02296C15.6374 8.65784 15.9992 9.46733 15.9992 10.4575C15.9991 13.9437 13.8163 14.7109 11.7386 14.9342Z" fill="#040D21"/>
</svg>
