<svg width="40" height="40" viewBox="0 0 40 40" fill="none" xmlns="http://www.w3.org/2000/svg">
<rect width="40" height="40" rx="8" fill="#03A9F4"/>
<path d="M29.6773 18.8424C29.6773 20.2297 29.6773 21.6171 29.6773 23.0044C29.6474 23.2034 29.633 23.4062 29.5852 23.601C29.2564 24.9426 27.9929 25.7655 26.5275 25.5911C26.5275 24.6763 26.5275 23.7602 26.5275 22.831C26.5898 22.831 26.6418 22.8312 26.6939 22.831C27.1187 22.8289 27.3619 22.6392 27.3616 22.3102C27.3613 21.9812 27.1163 21.7905 26.6931 21.7905C22.6455 21.7905 18.5979 21.7905 14.5503 21.7905C14.4974 21.7905 14.4442 21.7887 14.3915 21.7915C14.1013 21.807 13.8812 22.0302 13.8801 22.3086C13.8789 22.5868 14.098 22.8139 14.3875 22.8292C14.4926 22.8349 14.5982 22.8302 14.7143 22.8302C14.7143 23.7587 14.7143 24.6749 14.7143 25.6044C14.5299 25.6044 14.3544 25.6078 14.1791 25.6039C12.8504 25.5749 11.7201 24.5129 11.6296 23.2103C11.6284 23.1931 11.6258 23.1758 11.6258 23.1584C11.6256 21.6676 11.5906 20.1757 11.6361 18.6862C11.678 17.3102 12.8527 16.2445 14.2519 16.2431C18.5113 16.2386 22.7708 16.2391 27.03 16.2431C28.2407 16.2442 29.286 17.0579 29.5757 18.2126C29.6274 18.4183 29.6443 18.6323 29.6773 18.8424ZM15.2545 19.5015C15.5251 19.5015 15.7957 19.5036 16.0664 19.501C16.3945 19.4978 16.6285 19.2794 16.6285 18.9812C16.6285 18.6829 16.3942 18.4634 16.0662 18.4618C15.5249 18.4594 14.9837 18.4594 14.4425 18.4618C14.1148 18.4633 13.8802 18.6833 13.8804 18.9812C13.8806 19.2789 14.1152 19.4978 14.4429 19.5008C14.7132 19.5034 14.9838 19.5015 15.2545 19.5015Z" fill="white"/>
<path d="M16.921 29.5251C16.7098 29.5251 16.4993 29.4793 16.3147 29.3788C16.2996 29.3706 16.2846 29.3621 16.2702 29.353C15.9912 29.1798 15.8306 28.9259 15.7953 28.6009C15.7872 28.5264 15.7846 28.4511 15.7844 28.3761C15.7838 26.591 15.7839 24.8056 15.7839 23.0205C15.7839 22.9637 15.7839 22.9069 15.7839 22.841H25.4585C25.4585 22.9114 25.4585 22.9832 25.4585 23.0548C25.4585 24.7764 25.4585 26.4982 25.4585 28.2198C25.4585 28.8326 25.3607 29.1087 24.9704 29.3422C24.7679 29.4634 24.5342 29.5251 24.2972 29.5251H16.921ZM20.6388 24.0105C20.18 24.0105 19.721 24.0093 19.2622 24.0108C18.9201 24.0119 18.682 24.2268 18.682 24.5303C18.682 24.8339 18.9199 25.05 19.2618 25.0505C20.1679 25.0518 21.0739 25.0518 21.9801 25.0505C22.3225 25.05 22.5601 24.8347 22.5603 24.5308C22.5604 24.2269 22.3228 24.0121 21.9805 24.011C21.5332 24.0093 21.086 24.0105 20.6388 24.0105ZM20.6344 27.2706C21.0757 27.2706 21.5169 27.2713 21.9582 27.2705C22.318 27.2698 22.5573 27.0637 22.5601 26.7545C22.5627 26.4448 22.3223 26.231 21.9667 26.2305C21.0724 26.2297 20.1782 26.2297 19.2838 26.2305C18.9244 26.2308 18.6844 26.4376 18.682 26.7461C18.6793 27.0608 18.9224 27.27 19.293 27.2705C19.7402 27.2711 20.1872 27.2706 20.6344 27.2706Z" fill="white" fill-opacity="0.4"/>
<path d="M26.5076 15.1963C22.576 15.1963 18.6648 15.1963 14.7324 15.1963C14.7324 14.8661 14.713 14.5386 14.736 14.2139C14.8058 13.229 15.3042 12.5095 16.1854 12.0463C16.5434 11.8581 16.9323 11.7686 17.3387 11.7682C19.527 11.7666 21.7154 11.7618 23.9037 11.7695C25.2822 11.7744 26.4224 12.8432 26.5048 14.1973C26.5245 14.5244 26.5076 14.8536 26.5076 15.1963Z" fill="white" fill-opacity="0.4"/>
</svg>
