<svg width="50" height="50" viewBox="0 0 50 50" fill="none" xmlns="http://www.w3.org/2000/svg">
<rect opacity="0.7" x="0.5" y="0.5" width="49" height="49" rx="11.5" fill="#17DC69" fill-opacity="0.0980392" stroke="#17DC69"/>
<mask id="mask0_1489_61" style="mask-type:alpha" maskUnits="userSpaceOnUse" x="11" y="12" width="27" height="26">
<rect x="11" y="12" width="27" height="26" fill="white"/>
</mask>
<g mask="url(#mask0_1489_61)">
<path fill-rule="evenodd" clip-rule="evenodd" d="M13.4914 36.1219L13.3479 35.9785C13.1496 35.7802 13.1496 35.4587 13.3479 35.2604L34.6852 13.9231C34.8835 13.7248 35.205 13.7248 35.4033 13.9231L35.5467 14.0665C35.745 14.2648 35.745 14.5864 35.5467 14.7847L14.2095 36.1219C14.0112 36.3203 13.6897 36.3203 13.4914 36.1219Z" fill="#17DC69"/>
<path fill-rule="evenodd" clip-rule="evenodd" d="M36.5001 36H26.5002C26.2239 36 26 36.2238 26 36.5003C26 36.7762 26.2238 37 26.5002 37H36.4998C36.7761 37 37 36.7762 37 36.5003C36.9997 36.2238 36.7759 36 36.5001 36Z" fill="#17DC69"/>
<path fill-rule="evenodd" clip-rule="evenodd" d="M26.8786 34.7752C26.5956 34.7752 26.3662 35.0045 26.3662 35.2875C26.3662 35.5706 26.5955 35.8001 26.8786 35.8001H35.842C36.1251 35.8001 36.3544 35.5706 36.3544 35.2875C36.3544 35.0045 36.1251 34.7752 35.842 34.7752H35.7142V30.1652H35.842C35.9838 30.1652 36.098 30.0505 36.098 29.9092C36.098 29.768 35.9833 29.6533 35.842 29.6533H26.8786C26.737 29.6533 26.6227 29.768 26.6227 29.9092C26.6227 30.0505 26.7373 30.1652 26.8786 30.1652H27.0067V34.775H26.8786V34.7752ZM34.6898 30.166V34.7758H33.1533V30.166H34.6898ZM32.1283 30.166V34.7758H30.5918V30.166H32.1283ZM28.0303 30.166H29.5668V34.7758H28.0303V30.166Z" fill="#17DC69"/>
<path fill-rule="evenodd" clip-rule="evenodd" d="M26.4999 29H36.4952C36.4968 29 36.4987 29 36.5001 29C36.7764 29 37 28.7934 37 28.5383C37 28.3356 36.8587 28.1637 36.6623 28.1015L31.703 26.0405C31.5726 25.9865 31.4236 25.9865 31.293 26.0405L26.2949 28.1175C26.0798 28.207 25.9616 28.4227 26.0113 28.6354C26.0606 28.848 26.2641 29 26.4999 29Z" fill="#17DC69"/>
<path fill-rule="evenodd" clip-rule="evenodd" d="M20.5666 15.9642C20.6951 15.9642 20.8192 15.9768 20.936 16L22 15.3179L21.5041 15L20 15.9642H20.5666Z" fill="#17DC69"/>
<path fill-rule="evenodd" clip-rule="evenodd" d="M22.8715 16.2674L22.6778 16L22 16.9356C22.1467 17.1521 22.2367 17.4426 22.2367 17.7618V18L22.8715 17.1238C23.0428 16.8873 23.0428 16.5039 22.8715 16.2674Z" fill="#17DC69"/>
<path fill-rule="evenodd" clip-rule="evenodd" d="M21 14.0111L19.0472 12.1868C18.7806 11.9377 18.3484 11.9377 18.0818 12.1868L14 16H18.871L21 14.0111Z" fill="#17DC69"/>
<path fill-rule="evenodd" clip-rule="evenodd" d="M13 19H14V20H13V19Z" fill="#17DC69"/>
<path fill-rule="evenodd" clip-rule="evenodd" d="M20.7705 17.0996H12.1261C11.7387 17.0996 11.4248 17.4136 11.4248 17.8009V23.2669C11.4248 23.6542 11.7388 23.9681 12.1261 23.9681H20.7705C21.1578 23.9681 21.4718 23.6541 21.4718 23.2669V17.8009C21.4718 17.4136 21.1578 17.0996 20.7705 17.0996ZM12.5635 18.6211H15.0343V20.8122H12.5635V18.6211ZM13.929 22.4464H12.543V21.7451H13.929V22.4464ZM16.0696 22.4464H14.6836V21.7451H16.0696V22.4464ZM18.2122 22.4464H16.8262V21.7451H18.2122V22.4464ZM20.3548 22.4464H18.9688V21.7451H20.3548V22.4464Z" fill="#17DC69"/>
</g>
</svg>
