<svg width="38" height="38" viewBox="0 0 38 38" fill="none" xmlns="http://www.w3.org/2000/svg">
<rect opacity="0.1" width="38" height="38" rx="10" fill="#FF5E84"/>
<path d="M21.7266 21.7754C21.7266 22.7446 22.5151 23.5332 23.4844 23.5332C24.4536 23.5332 25.2422 22.7446 25.2422 21.7754C25.2422 20.8061 24.4536 20.0176 23.4844 20.0176C22.5151 20.0176 21.7266 20.8061 21.7266 21.7754Z" fill="#FF4270"/>
<path d="M15.5156 23.5332C16.4849 23.5332 17.2734 22.7446 17.2734 21.7754C17.2734 20.8061 16.4849 20.0176 15.5156 20.0176C14.5464 20.0176 13.7578 20.8061 13.7578 21.7754C13.7578 22.7446 14.5464 23.5332 15.5156 23.5332Z" fill="#FF4270"/>
<path d="M19.2949 15.5156C20.2642 15.5156 21.0527 14.7271 21.0527 13.7578C21.0527 12.7886 20.2642 12 19.2949 12C18.3257 12 17.5371 12.7886 17.5371 13.7578C17.5371 14.727 18.3257 15.5156 19.2949 15.5156Z" fill="#FF4270"/>
<path d="M16.2187 18.9824H17.0977V18.1034C17.0977 17.8607 17.2945 17.6639 17.5372 17.6639C17.7799 17.6639 17.9766 17.8607 17.9766 18.1034V18.9824H20.613V18.1034C20.613 17.8607 20.8097 17.6639 21.0524 17.6639C21.2951 17.6639 21.4919 17.8607 21.4919 18.1034V18.9824H22.3709C22.6136 18.9824 22.8104 18.7856 22.8104 18.5429V16.834C22.8104 16.0044 22.3481 15.2808 21.6676 14.907C21.2399 15.7867 20.337 16.3946 19.2948 16.3946C18.2527 16.3946 17.3498 15.7867 16.922 14.907C16.2416 15.2808 15.7793 16.0044 15.7793 16.834V18.5429C15.7793 18.7856 15.976 18.9824 16.2187 18.9824Z" fill="#FF4270"/>
<path d="M25.8572 22.9246C25.4295 23.8043 24.5266 24.4121 23.4845 24.4121C22.4422 24.4121 21.5394 23.8042 21.1116 22.9244C20.4311 23.2983 19.9688 24.0218 19.9688 24.8516V26.5605C19.9688 26.8032 20.1655 27 20.4082 27H21.2872V26.121C21.2872 25.8783 21.4839 25.6815 21.7266 25.6815C21.9693 25.6815 22.1661 25.8783 22.1661 26.121V27H24.8024V26.121C24.8024 25.8783 24.9992 25.6815 25.2419 25.6815C25.4846 25.6815 25.6813 25.8783 25.6813 26.121V27H26.5604C26.8031 27 26.9998 26.8032 26.9998 26.5605V24.8516C26.9998 24.0219 26.5376 23.2984 25.8572 22.9246Z" fill="#FF4270"/>
<path d="M17.8883 22.9244C17.4606 23.8042 16.5577 24.412 15.5155 24.412C14.4733 24.412 13.5705 23.8042 13.1427 22.9244C12.4623 23.2983 12 24.0218 12 24.8515V26.5604C12 26.8031 12.1968 26.9999 12.4395 26.9999H13.3184V26.1209C13.3184 25.8782 13.5152 25.6815 13.7579 25.6815C14.0006 25.6815 14.1974 25.8782 14.1974 26.1209V26.9999H16.8337V26.1209C16.8337 25.8782 17.0304 25.6815 17.2731 25.6815C17.5158 25.6815 17.7126 25.8782 17.7126 26.1209V26.9999H18.5916C18.8343 26.9999 19.0311 26.8031 19.0311 26.5604V24.8515C19.0311 24.0218 18.5688 23.2983 17.8883 22.9244Z" fill="#FF4270"/>
</svg>
