<svg width="21" height="21" viewBox="0 0 21 21" fill="none" xmlns="http://www.w3.org/2000/svg">
<path d="M0 5.6C0 3.63982 0 2.65972 0.381477 1.91103C0.717034 1.25247 1.25247 0.717034 1.91103 0.381477C2.65972 0 3.63982 0 5.6 0H15.4C17.3602 0 18.3403 0 19.089 0.381477C19.7475 0.717034 20.283 1.25247 20.6185 1.91103C21 2.65972 21 3.63982 21 5.6V15.4C21 17.3602 21 18.3403 20.6185 19.089C20.283 19.7475 19.7475 20.283 19.089 20.6185C18.3403 21 17.3602 21 15.4 21H5.6C3.63982 21 2.65972 21 1.91103 20.6185C1.25247 20.283 0.717034 19.7475 0.381477 19.089C0 18.3403 0 17.3602 0 15.4V5.6Z" fill="#130F40" fill-opacity="0.1"/>
<mask id="mask0_1:5915" style="mask-type:alpha" maskUnits="userSpaceOnUse" x="4" y="3" width="13" height="13">
<rect x="4" y="3" width="13" height="13" fill="white"/>
</mask>
<g mask="url(#mask0_1:5915)">
<path fill-rule="evenodd" clip-rule="evenodd" d="M14.9688 6.68164C14.9204 6.68164 14.8722 6.68337 14.8242 6.6868C14.6794 6.22527 14.4074 5.80889 14.0365 5.48861C13.5378 5.05806 12.8921 4.83089 12.2316 4.85532C11.5842 3.72008 10.3738 3 9.07812 3C7.45054 3 6.0103 4.11863 5.57795 5.68793C4.64121 6.10433 4.02539 7.03975 4.02539 8.07813C4.02539 9.09055 4.60366 9.97039 5.44727 10.4048V9.44922C5.44727 8.8192 5.95983 8.30664 6.58984 8.30664H14.4102C15.0402 8.30664 15.5527 8.8192 15.5527 9.44922V10.6062C16.3748 10.3556 16.9746 9.59047 16.9746 8.6875C16.9746 7.58146 16.0748 6.68164 14.9688 6.68164V6.68164Z" fill="#130F40"/>
<path fill-rule="evenodd" clip-rule="evenodd" d="M14.4102 9.06836H6.58984C6.37951 9.06836 6.20898 9.23888 6.20898 9.44922V12.1392H14.791V9.44922C14.791 9.23888 14.6205 9.06836 14.4102 9.06836ZM9.4746 11.0234H7.45312C7.24279 11.0234 7.07227 10.8529 7.07227 10.6426C7.07227 10.4322 7.24279 10.2617 7.45312 10.2617H9.4746C9.68491 10.2617 9.85546 10.4322 9.85546 10.6426C9.85546 10.8529 9.68491 11.0234 9.4746 11.0234H9.4746ZM11.9219 11.0198C11.7115 11.0198 11.541 10.8493 11.541 10.6389C11.541 10.4286 11.7115 10.2581 11.9219 10.2581C12.1322 10.2581 12.3027 10.4286 12.3027 10.6389C12.3027 10.8493 12.1322 11.0198 11.9219 11.0198ZM13.5469 11.0198C13.3365 11.0198 13.166 10.8493 13.166 10.6389C13.166 10.4286 13.3365 10.2581 13.5469 10.2581C13.7572 10.2581 13.9277 10.4286 13.9277 10.6389C13.9277 10.8493 13.7572 11.0198 13.5469 11.0198Z" fill="#130F40"/>
<path fill-rule="evenodd" clip-rule="evenodd" d="M6.20898 15.6191C6.20898 15.8294 6.37951 16 6.58984 16H14.4102C14.6205 16 14.791 15.8294 14.791 15.6191V12.9009H6.20898V15.6191ZM13.5469 13.9688C13.7572 13.9688 13.9277 14.1393 13.9277 14.3496C13.9277 14.5599 13.7572 14.7305 13.5469 14.7305C13.3365 14.7305 13.166 14.5599 13.166 14.3496C13.166 14.1393 13.3365 13.9688 13.5469 13.9688ZM11.9219 13.9688C12.1322 13.9688 12.3027 14.1393 12.3027 14.3496C12.3027 14.5599 12.1322 14.7305 11.9219 14.7305C11.7115 14.7305 11.541 14.5599 11.541 14.3496C11.541 14.1393 11.7115 13.9688 11.9219 13.9688ZM7.45312 13.9688H9.4746C9.68491 13.9688 9.85546 14.1393 9.85546 14.3496C9.85546 14.5599 9.68491 14.7305 9.4746 14.7305H7.45312C7.24279 14.7305 7.07227 14.5599 7.07227 14.3496C7.07227 14.1393 7.24279 13.9688 7.45312 13.9688Z" fill="#130F40"/>
</g>
</svg>
