<svg width="566" height="658" viewBox="0 0 566 658" fill="none" xmlns="http://www.w3.org/2000/svg">
<path d="M80.3959 512.055C72.3365 470.452 102.222 375.429 118.172 333.117C123.489 335.633 167.982 326.966 182.253 306.277C193.671 289.725 213.061 283.224 222.549 280.275C235.141 276.36 256.129 276.919 260.046 286.426L264.243 296.212C277.955 335.633 266.016 395.559 257.528 422.307L226.187 427.898C202.457 389.427 214.621 342.53 223.669 323.891C214.042 336.864 187.011 350.545 174.699 355.764C174.139 390.154 121.531 508.7 110.058 516.249C100.88 522.288 86.459 515.97 80.3959 512.055Z" fill="black"/>
<path d="M100.497 518.908L96.5791 526.029M84.2637 514.396L76.788 534.137L76.147 535.828C75.4356 537.538 74.9425 540.404 76.147 542.846C76.9961 544.569 78.6894 546.08 81.7452 546.827C89.1338 548.631 116.918 550.587 129.886 551.339C132.125 551.621 136.379 550.549 135.483 544.007C134.587 537.464 129.886 531.477 124.568 529.06C120.254 527.1 109.131 524.058 96.5791 526.029L84.2637 514.396ZM92.6603 526.804C93.9779 526.488 95.2861 526.232 96.5791 526.029L92.6603 526.804Z" stroke="black" stroke-width="5" stroke-linecap="round"/>
<path d="M230.657 426.381C230.377 434.677 231.132 451.01 233.182 453.507C235.707 456.584 238.793 456.863 257.589 450.99C272.627 446.292 278.63 446.236 282.277 445.677C284.802 445.29 287.888 444.95 287.888 438.686C287.888 430.856 284.802 425.542 275.263 424.424C267.633 423.529 256.748 428.152 252.259 430.576V423.025" stroke="black" stroke-width="5" stroke-linecap="round"/>
<path d="M194.748 144.903C165.929 147.815 109.3 160.09 113.329 185.89C113.947 188.08 115.721 191.576 119.03 194.863C122.216 198.03 126.825 201.005 133.194 202.435" stroke="black" stroke-width="5" stroke-linecap="round"/>
<path d="M119.028 194.864C128.04 208.885 154.457 239.341 188.032 248.987" stroke="black" stroke-width="5" stroke-linecap="round"/>
<path d="M187.816 248.987C189.869 246.23 195.262 241.247 201.594 241.011" stroke="black" stroke-width="5" stroke-linecap="round"/>
<path d="M201.594 241.011C201.407 233.137 194.765 212.831 169.688 194.601" stroke="black" stroke-width="5" stroke-linecap="round"/>
<path d="M162.436 201.127C165.038 196.913 173.034 187.967 184.19 185.898" stroke="black" stroke-width="5" stroke-linecap="round"/>
<path d="M224.799 193.15C226.007 194.578 228.425 198.464 228.425 202.577" stroke="black" stroke-width="5" stroke-linecap="round"/>
<path d="M224.514 253.346C230.229 253.067 242.164 252.229 244.188 251.111C246.717 249.714 247.279 249.714 247.279 246.919C247.279 244.125 224.514 248.876 224.514 239.934C226.576 237.884 229.911 233.283 226.763 231.271C223.615 229.259 217.02 235.09 214.116 238.257C211.118 241.424 204.392 246.417 201.469 241.051" stroke="black" stroke-width="5" stroke-linecap="round"/>
<path d="M188.541 248.875C191.07 256.234 200.176 269.441 216.364 263.406C232.552 257.37 233.227 254.184 231.54 253.346" stroke="black" stroke-width="5" stroke-linecap="round"/>
<path d="M327.961 252.007C331.895 250.931 340.493 245.93 343.416 234.523C346.338 223.117 342.385 223.061 340.044 224.459" stroke="black" stroke-width="5" stroke-linecap="round"/>
<path d="M313.349 243.749C314.566 237.412 318.856 225.186 326.275 226.975" stroke="black" stroke-width="5" stroke-linecap="round"/>
<path d="M316.44 233.404C311.269 229.155 308.103 238.903 307.167 244.308C301.323 246.097 299.111 254.559 298.737 258.566C312.262 259.953 321.874 256.321 327.961 252.006C331.687 249.364 334.092 246.467 335.266 244.308C338.17 236.573 342.403 220.433 336.109 217.749C329.815 215.065 328.054 221.103 327.961 224.458C328.635 232.063 324.682 240.487 322.622 243.749" stroke="black" stroke-width="5" stroke-linecap="round"/>
<path d="M234.951 253.255C247.127 264.624 276.931 281.603 298.737 258.567" stroke="black" stroke-width="5" stroke-linecap="round"/>
<path d="M232.776 254.789C232.776 260.067 231.471 272.097 226.25 277.994" stroke="black" stroke-width="5" stroke-linecap="round"/>
<path d="M118.926 267.116C107.434 282.627 91.3456 317.685 118.926 333.831" stroke="black" stroke-width="5" stroke-linecap="round"/>
<path d="M462.652 200.402L469.179 189.524" stroke="black" stroke-width="5" stroke-linecap="round"/>
<path d="M465.842 206.087L477.88 205.527" stroke="black" stroke-width="5" stroke-linecap="round"/>
<path d="M463.377 212.729L470.629 222.157" stroke="black" stroke-width="5" stroke-linecap="round"/>
<path d="M226.336 554.285H30.457V650.001" stroke="black" stroke-width="15" stroke-linecap="round"/>
<path d="M362.527 458.849H202.236V575.554" stroke="black" stroke-width="15" stroke-linecap="round"/>
<path d="M468.454 325.069H338.428V480.957" stroke="black" stroke-width="15" stroke-linecap="round"/>
<path d="M445.475 223.244V346.9" stroke="black" stroke-width="15" stroke-linecap="round"/>
<path d="M445.475 180.097V190.612" stroke="black" stroke-width="15" stroke-linecap="round"/>
<path d="M191.472 255.902L30.941 274.368C12.3711 259.491 16.8648 237.282 21.4326 228.037L133.021 214.661" stroke="black" stroke-width="5" stroke-linecap="round"/>
<path d="M246.566 251.443L301.662 246.149" stroke="black" stroke-width="5" stroke-linecap="round"/>
<path d="M341.933 240.298L378.011 237.789L426.394 215.859C420.577 209.684 423.767 204.183 426.191 202.215L378.011 190.975L187.276 206.858" stroke="black" stroke-width="5" stroke-linecap="round"/>
<path d="M4.14608 228.267L20.4991 226.507C9.15758 251.915 22.1583 269.201 30.457 275.927L11.3708 278.719C-4.58201 259.29 -0.469554 237.548 4.14608 228.267Z" fill="black"/>
<path d="M428.134 217.08C422.064 210.745 425.474 203.201 428.003 200.764L451.049 206.452L428.134 217.08Z" fill="black"/>
<path d="M378.533 190.975C372.514 198.616 364.087 218.597 378.533 237.385" stroke="black" stroke-width="5"/>
<path d="M239.895 149.795C244.691 146.843 280.774 149.688 287.789 104.3C299.799 104.441 306.33 94.6024 297.166 90.3921C287.397 85.3544 288.13 76.1057 289.9 70.6562C292.714 63.5097 292.884 56.0065 292.277 54.4365" stroke="black" stroke-width="5" stroke-linecap="round"/>
<path d="M277.201 87.9108C278.564 87.9268 279.688 86.2829 279.712 84.2386C279.736 82.1944 278.651 80.5244 277.288 80.5084C275.925 80.4925 274.801 82.1364 274.777 84.1806C274.753 86.2249 275.838 87.8949 277.201 87.9108Z" fill="black"/>
<path d="M270.502 72.9289C272.506 70.7868 277.688 67.6534 282.382 72.256" stroke="black" stroke-width="5" stroke-linecap="round"/>
<path d="M256.89 114.637C260.573 120.304 264.616 121.913 272.47 118.256" stroke="black" stroke-width="5" stroke-linecap="round"/>
<path d="M226.741 74.915C225.888 76.7888 225.173 81.0426 229.139 83.0673" stroke="black" stroke-width="5" stroke-linecap="round"/>
<path d="M184.469 55.6743C179.796 81.2405 194.417 100.485 205.016 115.28C216.337 109.164 234.891 94.6204 227.775 93.0504C220.295 91.4007 212.407 70.9991 219.67 64.7584C228.192 57.4364 235.873 68.5147 237.337 76.9156L244.201 65.0462C242.26 56.7439 241.499 42.1813 253.981 50.3451C266.463 58.5089 284.773 56.3704 292.367 54.2805C307.342 43.562 330.606 18.5614 303.871 4.30405C281.634 -7.55375 252.698 7.43745 235.035 20.9087C223.076 17.7514 190.84 20.8159 184.469 55.6743Z" fill="black"/>
<path d="M205.848 113.567C211.253 120.074 213.938 125.478 213.604 136.673" stroke="black" stroke-width="5" stroke-linecap="round"/>
<path d="M199.834 151.659C197.941 145.057 196.832 132.466 207.536 134.913C220.916 137.972 248.188 151.203 246.19 158.537" stroke="black" stroke-width="5" stroke-linecap="round"/>
<path d="M246.191 168.857C255.981 177.922 258.157 183.723 259.607 194.601" stroke="black" stroke-width="5" stroke-linecap="round"/>
<path d="M301.613 591.571C314.912 590.36 346.247 598.29 367.18 639.073C367.727 640.14 369.271 640.168 369.817 639.101C391.288 597.068 417.64 554.429 500.935 605.768C502.215 606.557 503.896 605.127 503.261 603.763C489.747 574.698 482.444 519.269 545.417 491.77C546.681 491.219 546.625 489.342 545.302 488.955L529.013 484.194C527.52 483.757 527.682 481.709 529.232 481.569C546.012 480.057 569.685 481.042 561.535 490.943C552.019 502.502 549.679 509.811 551.999 521.879" stroke="black" stroke-width="5" stroke-linecap="round"/>
<path d="M406.001 507.962C406.26 500.711 435.267 503.041 437.08 503.3V507.962L445.885 514.178C432.504 514.524 405.794 513.764 406.001 507.962Z" fill="black"/>
<path d="M477.998 507.186V480.769" stroke="black" stroke-width="3" stroke-linecap="round"/>
<path d="M455.467 513.92V484.914" stroke="black" stroke-width="3" stroke-linecap="round"/>
<path d="M436.82 507.185V478.179" stroke="black" stroke-width="3" stroke-linecap="round"/>
<path d="M436.82 478.179L457.28 473" stroke="black" stroke-width="3" stroke-linecap="round"/>
<path d="M477.999 480.51L455.467 484.654" stroke="black" stroke-width="3" stroke-linecap="round"/>
<path d="M455.467 514.178L477.999 507.444" stroke="black" stroke-width="3" stroke-linecap="round"/>
<path d="M478 480.511L457.281 473" stroke="black" stroke-width="3" stroke-linecap="round"/>
<path d="M436.82 478.438L455.726 484.654" stroke="black" stroke-width="3" stroke-linecap="round"/>
</svg>
