<svg width="21" height="21" viewBox="0 0 21 21" fill="none" xmlns="http://www.w3.org/2000/svg">
<path d="M0 5.6C0 3.63982 0 2.65972 0.381477 1.91103C0.717034 1.25247 1.25247 0.717034 1.91103 0.381477C2.65972 0 3.63982 0 5.6 0H15.4C17.3602 0 18.3403 0 19.089 0.381477C19.7475 0.717034 20.283 1.25247 20.6185 1.91103C21 2.65972 21 3.63982 21 5.6V15.4C21 17.3602 21 18.3403 20.6185 19.089C20.283 19.7475 19.7475 20.283 19.089 20.6185C18.3403 21 17.3602 21 15.4 21H5.6C3.63982 21 2.65972 21 1.91103 20.6185C1.25247 20.283 0.717034 19.7475 0.381477 19.089C0 18.3403 0 17.3602 0 15.4V5.6Z" fill="#130F40" fill-opacity="0.1"/>
<path d="M6.87686 13.9571C5.82557 12.9246 5.18275 11.5865 5.0335 10.1431C4.47476 10.8494 4.1718 11.7157 4.17319 12.6249C4.17413 13.2162 4.30723 13.804 4.55944 14.3356L4.03938 15.8491C3.94998 16.1092 4.01529 16.3917 4.20983 16.5863C4.34674 16.7232 4.52724 16.7961 4.71287 16.7961C4.79097 16.7961 4.86999 16.7832 4.94705 16.7567L6.46056 16.2367C6.99211 16.4889 7.57993 16.622 8.17128 16.6229C9.09827 16.6242 9.98051 16.3096 10.6941 15.73C9.25924 15.6001 7.92072 14.9824 6.87686 13.9571Z" fill="#130F40"/>
<path d="M16.9533 14.1012L16.1983 11.9038C16.5622 11.1598 16.7545 10.3324 16.7558 9.49987C16.7581 8.05227 16.198 6.68354 15.1788 5.64582C14.1593 4.60788 12.8009 4.02364 11.3536 4.00071C9.85291 3.97697 8.4423 4.5478 7.38181 5.60827C6.32132 6.66876 5.75038 8.07934 5.77415 9.58013C5.79708 11.0274 6.38132 12.3858 7.41921 13.4053C8.4549 14.4225 9.82015 14.9824 11.2647 14.9824C11.2675 14.9824 11.2705 14.9824 11.2733 14.9824C12.1058 14.9811 12.9333 14.7888 13.6773 14.4248L15.8747 15.1799C15.9662 15.2113 16.0601 15.2267 16.1529 15.2267C16.3735 15.2267 16.588 15.14 16.7508 14.9773C16.9819 14.7461 17.0595 14.4104 16.9533 14.1012ZM11.7951 11.3967H8.95969C8.746 11.3967 8.57278 11.2235 8.57278 11.0098C8.57278 10.7961 8.74602 10.6229 8.95969 10.6229H11.7951C12.0088 10.6229 12.182 10.7962 12.182 11.0098C12.182 11.2235 12.0088 11.3967 11.7951 11.3967ZM13.5696 9.80552H8.95971C8.74603 9.80552 8.57281 9.63228 8.57281 9.41862C8.57281 9.20496 8.74605 9.03172 8.95971 9.03172H13.5696C13.7833 9.03172 13.9565 9.20496 13.9565 9.41862C13.9565 9.63228 13.7833 9.80552 13.5696 9.80552ZM13.5696 8.21427H8.95971C8.74603 8.21427 8.57281 8.04102 8.57281 7.82736C8.57281 7.61367 8.74605 7.44046 8.95971 7.44046H13.5696C13.7833 7.44046 13.9565 7.6137 13.9565 7.82736C13.9565 8.04102 13.7833 8.21427 13.5696 8.21427Z" fill="#130F40"/>
</svg>
