<svg width="60" height="60" viewBox="0 0 60 60" fill="none" xmlns="http://www.w3.org/2000/svg">
<circle opacity="0.5" cx="30" cy="30" r="29.5" fill="#FFCD1B" fill-opacity="0.0980392" stroke="#FFCD1B"/>
<path fill-rule="evenodd" clip-rule="evenodd" d="M35.0781 31.7969C33.7858 31.7969 32.7344 30.7455 32.7344 29.4531C32.7344 28.1608 33.7858 27.1094 35.0781 27.1094C36.3705 27.1094 37.4219 28.1608 37.4219 29.4531C37.4219 30.7455 36.3705 31.7969 35.0781 31.7969Z" fill="#FFCD1B"/>
<path fill-rule="evenodd" clip-rule="evenodd" d="M39.4141 40H20.5859C20.2623 40 20 39.7377 20 39.4141V38.2422C20 37.9186 20.2623 37.6562 20.5859 37.6562H39.4141C39.7377 37.6562 40 37.9186 40 38.2422V39.4141C40 39.7377 39.7377 40 39.4141 40Z" fill="#FFCD1B"/>
<path fill-rule="evenodd" clip-rule="evenodd" d="M37.0973 32.3293C36.5255 32.7319 35.829 32.9687 35.0781 32.9687C34.3273 32.9687 33.6307 32.7319 33.059 32.3293C32.5464 32.6204 32.1027 33.0189 31.7578 33.4937V34.7265C31.7578 35.3347 31.4473 35.8715 30.9766 36.1873V36.4843H39.1797V35.8984C39.1797 34.3704 38.3397 33.035 37.0973 32.3293Z" fill="#FFCD1B"/>
<path fill-rule="evenodd" clip-rule="evenodd" d="M30 28.2812H20.625C20.3014 28.2812 20.0391 28.5436 20.0391 28.8672V34.7266C20.0391 35.0502 20.3014 35.3125 20.625 35.3125H23.3277L22.937 36.4844H27.6879L27.2973 35.3125H30C30.3236 35.3125 30.5859 35.0502 30.5859 34.7266V28.8672C30.5859 28.5436 30.3236 28.2812 30 28.2812Z" fill="#FFCD1B"/>
<path fill-rule="evenodd" clip-rule="evenodd" d="M33.125 20H24.5312C23.7774 20 23.1641 20.6133 23.1641 21.3672V24.4922C23.1641 25.2461 23.7774 25.8594 24.5312 25.8594H29.432L31.6281 27.3235C31.7262 27.3888 31.8395 27.4219 31.9532 27.4219C32.048 27.4219 32.143 27.3989 32.2296 27.3525C32.4201 27.2506 32.5391 27.052 32.5391 26.8359V25.8594H33.125C33.8789 25.8594 34.4922 25.2461 34.4922 24.4922V21.3672C34.4922 20.6133 33.8789 20 33.125 20ZM31.5625 23.5156H26.0938C25.7702 23.5156 25.5078 23.2533 25.5078 22.9297C25.5078 22.6061 25.7702 22.3438 26.0938 22.3438H31.5625C31.8861 22.3438 32.1484 22.6061 32.1484 22.9297C32.1484 23.2533 31.8861 23.5156 31.5625 23.5156Z" fill="#FFCD1B"/>
</svg>
