<svg width="35" height="35" viewBox="0 0 35 35" fill="none" xmlns="http://www.w3.org/2000/svg">
<rect width="35" height="35" rx="7" fill="white" fill-opacity="0.3"/>
<path d="M25.0887 12.4267C24.5402 11.9653 23.8227 11.76 23.063 11.8501C22.4152 11.9274 21.8023 12.2858 21.3807 12.8329C20.9695 13.3672 20.7859 14.0285 20.8779 14.647C20.9238 14.9554 20.846 15.1544 20.6005 15.3568C19.8241 16.0018 19.3339 16.8618 19.1433 17.913C18.9979 18.7181 19.0669 19.5497 19.3594 20.5315C19.7981 22.0007 19.8307 23.2912 19.4599 24.476C19.1574 25.4412 18.6412 26.109 17.8818 26.5182C17.8314 26.5458 17.7791 26.5719 17.7257 26.5962C17.1825 26.8431 16.5614 26.8917 15.8261 26.7456C15.6659 26.7136 15.5095 26.6757 15.3567 26.6308C14.3885 26.349 13.6755 25.8331 13.1768 25.0534C12.77 24.4212 12.7503 23.8001 13.1178 23.2077C13.7211 22.2337 14.1746 21.2041 14.4653 20.1477C14.525 19.9306 14.6922 19.878 14.792 19.8459L14.8598 19.8246C15.2165 19.7113 15.5858 19.5946 15.9303 19.4489C16.1799 19.344 16.3604 19.1343 16.4398 18.8583C16.5106 18.6144 16.6307 18.4263 16.818 18.2674C16.8599 18.2317 16.897 18.189 16.9337 18.1478C17.9178 17.0572 18.6382 15.702 19.2193 13.8618C19.2905 13.6373 19.2371 13.4471 19.0721 13.2925C19.0572 13.2134 19.0487 13.1214 19.0432 13.039C19.2185 11.5491 18.8018 10.5571 18.8018 10.5571V10.5593C18.6479 10.1262 18.4128 9.72587 18.0884 9.36784C18.0216 9.29425 18.0068 9.1765 17.9549 9.08451C17.8733 8.94101 17.8103 8.76439 17.6879 8.66872C17.4135 8.4553 17.1094 8.275 16.8128 8.09101C16.5384 7.92175 16.2789 7.99166 16.1231 8.275C15.9785 8.53993 15.8376 8.80854 15.7078 9.08083C15.5669 9.36784 15.6707 9.59966 15.9748 9.69533C16.2455 9.78364 16.5236 9.8462 16.7906 9.94187C17.1428 10.0633 17.4543 10.0339 17.7398 9.69533C17.9104 9.97866 18.0921 10.2326 18.2181 10.5085C18.563 11.2518 18.5852 12.0429 18.5185 12.8414C18.5163 12.8664 18.4988 13.0144 18.4766 13.142C18.276 13.2153 18.1573 13.3536 18.0561 13.6355C17.8707 14.1495 17.6605 14.7316 17.4142 15.2795C17.0546 16.0806 16.6296 16.74 16.1161 17.2956C16.0301 17.3883 15.8543 17.4656 15.7093 17.4321C15.4079 17.3633 15.1457 17.3894 14.908 17.5116C14.3696 17.7883 13.8205 17.782 13.2758 17.491C13.0314 17.3611 12.7711 17.3295 12.48 17.3938C12.3491 17.4233 12.1752 17.3618 12.094 17.2581L11.9861 17.1212C11.7822 16.8629 11.5708 16.5957 11.3895 16.3109C10.8971 15.5397 10.5011 14.6577 10.1785 13.6134C10.1028 13.3669 9.9764 13.2211 9.77024 13.1409C9.73242 12.9779 9.72315 12.8322 9.72315 12.7895C9.72315 12.3369 9.70831 11.8807 9.76023 11.4317C9.83068 10.7989 10.0754 10.2175 10.5278 9.72808C10.754 9.98933 11.0284 10.0703 11.3547 9.97094C11.6513 9.87895 11.9516 9.79799 12.2446 9.70232C12.5783 9.59929 12.6821 9.37116 12.5301 9.06207C12.3966 8.79713 12.2631 8.53588 12.1185 8.27463C11.9591 7.98762 11.6995 7.92506 11.414 8.10169C11.1285 8.27831 10.8504 8.46597 10.5686 8.64627C10.4017 8.75298 10.3127 8.90384 10.2831 9.09886C10.2682 9.18718 10.2311 9.28653 10.1718 9.35276C9.83068 9.72072 9.58966 10.1439 9.42651 10.6185C9.22034 11.2235 9.16658 11.842 9.18475 12.4683L9.1803 12.4665C9.1803 12.4665 9.18401 12.7251 9.19365 13.0331C9.18809 13.1181 9.17882 13.2164 9.16658 13.2955C9.00269 13.4736 8.95856 13.6671 9.0394 13.9126L9.09835 14.0936C9.17251 14.3232 9.2463 14.5532 9.33529 14.7769C9.76319 15.8609 10.3976 17.2478 11.5148 18.3605C11.589 18.4359 11.6461 18.5463 11.6695 18.6582C11.751 19.039 11.9613 19.3014 12.3117 19.4592C12.5064 19.5464 12.704 19.6277 12.9042 19.7105L13.3151 19.8816L13.2368 20.1572C12.9521 21.0933 12.4878 21.9544 12.071 22.673C11.5223 23.6209 11.5441 24.61 12.1367 25.6123C12.7563 26.6602 13.7055 27.3634 15.0389 27.7619C15.2888 27.8374 15.5573 27.8845 15.7942 27.926L15.9852 27.9599C16.142 27.9827 16.2955 27.9956 16.4498 28H16.6942C16.8121 27.9971 16.9326 27.9879 17.0479 27.9731L17.0994 27.9665L17.1002 27.9669L17.1929 27.9558C18.3005 27.7965 19.2241 27.2122 19.9116 26.2209C20.5864 25.2484 20.9101 24.0863 20.9016 22.6682C20.8957 21.6902 20.6565 20.7622 20.4118 19.8956C20.1856 19.0971 20.1871 18.3366 20.4166 17.6356C20.5968 17.0818 20.9253 16.6027 21.3925 16.2119L21.5082 16.1148L21.6269 16.2083C22.42 16.8327 23.0059 17.0101 23.8687 16.8861C25.0768 16.7131 26.052 15.5434 25.9978 14.3317C25.9634 13.5678 25.6404 12.8915 25.0887 12.4267ZM23.4286 15.6276C23.4264 15.6276 23.4238 15.6276 23.4212 15.6276C22.7293 15.6232 22.1645 15.0621 22.1623 14.3766C22.1612 14.0424 22.2939 13.7275 22.5368 13.4894C22.7804 13.2506 23.1023 13.1284 23.4408 13.127C24.1413 13.1362 24.686 13.6881 24.6811 14.3835C24.676 15.0709 24.1149 15.6276 23.4286 15.6276Z" fill="#12B78F"/>
</svg>
