<svg width="60" height="46" viewBox="0 0 60 46" fill="none" xmlns="http://www.w3.org/2000/svg">
<path d="M30 0.84375H1.875C1.10156 0.84375 0.46875 1.47656 0.46875 2.25V32.25C0.46875 33.0234 1.10156 33.6562 1.875 33.6562H30C32.8477 33.6562 35.1562 31.3477 35.1562 28.5V6C35.1562 3.15234 32.8477 0.84375 30 0.84375ZM17.8125 29.6719C11.0859 29.6719 5.625 24.2109 5.625 17.4844C5.625 10.7578 11.0859 5.29688 17.8125 5.29688C24.5391 5.29688 30 10.7578 30 17.4844C29.9883 24.2109 24.5391 29.6602 17.8125 29.6719Z" fill="url(#paint0_linear_1_8891)"/>
<path d="M23.9062 17.4846C23.9062 17.5971 23.9032 17.7094 23.8971 17.8213C23.8334 18.9959 24.167 20.259 25.1538 20.8993C26.3656 21.6858 28.0186 21.2429 28.3326 19.8328C28.6769 18.2868 28.6769 16.6824 28.3326 15.1363C28.0186 13.7262 26.3656 13.2833 25.1538 14.0698C24.167 14.7101 23.8334 15.9732 23.8971 17.1478C23.9032 17.2598 23.9062 17.372 23.9062 17.4846Z" fill="url(#paint1_linear_1_8891)"/>
<path d="M14.4013 10.1488C15.0405 11.1336 16.2974 11.4667 17.4696 11.4004C17.698 11.3875 17.927 11.3875 18.1554 11.4004C19.3276 11.4667 20.5845 11.1336 21.2237 10.1488C22.012 8.93392 21.568 7.2768 20.1542 6.96287C18.6124 6.62053 17.0126 6.62053 15.4708 6.96287C14.057 7.2768 13.613 8.93392 14.4013 10.1488Z" fill="url(#paint2_linear_1_8891)"/>
<path d="M17.4696 23.5684C16.2974 23.502 15.0405 23.8351 14.4013 24.82C13.613 26.0348 14.057 27.6919 15.4708 28.0059C17.0126 28.3482 18.6124 28.3482 20.1542 28.0059C21.568 27.6919 22.012 26.0348 21.2237 24.82C20.5845 23.8351 19.3276 23.502 18.1554 23.5684C17.927 23.5813 17.698 23.5813 17.4696 23.5684Z" fill="url(#paint3_linear_1_8891)"/>
<path d="M10.4768 14.0734C9.26199 13.285 7.60486 13.7291 7.29094 15.1429C6.94859 16.6847 6.94859 18.2844 7.29094 19.8262C7.60486 21.24 9.26199 21.6841 10.4768 20.8957C11.4617 20.2566 11.7948 18.9996 11.7284 17.8274C11.7155 17.599 11.7155 17.3701 11.7284 17.1417C11.7948 15.9695 11.4617 14.7125 10.4768 14.0734Z" fill="url(#paint4_linear_1_8891)"/>
<path d="M17.8125 22.1719C20.4013 22.1719 22.5 20.0732 22.5 17.4844C22.5 14.8955 20.4013 12.7969 17.8125 12.7969C15.2237 12.7969 13.125 14.8955 13.125 17.4844C13.125 20.0732 15.2237 22.1719 17.8125 22.1719Z" fill="url(#paint5_linear_1_8891)"/>
<path d="M55.7812 0.84375H41.7188C38.8711 0.84375 36.5625 3.15234 36.5625 6V28.5C36.5625 29.5476 37.8397 29.5366 38.3918 28.6464C40.2586 25.6363 43.3606 23.5726 46.8824 23.022C47.9062 22.8619 48.75 22.0362 48.75 21C48.75 20.2266 49.3828 19.5938 50.1562 19.5938C50.9297 19.5938 51.5625 20.2266 51.5625 21V21.567C51.5625 22.5263 52.2302 23.3436 53.1248 23.69C54.8258 24.3488 57.1875 23.2505 57.1875 21.4264V2.25C57.1875 1.47656 56.5547 0.84375 55.7812 0.84375ZM45 21C45 21.7734 44.3672 22.4063 43.5938 22.4063C42.8203 22.4063 42.1875 21.7734 42.1875 21V7.875C42.1875 7.10156 42.8203 6.46875 43.5938 6.46875C44.3672 6.46875 45 7.10156 45 7.875V21ZM51.5625 15.375C51.5625 16.1484 50.9297 16.7813 50.1562 16.7813C49.3828 16.7813 48.75 16.1484 48.75 15.375V7.875C48.75 7.10156 49.3828 6.46875 50.1562 6.46875C50.9297 6.46875 51.5625 7.10156 51.5625 7.875V15.375Z" fill="url(#paint6_linear_1_8891)"/>
<path d="M48.75 24.2812C42.7969 24.2812 37.9688 29.1094 37.9688 35.0625C37.9688 41.0156 42.7969 45.8438 48.75 45.8438C54.7031 45.8438 59.5312 41.0156 59.5312 35.0625C59.5195 29.1094 54.7031 24.293 48.75 24.2812ZM43.8047 38.1328C43.8047 38.2732 43.6709 38.3873 43.5542 38.3093C43.2482 38.1048 43.043 37.7627 43.043 37.3711V35.8008C43.043 35.4083 43.242 35.0585 43.5515 34.8565C43.6711 34.7785 43.8047 34.8962 43.8047 35.0391V38.1328ZM46.8516 38.1328C46.8516 38.7656 46.3359 39.2695 45.7148 39.2695C45.082 39.2695 44.5781 38.7539 44.5781 38.1328V35.0391C44.5781 34.4062 45.0938 33.9023 45.7148 33.9023C46.3477 33.9023 46.8516 34.418 46.8516 35.0391V38.1328ZM52.9336 38.8945C52.9336 39.9492 52.0781 40.793 51.0352 40.793C50.3099 40.793 49.665 41.4176 48.95 41.5389C48.8889 41.5493 48.826 41.5547 48.7617 41.5547C48.1289 41.5547 47.625 41.0391 47.625 40.418C47.625 39.7852 48.1406 39.2812 48.7617 39.2812C48.8266 39.2812 48.8903 39.2867 48.9523 39.2973C49.6639 39.4187 50.3132 40.043 51.0352 40.043C51.4315 40.043 51.7794 39.8421 51.983 39.5363C52.0611 39.4191 51.9377 39.293 51.7969 39.293C51.1641 39.293 50.6602 38.7773 50.6602 38.1562V35.0625C50.6602 34.4297 51.1758 33.9258 51.7969 33.9258C52.4297 33.9258 52.9336 34.4414 52.9336 35.0625V38.8945ZM54.457 37.3711C54.457 37.7636 54.258 38.1134 53.9485 38.3153C53.8289 38.3934 53.6953 38.2757 53.6953 38.1328V35.0391C53.6953 34.8987 53.8291 34.7846 53.9458 34.8626C54.2518 35.0671 54.457 35.4092 54.457 35.8008V37.3711ZM54.4234 33.6631C54.4507 33.9155 54.148 34.0771 53.907 33.9974C53.7777 33.9547 53.6781 33.8434 53.6625 33.7082C53.3788 31.2507 51.2853 29.332 48.7617 29.332C46.2387 29.332 44.1455 31.2499 43.8611 33.7067C43.8454 33.8426 43.7458 33.9536 43.6157 33.996C43.4173 34.0606 43.2373 34.1559 43.0756 34.2818C43.0719 34.2847 43.0664 34.2821 43.0664 34.2773C43.0664 31.1367 45.6211 28.5703 48.7734 28.5703C51.7143 28.5703 54.1146 30.8039 54.4234 33.6631Z" fill="url(#paint7_linear_1_8891)"/>
<defs>
<linearGradient id="paint0_linear_1_8891" x1="0.46875" y1="0.84375" x2="0.46875" y2="33.6562" gradientUnits="userSpaceOnUse">
<stop stop-color="#C2FFD5"/>
<stop offset="1" stop-color="#17DC69"/>
</linearGradient>
<linearGradient id="paint1_linear_1_8891" x1="23.4492" y1="12.5978" x2="23.4492" y2="22.3713" gradientUnits="userSpaceOnUse">
<stop stop-color="#C2FFD5"/>
<stop offset="1" stop-color="#17DC69"/>
</linearGradient>
<linearGradient id="paint2_linear_1_8891" x1="12.9258" y1="6.70612" x2="12.9258" y2="11.8477" gradientUnits="userSpaceOnUse">
<stop stop-color="#C2FFD5"/>
<stop offset="1" stop-color="#17DC69"/>
</linearGradient>
<linearGradient id="paint3_linear_1_8891" x1="12.9258" y1="23.121" x2="12.9258" y2="28.2626" gradientUnits="userSpaceOnUse">
<stop stop-color="#C2FFD5"/>
<stop offset="1" stop-color="#17DC69"/>
</linearGradient>
<linearGradient id="paint4_linear_1_8891" x1="7.03418" y1="12.5978" x2="7.03418" y2="22.3713" gradientUnits="userSpaceOnUse">
<stop stop-color="#C2FFD5"/>
<stop offset="1" stop-color="#17DC69"/>
</linearGradient>
<linearGradient id="paint5_linear_1_8891" x1="13.125" y1="12.7969" x2="13.125" y2="22.1719" gradientUnits="userSpaceOnUse">
<stop stop-color="#C2FFD5"/>
<stop offset="1" stop-color="#17DC69"/>
</linearGradient>
<linearGradient id="paint6_linear_1_8891" x1="36.5625" y1="0.84375" x2="36.5625" y2="31.0547" gradientUnits="userSpaceOnUse">
<stop stop-color="#C2FFD5"/>
<stop offset="1" stop-color="#17DC69"/>
</linearGradient>
<linearGradient id="paint7_linear_1_8891" x1="37.9688" y1="24.2812" x2="37.9688" y2="45.8438" gradientUnits="userSpaceOnUse">
<stop stop-color="#C2FFD5"/>
<stop offset="1" stop-color="#17DC69"/>
</linearGradient>
</defs>
</svg>
