<svg width="66" height="65" viewBox="0 0 66 65" fill="none" xmlns="http://www.w3.org/2000/svg">
<circle opacity="0.5" cx="33" cy="32.5" r="32.5" fill="#EA1BFF"/>
<path fill-rule="evenodd" clip-rule="evenodd" d="M20.5 36.2109V36.9434C20.5 38.155 21.5345 39.1406 22.7461 39.1406H32.3164C32.3164 38.0979 32.5427 37.1098 32.9373 36.2109H20.5Z" fill="white"/>
<path fill-rule="evenodd" clip-rule="evenodd" d="M32.4645 40.6055H29.3867V42.0703H28.6543C27.4408 42.0703 26.457 43.0541 26.457 44.2676C26.457 44.6721 26.785 45 27.1895 45H35.2914C33.8711 43.9425 32.8306 42.4017 32.4645 40.6055Z" fill="white"/>
<path fill-rule="evenodd" clip-rule="evenodd" d="M40.8375 39.1528C40.8287 39.8218 40.2828 40.3486 39.6099 40.3379C38.9683 40.3271 38.4375 39.7807 38.4434 39.1372C38.4498 38.4599 38.9966 37.9321 39.6783 37.9448C40.3174 37.957 40.8458 38.5078 40.8375 39.1528Z" fill="white"/>
<path fill-rule="evenodd" clip-rule="evenodd" d="M39.6406 33.2812C36.4048 33.2812 33.7812 35.9048 33.7812 39.1406C33.7812 42.3765 36.4048 45 39.6406 45C42.8765 45 45.5 42.3765 45.5 39.1406C45.5 35.9048 42.8765 33.2812 39.6406 33.2812ZM42.9456 40.7021C42.8548 40.88 42.7534 41.0541 42.6446 41.2219C42.4168 41.5723 41.9841 41.679 41.6141 41.4836C41.5472 41.448 41.4835 41.405 41.4145 41.3748C41.0779 41.2261 40.7083 41.4512 40.6844 41.8191C40.6797 41.8892 40.6839 41.9604 40.6813 42.0305C40.6653 42.4414 40.3404 42.7684 39.9311 42.7849C39.8334 42.7891 39.7357 42.7859 39.638 42.7859V42.7865H39.5568C38.8884 42.7865 38.6181 42.5263 38.5979 41.8637C38.5847 41.4316 38.1854 41.2012 37.8037 41.4056C37.7463 41.4364 37.6911 41.4709 37.6322 41.499C37.3784 41.6201 37.113 41.6285 36.89 41.4613C36.5353 41.1958 36.3235 40.82 36.2577 40.3851C36.2131 40.0884 36.3654 39.8521 36.6166 39.6865C36.6797 39.6445 36.7482 39.6111 36.8103 39.5675C37.113 39.3536 37.1103 38.9251 36.8056 38.7122C36.7525 38.6751 36.6935 38.6464 36.6383 38.6119C36.2603 38.3783 36.1403 37.9435 36.35 37.5522C36.4291 37.404 36.5141 37.2591 36.6006 37.1152C36.8486 36.7032 37.2908 36.5875 37.7087 36.8232C37.7511 36.8471 37.7925 36.8731 37.8361 36.8949C38.1897 37.0685 38.5783 36.8402 38.5974 36.4473C38.6001 36.3879 38.5969 36.3284 38.5985 36.2684C38.6101 35.8405 38.9383 35.5087 39.3651 35.4975C39.544 35.4927 39.7235 35.4938 39.9024 35.497C40.3393 35.5055 40.6706 35.8357 40.6818 36.2716C40.6839 36.3422 40.6791 36.4133 40.686 36.4829C40.7237 36.8439 41.0874 37.0542 41.4182 36.906C41.4973 36.871 41.57 36.8222 41.6475 36.7845C42.0054 36.6109 42.4189 36.7186 42.6377 37.0505C42.7508 37.2225 42.8543 37.4014 42.9472 37.5846C43.1298 37.944 43.0136 38.3634 42.6786 38.5875C42.6111 38.6331 42.5373 38.6687 42.471 38.7154C42.1678 38.9288 42.1694 39.3578 42.4747 39.5697C42.5411 39.6164 42.6154 39.6519 42.6823 39.6976C43.0173 39.9238 43.1298 40.3421 42.9456 40.7021Z" fill="white"/>
<path fill-rule="evenodd" clip-rule="evenodd" d="M43.3027 20H22.7461C21.5347 20 20.5 21.0347 20.5 22.2461V34.7461H33.8188C35.1572 32.978 37.2573 31.8164 39.6406 31.8164C42.0239 31.8164 44.124 32.978 45.4624 34.7461H45.5V22.2461C45.5 21.0347 44.5142 20 43.3027 20ZM23.7016 24.7563C24.6479 24.7553 25.5947 24.7563 26.541 24.7563C26.541 24.7563 26.541 24.7568 26.541 24.7573C27.4936 24.7573 28.4467 24.7558 29.3999 24.7578C29.7715 24.7587 29.852 24.8759 29.7314 25.2319C29.4414 26.0844 29.1499 26.9365 28.8593 27.7885C28.7656 28.0624 28.6484 28.1494 28.3569 28.1494C27.124 28.1503 25.8911 28.1503 24.6582 28.1494C24.3457 28.1494 24.2299 28.06 24.1421 27.7578C23.8911 26.8925 23.6396 26.0278 23.3891 25.1625C23.2934 24.8334 23.352 24.7568 23.7016 24.7563ZM25.2051 32.2519C24.7168 32.2524 24.3125 31.851 24.3086 31.3613C24.3047 30.8667 24.7212 30.4507 25.2139 30.458C25.7032 30.4648 26.1021 30.8711 26.0996 31.3603C26.0972 31.8496 25.6939 32.2514 25.2051 32.2519ZM28.9795 32.2437C28.4897 32.2388 28.0952 31.8369 28.0962 31.3433C28.0967 30.8482 28.4912 30.4492 28.9824 30.4478C29.4766 30.4458 29.8711 30.8384 29.875 31.3359C29.8789 31.8384 29.4746 32.2481 28.9795 32.2437ZM33.081 24.0303C32.8476 24.0362 32.6133 24.043 32.3808 24.0284C32.2182 24.0181 32.1523 24.0767 32.0996 24.23C31.4521 26.1177 30.7944 28.002 30.1455 29.8897C30.0962 30.0323 30.0322 30.0831 29.8784 30.0816C28.9384 30.0738 27.998 30.0777 27.0576 30.0777C26.124 30.0777 25.1904 30.0787 24.2568 30.0767C24.1645 30.0762 24.0688 30.0704 23.9804 30.0455C23.7607 29.9834 23.6147 29.7696 23.6245 29.5455C23.6347 29.3179 23.7944 29.1182 24.0195 29.0772C24.1499 29.0542 24.2851 29.0547 24.4179 29.0547C25.9985 29.0538 27.5786 29.0528 29.1592 29.0591C29.3115 29.0601 29.3789 29.0137 29.4267 28.8682C29.6323 28.2471 29.8515 27.6309 30.0654 27.0127C30.5063 25.7383 30.9472 24.4639 31.3891 23.1905C31.4179 23.1065 31.4282 23.0147 31.5644 23.0171C32.0713 23.0254 32.5781 23.0152 33.0849 23.023C33.3779 23.0274 33.5903 23.2579 33.5844 23.5396C33.5786 23.813 33.3676 24.0225 33.081 24.0303ZM40.373 28.8867H37.4434C37.0386 28.8867 36.7109 28.5591 36.7109 28.1543C36.7109 27.7495 37.0386 27.4219 37.4434 27.4219H40.373C40.7778 27.4219 41.1055 27.7495 41.1055 28.1543C41.1055 28.5591 40.7778 28.8867 40.373 28.8867ZM40.373 25.957H37.4434C37.0386 25.957 36.7109 25.6294 36.7109 25.2246C36.7109 24.8198 37.0386 24.4922 37.4434 24.4922H40.373C40.7778 24.4922 41.1055 24.8198 41.1055 25.2246C41.1055 25.6294 40.7778 25.957 40.373 25.957Z" fill="white"/>
</svg>
