<svg width="25" height="25" viewBox="0 0 25 25" fill="none" xmlns="http://www.w3.org/2000/svg">
<rect x="0.5" y="0.5" width="24" height="24" rx="12" fill="url(#paint0_linear_4808_2868)"/>
<path d="M14.5871 18.4211C14.9793 18.7479 15.3434 19.4159 15.3434 20.4361C15.3434 21.8932 15.3294 23.0641 15.3294 23.4182C15.3294 23.6459 15.4542 23.9091 15.7969 23.9502C15.8683 23.9606 15.9585 23.9663 16.0714 23.9632C14.9736 24.3117 13.8018 24.5 12.5849 24.5C11.3561 24.5 10.2464 24.3754 9.13984 24.02C9.68088 24.1083 9.80662 23.71 9.80662 23.4256C9.80662 23.1667 9.79745 22.4815 9.79261 21.5737C6.67554 22.2304 6.01808 20.1128 6.01808 20.1128C5.50856 18.8561 4.77143 18.5198 4.77143 18.5198C3.75635 17.8449 4.85022 17.8588 4.85022 17.8588C5.97518 17.9345 6.56658 18.9808 6.56658 18.9808C7.56549 20.6456 9.18947 20.1647 9.8303 19.8868C9.93097 19.1821 10.2194 18.7028 10.5399 18.4302C8.05137 18.1579 5.43549 17.2216 5.43549 13.0491C5.43549 11.8608 5.86972 10.8894 6.58892 10.1276C6.46287 9.85227 6.08465 8.74492 6.68697 7.24501C6.68697 7.24501 7.62548 6.95323 9.76861 8.36183C10.6651 8.11985 11.6176 7.99952 12.5701 7.99433C13.5226 7.99952 14.4751 8.11985 15.3716 8.36183C17.5007 6.95323 18.4392 7.24501 18.4392 7.24501C19.0415 8.74492 18.6633 9.85222 18.5512 10.1276C19.2656 10.8894 19.6998 11.8608 19.6998 13.0491C19.6997 17.2324 17.0804 18.1531 14.5871 18.4211Z" fill="white"/>
<defs>
<linearGradient id="paint0_linear_4808_2868" x1="0.5" y1="0.5" x2="0.5" y2="24.5" gradientUnits="userSpaceOnUse">
<stop stop-color="#406091"/>
<stop offset="1" stop-color="#040D21"/>
</linearGradient>
</defs>
</svg>
