<svg width="14" height="12" viewBox="0 0 14 12" fill="none" xmlns="http://www.w3.org/2000/svg">
<path fill-rule="evenodd" clip-rule="evenodd" d="M0.00323426 6.88382C0.00300799 7.19527 0.00278172 7.50672 0.00278172 7.81817L0.00250465 11.3998C0.00278172 11.8146 0.183989 11.9986 0.597662 11.9992C1.55939 12.0003 2.5214 12.0003 3.48312 11.9992C3.90927 11.9986 4.08299 11.821 4.08327 11.3904C4.08346 11.1527 4.08315 10.915 4.08284 10.6773C4.08225 10.2336 4.08167 9.78984 4.08438 9.34618C4.08826 8.70963 4.56427 8.28822 5.16331 8.38273C5.59776 8.45139 5.9067 8.82971 5.91058 9.31672C5.91421 9.76994 5.91356 10.223 5.91291 10.6762C5.91257 10.9153 5.91223 11.1545 5.91252 11.3937C5.91307 11.8168 6.09511 11.998 6.52042 11.9992C6.80183 11.9999 7.08337 11.9998 7.36486 11.9996C7.48553 11.9995 7.60618 11.9994 7.72681 11.9994C7.89806 11.9994 8.06928 11.9993 8.24049 11.9991C8.63992 11.9988 9.03925 11.9984 9.43858 12C9.64971 12.0008 9.83591 11.9411 9.92706 11.7418C9.97888 11.6283 9.99467 11.4899 9.99495 11.3626C9.99827 9.94098 9.99805 8.51918 9.99783 7.09749C9.99777 6.74201 9.99772 6.38654 9.99772 6.03108C9.99772 5.85967 9.99735 5.68828 9.99699 5.51691C9.99609 5.08855 9.99518 4.6603 9.99993 4.23204C10.0027 3.9941 9.92069 3.81397 9.72979 3.67109C9.57712 3.55676 9.4295 3.43557 9.28185 3.31437C9.21915 3.26289 9.15644 3.21142 9.09334 3.16046C8.83822 2.95439 8.58307 2.74833 8.32791 2.54226C7.34744 1.75044 6.36688 0.958533 5.38718 0.165579C5.23535 0.042993 5.06938 -0.0412328 4.87792 0.0210331C4.76321 0.0582814 4.65654 0.135002 4.56067 0.212278C3.95092 0.703389 3.34182 1.19531 2.73273 1.68722C1.91145 2.35049 1.0902 3.01374 0.267389 3.67498C0.0817481 3.82426 -0.00109733 3.99771 1.09679e-05 4.23649C0.00451645 5.11893 0.00387535 6.00138 0.00323426 6.88382ZM11.5993 9.41261C11.606 10.2692 11.6128 11.1279 11.5609 11.9927C11.5682 11.9931 11.577 11.9937 11.5869 11.9944C11.6174 11.9965 11.6581 11.9993 11.6986 11.9991C11.7926 11.9992 11.8866 11.9993 11.9807 11.9994C12.4514 12 12.9223 12.0005 13.393 11.9991C13.8168 11.9977 13.9966 11.8191 13.9966 11.3999C13.9968 10.7269 13.9967 10.0539 13.9966 9.38092C13.9964 7.66763 13.9961 5.95434 14 4.24105C14.0006 3.99464 13.9111 3.82018 13.7171 3.66878C13.199 3.26496 12.6848 2.8564 12.1706 2.44786C11.9698 2.2884 11.7691 2.12894 11.5682 1.96977C11.3583 1.80347 11.1483 1.63728 10.9383 1.47109C10.3934 1.03986 9.84851 0.608674 9.30497 0.175747C9.13529 0.0407366 8.93793 -0.0626043 8.74227 0.044348C8.56168 0.143127 8.39607 0.268702 8.2269 0.396975C8.15248 0.453403 8.07737 0.510354 8 0.565775C8.02297 0.584805 8.04241 0.601033 8.05955 0.615332C8.09444 0.644449 8.11975 0.665568 8.14569 0.686062C8.37161 0.865023 8.59746 1.04407 8.82331 1.22311C9.52862 1.78223 10.2339 2.34134 10.9411 2.89789C11.235 3.1293 11.4708 3.40154 11.5445 3.7699C11.5891 3.99186 11.5947 4.22355 11.5956 4.45106L11.5959 4.52649C11.6003 5.7545 11.6047 6.9825 11.5959 8.21023C11.593 8.6108 11.5961 9.01146 11.5993 9.41261Z" fill="url(#paint0_linear_6119_3033)"/>
<defs>
<linearGradient id="paint0_linear_6119_3033" x1="8.00001" y1="5.58e-06" x2="8.00003" y2="12" gradientUnits="userSpaceOnUse">
<stop stop-color="#656096"/>
<stop offset="1" stop-color="#130F40"/>
</linearGradient>
</defs>
</svg>
