<svg width="15" height="15" viewBox="0 0 15 15" fill="none" xmlns="http://www.w3.org/2000/svg">
<path fill-rule="evenodd" clip-rule="evenodd" d="M10.9973 1.88822C8.4798 -0.629262 4.40518 -0.629555 1.88711 1.88822C-0.137313 3.91294 -0.519931 6.9229 0.677143 9.32027L0.0135664 12.2391C-0.0728596 12.6182 0.267278 12.9587 0.646674 12.8722L3.56553 12.2087C4.84581 12.8479 6.20167 13.0152 7.47111 12.8046C7.30118 12.3522 7.20831 11.8624 7.20831 11.3506C7.20831 9.0651 9.06134 7.21207 11.3468 7.21207C11.8598 7.21207 12.3511 7.30552 12.8043 7.47603C12.8571 7.14205 12.8843 6.79751 12.8843 6.44361C12.8843 4.7227 12.2143 3.10522 10.9973 1.88822ZM7.78596 8.04758H3.75469C3.46231 8.04758 3.22559 7.81057 3.22559 7.51847C3.22559 7.22638 3.46231 6.98936 3.75469 6.98936H7.78596C8.07835 6.98936 8.31507 7.22638 8.31507 7.51847C8.31507 7.81057 8.07835 8.04758 7.78596 8.04758ZM9.1298 5.89748H3.75469C3.46231 5.89748 3.22559 5.66076 3.22559 5.36837C3.22559 5.07628 3.46231 4.83926 3.75469 4.83926H9.1298C9.42218 4.83926 9.6589 5.07628 9.6589 5.36837C9.6589 5.66076 9.42218 5.89748 9.1298 5.89748Z" fill="url(#paint0_linear_120_115)"/>
<path fill-rule="evenodd" clip-rule="evenodd" d="M12.906 12.7593C12.6787 12.532 12.4511 12.3049 12.2234 12.0782C12.2099 12.0647 12.1968 12.0506 12.1812 12.0401C12.127 12.0041 12.0725 12.0058 12.0257 12.0509C11.9788 12.096 11.9738 12.1502 12.0107 12.2044C12.0227 12.2226 12.0386 12.2375 12.0538 12.2528C12.2797 12.4781 12.5047 12.7037 12.732 12.9275C12.7628 12.958 12.8032 12.9796 12.8217 12.9928C12.9394 12.9931 12.9986 12.895 12.9532 12.8144C12.9418 12.7939 12.9233 12.7766 12.906 12.7593Z" fill="url(#paint1_linear_120_115)"/>
<path opacity="0.5" fill-rule="evenodd" clip-rule="evenodd" d="M11.4001 7.80811C9.41406 7.80811 7.8042 9.41797 7.8042 11.404C7.8042 13.39 9.41406 14.9999 11.4001 14.9999C13.3861 14.9999 14.996 13.39 14.996 11.404C14.996 9.41797 13.3861 7.80811 11.4001 7.80811ZM9.36043 9.56767C9.42518 9.50234 9.49021 9.4376 9.55555 9.37314C9.60389 9.32539 9.65926 9.31455 9.71814 9.34971C9.93201 9.47656 10.1459 9.60312 10.3577 9.7332C10.4312 9.77832 10.438 9.85302 10.3841 9.92099C10.3697 9.93916 10.3536 9.95615 10.3325 9.98017C10.6047 10.2532 10.8727 10.5225 11.1411 10.792C11.0306 10.9013 10.9196 11.0108 10.7933 11.1353C10.5261 10.8655 10.2587 10.5951 9.98797 10.3212C9.96248 10.3449 9.94168 10.3657 9.91971 10.3848C9.84734 10.4478 9.77029 10.441 9.72049 10.3604C9.59158 10.1516 9.46619 9.94062 9.33992 9.72998C9.30477 9.67138 9.31268 9.61601 9.36043 9.56767ZM11.0858 12.2289C11.0111 12.3022 10.9584 12.3681 11.0053 12.4768C11.0176 12.5049 11.0114 12.5409 11.0143 12.5731C11.0682 13.1351 10.5257 13.5953 9.97635 13.4532C9.8533 13.4213 9.82459 13.3214 9.91366 13.2294C9.99246 13.1479 10.0742 13.0686 10.1545 12.9883C10.1794 12.9634 10.2052 12.9394 10.228 12.913C10.3185 12.809 10.3165 12.6684 10.2245 12.5764C10.1331 12.485 9.98719 12.4788 9.887 12.5711C9.77743 12.6716 9.67577 12.7806 9.56883 12.884C9.4745 12.9754 9.37254 12.944 9.3412 12.8157C9.30575 12.6707 9.31044 12.5263 9.3538 12.3839C9.48387 11.9547 9.90897 11.7063 10.3534 11.8044C10.4307 11.8214 10.4797 11.8085 10.5362 11.7511C10.9393 11.3433 11.3457 10.9387 11.7535 10.5356C11.8012 10.4884 11.82 10.4485 11.8001 10.382C11.781 10.3182 11.7778 10.2496 11.7678 10.1831C11.772 9.64083 12.2744 9.23214 12.8003 9.35167C12.8466 9.36222 12.8993 9.39884 12.9236 9.43868C12.9561 9.49288 12.9192 9.54503 12.8753 9.5878C12.7783 9.68214 12.6799 9.7753 12.5893 9.8755C12.5512 9.91768 12.5193 9.97364 12.5076 10.0284C12.4853 10.1304 12.5392 10.2247 12.6277 10.2722C12.7238 10.3234 12.8293 10.3129 12.9131 10.2344C13.0194 10.1345 13.1217 10.0299 13.2245 9.92618C13.2655 9.88487 13.3159 9.85118 13.3677 9.88224C13.4061 9.90509 13.4416 9.95313 13.4533 9.99679C13.5031 10.1778 13.482 10.3563 13.4041 10.5262C13.2315 10.9029 12.8489 11.0931 12.4393 11.0028C12.3655 10.9864 12.318 10.9982 12.2633 11.0538C11.8739 11.4484 11.4816 11.8404 11.0858 12.2289ZM13.454 13.147C13.338 13.4933 12.9082 13.5923 12.6428 13.331C12.2704 12.9651 11.9027 12.5947 11.533 12.2262C11.5181 12.2112 11.5052 12.1945 11.4938 12.1817C11.7226 11.9534 11.9482 11.7281 12.1773 11.4996C12.1828 11.5023 12.1884 11.5034 12.1922 11.5069C12.5792 11.8928 12.9686 12.2757 13.3515 12.6656C13.4824 12.7989 13.5141 12.968 13.454 13.147Z" fill="url(#paint2_linear_120_115)"/>
<defs>
<linearGradient id="paint0_linear_120_115" x1="5.52854" y1="-8.27354" x2="5.52854" y2="6.44527" gradientUnits="userSpaceOnUse">
<stop stop-color="white"/>
<stop offset="1" stop-color="#16D8AC"/>
</linearGradient>
<linearGradient id="paint1_linear_120_115" x1="12.4078" y1="11.3872" x2="12.4078" y2="12.5038" gradientUnits="userSpaceOnUse">
<stop stop-color="white"/>
<stop offset="1" stop-color="#16D8AC"/>
</linearGradient>
<linearGradient id="paint2_linear_120_115" x1="10.8901" y1="3.19225" x2="10.8901" y2="11.404" gradientUnits="userSpaceOnUse">
<stop stop-color="white"/>
<stop offset="1" stop-color="#16D8AC"/>
</linearGradient>
</defs>
</svg>
