<svg width="17" height="16" viewBox="0 0 17 16" fill="none" xmlns="http://www.w3.org/2000/svg">
<path fill-rule="evenodd" clip-rule="evenodd" d="M0.136719 4.26667C0.136719 2.77319 0.136719 2.02645 0.427368 1.45603C0.68303 0.954258 1.09098 0.546311 1.59275 0.290649C2.16317 0 2.90991 0 4.40339 0H11.8701C13.3636 0 14.1102 0 14.6807 0.290649C15.1825 0.546311 15.5904 0.954258 15.8461 1.45603C16.1367 2.02645 16.1367 2.77319 16.1367 4.26667V11.7333C16.1367 13.2268 16.1367 13.9735 15.8461 14.544C15.5904 15.0458 15.1825 15.4537 14.6807 15.7093C14.1102 16 13.3636 16 11.8701 16H4.40339C2.90991 16 2.16317 16 1.59275 15.7093C1.09098 15.4537 0.68303 15.0458 0.427368 14.544C0.136719 13.9735 0.136719 13.2268 0.136719 11.7333V4.26667Z" fill="#929CBF" fill-opacity="0.25098"/>
<path fill-rule="evenodd" clip-rule="evenodd" d="M4.58127 5.33344C5.07219 5.33344 5.47016 4.93547 5.47016 4.44455C5.47016 3.95364 5.07219 3.55566 4.58127 3.55566C4.09036 3.55566 3.69238 3.95364 3.69238 4.44455C3.69238 4.93547 4.09036 5.33344 4.58127 5.33344ZM4.58127 7.11133C4.09036 7.11133 3.69238 7.50928 3.69238 8.00022V11.5558C3.69238 12.0467 4.09036 12.4447 4.58127 12.4447C5.07219 12.4447 5.47016 12.0467 5.47016 11.5558V8.00022C5.47016 7.50928 5.07219 7.11133 4.58127 7.11133ZM9.91471 8.88911C9.42378 8.88911 9.02582 9.28706 9.02582 9.778V11.5558C9.02582 12.0467 8.62787 12.4447 8.13694 12.4447C7.646 12.4447 7.24805 12.0467 7.24805 11.5558V9.778V8.00022C7.24805 7.50928 7.646 7.11133 8.13694 7.11133C8.38218 7.11133 8.60422 7.21062 8.76503 7.37124C9.11311 7.20466 9.50307 7.11133 9.91471 7.11133C11.3875 7.11133 12.5814 8.30519 12.5814 9.778V11.5558C12.5814 12.0467 12.1834 12.4447 11.6925 12.4447C11.2016 12.4447 10.8036 12.0467 10.8036 11.5558V9.778C10.8036 9.28706 10.4056 8.88911 9.91471 8.88911Z" fill="#929CBF"/>
</svg>
