<svg width="31" height="31" viewBox="0 0 31 31" fill="none" xmlns="http://www.w3.org/2000/svg">
<rect width="31" height="31" rx="15.5" transform="matrix(1 0 0 -1 0 31)" fill="#130F40" fill-opacity="0.05"/>
<path opacity="0.4" d="M21.2327 13.6164C21.2327 13.6674 20.833 18.723 20.6047 20.8507C20.4617 22.1564 19.62 22.9484 18.3574 22.9709C17.3872 22.9926 16.4376 23.0001 15.5032 23.0001C14.5112 23.0001 13.541 22.9926 12.5994 22.9709C11.3791 22.9416 10.5366 22.1339 10.4009 20.8507C10.166 18.7155 9.77362 13.6674 9.76633 13.6164C9.75903 13.4627 9.80863 13.3165 9.90929 13.198C10.0085 13.0885 10.1515 13.0225 10.3017 13.0225H20.7046C20.8542 13.0225 20.9898 13.0885 21.097 13.198C21.197 13.3165 21.2473 13.4627 21.2327 13.6164Z" fill="#FF2525"/>
<path d="M22.25 10.9826C22.25 10.6744 22.0071 10.4329 21.7153 10.4329H19.5286C19.0836 10.4329 18.697 10.1164 18.5978 9.67019L18.4753 9.12346C18.3039 8.46273 17.7123 8 17.0485 8H13.9522C13.2811 8 12.6954 8.46273 12.5174 9.15946L12.4029 9.67094C12.303 10.1164 11.9164 10.4329 11.4722 10.4329H9.28539C8.99289 10.4329 8.75 10.6744 8.75 10.9826V11.2676C8.75 11.5684 8.99289 11.8174 9.28539 11.8174H21.7153C22.0071 11.8174 22.25 11.5684 22.25 11.2676V10.9826Z" fill="#FF2525"/>
</svg>
