<svg width="589" height="90" viewBox="0 0 589 90" fill="none" xmlns="http://www.w3.org/2000/svg">
<g filter="url(#filter0_d_6658_1324)">
<rect x="30" y="30" width="112" height="40" rx="8" fill="white"/>
</g>
<path d="M43.292 59.413C43.4872 58.9226 43.5144 58.397 43.6048 57.8858C43.8616 56.4306 44.0984 54.9722 44.3408 53.5146C44.3776 53.2922 44.4096 53.069 44.4952 52.8586C44.7608 52.3674 45.1872 52.1658 45.7296 52.1666C46.448 52.1682 47.1672 52.1594 47.8856 52.1682C49.36 52.1866 50.7424 51.841 52.024 51.1146C53.6784 50.1778 54.856 48.8162 55.5896 47.065C55.8656 46.4074 56.0088 45.7146 56.1384 45.0186C57.1128 45.705 57.7608 46.6362 57.9432 47.8034C58.3176 50.2026 57.5128 52.229 55.8072 53.9154C54.836 54.8762 53.6536 55.4642 52.3264 55.7514C51.6712 55.893 50.9984 55.941 50.328 55.9042C49.3576 55.8506 48.5872 56.4466 48.4328 57.5818C48.284 58.6722 48.0752 59.7538 47.892 60.8386C47.8264 61.2282 47.7672 61.6202 47.6896 62.0074C47.592 62.5002 47.2104 62.8002 46.7112 62.8002C45.7976 62.7994 44.884 62.7994 43.9696 62.8002C43.304 62.801 42.8424 62.2386 42.9624 61.5794C43.0872 60.893 43.204 60.2058 43.324 59.5186C43.3312 59.4786 43.3264 59.441 43.292 59.413Z" fill="#1485C8"/>
<path d="M56.1886 44.0038V44.5974C56.1862 44.7294 56.163 44.891 56.1414 45.0174C56.1382 45.0182 56.1358 45.0182 56.1326 45.0182H45.819C45.7982 45.0622 45.779 45.107 45.7638 45.1526C45.7582 45.1694 45.7534 45.1854 45.7486 45.2022C45.7438 45.219 45.739 45.2358 45.7358 45.2518C45.7318 45.2686 45.7278 45.2854 45.7254 45.3022C45.563 46.2102 45.4102 47.1198 45.2558 48.0302C45.0222 49.4054 44.7838 50.7798 44.5646 52.1582C44.5286 52.387 44.419 52.6158 44.4958 52.8582C44.4102 53.0686 44.3782 53.2918 44.3414 53.5142C44.099 54.9718 43.8622 56.4302 43.6054 57.8846C43.515 58.3958 43.4878 58.9214 43.2926 59.4118C43.0894 59.8078 42.7622 60.0286 42.3214 60.0326C41.243 60.0438 40.1646 60.0478 39.087 60.0326C38.3902 60.023 37.9022 59.4254 38.0166 58.7326C38.3198 56.8774 38.635 55.0246 38.9462 53.1718C39.2606 51.3006 39.5758 49.4294 39.891 47.559L39.9158 47.4126C39.9446 47.2406 39.9742 47.0686 40.003 46.8966C40.1174 46.2174 40.2318 45.5374 40.3462 44.859V44.8566C40.599 43.3526 40.8526 41.8486 41.1062 40.3446C41.1406 40.1454 41.1726 39.9446 41.211 39.7454C41.2126 39.7374 41.2142 39.7286 41.2166 39.7206L41.2342 39.6158C41.3046 39.2014 41.6342 38.8798 42.051 38.8198C42.1414 38.8062 42.2358 38.7998 42.331 38.7998H50.9846C51.2038 38.7998 51.419 38.8134 51.6302 38.8398C51.799 38.8606 51.9654 38.8894 52.1286 38.9262C52.1534 38.9318 52.1782 38.9374 52.2022 38.9438C53.003 39.1358 53.731 39.5126 54.3398 40.027C54.3654 40.0478 54.3894 40.0702 54.415 40.0918C54.4646 40.135 54.5134 40.179 54.5614 40.2246C54.5758 40.2374 54.5894 40.251 54.6038 40.2654C54.6246 40.2846 54.6446 40.3046 54.6646 40.3246C54.6942 40.3542 54.723 40.3838 54.7518 40.4142C54.8678 40.5342 54.9766 40.6606 55.079 40.7918C55.103 40.823 55.127 40.8542 55.151 40.8854C55.1518 40.8878 55.1534 40.8894 55.155 40.891C55.1798 40.9246 55.2046 40.9582 55.2286 40.9926C55.2494 41.0214 55.2694 41.051 55.2902 41.0806C55.3062 41.1038 55.3222 41.1278 55.3374 41.1518C55.3502 41.171 55.363 41.1902 55.375 41.2102C55.4014 41.2518 55.427 41.2942 55.4526 41.3366C55.9054 42.0918 56.1702 42.9702 56.1878 43.9086V43.9222C56.1878 43.9478 56.1886 43.9758 56.1886 44.0038Z" fill="#28387F"/>
<path d="M56.1406 45.0189C56.0102 45.7149 55.867 46.4077 55.5918 47.0653C54.8582 48.8165 53.6806 50.1781 52.0262 51.1149C50.7446 51.8405 49.3622 52.1861 47.8878 52.1685C47.1694 52.1597 46.4502 52.1677 45.7318 52.1669C45.1894 52.1661 44.763 52.3677 44.4974 52.8589C44.4206 52.6165 44.5302 52.3877 44.5662 52.1589C44.7846 50.7813 45.023 49.4061 45.2566 48.0309C45.411 47.1213 45.5646 46.2117 45.727 45.3037C45.823 44.7653 46.379 44.2669 46.9166 44.1853C47.1502 44.1501 47.3814 44.1461 47.615 44.1453C49.5526 44.1445 51.4894 44.1381 53.427 44.1485C54.1822 44.1525 54.9102 44.3109 55.5838 44.6685C55.7694 44.7669 55.9462 44.8829 56.1262 44.9901C56.1342 44.9973 56.139 45.0069 56.1406 45.0189Z" fill="#242964"/>
<path d="M70.0676 43.8363C71.2588 43.9011 72.6724 43.6995 74.0612 44.0675C76.2284 44.6419 77.1348 46.0099 76.8052 48.2179C76.6692 49.1267 76.5076 50.0275 76.1092 50.8619C75.1028 52.9707 73.2756 53.7411 71.0884 53.8835C70.3708 53.9299 69.6476 53.9219 68.9276 53.9003C68.274 53.8811 67.9772 54.1971 67.886 54.8131C67.7324 55.8483 67.5452 56.8779 67.3876 57.9123C67.27 58.6811 66.8716 59.0803 66.062 59.0275C65.6708 59.0019 65.2764 59.0235 64.8828 59.0235C63.3764 59.0235 63.3708 58.9907 63.6204 57.4587C64.2668 53.4883 64.8988 49.5155 65.5172 45.5403C65.7676 43.9307 65.8484 43.8363 67.4988 43.8363C68.2852 43.8355 69.0716 43.8363 70.0676 43.8363ZM68.5932 50.9899C69.5484 50.9555 70.3836 51.0835 71.214 50.8227C72.1212 50.5379 72.4732 49.8459 72.5884 48.9899C72.6716 48.3675 72.7188 47.7155 72.0468 47.3499C71.2332 46.9083 70.3468 46.9795 69.4724 47.0883C69.3748 47.1003 69.2564 47.3267 69.2292 47.4691C69.0108 48.6075 68.8132 49.7499 68.5932 50.9899Z" fill="#263D80"/>
<path d="M109.315 43.8461C110.629 43.9269 112.176 43.6637 113.675 44.2165C115.413 44.8581 116.184 45.9693 116.063 47.7989C115.8 51.8053 113.624 53.8725 109.617 53.9053C106.832 53.9285 107.354 53.6117 106.842 56.3509C106.232 59.6229 107.018 58.9197 103.744 59.0389C102.84 59.0717 102.586 58.7469 102.726 57.8877C103.41 53.6933 104.061 49.4941 104.738 45.2989C104.956 43.9493 105.1 43.8477 106.447 43.8461C107.333 43.8453 108.218 43.8461 109.315 43.8461ZM107.62 50.9445C108.497 50.9445 109.246 51.0037 109.982 50.9293C110.874 50.8389 111.504 50.3125 111.69 49.4189C111.834 48.7221 111.943 47.9813 111.246 47.4477C110.782 47.0917 108.931 46.8477 108.503 47.0901C108.315 47.1965 108.252 47.3677 108.217 47.5701C108.03 48.6581 107.834 49.7437 107.62 50.9445Z" fill="#1D9BD7"/>
<path d="M85.2113 49.8403C85.2937 48.8867 85.9297 48.9411 86.5769 48.9483C89.2081 48.9779 89.2241 48.6539 88.7449 51.4123C88.3697 53.5731 88.0529 55.7435 87.7121 57.9099C87.5921 58.6707 87.1953 59.0819 86.3809 59.0283C85.9569 59.0003 85.5289 59.0131 85.1033 59.0259C84.4129 59.0467 83.6769 59.1411 84.0825 57.8371C82.7617 58.8019 81.5193 59.2379 80.1345 59.1819C77.8097 59.0875 76.4401 57.8707 76.0601 55.5787C75.3961 51.5723 79.3297 47.8603 83.2809 48.7451C84.0105 48.9091 84.6105 49.2603 85.2113 49.8403ZM79.4801 54.2387C79.4617 55.7683 80.2441 56.6075 81.6985 56.6187C83.2169 56.6307 84.7353 55.2443 84.7329 53.8483C84.7305 52.4891 83.7593 51.5307 82.3753 51.5211C80.8185 51.5107 79.4985 52.7491 79.4801 54.2387Z" fill="#263D80"/>
<path d="M123.077 57.885C121.459 58.9714 120.006 59.373 118.358 59.097C116.616 58.805 115.578 57.7586 115.214 56.1362C114.714 53.901 115.358 51.9186 117.006 50.3138C118.581 48.7794 120.462 48.285 122.606 48.805C123.227 48.9554 123.701 49.353 124.282 49.8986C124.319 48.9906 124.829 48.9242 125.433 48.9554C126.02 48.9858 126.61 48.961 127.2 48.9634C127.874 48.9658 128.139 49.285 128.026 49.9634C127.585 52.605 127.149 55.2474 126.735 57.893C126.613 58.6746 126.218 59.053 125.422 59.0258C124.932 59.009 124.44 59.0066 123.95 59.0266C123.294 59.0546 122.78 58.953 123.077 57.885ZM121.368 51.5274C119.81 51.529 118.48 52.8018 118.485 54.2874C118.49 55.7154 119.327 56.601 120.697 56.6274C122.33 56.6586 123.798 55.2098 123.794 53.5698C123.79 52.4202 122.729 51.5258 121.368 51.5274Z" fill="#1D9BD7"/>
<path d="M95.4669 54.6631C96.5629 52.9735 97.5997 51.4335 98.5685 49.8519C98.9733 49.1911 99.4397 48.8575 100.233 48.9415C100.817 49.0031 101.412 48.9359 102.001 48.9583C102.782 48.9879 102.93 49.2711 102.473 49.9311C99.6189 54.0447 96.7485 58.1471 93.8941 62.2599C93.6029 62.6799 93.2477 62.8679 92.7397 62.8479C92.1509 62.8239 91.5605 62.8479 90.9709 62.8399C90.6853 62.8359 90.3517 62.9175 90.1837 62.5863C90.0045 62.2319 90.2365 61.9663 90.4277 61.6983C91.1101 60.7383 91.7669 59.7583 92.4805 58.8223C92.8173 58.3807 92.8485 57.9967 92.6669 57.4807C91.8309 55.1087 91.0301 52.7247 90.2277 50.3407C89.8717 49.2831 89.9989 49.0863 91.0797 49.0975C94.2373 49.1319 93.5333 48.6935 94.4637 51.5303C94.7885 52.5207 95.0997 53.5135 95.4669 54.6631Z" fill="#263D80"/>
<path d="M129.859 59.1999C129.695 59.1999 129.531 59.2015 129.368 59.1999C128.291 59.1887 128.174 59.0711 128.335 57.9935C128.649 55.8943 128.983 53.7983 129.313 51.7015C129.674 49.4111 130.062 47.1255 130.392 44.8311C130.491 44.1415 130.759 43.9175 131.467 43.9271C134.643 43.9719 134.097 43.7263 133.665 46.5423C133.111 50.1575 132.55 53.7711 131.971 57.3823C131.684 59.1575 131.609 59.1991 129.859 59.1999Z" fill="#1D9BD7"/>
<g filter="url(#filter1_d_6658_1324)">
<rect x="198" y="30" width="40" height="40" rx="8" fill="white"/>
</g>
<g clip-path="url(#clip0_6658_1324)">
<path d="M231.043 42.7756V57.2233C231.043 57.5394 231.018 57.8494 230.969 58.1515C230.968 58.1572 230.968 58.1629 230.967 58.1686C230.821 59.0568 230.474 59.8768 229.974 60.5804C229.973 60.5814 229.972 60.583 229.971 60.584C229.762 60.8778 229.525 61.1514 229.266 61.401C229.156 61.5076 229.041 61.61 228.922 61.7072C227.922 62.5294 226.64 63.0228 225.244 63.0228H210.797C207.593 63.0228 204.997 60.426 204.997 57.2233V42.7756C204.997 39.5729 207.593 36.9766 210.797 36.9766H225.244C228.447 36.9766 231.043 39.5729 231.043 42.7756Z" fill="url(#paint0_linear_6658_1324)"/>
<path d="M231.031 45.4102C231.031 46.0304 231.026 46.6082 231.035 47.186C231.037 47.326 230.944 47.384 230.864 47.4565C230.086 48.1678 229.4 48.9523 228.967 49.9251C228.337 51.3428 228.346 52.7315 229.185 54.0808C229.662 54.8477 230.212 55.5554 230.832 56.2087C230.981 56.3656 231.03 56.5222 231.037 56.7342C231.077 57.84 230.936 58.9058 230.405 59.8949C230.263 60.1589 230.119 60.4228 229.892 60.6767C229.475 60.2564 229.068 59.8478 228.662 59.4369C227.716 58.4772 226.851 57.4457 226.067 56.3535C225.659 55.7854 225.309 55.1698 225.027 54.5198C224.285 52.8155 224.618 51.2578 225.635 49.7855C226.114 49.0917 226.698 48.4913 227.328 47.9342C228.412 46.9749 229.621 46.1948 230.876 45.4819C230.912 45.4617 230.951 45.4471 231.031 45.4102Z" fill="#019951"/>
<path d="M220.982 39.8051C220.47 39.7328 219.951 39.7786 219.424 39.7827C219.238 40.8357 219.054 41.869 218.863 42.9443H219.197C219.575 42.9443 219.575 42.9449 219.645 42.5783C219.671 42.4425 219.706 42.3073 219.717 42.1706C219.728 42.0167 219.792 41.9641 219.946 41.9699C220.187 41.9787 220.43 41.9787 220.671 41.9605C221.152 41.9246 221.415 41.6969 221.524 41.2367C221.563 41.0697 221.585 40.8992 221.616 40.7302C221.712 40.1977 221.513 39.8805 220.982 39.8051ZM220.906 40.7094C220.891 40.8113 220.872 40.9127 220.856 41.0141C220.822 41.2294 220.706 41.3568 220.479 41.3594C220.284 41.3615 220.088 41.3599 219.864 41.3599C219.921 41.0307 219.973 40.7291 220.029 40.4052C220.258 40.4052 220.456 40.4005 220.652 40.4062C220.844 40.4119 220.933 40.5154 220.906 40.7094Z" fill="#EB1D25"/>
<path d="M224.103 40.6929C224.317 40.664 224.542 40.6336 224.787 40.6006C224.846 41.1454 224.903 41.6643 224.96 42.1831C225.169 41.6884 225.514 41.2511 225.495 40.6721C225.698 40.6423 225.9 40.6127 226.123 40.5801C226.189 40.8414 226.178 41.0826 226.074 41.3167C225.826 41.8757 225.577 42.4339 225.324 42.9905C225.094 43.4944 224.708 43.8121 224.159 43.9496C224.036 43.808 224.023 43.6247 223.963 43.4438C224.179 43.305 224.433 43.2178 224.594 42.9628C224.394 42.9717 224.407 42.8333 224.39 42.7069C224.298 42.0433 224.201 41.3802 224.103 40.6929Z" fill="#EB1D25"/>
<path d="M222.482 40.6258C222.22 40.6845 221.987 40.8119 221.88 41.0693C221.683 41.5425 221.613 42.0464 221.598 42.5555C221.59 42.8061 221.74 42.9382 221.983 42.9803C222.289 43.0329 222.56 42.9356 222.825 42.7983C222.988 43.0635 223.233 42.8992 223.466 42.9491C223.595 42.1972 223.72 41.464 223.846 40.7251C223.371 40.5785 222.931 40.5254 222.482 40.6258ZM222.946 42.0085C222.928 42.1457 222.861 42.2243 222.748 42.2851C222.624 42.3522 222.481 42.4364 222.36 42.361C222.232 42.2804 222.327 42.1249 222.341 42.0038C222.355 41.8675 222.387 41.7334 222.412 41.5982C222.49 41.1817 222.633 41.0938 223.085 41.2066C223.035 41.4848 222.98 41.7453 222.946 42.0085Z" fill="#EB1D25"/>
<path d="M210.951 41.7407C210.951 41.4421 210.951 41.1436 210.951 40.8451C210.951 40.5525 210.951 40.2598 210.951 39.9531C211.106 39.9159 211.248 39.9307 211.409 39.9413C211.409 40.786 211.409 41.6202 211.409 42.4706C211.228 42.5174 211.039 42.4832 210.853 42.4914C210.751 42.4959 210.73 42.4097 210.697 42.3434C210.461 41.8737 210.229 41.4027 209.994 40.9324C209.952 40.848 209.907 40.7652 209.823 40.6856C209.823 41.279 209.823 41.8724 209.823 42.4789C209.65 42.4789 209.507 42.4789 209.348 42.4789C209.348 41.6379 209.348 40.804 209.348 39.9563C209.531 39.9035 209.721 39.9419 209.907 39.9323C210.022 39.9263 210.038 40.0265 210.075 40.0997C210.316 40.5771 210.556 41.0551 210.796 41.5328C210.833 41.6059 210.872 41.6782 210.909 41.7508C210.923 41.7474 210.937 41.744 210.951 41.7407Z" fill="#EB1D25"/>
<path d="M213.339 41.7329C213.339 41.5597 213.343 41.423 213.338 41.2873C213.328 40.995 213.249 40.7376 212.944 40.6227C212.601 40.4932 212.16 40.5795 211.962 40.8151C211.905 40.8822 211.832 40.9389 211.835 41.0533C211.842 41.3549 211.821 41.657 211.831 41.9581C211.84 42.2279 211.991 42.4094 212.252 42.4822C212.604 42.58 212.947 42.5373 213.281 42.411C213.276 42.2155 213.276 42.2155 213.197 42.0615C212.404 42.1827 212.289 42.1421 212.325 41.7329H213.339ZM212.313 41.3341C212.284 41.1193 212.349 40.9888 212.57 40.9737C212.811 40.9571 212.889 41.0891 212.867 41.3341H212.313V41.3341Z" fill="#EB1D25"/>
<path d="M216.494 40.6229C216.673 40.6229 216.808 40.6229 216.972 40.6229C216.972 40.941 216.972 41.2492 216.972 41.5574C216.972 41.8582 216.972 42.159 216.972 42.4795C216.818 42.4799 216.678 42.5532 216.562 42.4015C216.515 42.3395 216.453 42.3929 216.398 42.4112C216.234 42.4659 216.069 42.5172 215.896 42.5291C215.597 42.5496 215.421 42.4269 215.408 42.1272C215.388 41.6368 215.403 41.1449 215.403 40.6427C215.55 40.5881 215.699 40.6146 215.875 40.6248C215.875 41.0179 215.872 41.3957 215.876 41.7733C215.878 41.894 215.833 42.0517 216.04 42.0583C216.259 42.0653 216.491 41.9098 216.493 41.7479C216.496 41.3788 216.494 41.0096 216.494 40.6229Z" fill="#EB1D25"/>
<path d="M217.379 42.4213C217.378 42.289 217.38 42.1859 217.439 42.0764C217.627 42.0914 217.821 42.1098 218.016 42.1212C218.106 42.1265 218.191 42.1076 218.211 41.9963C218.23 41.8862 218.183 41.8105 218.081 41.7721C218.009 41.7447 217.933 41.7256 217.858 41.7047C217.42 41.5818 217.272 41.3158 217.407 40.8849C217.455 40.731 217.573 40.6517 217.724 40.6111C217.952 40.5496 218.177 40.553 218.605 40.6308C218.66 40.7531 218.624 40.8745 218.607 41.006C218.414 40.9932 218.244 40.9787 218.073 40.9715C217.974 40.9673 217.876 40.982 217.857 41.1061C217.838 41.2238 217.91 41.2799 218.011 41.3096C218.077 41.329 218.144 41.3462 218.21 41.3656C218.667 41.4995 218.779 41.6876 218.677 42.1517C218.638 42.3275 218.532 42.441 218.356 42.4878C218.027 42.5755 217.709 42.5295 217.379 42.4213Z" fill="#EB1D25"/>
<path d="M215.166 42.4467C214.643 42.6746 214.551 42.2133 214.324 41.9435C214.099 42.2154 214.003 42.6708 213.488 42.4499C213.615 42.2471 213.729 42.0351 213.873 41.8459C214.034 41.634 214.013 41.4447 213.873 41.2398C213.738 41.0427 213.612 40.8393 213.484 40.6423C213.96 40.445 214.112 40.8342 214.32 41.1558C214.545 40.8751 214.646 40.4394 215.142 40.6472C214.994 40.8864 214.849 41.138 214.685 41.3757C214.597 41.5035 214.605 41.5967 214.691 41.7189C214.858 41.956 215.009 42.2041 215.166 42.4467Z" fill="#EB1D25"/>
<path d="M230.982 42.2383C230.92 42.2544 230.871 42.2638 230.824 42.2799C227.638 43.374 224.525 44.6407 221.566 46.2626C220.605 46.7893 219.659 47.3416 218.761 47.9734C218.028 48.4887 217.312 49.0248 216.656 49.6353C216.114 50.1386 215.606 50.6701 215.173 51.2728C214.87 51.694 214.585 52.1344 214.396 52.6092C213.947 53.735 213.967 54.8925 214.277 56.0583C214.53 57.013 214.896 57.9267 215.333 58.8029C215.505 59.1471 215.687 59.4867 215.878 59.8221C215.878 59.8221 215.895 59.8543 215.929 59.9131C215.933 59.9193 215.936 59.9256 215.94 59.9323C215.944 59.9391 215.948 59.9458 215.952 59.9531C215.956 59.9604 215.96 59.9677 215.965 59.975C216.237 60.4539 217.113 61.9525 217.96 63.0232H217.974H219.238H219.58H220.08H223.438L223.428 63.0081L223.35 62.8994L223.334 62.8776L223.333 62.8771C222.947 62.3498 222.539 61.913 222.216 61.4128C221.907 60.99 221.59 60.5719 221.288 60.1434C220.308 58.7498 219.397 57.3172 218.768 55.7214C218.282 54.4864 218.147 53.2534 218.694 51.9982C219.198 50.8412 219.995 49.9052 220.911 49.0638C222.781 47.3478 224.953 46.0899 227.197 44.9444C228.382 44.3401 229.596 43.7998 230.822 43.284C230.903 43.2502 231.029 43.2538 231.027 43.1238C231.022 42.8342 231.066 42.5399 230.982 42.2383Z" fill="#0C4D95"/>
<path d="M231.034 44.8042C231.037 44.9488 230.924 44.9654 230.838 45.0101C229.35 45.7896 227.916 46.6533 226.621 47.7292C225.536 48.6304 224.56 49.6283 223.966 50.9361C223.415 52.1482 223.377 53.3624 223.942 54.588C224.463 55.7175 225.157 56.7351 225.917 57.7111C226.803 58.8494 227.769 59.9175 228.777 60.9481C228.833 61.0017 229.02 61.1806 229.267 61.4016C229.156 61.5082 229.041 61.6106 228.923 61.7079C227.922 62.53 226.641 63.0235 225.245 63.0235H225.01C224.972 62.9819 224.933 62.9397 224.895 62.8971C224.894 62.8966 224.893 62.8955 224.893 62.895C224.891 62.8935 224.89 62.8919 224.889 62.8903C224.87 62.8742 224.853 62.8565 224.835 62.8357C224.795 62.7895 224.755 62.7432 224.715 62.6969C224.712 62.6927 224.708 62.6891 224.704 62.6849C224.704 62.6849 224.704 62.6844 224.704 62.6839C224.625 62.5924 224.546 62.5003 224.466 62.4093C224.466 62.4088 224.465 62.4083 224.465 62.4078C224.464 62.4062 224.463 62.4047 224.462 62.4031C224.153 62.0479 223.841 61.6949 223.531 61.3402C222.901 60.5795 222.305 59.7937 221.737 58.9851C220.892 57.7824 220.134 56.5255 219.654 55.134C219.24 53.9344 219.297 52.728 219.867 51.5616C220.321 50.6339 220.966 49.8591 221.696 49.1441C222.192 48.6585 222.724 48.2107 223.274 47.7916C223.794 47.3964 224.357 47.0579 224.906 46.7017C225.584 46.2613 226.295 45.8765 227.007 45.4937C228.237 44.8318 229.507 44.2525 230.794 43.7107C230.864 43.6815 230.935 43.6561 231.032 43.6191C231.032 44.032 231.028 44.4184 231.034 44.8042Z" fill="#EB1D25"/>
</g>
<g filter="url(#filter2_d_6658_1324)">
<rect x="150" y="30" width="40" height="40" rx="8" fill="white"/>
</g>
<path d="M179.837 63H160.163C158.416 63 157 61.5836 157 59.8365V40.1635C157 38.4163 158.416 37 160.163 37H179.837C181.584 37 183 38.4164 183 40.1635V59.8364C183 61.5837 181.584 63 179.837 63Z" fill="#2B5DA8"/>
<path d="M172.527 51.1065C173.102 51.7166 173.633 52.2813 174.348 53.0401C171.81 53.2006 169.481 53.348 167.079 53.5C167.079 50.9133 167.079 48.3955 167.079 45.6346C167.748 46.306 168.315 46.8749 168.794 47.355C169.502 46.6732 170.18 46.0213 171.013 45.2201C170.558 45.1805 170.289 45.1374 170.02 45.1368C167.901 45.131 165.782 45.1384 163.663 45.1308C162.57 45.1269 162.128 44.6882 162.023 43.5036C161.992 43.1416 161.992 42.7708 162.025 42.4089C162.111 41.4676 162.519 41.0159 163.388 41.0128C167.894 40.9964 172.399 40.9954 176.905 41.012C177.848 41.0154 178.533 41.5456 178.872 42.4878C179.189 43.3704 178.89 44.0827 178.279 44.7407C176.561 46.5917 174.878 48.4804 173.182 50.3556C172.966 50.5945 172.757 50.8419 172.527 51.1065Z" fill="white"/>
<path d="M166.629 51C166.629 51.9994 166.629 52.9951 166.629 54.041C167.732 54.041 168.763 54.041 169.919 54.041C169.562 54.4432 169.274 54.7673 168.886 55.2051C169.249 55.2344 169.494 55.2709 169.739 55.2712C172.279 55.2731 174.82 55.2726 177.361 55.2652C178.576 55.2617 178.993 55.6615 178.998 56.868C178.998 57.127 179.006 57.3866 178.99 57.6447C178.938 58.4896 178.562 58.8797 177.711 58.9785C177.568 58.995 177.424 58.9967 177.28 58.9967C172.582 58.9976 167.884 58.9946 163.186 59C162.324 59.001 161.636 58.713 161.229 57.9366C160.904 57.3173 160.897 56.6713 161.391 56.1558C163.048 54.4249 164.74 52.7255 166.422 51.0169C166.445 50.9932 166.51 51.0082 166.629 51Z" fill="white"/>
<g filter="url(#filter3_d_6658_1324)">
<rect x="359" y="30" width="80" height="40" rx="8" fill="white"/>
</g>
<path fill-rule="evenodd" clip-rule="evenodd" d="M398.941 58.8893C401.042 60.8255 403.864 62 406.934 62C413.526 62 418.861 56.6232 418.861 50.0102C418.861 43.377 413.526 38 406.934 38C403.864 38 401.042 39.1742 398.941 41.1107C396.53 43.3149 395.006 46.4875 395.006 50.0102C395.006 53.5329 396.53 56.7057 398.941 58.8893V58.8893Z" fill="#E9B040"/>
<path fill-rule="evenodd" clip-rule="evenodd" d="M417.276 56.6852C417.276 56.4791 417.441 56.3145 417.647 56.3145C417.874 56.3145 418.038 56.4793 418.038 56.6852C418.038 56.9121 417.873 57.0767 417.647 57.0767C417.441 57.0767 417.276 56.9121 417.276 56.6852ZM417.647 56.9945C417.812 56.9945 417.956 56.85 417.956 56.6854C417.956 56.5208 417.812 56.3971 417.647 56.3971C417.503 56.3971 417.359 56.5208 417.359 56.6854C417.359 56.85 417.503 56.9945 417.647 56.9945ZM417.606 56.8709H417.523V56.5205H417.667C417.688 56.5205 417.73 56.5205 417.75 56.5414C417.791 56.5618 417.791 56.5826 417.791 56.6238C417.791 56.665 417.771 56.7063 417.73 56.7063L417.812 56.8711H417.709L417.667 56.7266H417.606V56.8709V56.6648H417.688C417.709 56.6648 417.709 56.644 417.709 56.6236C417.709 56.6027 417.709 56.6027 417.688 56.5824H417.606V56.8709V56.8709Z" fill="#E9B040"/>
<path fill-rule="evenodd" clip-rule="evenodd" d="M402.794 48.7332C402.752 48.3006 402.67 47.8887 402.588 47.4559H395.295C395.377 47.0233 395.501 46.6114 395.624 46.1992H402.237C402.094 45.7655 401.929 45.3393 401.743 44.9219H396.14C396.346 44.4856 396.573 44.0593 396.819 43.6447H401.043C400.771 43.2047 400.468 42.7847 400.137 42.388H397.726C398.099 41.9327 398.505 41.5057 398.941 41.1107C396.82 39.1948 394.018 38 390.928 38C384.356 38 379 43.377 379 50.0102C379 56.6232 384.356 62 390.928 62C394.018 62 396.819 60.8255 398.941 58.8893C399.371 58.5012 399.771 58.081 400.137 57.6324H397.726C397.396 57.2204 397.108 56.8085 396.819 56.3551H401.043C401.308 55.9477 401.543 55.5207 401.743 55.0778H396.14C395.954 54.6659 395.769 54.2539 395.624 53.8209H402.237C402.381 53.409 402.485 52.9767 402.587 52.5436C402.67 52.1317 402.752 51.6994 402.793 51.2664C402.835 50.8487 402.856 50.4292 402.855 50.0095C402.855 49.5776 402.835 49.1451 402.794 48.7332V48.7332Z" fill="#CC2131"/>
<path fill-rule="evenodd" clip-rule="evenodd" d="M417.276 52.7915C417.276 52.565 417.441 52.4004 417.647 52.4004C417.874 52.4004 418.038 52.5653 418.038 52.7915C418.038 52.9976 417.873 53.183 417.647 53.183C417.441 53.183 417.276 52.9973 417.276 52.7915ZM417.647 53.0798C417.812 53.0798 417.956 52.9561 417.956 52.7915C417.956 52.6268 417.812 52.5032 417.647 52.5032C417.503 52.5032 417.359 52.6268 417.359 52.7915C417.359 52.9561 417.503 53.0798 417.647 53.0798ZM417.606 52.9561H417.523V52.6266H417.75C417.791 52.6475 417.791 52.6887 417.791 52.7299C417.791 52.7503 417.771 52.7915 417.73 52.8123L417.812 52.9563H417.709L417.667 52.8327H417.606V52.9561V52.7709H417.647C417.667 52.7709 417.688 52.7709 417.688 52.75C417.709 52.75 417.709 52.7297 417.709 52.7088C417.709 52.7088 417.709 52.6884 417.688 52.6884C417.688 52.6676 417.667 52.6884 417.647 52.6884H417.606V52.9561V52.9561Z" fill="white"/>
<path fill-rule="evenodd" clip-rule="evenodd" d="M394.884 53.4714C394.492 53.5742 394.204 53.6363 393.915 53.6363C393.297 53.6363 392.926 53.2447 392.926 52.5443C392.926 52.4002 392.947 52.256 392.968 52.0911L393.05 51.6176L393.112 51.226L393.668 47.8476H394.904L394.76 48.5893H395.543L395.357 49.8253H394.574L394.245 51.844C394.224 51.9473 394.224 52.0089 394.224 52.0501C394.224 52.318 394.348 52.4209 394.657 52.4209C394.801 52.4209 394.925 52.4005 395.048 52.3796L394.884 53.4714V53.4714ZM398.88 53.4302C398.427 53.5539 398.015 53.6154 397.562 53.6154C396.161 53.6154 395.357 52.8738 395.357 51.4115C395.357 49.7014 396.305 48.4654 397.623 48.4654C398.674 48.4654 399.354 49.1658 399.354 50.2574C399.354 50.6286 399.313 50.9787 399.21 51.4731H396.635C396.614 51.5555 396.614 51.5967 396.614 51.638C396.614 52.2148 397.005 52.503 397.747 52.503C398.221 52.503 398.633 52.4002 399.086 52.1944L398.88 53.4302ZM398.118 50.4843V50.237C398.118 49.8251 397.891 49.5984 397.5 49.5984C397.088 49.5984 396.8 49.9073 396.676 50.4841H398.118V50.4843V50.4843ZM384.995 53.533H383.718L384.46 48.857L382.791 53.533H381.905L381.802 48.8776L381.019 53.533H379.763L380.772 47.456H382.647L382.688 51.2056L383.945 47.456H386.005L384.995 53.533V53.533ZM388.106 51.3291C387.983 51.3082 387.941 51.3082 387.859 51.3082C387.117 51.3082 386.746 51.5965 386.746 52.0499C386.746 52.359 386.932 52.5651 387.22 52.5651C387.838 52.5651 388.085 52.0499 388.106 51.3291ZM389.136 53.533H388.024L388.044 53.0183C387.756 53.4094 387.364 53.6154 386.685 53.6154C386.067 53.6154 385.531 53.0595 385.531 52.256C385.531 52.0295 385.572 51.8237 385.634 51.6176C385.84 50.8551 386.602 50.3815 387.776 50.3607C387.921 50.3607 388.147 50.3607 388.353 50.3815C388.394 50.2167 388.394 50.1546 388.394 50.0518C388.394 49.722 388.127 49.619 387.529 49.619C387.158 49.619 386.746 49.6808 386.458 49.7839L386.272 49.8251L386.19 49.8455L386.376 48.7331C386.973 48.5476 387.405 48.4654 387.879 48.4654C388.992 48.4654 389.589 48.9804 389.589 49.9279C389.589 50.1752 389.61 50.3607 389.527 50.8963L389.239 52.6679L389.198 52.9771L389.177 53.2244L389.157 53.3892L389.136 53.533V53.533ZM405.102 48.6303C405.473 48.6303 405.802 48.7333 406.255 48.9598L406.482 47.6413C406.358 47.5794 406.317 47.5794 406.152 47.5176L405.638 47.3733C405.473 47.3321 405.267 47.3115 405.04 47.3115C404.401 47.3115 404.03 47.3321 403.639 47.5588C403.433 47.7031 403.165 47.8886 402.877 48.2181L402.712 48.1769L401.393 49.1038L401.455 48.5888H400.096L399.292 53.5328H400.591L401.064 50.8757C401.064 50.8757 401.25 50.5045 401.332 50.3813C401.579 50.0722 401.785 50.0722 402.053 50.0722H402.156C402.113 50.3861 402.092 50.7028 402.094 51.0197C402.094 52.6265 403 53.6361 404.401 53.6361C404.752 53.6361 405.061 53.5948 405.535 53.4712L405.762 52.0705C405.35 52.297 404.979 52.4 404.669 52.4C403.907 52.4 403.454 51.8232 403.454 50.9169C403.453 49.5778 404.133 48.6303 405.102 48.6303V48.6303ZM416.04 47.456L415.752 49.1865C415.443 48.7127 415.072 48.486 414.578 48.486C413.898 48.486 413.259 48.8773 412.868 49.619V49.5986L412.044 49.104L412.126 48.589H410.746L409.963 53.533H411.24L411.673 50.8759C411.673 50.8759 412.003 50.5047 412.085 50.3815C412.291 50.1342 412.497 50.0928 412.662 50.0724C412.518 50.4843 412.435 50.9787 412.435 51.5352C412.435 52.7712 413.074 53.5951 414.021 53.5951C414.495 53.5951 414.866 53.4302 415.216 53.0386L415.155 53.533H416.37L417.359 47.456H416.04V47.456ZM414.454 52.359C414.022 52.359 413.795 52.0295 413.795 51.3906C413.795 50.4223 414.207 49.722 414.804 49.722C415.257 49.722 415.484 50.0724 415.484 50.6904C415.484 51.6792 415.072 52.359 414.454 52.359V52.359ZM408.501 51.3291C408.377 51.3082 408.336 51.3082 408.254 51.3082C407.512 51.3082 407.141 51.5965 407.141 52.0499C407.141 52.359 407.327 52.5651 407.615 52.5651C408.233 52.5651 408.48 52.0499 408.501 51.3291ZM409.531 53.533H408.398L408.439 53.0183C408.151 53.4094 407.759 53.6154 407.08 53.6154C406.441 53.6154 405.885 53.0799 405.885 52.256C405.885 51.082 406.77 50.3609 408.171 50.3609C408.316 50.3609 408.542 50.3609 408.728 50.3818C408.769 50.2169 408.79 50.1548 408.79 50.052C408.79 49.7223 408.522 49.6192 407.904 49.6192C407.553 49.6192 407.121 49.6811 406.832 49.7841L406.668 49.8253L406.585 49.8457L406.77 48.7333C407.368 48.5478 407.801 48.4656 408.274 48.4656C409.387 48.4656 409.964 48.9806 409.964 49.9281C409.964 50.1754 410.005 50.3609 409.902 50.8965L409.634 52.6682L409.593 52.9773L409.552 53.2246L409.531 53.3895V53.533H409.531V53.533ZM391.835 49.6396C392.082 49.6396 392.432 49.6602 392.803 49.722L392.989 48.5684C392.618 48.5272 392.123 48.4654 391.835 48.4654C390.393 48.4654 389.919 49.2483 389.919 50.1546C389.919 50.7523 390.187 51.1846 390.887 51.5141C391.402 51.7614 391.485 51.8023 391.485 52.0293C391.485 52.3379 391.217 52.5237 390.722 52.5237C390.331 52.5237 389.96 52.4616 389.548 52.3176L389.404 53.4503L389.424 53.4712L389.671 53.5124C389.754 53.5328 389.857 53.5536 390.001 53.574C390.31 53.5948 390.578 53.6152 390.743 53.6152C392.185 53.6152 392.782 53.0592 392.782 51.9672C392.782 51.2876 392.453 50.8757 391.814 50.5874C391.258 50.3398 391.196 50.2991 391.196 50.0722C391.196 49.8457 391.443 49.6396 391.835 49.6396V49.6396Z" fill="#1B3771"/>
<path fill-rule="evenodd" clip-rule="evenodd" d="M406.831 47.2493L406.604 48.5678C406.151 48.3411 405.821 48.2383 405.451 48.2383C404.482 48.2383 403.803 49.1858 403.803 50.5249C403.803 51.4521 404.256 52.0081 405.018 52.0081C405.327 52.0081 405.698 51.9053 406.11 51.6994L405.884 53.0792C405.409 53.2029 405.101 53.265 404.75 53.265C403.35 53.265 402.484 52.2554 402.484 50.6282C402.484 48.465 403.679 46.9404 405.389 46.9404C405.615 46.9404 405.821 46.961 405.986 47.0023L406.501 47.1259C406.666 47.1877 406.708 47.2083 406.831 47.2493V47.2493ZM402.67 48.1559H402.546C402.114 48.1559 401.866 48.362 401.475 48.9591L401.599 48.1968H400.424L399.621 53.1411H400.919C401.393 50.1128 401.516 49.5978 402.134 49.5978H402.217C402.34 49.0004 402.505 48.5676 402.711 48.1762L402.67 48.1559V48.1559ZM395.212 53.0792C394.862 53.2029 394.574 53.2441 394.285 53.2441C393.626 53.2441 393.255 52.8734 393.255 52.1526C393.255 52.0289 393.276 51.8643 393.297 51.7198L393.379 51.2254L393.441 50.8343L393.997 47.4554H395.274L395.13 48.1971H395.789L395.624 49.4125H394.965L394.615 51.4727C394.594 51.5551 394.594 51.6172 394.594 51.6788C394.594 51.9261 394.718 52.0291 395.027 52.0291C395.171 52.0291 395.295 52.0291 395.377 51.9879L395.212 53.0792V53.0792ZM390.248 49.7626C390.248 50.3809 390.536 50.8132 391.216 51.143C391.751 51.3903 391.834 51.4725 391.834 51.6786C391.834 51.9877 391.607 52.1317 391.092 52.1317C390.701 52.1317 390.35 52.0701 389.938 51.9465L389.753 53.0792L389.815 53.1001L390.042 53.1413C390.124 53.1617 390.227 53.1825 390.392 53.1825C390.68 53.2237 390.927 53.2237 391.092 53.2237C392.452 53.2237 393.09 52.7085 393.09 51.5758C393.09 50.8957 392.823 50.5041 392.184 50.1954C391.628 49.9481 391.566 49.8865 391.566 49.6598C391.566 49.3922 391.793 49.2685 392.205 49.2685C392.452 49.2685 392.802 49.2891 393.132 49.3303L393.317 48.1973C392.988 48.1355 392.473 48.0943 392.184 48.0943C390.742 48.094 390.227 48.8563 390.248 49.7626V49.7626ZM416.699 53.1413H415.483L415.545 52.6673C415.195 53.038 414.824 53.2029 414.35 53.2029C413.403 53.2029 412.785 52.3999 412.785 51.1638C412.785 49.5156 413.753 48.1147 414.886 48.1147C415.401 48.1147 415.772 48.3414 416.122 48.7945L416.411 47.0641H417.688L416.699 53.1413V53.1413ZM414.804 51.9877C415.401 51.9877 415.813 51.2872 415.813 50.3188C415.813 49.6802 415.586 49.3505 415.133 49.3505C414.556 49.3505 414.124 50.0303 414.124 50.9987C414.124 51.6582 414.35 51.9877 414.804 51.9877V51.9877ZM399.168 53.038C398.714 53.1825 398.302 53.2441 397.829 53.2441C396.386 53.2441 395.645 52.4821 395.645 51.0193C395.645 49.3301 396.592 48.0734 397.89 48.0734C398.962 48.0734 399.641 48.7739 399.641 49.8657C399.641 50.2367 399.6 50.587 399.476 51.1017H396.922C396.902 51.1638 396.902 51.205 396.902 51.2462C396.902 51.8231 397.293 52.1113 398.035 52.1113C398.508 52.1113 398.92 52.0289 399.374 51.8022L399.168 53.038V53.038ZM398.447 50.0921V49.8451C398.447 49.4331 398.22 49.2064 397.829 49.2064C397.417 49.2064 397.128 49.5156 397.004 50.0921H398.447ZM385.324 53.1413H384.047L384.788 48.4648L383.12 53.1413H382.234L382.131 48.506L381.348 53.1413H380.153L381.163 47.0641H383.017L383.079 50.8341L384.314 47.0641H386.333L385.324 53.1413V53.1413ZM388.517 50.9369C388.394 50.9369 388.332 50.9165 388.229 50.9165C387.508 50.9165 387.137 51.1842 387.137 51.6786C387.137 51.9877 387.302 52.1729 387.59 52.1729C388.126 52.1729 388.497 51.6786 388.517 50.9369ZM389.465 53.1413H388.393L388.414 52.6261C388.084 53.038 387.652 53.2237 387.054 53.2237C386.354 53.2237 385.88 52.6882 385.88 51.8846C385.88 50.6694 386.704 49.969 388.146 49.969C388.29 49.969 388.476 49.9896 388.682 50.01C388.723 49.8453 388.723 49.7835 388.723 49.7011C388.723 49.3716 388.496 49.2479 387.899 49.2479C387.528 49.2479 387.116 49.2891 386.827 49.3716L386.642 49.4334L386.518 49.454L386.704 48.3416C387.342 48.1561 387.775 48.0943 388.249 48.0943C389.361 48.0943 389.959 48.5887 389.959 49.5362C389.959 49.7835 389.938 49.969 389.856 50.5252L389.567 52.2765L389.526 52.5851L389.505 52.8324L389.485 53.0181L389.465 53.1413V53.1413ZM408.912 50.9369C408.768 50.9369 408.706 50.9165 408.624 50.9165C407.882 50.9165 407.511 51.1842 407.511 51.6786C407.511 51.9877 407.697 52.1729 407.985 52.1729C408.5 52.1729 408.891 51.6786 408.912 50.9369V50.9369ZM409.86 53.1413H408.788L408.809 52.6261C408.479 53.038 408.047 53.2237 407.449 53.2237C406.749 53.2237 406.275 52.6882 406.275 51.8846C406.275 50.6694 407.099 49.969 408.541 49.969C408.685 49.969 408.871 49.9896 409.056 50.01C409.097 49.8453 409.118 49.7835 409.118 49.7011C409.118 49.3716 408.891 49.2479 408.294 49.2479C407.923 49.2479 407.491 49.2891 407.202 49.3716L407.037 49.4334L406.914 49.454L407.099 48.3416C407.738 48.1561 408.17 48.0943 408.644 48.0943C409.757 48.0943 410.333 48.5887 410.333 49.5362C410.333 49.7835 410.333 49.969 410.231 50.5252L409.963 52.2765L409.921 52.5851L409.88 52.8324L409.86 53.0181V53.1413H409.86V53.1413ZM413.32 48.1559H413.197C412.764 48.1559 412.517 48.362 412.126 48.9591L412.249 48.1968H411.075L410.292 53.1411H411.569C412.043 50.1128 412.167 49.5978 412.785 49.5978H412.867C412.991 49.0004 413.156 48.5676 413.362 48.1762L413.32 48.1559V48.1559Z" fill="white"/>
<g filter="url(#filter4_d_6658_1324)">
<rect x="447" y="30" width="112" height="40" rx="8" fill="white"/>
</g>
<path d="M498.386 61.6013H492.478L496.171 38.5131H502.079L498.386 61.6013ZM487.508 38.5131L481.876 54.3933L481.21 50.9737L481.211 50.9749L479.223 40.592C479.223 40.592 478.982 38.5131 476.42 38.5131H467.109L467 38.9041C467 38.9041 469.847 39.5068 473.18 41.5431L478.312 61.6019H484.468L493.867 38.5131H487.508V38.5131ZM533.975 61.6013H539.4L534.67 38.5125H529.921C527.728 38.5125 527.194 40.2331 527.194 40.2331L518.383 61.6013H524.542L525.773 58.1718H533.284L533.975 61.6013ZM527.475 53.4342L530.579 44.7941L532.325 53.4342H527.475ZM518.845 44.0653L519.688 39.1073C519.688 39.1073 517.087 38.1006 514.375 38.1006C511.443 38.1006 504.481 39.4043 504.481 45.7439C504.481 51.7086 512.652 51.7828 512.652 54.9158C512.652 58.0489 505.323 57.4875 502.904 55.5118L502.026 60.6959C502.026 60.6959 504.664 61.9996 508.694 61.9996C512.726 61.9996 518.808 59.8757 518.808 54.095C518.808 48.092 510.563 47.5331 510.563 44.9231C510.564 42.3126 516.317 42.6479 518.845 44.0653V44.0653Z" fill="#2566AF"/>
<path d="M481.058 50.7493L479.092 40.7932C479.092 40.7932 478.854 38.7998 476.319 38.7998H467.108L467 39.1747C467 39.1747 471.427 40.0796 475.674 43.4699C479.734 46.7105 481.058 50.7493 481.058 50.7493Z" fill="#E6A540"/>
<g filter="url(#filter5_d_6658_1324)">
<rect x="246" y="30" width="105" height="40" rx="8" fill="white"/>
</g>
<path d="M260 55.7773V44.3242H262.195V48.4492C262.872 47.6784 263.674 47.293 264.602 47.293C265.612 47.293 266.448 47.6602 267.109 48.3945C267.771 49.1237 268.102 50.1732 268.102 51.543C268.102 52.9596 267.763 54.0508 267.086 54.8164C266.414 55.582 265.596 55.9648 264.633 55.9648C264.159 55.9648 263.69 55.8477 263.227 55.6133C262.768 55.3737 262.372 55.0221 262.039 54.5586V55.7773H260ZM262.18 51.4492C262.18 52.3086 262.315 52.944 262.586 53.3555C262.966 53.9388 263.471 54.2305 264.102 54.2305C264.586 54.2305 264.997 54.0247 265.336 53.6133C265.68 53.1966 265.852 52.543 265.852 51.6523C265.852 50.7044 265.68 50.0221 265.336 49.6055C264.992 49.1836 264.552 48.9727 264.016 48.9727C263.49 48.9727 263.052 49.1784 262.703 49.5898C262.354 49.9961 262.18 50.6159 262.18 51.4492Z" fill="#DF146E"/>
<path d="M269.922 55.7773V44.3242H272.234V49.4102L276.906 44.3242H280.016L275.703 48.7852L280.25 55.7773H277.258L274.109 50.4023L272.234 52.3164V55.7773H269.922Z" fill="#DF146E"/>
<path d="M283.078 50.0117L281.086 49.6523C281.31 48.8503 281.695 48.2565 282.242 47.8711C282.789 47.4857 283.602 47.293 284.68 47.293C285.659 47.293 286.388 47.4102 286.867 47.6445C287.346 47.8737 287.682 48.168 287.875 48.5273C288.073 48.8815 288.172 49.5352 288.172 50.4883L288.148 53.0508C288.148 53.7799 288.182 54.319 288.25 54.668C288.323 55.0117 288.456 55.3815 288.648 55.7773H286.477C286.419 55.6315 286.349 55.4154 286.266 55.1289C286.229 54.9987 286.203 54.9128 286.188 54.8711C285.813 55.2357 285.411 55.5091 284.984 55.6914C284.557 55.8737 284.102 55.9648 283.617 55.9648C282.763 55.9648 282.089 55.7331 281.594 55.2695C281.104 54.806 280.859 54.2201 280.859 53.5117C280.859 53.043 280.971 52.6263 281.195 52.2617C281.419 51.8919 281.732 51.6107 282.133 51.418C282.539 51.2201 283.122 51.0482 283.883 50.9023C284.909 50.7096 285.62 50.5299 286.016 50.3633V50.1445C286.016 49.7227 285.911 49.4232 285.703 49.2461C285.495 49.0638 285.102 48.9727 284.523 48.9727C284.133 48.9727 283.828 49.0508 283.609 49.207C283.391 49.3581 283.214 49.6263 283.078 50.0117ZM286.016 51.793C285.734 51.8867 285.289 51.9987 284.68 52.1289C284.07 52.2591 283.672 52.3867 283.484 52.5117C283.198 52.7148 283.055 52.9727 283.055 53.2852C283.055 53.5924 283.169 53.8581 283.398 54.082C283.628 54.306 283.919 54.418 284.273 54.418C284.669 54.418 285.047 54.2878 285.406 54.0273C285.672 53.8294 285.846 53.5872 285.93 53.3008C285.987 53.1133 286.016 52.7565 286.016 52.2305V51.793Z" fill="#DF146E"/>
<path d="M289.57 53.4102L291.773 53.0742C291.867 53.5013 292.057 53.8268 292.344 54.0508C292.63 54.2695 293.031 54.3789 293.547 54.3789C294.115 54.3789 294.542 54.2747 294.828 54.0664C295.021 53.9206 295.117 53.7253 295.117 53.4805C295.117 53.3138 295.065 53.1758 294.961 53.0664C294.852 52.9622 294.607 52.8659 294.227 52.7773C292.456 52.3867 291.333 52.0299 290.859 51.707C290.203 51.2591 289.875 50.6367 289.875 49.8398C289.875 49.1211 290.159 48.5169 290.727 48.0273C291.294 47.5378 292.174 47.293 293.367 47.293C294.503 47.293 295.346 47.4779 295.898 47.8477C296.451 48.2174 296.831 48.7643 297.039 49.4883L294.969 49.8711C294.88 49.5482 294.711 49.3008 294.461 49.1289C294.216 48.957 293.865 48.8711 293.406 48.8711C292.828 48.8711 292.414 48.9518 292.164 49.1133C291.997 49.2279 291.914 49.3763 291.914 49.5586C291.914 49.7148 291.987 49.8477 292.133 49.957C292.331 50.1029 293.013 50.3086 294.18 50.5742C295.352 50.8398 296.169 51.1654 296.633 51.5508C297.091 51.9414 297.32 52.4857 297.32 53.1836C297.32 53.944 297.003 54.5977 296.367 55.1445C295.732 55.6914 294.792 55.9648 293.547 55.9648C292.417 55.9648 291.521 55.7357 290.859 55.2773C290.203 54.819 289.773 54.1966 289.57 53.4102Z" fill="#DF146E"/>
<path d="M301.438 44.3242V48.5352C302.146 47.707 302.992 47.293 303.977 47.293C304.482 47.293 304.938 47.3867 305.344 47.5742C305.75 47.7617 306.055 48.0013 306.258 48.293C306.466 48.5846 306.607 48.9076 306.68 49.2617C306.758 49.6159 306.797 50.1654 306.797 50.9102V55.7773H304.602V51.3945C304.602 50.5247 304.56 49.9727 304.477 49.7383C304.393 49.5039 304.245 49.319 304.031 49.1836C303.823 49.043 303.56 48.9727 303.242 48.9727C302.878 48.9727 302.552 49.0612 302.266 49.2383C301.979 49.4154 301.768 49.6836 301.633 50.043C301.503 50.3971 301.438 50.9232 301.438 51.6211V55.7773H299.242V44.3242H301.438Z" fill="#DF146E"/>
<path fill-rule="evenodd" clip-rule="evenodd" d="M331.283 51.7376L320.392 50.0068L321.866 56.4363L331.283 51.7376V51.7376ZM331.725 51.212L323.161 39.321L320.366 49.4364L331.725 51.212V51.212ZM319.834 49.2954L310.866 37.834L322.616 39.2378L319.834 49.2954V49.2954ZM315.482 44.5456L310.501 39.8533H311.809L315.482 44.5456V44.5456ZM334.399 45.4365L332.29 51.148L328.873 46.4237L334.399 45.4365V45.4365ZM323.193 56.353L331.463 53.0325L331.815 51.9812L323.193 56.353V56.353ZM316.302 62.3913L319.847 49.9619L321.642 58.0516L316.302 62.3913V62.3913ZM334.905 45.4749L334.033 47.8338L337.168 47.7825L334.905 45.4749V45.4749Z" fill="#DF146E"/>
<defs>
<filter id="filter0_d_6658_1324" x="0" y="0" width="172" height="100" filterUnits="userSpaceOnUse" color-interpolation-filters="sRGB">
<feFlood flood-opacity="0" result="BackgroundImageFix"/>
<feColorMatrix in="SourceAlpha" type="matrix" values="0 0 0 0 0 0 0 0 0 0 0 0 0 0 0 0 0 0 127 0" result="hardAlpha"/>
<feOffset/>
<feGaussianBlur stdDeviation="15"/>
<feComposite in2="hardAlpha" operator="out"/>
<feColorMatrix type="matrix" values="0 0 0 0 0.180392 0 0 0 0 0.180392 0 0 0 0 0.243137 0 0 0 0.06 0"/>
<feBlend mode="normal" in2="BackgroundImageFix" result="effect1_dropShadow_6658_1324"/>
<feBlend mode="normal" in="SourceGraphic" in2="effect1_dropShadow_6658_1324" result="shape"/>
</filter>
<filter id="filter1_d_6658_1324" x="168" y="0" width="100" height="100" filterUnits="userSpaceOnUse" color-interpolation-filters="sRGB">
<feFlood flood-opacity="0" result="BackgroundImageFix"/>
<feColorMatrix in="SourceAlpha" type="matrix" values="0 0 0 0 0 0 0 0 0 0 0 0 0 0 0 0 0 0 127 0" result="hardAlpha"/>
<feOffset/>
<feGaussianBlur stdDeviation="15"/>
<feComposite in2="hardAlpha" operator="out"/>
<feColorMatrix type="matrix" values="0 0 0 0 0.180392 0 0 0 0 0.180392 0 0 0 0 0.243137 0 0 0 0.06 0"/>
<feBlend mode="normal" in2="BackgroundImageFix" result="effect1_dropShadow_6658_1324"/>
<feBlend mode="normal" in="SourceGraphic" in2="effect1_dropShadow_6658_1324" result="shape"/>
</filter>
<filter id="filter2_d_6658_1324" x="120" y="0" width="100" height="100" filterUnits="userSpaceOnUse" color-interpolation-filters="sRGB">
<feFlood flood-opacity="0" result="BackgroundImageFix"/>
<feColorMatrix in="SourceAlpha" type="matrix" values="0 0 0 0 0 0 0 0 0 0 0 0 0 0 0 0 0 0 127 0" result="hardAlpha"/>
<feOffset/>
<feGaussianBlur stdDeviation="15"/>
<feComposite in2="hardAlpha" operator="out"/>
<feColorMatrix type="matrix" values="0 0 0 0 0.180392 0 0 0 0 0.180392 0 0 0 0 0.243137 0 0 0 0.06 0"/>
<feBlend mode="normal" in2="BackgroundImageFix" result="effect1_dropShadow_6658_1324"/>
<feBlend mode="normal" in="SourceGraphic" in2="effect1_dropShadow_6658_1324" result="shape"/>
</filter>
<filter id="filter3_d_6658_1324" x="329" y="0" width="140" height="100" filterUnits="userSpaceOnUse" color-interpolation-filters="sRGB">
<feFlood flood-opacity="0" result="BackgroundImageFix"/>
<feColorMatrix in="SourceAlpha" type="matrix" values="0 0 0 0 0 0 0 0 0 0 0 0 0 0 0 0 0 0 127 0" result="hardAlpha"/>
<feOffset/>
<feGaussianBlur stdDeviation="15"/>
<feComposite in2="hardAlpha" operator="out"/>
<feColorMatrix type="matrix" values="0 0 0 0 0.180392 0 0 0 0 0.180392 0 0 0 0 0.243137 0 0 0 0.06 0"/>
<feBlend mode="normal" in2="BackgroundImageFix" result="effect1_dropShadow_6658_1324"/>
<feBlend mode="normal" in="SourceGraphic" in2="effect1_dropShadow_6658_1324" result="shape"/>
</filter>
<filter id="filter4_d_6658_1324" x="417" y="0" width="172" height="100" filterUnits="userSpaceOnUse" color-interpolation-filters="sRGB">
<feFlood flood-opacity="0" result="BackgroundImageFix"/>
<feColorMatrix in="SourceAlpha" type="matrix" values="0 0 0 0 0 0 0 0 0 0 0 0 0 0 0 0 0 0 127 0" result="hardAlpha"/>
<feOffset/>
<feGaussianBlur stdDeviation="15"/>
<feComposite in2="hardAlpha" operator="out"/>
<feColorMatrix type="matrix" values="0 0 0 0 0.180392 0 0 0 0 0.180392 0 0 0 0 0.243137 0 0 0 0.06 0"/>
<feBlend mode="normal" in2="BackgroundImageFix" result="effect1_dropShadow_6658_1324"/>
<feBlend mode="normal" in="SourceGraphic" in2="effect1_dropShadow_6658_1324" result="shape"/>
</filter>
<filter id="filter5_d_6658_1324" x="216" y="0" width="165" height="100" filterUnits="userSpaceOnUse" color-interpolation-filters="sRGB">
<feFlood flood-opacity="0" result="BackgroundImageFix"/>
<feColorMatrix in="SourceAlpha" type="matrix" values="0 0 0 0 0 0 0 0 0 0 0 0 0 0 0 0 0 0 127 0" result="hardAlpha"/>
<feOffset/>
<feGaussianBlur stdDeviation="15"/>
<feComposite in2="hardAlpha" operator="out"/>
<feColorMatrix type="matrix" values="0 0 0 0 0.180392 0 0 0 0 0.180392 0 0 0 0 0.243137 0 0 0 0.06 0"/>
<feBlend mode="normal" in2="BackgroundImageFix" result="effect1_dropShadow_6658_1324"/>
<feBlend mode="normal" in="SourceGraphic" in2="effect1_dropShadow_6658_1324" result="shape"/>
</filter>
<linearGradient id="paint0_linear_6658_1324" x1="218.02" y1="36.9766" x2="218.02" y2="63.0228" gradientUnits="userSpaceOnUse">
<stop offset="0.093315" stop-color="#F7F7F7"/>
<stop offset="0.250067" stop-color="#CCCCCC"/>
<stop offset="0.56357" stop-color="#E5E5E5"/>
<stop offset="1" stop-color="#889196"/>
</linearGradient>
<clipPath id="clip0_6658_1324">
<rect width="26" height="26" fill="white" transform="translate(205 37)"/>
</clipPath>
</defs>
</svg>
