<svg width="50" height="50" viewBox="0 0 50 50" fill="none" xmlns="http://www.w3.org/2000/svg">
<rect y="-0.000244141" width="50" height="50" rx="25" fill="url(#paint0_linear_842_59)"/>
<mask id="mask0_842_59" style="mask-type:alpha" maskUnits="userSpaceOnUse" x="13" y="12" width="24" height="25">
<rect x="13" y="12.9998" width="24" height="24" fill="white"/>
</mask>
<g mask="url(#mask0_842_59)">
<path fill-rule="evenodd" clip-rule="evenodd" d="M34.4274 15.5781C33.9274 15.0671 33.1874 14.8781 32.4974 15.0781L16.4074 19.7271C15.6794 19.9291 15.1634 20.5061 15.0244 21.2381C14.8824 21.9841 15.3784 22.9321 16.0264 23.3281L21.0574 26.4001C21.5734 26.7161 22.2394 26.6371 22.6664 26.2091L28.4274 20.4481C28.7174 20.1471 29.1974 20.1471 29.4874 20.4481C29.7774 20.7371 29.7774 21.2081 29.4874 21.5081L23.7164 27.2691C23.2884 27.6971 23.2084 28.3611 23.5234 28.8781L26.5974 33.9281C26.9574 34.5271 27.5774 34.8681 28.2574 34.8681C28.3374 34.8681 28.4274 34.8681 28.5074 34.8571C29.2874 34.7581 29.9074 34.2271 30.1374 33.4771L34.9074 17.5081C35.1174 16.8281 34.9274 16.0881 34.4274 15.5781Z" fill="white"/>
<path opacity="0.4" fill-rule="evenodd" clip-rule="evenodd" d="M16.0105 29.8075C15.8185 29.8075 15.6265 29.7345 15.4805 29.5875C15.1875 29.2945 15.1875 28.8205 15.4805 28.5275L16.8455 27.1615C17.1385 26.8695 17.6135 26.8695 17.9065 27.1615C18.1985 27.4545 18.1985 27.9295 17.9065 28.2225L16.5405 29.5875C16.3945 29.7345 16.2025 29.8075 16.0105 29.8075ZM19.7717 30.9999C19.5797 30.9999 19.3877 30.9269 19.2417 30.7799C18.9487 30.4869 18.9487 30.0129 19.2417 29.7199L20.6067 28.3539C20.8997 28.0619 21.3747 28.0619 21.6677 28.3539C21.9597 28.6469 21.9597 29.1219 21.6677 29.4149L20.3017 30.7799C20.1557 30.9269 19.9637 30.9999 19.7717 30.9999ZM20.0254 34.5679C20.1714 34.7149 20.3634 34.7879 20.5554 34.7879C20.7474 34.7879 20.9394 34.7149 21.0854 34.5679L22.4514 33.2028C22.7434 32.9099 22.7434 32.4349 22.4514 32.1419C22.1584 31.8499 21.6834 31.8499 21.3904 32.1419L20.0254 33.5079C19.7324 33.8009 19.7324 34.2749 20.0254 34.5679Z" fill="white"/>
</g>
<defs>
<linearGradient id="paint0_linear_842_59" x1="0" y1="-0.000244141" x2="0" y2="49.9998" gradientUnits="userSpaceOnUse">
<stop stop-color="#F50057" stop-opacity="0.2"/>
<stop offset="1" stop-color="#F50057"/>
</linearGradient>
</defs>
</svg>
