<svg width="15" height="15" viewBox="0 0 15 15" fill="none" xmlns="http://www.w3.org/2000/svg">
<path d="M8.94756 7.42148C10.9937 7.42148 12.658 5.75684 12.658 3.71074C12.658 1.66465 10.9937 0 8.94756 0C6.90147 0 5.23682 1.66465 5.23682 3.71074C5.23682 5.75684 6.90147 7.42148 8.94756 7.42148ZM8.50811 1.52959V1.42881C8.50811 1.18594 8.70469 0.989355 8.94756 0.989355C9.19014 0.989355 9.38701 1.18594 9.38701 1.42881V1.53018C9.90996 1.64238 10.3034 2.1082 10.3034 2.66426C10.3034 2.90684 10.1065 3.10371 9.86397 3.10371C9.62109 3.10371 9.42451 2.90684 9.42451 2.66426C9.42451 2.50928 9.29824 2.38301 9.14326 2.38301H8.74922C8.59424 2.38301 8.46797 2.50928 8.46797 2.66426C8.46797 2.75303 8.51045 2.8374 8.58193 2.89014L8.94756 3.16084L9.83584 3.81826C10.1276 4.03418 10.3034 4.37959 10.3058 4.74287V4.74697C10.3078 5.05693 10.1892 5.34932 9.97119 5.56992C9.80947 5.73369 9.60732 5.84355 9.38701 5.88984V5.99268C9.38701 6.23555 9.19014 6.43213 8.94756 6.43213C8.70469 6.43213 8.50811 6.23555 8.50811 5.99268V5.89131C8.29365 5.8456 8.09648 5.74014 7.93711 5.58252C7.7165 5.36484 7.59404 5.07422 7.59228 4.76426C7.59082 4.52168 7.78623 4.32363 8.02881 4.32217H8.03174C8.27314 4.32217 8.46973 4.51728 8.47119 4.75898C8.47178 4.91065 8.5938 5.03848 8.75391 5.03848C8.99672 5.03701 8.90628 5.03754 9.14736 5.03613C9.30334 5.0349 9.42806 4.90831 9.42686 4.75283V4.74873C9.42627 4.66084 9.38379 4.57705 9.31289 4.52461L8.94756 4.2542L8.05898 3.59678C7.76484 3.37881 7.58906 3.03018 7.58906 2.66426C7.58906 2.10703 7.98369 1.64092 8.50811 1.52959Z" fill="url(#paint0_linear_119_92)"/>
<path opacity="0.5" d="M2.93525 9.53294C2.8226 9.33764 2.57238 9.2697 2.37588 9.38305L0.308754 10.5763C0.113022 10.6896 0.0458734 10.9399 0.158871 11.1359L2.27159 14.7952C2.38467 14.9909 2.63487 15.0581 2.83095 14.9451L4.89808 13.7515C5.09411 13.6385 5.16099 13.3881 5.04796 13.1921L2.93525 9.53294Z" fill="#FFCD1B"/>
<path d="M14.7801 8.80254C14.5812 8.52627 14.1962 8.46387 13.9202 8.66279C13.0829 9.26602 11.4751 10.4244 11.3474 10.5167C11.2885 10.5668 11.2267 10.6122 11.1622 10.6523C10.9094 10.8114 10.6161 10.8964 10.31 10.8964H8.20498C7.9624 10.8964 7.76553 10.6998 7.76553 10.4569C7.76553 10.2138 7.96269 10.0175 8.20498 10.0175H10.4562C10.7869 10.0175 11.0518 9.74209 11.038 9.41074C11.0251 9.09639 10.7567 8.85264 10.4421 8.85264H8.72851C8.6125 8.72988 8.48535 8.61738 8.34912 8.51689C7.88066 8.17148 7.30176 7.96729 6.6751 7.96729C5.56094 7.96729 4.45234 8.66924 3.99268 9.60615L5.79033 12.7195H9.1624C9.82451 12.7195 10.4767 12.5502 11.0506 12.22C11.2495 12.1058 11.4625 11.9684 11.6934 11.8025C12.6607 11.1076 14.6386 9.66387 14.64 9.66299C14.9166 9.46435 14.9793 9.07881 14.7801 8.80254Z" fill="#FFCD1B"/>
<defs>
<linearGradient id="paint0_linear_119_92" x1="8.94741" y1="0" x2="8.94741" y2="7.42148" gradientUnits="userSpaceOnUse">
<stop stop-color="#FFCD1B" stop-opacity="0"/>
<stop offset="1" stop-color="#FFCD1B"/>
</linearGradient>
</defs>
</svg>
