<svg xmlns="http://www.w3.org/2000/svg" width="14" height="14" viewBox="0 0 14 14"><mask id="a" width="14" height="12" x="0" y="1" maskUnits="userSpaceOnUse" style="mask-type:alpha"><path d="M14 1H0v12h14V1z"/></mask><g mask="url(#a)"><path fill-rule="evenodd" d="M13.152 7.117v-1.64c0-.13-.123-.235-.273-.235h-2.461v.703h-.82v-.703h-.82v.703h-.821v-.703H1.121c-.15 0-.273.106-.273.235v1.64c0 .13.123.235.273.235h6.016v1.406H4.435l2.043 1.75c.268.23.631.36 1.011.36h.118c.38 0 .744-.13 1.012-.36l2.042-1.75H7.957V7.352h4.922c.15 0 .273-.106.273-.235zm-10.78-.45h-.478c-.09 0-.164-.063-.164-.14v-.413c0-.077.074-.14.164-.14h.482c.09 0 .164.063.164.14v.413c-.003.077-.077.14-.167.14zm1.283 0h-.48c-.091 0-.165-.063-.165-.14v-.413c0-.077.074-.14.164-.14h.481c.09 0 .164.063.164.14v.413c0 .077-.073.14-.164.14zm1.28 0h-.481c-.09 0-.164-.063-.164-.14v-.413c0-.077.074-.14.164-.14h.481c.09 0 .164.063.164.14v.413c0 .077-.074.14-.164.14zm1.28 0h-.482c-.09 0-.164-.063-.164-.14v-.413c0-.077.074-.14.164-.14h.482c.09 0 .164.063.164.14v.413c0 .077-.071.14-.164.14z" clip-rule="evenodd"/><path fill-rule="evenodd" d="M5.857 10.97L3.855 9.255v3.351c0 .218.206.394.46.394h6.464c.254 0 .46-.176.46-.394V9.255L9.236 10.97c-.449.384-1.056.6-1.69.6a2.604 2.604 0 01-1.69-.6z" clip-rule="evenodd"/><path fill-rule="evenodd" d="M10.418 1v.703h-.82V1h-.82v.703h-.821V1H1.121c-.15 0-.273.105-.273.234v1.664c0 .13.123.235.273.235H12.88c.15 0 .273-.106.273-.235V1.234c0-.129-.123-.234-.273-.234h-2.461zM2.373 2.413h-.479c-.09 0-.164-.063-.164-.14V1.86c0-.077.074-.14.164-.14h.482c.09 0 .164.063.164.14v.413c-.003.077-.077.14-.167.14zm1.282 0h-.48c-.091 0-.165-.063-.165-.14V1.86c0-.077.074-.14.164-.14h.481c.09 0 .164.063.164.14v.413c0 .077-.073.14-.164.14zm1.28 0h-.481c-.09 0-.164-.063-.164-.14V1.86c0-.077.074-.14.164-.14h.481c.09 0 .164.063.164.14v.413c0 .077-.074.14-.164.14zm1.28 0h-.482c-.09 0-.164-.063-.164-.14V1.86c0-.077.074-.14.164-.14h.482c.09 0 .164.063.164.14v.413c0 .077-.071.14-.164.14z" clip-rule="evenodd"/><path fill-rule="evenodd" d="M3.998 3.836h7.098c.08 0 .142.054.142.122v.46c0 .067-.063.121-.142.121H3.998c-.08 0-.143-.054-.143-.122v-.46c0-.067.063-.121.143-.121z" clip-rule="evenodd"/></g><g><path fill-opacity=".05" d="M0 3.733c0-1.306 0-1.96.254-2.459C.478.835.835.478 1.274.254 1.774 0 2.427 0 3.734 0h6.533c1.306 0 1.96 0 2.459.254.439.224.796.581 1.02 1.02.254.5.254 1.153.254 2.46v6.533c0 1.306 0 1.96-.254 2.459-.224.439-.581.796-1.02 1.02-.5.254-1.153.254-2.46.254H3.734c-1.306 0-1.96 0-2.459-.254a2.334 2.334 0 01-1.02-1.02C0 12.226 0 11.573 0 10.266V3.734z"/></g><defs><linearGradient id="paint0_linear_545:150" x1="3.855" x2="3.855" y1="9.255" y2="13" gradientUnits="userSpaceOnUse"><stop stop-color="#9E9BBE"/><stop offset="1" stop-color="#130F40"/></linearGradient><linearGradient id="paint1_linear_545:150" x1=".848" x2=".848" y1="1" y2="3.133" gradientUnits="userSpaceOnUse"><stop stop-color="#9E9BBE"/><stop offset="1" stop-color="#130F40"/></linearGradient></defs></svg>
