<svg width="14" height="9" viewBox="0 0 14 9" fill="none" xmlns="http://www.w3.org/2000/svg">
<path fill-rule="evenodd" clip-rule="evenodd" d="M13.7895 3.98624C13.7892 3.98602 13.7891 3.98577 13.7888 3.98555L10.0469 0.211352C9.76655 -0.0713857 9.31314 -0.070333 9.0341 0.21382C8.7551 0.497937 8.75618 0.957482 9.0365 1.24026L11.5488 3.77419L0.781559 3.7725C0.386041 3.7725 0.0654297 4.09743 0.0654297 4.49829C0.0654297 4.89915 0.386041 5.2241 0.781559 5.2241L11.5488 5.22581L9.03654 7.75975C8.75621 8.04252 8.75513 8.50206 9.03413 8.78618C9.31318 9.07037 9.76663 9.07135 10.0469 8.78865L13.7888 5.01445C13.7891 5.01423 13.7892 5.01398 13.7895 5.01376C14.07 4.73004 14.0691 4.26901 13.7895 3.98624V3.98624Z" fill="#929CBF"/>
</svg>
