<svg width="66" height="65" viewBox="0 0 66 65" fill="none" xmlns="http://www.w3.org/2000/svg">
<circle cx="33" cy="32.5" r="32.5" fill="#08B2FF" fill-opacity="0.0980392"/>
<path fill-rule="evenodd" clip-rule="evenodd" d="M32.8292 29.9917H33.1012C33.197 29.9917 33.2747 30.0694 33.2747 30.1652V30.4372V33.2232V33.4952C33.2747 33.5911 33.197 33.6687 33.1012 33.6687H32.8292H30.0431H29.7711C29.6753 33.6687 29.5977 33.591 29.5977 33.4952V33.2232V30.4372V30.1652C29.5977 30.0693 29.6753 29.9917 29.7711 29.9917H30.0431H32.8292Z" fill="url(#paint0_linear_1_4596)"/>
<path fill-rule="evenodd" clip-rule="evenodd" d="M41.2862 20.3506H25.9802C25.5575 20.3506 25.2148 20.6933 25.2148 21.116V25.7077H21.3879C20.9657 25.7077 20.623 26.0504 20.623 26.4726V38.7176C20.623 40.4085 21.9937 41.7791 23.6846 41.7791H34.3983C34.1038 41.0812 33.9411 40.3143 33.9411 39.5097C33.9411 38.9452 34.0211 38.3995 34.1713 37.8832H28.9245C28.5426 37.8832 28.235 37.5651 28.2528 37.179C28.2695 36.817 28.5813 36.5381 28.9434 36.5381H34.753C35.4792 35.3108 36.6416 34.3728 38.0275 33.937H36.8169C36.435 33.937 36.1268 33.6189 36.1446 33.2328C36.1614 32.8708 36.4732 32.592 36.8357 32.592H38.9503C39.3129 32.592 39.6241 32.8708 39.6409 33.2328C39.6487 33.4002 39.5954 33.5546 39.5012 33.6759C39.5943 33.6707 39.688 33.6686 39.7821 33.6686C40.5868 33.6686 41.3537 33.8313 42.0516 34.1259V21.116C42.0516 20.6933 41.7089 20.3506 41.2862 20.3506ZM25.2148 38.6878C25.2148 39.5458 24.5127 40.2646 23.6547 40.2479C22.8229 40.2322 22.1538 39.5531 22.1538 38.7177V27.2385H25.2148V38.6878ZM34.6196 34.3415C34.6196 34.7129 34.3182 35.0137 33.9468 35.0137H28.9245C28.553 35.0137 28.2517 34.7129 28.2517 34.3415V29.3191C28.2517 28.9477 28.553 28.6464 28.9245 28.6464H33.9468C34.3182 28.6464 34.6196 28.9477 34.6196 29.3191V34.3415ZM38.9691 31.0675H36.8168C36.4349 31.0675 36.1267 30.7489 36.1445 30.3628C36.1613 30.0008 36.4731 29.7219 36.8356 29.7219H38.9502C39.3128 29.7219 39.6241 30.0008 39.6408 30.3628C39.6586 30.7489 39.351 31.0675 38.9691 31.0675ZM38.9691 27.1213H28.9244C28.5425 27.1213 28.2349 26.8032 28.2527 26.4166C28.2694 26.0546 28.5812 25.7758 28.9433 25.7758H38.9502C39.3128 25.7758 39.6241 26.0546 39.6408 26.4166C39.6586 26.8032 39.351 27.1213 38.9691 27.1213ZM38.9508 24.2513H28.9245C28.5426 24.2513 28.2344 23.9327 28.2527 23.5466C28.27 23.1851 28.5813 22.9067 28.9438 22.9067H38.9691C39.351 22.9067 39.6586 23.2248 39.6408 23.6109C39.6246 23.9724 39.3128 24.2513 38.9508 24.2513Z" fill="url(#paint1_linear_1_4596)"/>
<path fill-rule="evenodd" clip-rule="evenodd" d="M41.5379 40.0643C41.529 40.7429 40.975 41.2775 40.2928 41.2666C39.642 41.2556 39.1037 40.7015 39.1094 40.0486C39.1162 39.3617 39.6708 38.826 40.3619 38.8391C41.0101 38.8517 41.5463 39.4104 41.5379 40.0643Z" fill="#08B2FF"/>
<path fill-rule="evenodd" clip-rule="evenodd" d="M40.3245 34.7532C37.3979 34.7532 35.0254 37.1257 35.0254 40.0522C35.0254 42.9783 37.3979 45.3508 40.3245 45.3508C43.2505 45.3508 45.623 42.9783 45.623 40.0522C45.623 37.1257 43.2505 34.7532 40.3245 34.7532ZM43.4073 41.5082C43.3226 41.6745 43.2279 41.8373 43.1264 41.9937C42.914 42.3206 42.5106 42.42 42.1653 42.2375C42.1026 42.2045 42.0435 42.1642 41.9791 42.136C41.6647 41.9973 41.3199 42.2076 41.2974 42.5508C41.2932 42.6162 41.2974 42.6822 41.2948 42.7481C41.2802 43.131 40.9773 43.4365 40.5948 43.4517C40.5043 43.4554 40.4128 43.4522 40.3217 43.4522C40.3217 43.4528 40.3217 43.4533 40.3217 43.4533H40.2459C39.6223 43.4533 39.3701 43.2105 39.3513 42.5927C39.3392 42.1888 38.9668 41.9738 38.6105 42.1647C38.5571 42.1935 38.5053 42.226 38.4509 42.2521C38.2134 42.3651 37.966 42.373 37.7577 42.2171C37.4271 41.9691 37.2293 41.6186 37.1681 41.2131C37.1268 40.9364 37.2686 40.7156 37.503 40.5613C37.5616 40.522 37.6259 40.4906 37.6835 40.4504C37.966 40.2505 37.9633 39.8508 37.6793 39.6525C37.6296 39.618 37.5752 39.5908 37.5234 39.5589C37.1708 39.3407 37.0588 38.9353 37.2539 38.5701C37.3277 38.432 37.4077 38.297 37.4883 38.1626C37.719 37.7781 38.1318 37.6703 38.5216 37.89C38.5613 37.9125 38.6 37.9366 38.6408 37.957C38.9704 38.1192 39.333 37.9057 39.3508 37.5395C39.3534 37.4841 39.3508 37.4281 39.3523 37.3726C39.3628 36.9734 39.6688 36.6637 40.067 36.6533C40.2338 36.6491 40.4013 36.6496 40.5681 36.6528C40.9762 36.6606 41.2849 36.9687 41.2953 37.3758C41.2974 37.4412 41.2927 37.5076 41.2995 37.5725C41.3346 37.9094 41.6736 38.1056 41.9822 37.9674C42.056 37.9345 42.124 37.889 42.1967 37.8534C42.53 37.6923 42.9161 37.7927 43.1201 38.1024C43.2253 38.2625 43.322 38.4294 43.4089 38.5999C43.5789 38.9358 43.4711 39.3266 43.1583 39.5364C43.0955 39.5783 43.0265 39.6117 42.9647 39.6552C42.6817 39.8545 42.6833 40.2542 42.9679 40.4525C43.0301 40.4959 43.0992 40.5288 43.162 40.5712C43.4738 40.7826 43.5794 41.1728 43.4073 41.5082Z" fill="#08B2FF"/>
<defs>
<linearGradient id="paint0_linear_1_4596" x1="29.8517" y1="29.0448" x2="29.8517" y2="32.2137" gradientUnits="userSpaceOnUse">
<stop stop-color="white"/>
<stop offset="1" stop-color="#08B2FF"/>
</linearGradient>
<linearGradient id="paint1_linear_1_4596" x1="22.1037" y1="14.8324" x2="22.1037" y2="33.3" gradientUnits="userSpaceOnUse">
<stop stop-color="white"/>
<stop offset="1" stop-color="#08B2FF"/>
</linearGradient>
</defs>
</svg>
