<svg width="19" height="20" viewBox="0 0 19 20" fill="none" xmlns="http://www.w3.org/2000/svg">
<path opacity="0.7" fill-rule="evenodd" clip-rule="evenodd" d="M16.8661 6.71834C17.2906 6.75156 17.6068 7.11419 17.5755 7.52664C17.5698 7.59585 17.0114 14.3059 16.6895 17.1211C16.49 18.8678 15.302 19.9308 13.51 19.964C12.1368 19.9862 10.8148 20 9.52137 20C8.12821 20 6.76638 19.9862 5.42165 19.9585C3.70085 19.9253 2.50997 18.8429 2.31624 17.1294C1.99145 14.2893 1.43875 7.59585 1.43305 7.52941C1.39886 7.11696 1.7151 6.75433 2.1396 6.72111C2.5584 6.71003 2.93732 6.99516 2.97151 7.40761C2.97436 7.4519 3.20228 10.1841 3.44729 12.8886L3.49573 13.4284C3.62108 14.7737 3.74644 16.0637 3.849 16.9633C3.96011 17.9349 4.49858 18.4388 5.45299 18.4581C8.02564 18.5107 10.6524 18.5135 13.4815 18.4637C14.4929 18.4443 15.0427 17.9516 15.1538 16.9578C15.4729 14.1647 16.0285 7.47682 16.0342 7.40761C16.0712 6.99516 16.4473 6.7045 16.8661 6.71834ZM11.6809 0C12.6268 0 13.4558 0.620069 13.7009 1.50588L13.963 2.76817C14.0484 3.18062 14.4217 3.48235 14.8519 3.49066H18.2279C18.6553 3.49066 19 3.82561 19 4.24083C19 4.65606 18.6553 4.991 18.2279 4.991H14.8803C14.8746 4.991 14.8689 4.991 14.8661 4.991H14.8405H4.16239C4.15385 4.991 4.1453 4.991 4.13675 4.991H4.11966H0.77208C0.344729 4.991 0 4.65606 0 4.24083C0 3.82561 0.344729 3.49066 0.77208 3.49066H4.14815L4.25071 3.48512C4.63818 3.43529 4.96011 3.15017 5.03704 2.77093L5.28775 1.55571C5.54131 0.622837 6.37322 0.00553633 7.31624 0.00553633H11.6809V0ZM11.6809 1.50035H7.32479C7.07692 1.50035 6.8604 1.6609 6.79772 1.89343L6.5584 3.06436C6.52707 3.21384 6.48433 3.35502 6.42735 3.49066H12.5812C12.5242 3.35502 12.4786 3.21107 12.4501 3.06436L12.1994 1.84913C12.1453 1.6609 11.9288 1.50035 11.6809 1.50035ZM10.3077 15.8644V8.93841C10.3077 8.49273 9.96296 8.15502 9.50142 8.15502C9.04273 8.15502 8.69516 8.48997 8.69516 8.93841V15.8644C8.69516 16.31 9.03989 16.6478 9.50142 16.6478C9.96296 16.645 10.3077 16.31 10.3077 15.8644Z" fill="#130F40"/>
</svg>
