<svg width="75" height="75" viewBox="0 0 75 75" fill="none" xmlns="http://www.w3.org/2000/svg">
<g filter="url(#filter0_d_1_8925)">
<path d="M39.7557 26.4792C39.6688 26.0481 39.2747 25.7181 38.8449 25.7116C38.4203 25.7045 38.0074 26.0253 37.9191 26.4552C37.8816 26.6393 37.8803 26.8331 37.8783 27.0224C37.8712 27.7044 37.8816 28.3864 37.8641 29.0677C37.8556 29.3944 37.678 29.6129 37.3279 29.6077C37.0031 29.6025 36.8528 29.3847 36.81 29.0891C36.7892 28.949 36.8008 28.8039 36.8008 28.6612C36.8002 26.6477 36.8002 24.6336 36.8002 22.6201C36.8002 22.4613 36.8047 22.3025 36.7937 22.1443C36.7554 21.6141 36.3846 21.2426 35.8835 21.2251C35.3733 21.207 34.9597 21.5888 34.9111 22.1321C34.8975 22.2896 34.9033 22.449 34.9033 22.6078C34.9027 24.7166 34.902 26.8254 34.9027 28.9342C34.9033 29.316 34.773 29.6135 34.3458 29.6025C33.949 29.5921 33.824 29.3017 33.824 28.9432C33.8234 28.7844 33.8214 28.6256 33.8214 28.4674C33.8227 25.9781 33.8233 23.4881 33.8253 20.9988C33.8259 20.1879 33.4785 19.7263 32.8691 19.7335C32.2604 19.74 31.9291 20.1905 31.9284 21.0151C31.9278 22.2831 31.9284 23.5518 31.9278 24.8204C31.9271 26.1998 31.9278 27.5793 31.9271 28.9589C31.9265 29.3206 31.7897 29.6006 31.3917 29.6045C30.9852 29.6084 30.8614 29.3238 30.8646 28.9615C30.8659 28.8027 30.8633 28.6445 30.8633 28.4857C30.8633 26.8527 30.8711 25.2191 30.8594 23.5861C30.8536 22.7907 30.2598 22.313 29.5953 22.536C29.1636 22.6812 28.9477 23.0371 28.9516 23.6354C28.9652 25.8299 28.9911 28.0239 28.9931 30.2185C28.9931 30.2192 28.9925 30.2198 28.9918 30.2198C28.9911 30.2198 28.9905 30.2203 28.9905 30.2211V32.2106C28.9905 32.3463 28.8829 32.4575 28.7468 32.4634C28.7459 32.4634 28.745 32.4634 28.7441 32.4634C28.2515 32.4848 28.1335 32.2955 28.0271 31.8262C27.7853 30.7604 27.5157 29.7005 27.2388 28.6432C27.0898 28.0734 26.6022 27.7836 26.0408 27.8906C25.5339 27.9865 25.1922 28.4617 25.2351 29.0185C25.2435 29.1287 25.2668 29.2383 25.2941 29.3452C25.6648 30.8045 26.0059 32.2715 26.4162 33.719C27.0567 35.9769 28.2897 37.7583 30.5716 38.6491C31.7107 39.0945 32.895 39.3505 34.1047 39.2422C35.009 39.1618 35.9457 39.0063 36.7813 38.6685C38.8221 37.8445 39.6953 36.1416 39.7569 34.0399C39.8289 31.6161 39.7796 29.1884 39.7816 26.7626C39.7817 26.6678 39.7746 26.5713 39.7557 26.4792Z" fill="url(#paint0_linear_1_8925)"/>
</g>
<g filter="url(#filter1_d_1_8925)">
<path d="M32.5004 7C20.0928 7 10 17.0935 10 29.5C10 41.9065 20.0928 52 32.5004 52C44.9072 52 55 41.9065 55 29.5C55 17.0935 44.9072 7 32.5004 7ZM44.8763 41.8773C41.5684 45.1851 37.173 47.0065 32.5004 47.0065C32.4996 47.0065 32.4988 47.0065 32.4988 47.0065C28.8649 47.0065 25.3798 45.9028 22.4206 43.8149C22.2143 43.6692 22.1889 43.3729 22.3676 43.1944L23.1431 42.4194C24.1249 41.4368 24.1249 39.8389 23.1431 38.8571C22.1605 37.8745 20.5626 37.8745 19.5808 38.8571L18.8044 39.6329C18.6262 39.811 18.3305 39.7856 18.1853 39.5796C16.0973 36.6196 14.9944 33.1338 14.9936 29.5C14.9936 24.8267 16.8158 20.4314 20.1237 17.1235C23.4316 13.8157 27.827 11.9935 32.5004 11.9935C32.5004 11.9935 32.5004 11.9935 32.5012 11.9935C36.1351 11.9935 39.6202 13.098 42.5794 15.1851C42.7858 15.3308 42.8112 15.6272 42.6326 15.8058L41.9097 16.5286C40.9271 17.5104 40.9271 19.1083 41.9097 20.0909C42.8915 21.0727 44.4894 21.0727 45.472 20.0909L46.1957 19.3672C46.3738 19.1891 46.6695 19.2145 46.8147 19.4204C48.9027 22.3804 50.0064 25.8662 50.0064 29.5C50.0072 34.1733 48.185 38.5686 44.8763 41.8773Z" fill="url(#paint1_linear_1_8925)"/>
</g>
<defs>
<filter id="filter0_d_1_8925" x="15.2314" y="12.7334" width="44.5645" height="49.5336" filterUnits="userSpaceOnUse" color-interpolation-filters="sRGB">
<feFlood flood-opacity="0" result="BackgroundImageFix"/>
<feColorMatrix in="SourceAlpha" type="matrix" values="0 0 0 0 0 0 0 0 0 0 0 0 0 0 0 0 0 0 127 0" result="hardAlpha"/>
<feOffset dx="5" dy="8"/>
<feGaussianBlur stdDeviation="7.5"/>
<feColorMatrix type="matrix" values="0 0 0 0 0.556863 0 0 0 0 0 0 0 0 0 0.2 0 0 0 0.14902 0"/>
<feBlend mode="normal" in2="BackgroundImageFix" result="effect1_dropShadow_1_8925"/>
<feBlend mode="normal" in="SourceGraphic" in2="effect1_dropShadow_1_8925" result="shape"/>
</filter>
<filter id="filter1_d_1_8925" x="0" y="0" width="75" height="75" filterUnits="userSpaceOnUse" color-interpolation-filters="sRGB">
<feFlood flood-opacity="0" result="BackgroundImageFix"/>
<feColorMatrix in="SourceAlpha" type="matrix" values="0 0 0 0 0 0 0 0 0 0 0 0 0 0 0 0 0 0 127 0" result="hardAlpha"/>
<feOffset dx="5" dy="8"/>
<feGaussianBlur stdDeviation="7.5"/>
<feColorMatrix type="matrix" values="0 0 0 0 0.556863 0 0 0 0 0 0 0 0 0 0.2 0 0 0 0.14902 0"/>
<feBlend mode="normal" in2="BackgroundImageFix" result="effect1_dropShadow_1_8925"/>
<feBlend mode="normal" in="SourceGraphic" in2="effect1_dropShadow_1_8925" result="shape"/>
</filter>
<linearGradient id="paint0_linear_1_8925" x1="25.2314" y1="19.7334" x2="25.2314" y2="39.2669" gradientUnits="userSpaceOnUse">
<stop stop-color="#F50057" stop-opacity="0.2"/>
<stop offset="1" stop-color="#F50057"/>
</linearGradient>
<linearGradient id="paint1_linear_1_8925" x1="10" y1="7" x2="10" y2="52" gradientUnits="userSpaceOnUse">
<stop stop-color="#F50057" stop-opacity="0.2"/>
<stop offset="1" stop-color="#F50057"/>
</linearGradient>
</defs>
</svg>
