<svg width="20" height="20" viewBox="0 0 20 20" fill="none" xmlns="http://www.w3.org/2000/svg">
<g clip-path="url(#clip0_118_2008)">
<path d="M10 0C4.477 0 0 4.477 0 10C0 15.523 4.477 20 10 20C15.523 20 20 15.523 20 10C20 4.477 15.523 0 10 0Z" fill="white"/>
<path d="M11.4407 14.0481H14.1545L14.5808 11.2913H11.4407V9.78447C11.4407 8.63939 11.815 7.6238 12.8862 7.6238H14.6075V5.21829C14.305 5.17739 13.6653 5.08826 12.4568 5.08826C9.93279 5.08826 8.45319 6.42104 8.45319 9.45783V11.2919H5.8584V14.0487H8.45267V21.6259C8.96649 21.7025 9.48713 21.7549 10.0214 21.7549C10.5043 21.7549 10.9756 21.7109 11.4407 21.648V14.0481Z" fill="#2AA4F4"/>
</g>
<defs>
<clipPath id="clip0_118_2008">
<rect width="20" height="20" fill="white"/>
</clipPath>
</defs>
</svg>
