<svg width="18" height="17" viewBox="0 0 18 17" fill="none" xmlns="http://www.w3.org/2000/svg">
<path opacity="0.4" fill-rule="evenodd" clip-rule="evenodd" d="M17.7772 12.0018C17.7772 14.4818 15.7862 16.4906 13.3063 16.4995H13.2974H4.48875C2.01772 16.4995 0 14.4995 0 12.0196V12.0107C0 12.0107 0.00533321 8.07662 0.012444 6.09802C0.013333 5.72647 0.439986 5.51848 0.730644 5.74959C2.84258 7.42508 6.61935 10.4801 6.66646 10.5201C7.29755 11.0259 8.09753 11.3112 8.91528 11.3112C9.73304 11.3112 10.533 11.0259 11.1641 10.5103C11.2112 10.4792 14.9035 7.51574 17.0475 5.81269C17.339 5.5807 17.7675 5.78869 17.7683 6.15935C17.7772 8.12284 17.7772 12.0018 17.7772 12.0018Z" fill="#929CBF"/>
<path fill-rule="evenodd" clip-rule="evenodd" d="M17.3116 2.87633C16.5418 1.42571 15.0272 0.499512 13.3597 0.499512H4.48888C2.82137 0.499512 1.30675 1.42571 0.537 2.87633C0.364561 3.20076 0.446336 3.60519 0.733438 3.83452L7.33321 9.11347C7.79542 9.48679 8.3554 9.67256 8.91538 9.67256C8.91894 9.67256 8.92161 9.67256 8.92427 9.67256C8.92694 9.67256 8.93049 9.67256 8.93316 9.67256C9.49314 9.67256 10.0531 9.48679 10.5153 9.11347L17.1151 3.83452C17.4022 3.60519 17.484 3.20076 17.3116 2.87633Z" fill="#929CBF"/>
</svg>
