<svg width="25" height="25" viewBox="0 0 25 25" fill="none" xmlns="http://www.w3.org/2000/svg">
<rect x="23.9995" y="24.1171" width="24" height="24" rx="12" transform="rotate(-179.72 23.9995 24.1171)" fill="url(#paint0_linear_6407_3811)"/>
<path d="M11.7997 8.20333L9.7998 10.6911C9.59848 10.9482 9.77728 11.3363 10.1064 11.3379L10.7711 11.3412C10.9841 11.3422 11.1705 11.4851 11.1695 11.6981L11.1501 15.6669C11.149 15.8799 11.3031 16.0549 11.5225 16.056L12.5679 16.0611C12.7744 16.0621 12.956 15.8887 12.957 15.6758L12.9764 11.7069C12.9775 11.494 13.146 11.3528 13.3589 11.3538L14.0236 11.3571C14.3463 11.3587 14.5289 10.9724 14.3301 10.7197L12.4062 8.2192C12.2588 8.01197 11.9555 8.00403 11.7997 8.20333Z" fill="white"/>
<defs>
<linearGradient id="paint0_linear_6407_3811" x1="23.9995" y1="24.1171" x2="23.9995" y2="48.1171" gradientUnits="userSpaceOnUse">
<stop stop-color="#C2FFD5"/>
<stop offset="1" stop-color="#17DC69"/>
</linearGradient>
</defs>
</svg>
