<svg width="16" height="17" viewBox="0 0 16 17" fill="none" xmlns="http://www.w3.org/2000/svg">
<path d="M14.87 11.08C14.74 10.58 14.4 10.14 13.95 9.88C13.72 9.75 13.55 9.52 13.48 9.26C13.41 9 13.44 8.72 13.58 8.48C13.67 8.33 13.8 8.2 13.96 8.11C14.87 7.58 15.19 6.41 14.7 5.48C14.69 5.46 14.68 5.44 14.67 5.43L14.19 4.58C13.64 3.64 12.44 3.31 11.49 3.86C11.26 3.99 10.98 4.03 10.72 3.96C10.45 3.9 10.23 3.73 10.09 3.49C10.01 3.35 9.96 3.18 9.96 3.03C9.98001 2.5 9.77 1.98 9.4 1.6C9.03 1.22 8.52001 1 7.99001 1H7.01001C6.49001 1 5.98001 1.21 5.62001 1.58C5.25001 1.95 5.04001 2.45 5.05001 2.96C5.04001 3.52 4.58001 3.98 4.02001 3.98C3.85001 3.97 3.69001 3.93 3.53001 3.84C2.60001 3.3 1.39001 3.62 0.850005 4.55L0.330005 5.42C-0.209995 6.36 0.110005 7.57 1.04001 8.11C1.36001 8.29 1.56001 8.63 1.56001 9C1.56001 9.37 1.36001 9.71 1.04001 9.89C0.110005 10.43 -0.209995 11.63 0.330005 12.57L0.820005 13.42C1.07001 13.87 1.50001 14.21 2.00001 14.35C2.50001 14.5 3.05001 14.43 3.51001 14.17C3.74001 14.04 4.02001 14 4.28001 14.07C4.54001 14.14 4.77001 14.31 4.90001 14.55C4.99001 14.7 5.04001 14.86 5.04001 15.03C5.04001 16.12 5.92001 17 7.01001 17H7.99001C9.07001 17 9.95 16.12 9.96 15.04C9.96 14.77 10.07 14.5 10.26 14.31C10.45 14.12 10.71 14.01 10.97 14.01C10.97 14.01 10.97 14.01 10.98 14.01C11.15 14.02 11.32 14.06 11.47 14.15C12.41 14.69 13.61 14.36 14.15 13.44L14.67 12.57C14.93 12.12 15 11.58 14.87 11.08ZM5.71001 6.58H9.29C9.53 6.58 9.72001 6.78 9.72001 7.02C9.72001 7.26 9.53 7.45 9.29 7.45H5.71001C5.47001 7.45 5.28001 7.26 5.28001 7.02C5.28001 6.78 5.47001 6.58 5.71001 6.58ZM8.33 11.42H5.71001C5.47001 11.42 5.28001 11.22 5.28001 10.98C5.28001 10.74 5.47001 10.55 5.71001 10.55H8.33C8.57 10.55 8.76 10.74 8.76 10.98C8.76 11.22 8.57 11.42 8.33 11.42ZM9.98 9.43H5.71001C5.47001 9.43 5.28001 9.24 5.28001 9C5.28001 8.76 5.47001 8.57 5.71001 8.57H9.98C10.22 8.57 10.41 8.76 10.41 9C10.41 9.24 10.22 9.43 9.98 9.43Z" fill="#2ECFA5"/>
</svg>
