<svg width="35" height="35" viewBox="0 0 35 35" fill="none" xmlns="http://www.w3.org/2000/svg">
<rect width="35" height="35" rx="7" fill="white"/>
<path d="M15.722 11.5566L14.93 14.4546L14.87 14.6826L14.828 14.5446L13.862 11.5566H12.872L11.864 14.6766L11.024 11.5866L11.018 11.5566H9.638L11.252 17.3586H12.344L13.364 13.8906L13.85 15.5226L14.252 16.8906C14.75 16.1346 15.398 15.4866 16.148 14.9766L16.586 13.4166L17.096 11.6046L17.108 11.5566H15.722Z" fill="#FFA113"/>
<path d="M20.984 12.5882V12.3302C20.984 11.6702 20.576 11.0582 19.976 10.8062C19.676 10.6862 19.394 10.6922 19.148 10.6982C17.774 8.23817 15.734 7.00217 13.07 7.05017C12.692 7.05617 12.302 7.11617 11.882 7.22417C11.672 7.27817 11.498 7.42817 11.414 7.63817C11.348 7.83017 11.372 8.04017 11.486 8.22017C11.642 8.45417 11.888 8.53817 12.218 8.46617L12.308 8.44817C12.398 8.43017 12.482 8.41217 12.572 8.40017L12.644 8.38817C12.662 8.38817 12.68 8.38217 12.704 8.38217C12.776 8.37017 12.86 8.35817 12.944 8.35217C12.962 8.35217 12.986 8.35217 13.004 8.34617L12.992 8.20217L13.052 8.34617C13.214 8.33417 13.376 8.32817 13.526 8.33417L13.58 8.34017H13.646L14.012 8.37617C15.932 8.61617 17.6 9.95417 18.374 11.8742L18.404 11.9822H19.37C19.694 11.9822 19.76 12.2282 19.76 12.4322V12.5402C18.632 12.5702 17.546 12.8282 16.532 13.3082C15.926 13.5962 15.362 13.9502 14.846 14.3642C14.81 14.4002 14.774 14.4302 14.75 14.4542C14.39 14.7482 14.06 15.0842 13.76 15.4442C12.68 16.7162 12.038 18.2462 11.876 19.8842C11.438 19.7522 11 19.5422 10.568 19.2602C10.538 19.2422 10.508 19.2182 10.478 19.2062C10.1 18.9422 9.764 18.6422 9.458 18.2942L9.434 18.2762C9.2 18.0122 9.008 17.7482 8.84 17.4662L8.804 17.4062C8.642 17.1302 8.492 16.8302 8.366 16.5062L8.33 16.4042H7.37C7.136 16.4042 7.004 16.3022 6.956 16.0802C6.95 16.0502 6.95 15.9962 6.95 15.9542V12.4262C6.95 12.2222 7.016 11.9822 7.346 11.9822H8.33L8.39 11.8682C8.678 11.1542 9.086 10.5302 9.596 9.99017L9.686 9.90017C9.704 9.87617 9.722 9.85817 9.752 9.84017L9.83 9.76217C9.854 9.73217 9.884 9.70817 9.932 9.66617C9.95 9.64817 9.968 9.63017 9.992 9.61217L10.058 9.55817C10.088 9.53417 10.118 9.50417 10.142 9.48617C10.19 9.45017 10.244 9.40817 10.292 9.36617C10.394 9.29417 10.568 9.16217 10.598 8.91617C10.64 8.65217 10.55 8.41217 10.34 8.26817C10.112 8.10617 9.848 8.11817 9.614 8.29217C8.84 8.87417 8.204 9.58817 7.73 10.4162C7.7 10.4642 7.676 10.5122 7.652 10.5662L7.634 10.6082C7.616 10.6502 7.598 10.6802 7.586 10.7042H7.484C7.412 10.6982 7.334 10.6922 7.28 10.6982C7.202 10.6982 7.124 10.7042 7.076 10.7162C6.566 10.7762 6.116 11.1242 5.894 11.6162C5.798 11.8262 5.75 12.0542 5.75 12.3002V16.0922C5.75 16.2782 5.78 16.4642 5.84 16.6442C6.056 17.2682 6.614 17.6882 7.208 17.6882H7.214C7.31 17.7002 7.424 17.7002 7.538 17.6882C8.45 19.4882 10.016 20.7662 11.846 21.2222V21.2282C12.11 25.5482 15.68 28.9202 20.024 28.9202C24.542 28.9202 28.22 25.2422 28.22 20.7242C28.22 16.5422 25.124 13.0622 20.984 12.5882ZM20.024 27.5402C16.538 27.5402 13.592 24.8642 13.25 21.4082C13.244 21.3542 13.238 21.2942 13.232 21.2402C13.214 21.0842 13.208 20.9222 13.208 20.7242C13.208 20.5742 13.214 20.4182 13.226 20.2682C13.232 20.2202 13.232 20.1662 13.238 20.1182C13.334 18.9962 13.718 17.9042 14.354 16.9562C14.84 16.2182 15.464 15.5882 16.214 15.0782C17.264 14.3642 18.482 13.9682 19.76 13.9202C19.814 13.9142 19.874 13.9142 19.928 13.9142C19.952 13.9082 19.982 13.9082 20.006 13.9082C20.264 13.9142 20.534 13.9262 20.828 13.9562C20.882 13.9622 20.936 13.9682 20.99 13.9802C24.338 14.4542 26.84 17.3282 26.84 20.7242C26.84 24.4802 23.78 27.5402 20.024 27.5402Z" fill="#FFA113"/>
<path d="M22.1576 18.0569C21.9608 17.7407 21.68 17.4911 21.3248 17.3147C20.9726 17.1395 20.5568 17.0513 20.0888 17.0513C19.6616 17.0513 19.2662 17.1341 18.9134 17.2973C18.5564 17.4623 18.2666 17.7083 18.0506 18.0287C17.8334 18.3503 17.714 18.7463 17.6972 19.2059L17.693 19.2995H19.0004L19.0058 19.2149C19.0214 18.9707 19.0826 18.7691 19.187 18.6155C19.2914 18.4631 19.424 18.3491 19.5806 18.2777C19.9178 18.1235 20.318 18.1337 20.6216 18.2891C20.7806 18.3701 20.9048 18.4817 21.0014 18.6305C21.095 18.7763 21.1424 18.9527 21.1424 19.1537C21.1424 19.3235 21.11 19.4795 21.0464 19.6175C20.9828 19.7573 20.8934 19.8833 20.7836 19.9913C20.6708 20.1029 20.5406 20.2043 20.399 20.2943C20.1644 20.4353 19.9604 20.5949 19.7906 20.7689C19.6172 20.9477 19.4834 21.1817 19.3928 21.4649C19.3022 21.7463 19.2542 22.1249 19.2488 22.5917V22.7531H20.4908V22.5935C20.4956 22.3187 20.5274 22.0859 20.5832 21.9017C20.6384 21.7223 20.7272 21.5651 20.8472 21.4355C20.972 21.2993 21.1376 21.1679 21.3374 21.0437C21.5672 20.9051 21.767 20.7449 21.9308 20.5667C22.097 20.3861 22.2272 20.1779 22.3184 19.9463C22.4084 19.7153 22.4552 19.4525 22.4552 19.1651C22.4558 18.7463 22.3556 18.3737 22.1576 18.0569Z" fill="#FFA113"/>
<path d="M19.8998 23.3486C19.6736 23.3486 19.4762 23.4308 19.3124 23.5922C19.1498 23.7542 19.0664 23.951 19.0664 24.1778C19.0664 24.407 19.1498 24.6056 19.3124 24.767C19.475 24.9284 19.673 25.01 19.8998 25.01C20.0516 25.01 20.1914 24.9722 20.3174 24.8972C20.441 24.8228 20.5418 24.722 20.6168 24.5972C20.6936 24.4712 20.732 24.3302 20.732 24.1778C20.732 23.951 20.648 23.7542 20.4842 23.5922C20.3204 23.4302 20.1236 23.3486 19.8998 23.3486Z" fill="#FFA113"/>
</svg>
