<svg width="35" height="35" viewBox="0 0 35 35" fill="none" xmlns="http://www.w3.org/2000/svg">
<rect width="35" height="35" rx="7" fill="white"/>
<path d="M22.9317 20.4806C22.6717 20.3517 22.3649 20.2861 22.0199 20.2861C21.7056 20.2861 21.4137 20.3474 21.1529 20.4676C20.8881 20.5902 20.6724 20.7729 20.5121 21.011C20.3503 21.2506 20.2623 21.5445 20.2497 21.8835L20.2446 21.9974H21.2762L21.2829 21.8949C21.2935 21.7271 21.3352 21.5892 21.4059 21.4847C21.477 21.381 21.5662 21.3044 21.6715 21.2565C21.8993 21.1528 22.1724 21.1555 22.3841 21.264C22.4918 21.319 22.5762 21.3944 22.641 21.4946C22.7039 21.5928 22.7357 21.7114 22.7357 21.8481C22.7357 21.9644 22.7137 22.0705 22.6705 22.1644C22.6269 22.2595 22.5664 22.3455 22.4902 22.4209C22.4124 22.4979 22.3212 22.5694 22.2207 22.6331C22.0486 22.7368 21.8981 22.8542 21.7728 22.9827C21.6428 23.1171 21.5426 23.2915 21.475 23.5021C21.409 23.7079 21.3733 23.9857 21.3694 24.3286V24.4897H22.3546V24.331C22.3582 24.1389 22.3798 23.9751 22.4195 23.8442C22.4572 23.7209 22.5181 23.6132 22.6002 23.5248C22.6862 23.4313 22.8017 23.3386 22.9439 23.2506C23.114 23.1477 23.2614 23.0291 23.3816 22.8982C23.5049 22.7639 23.6024 22.6087 23.6703 22.4362C23.7379 22.263 23.7717 22.0681 23.7717 21.8568C23.7725 21.5468 23.6978 21.2698 23.5505 21.0337C23.4044 20.7984 23.1961 20.6122 22.9317 20.4806Z" fill="#FF3C3C"/>
<path d="M21.8836 24.8296C21.7084 24.8296 21.5552 24.8932 21.4283 25.0186C21.3018 25.1443 21.2374 25.2975 21.2374 25.4727C21.2374 25.6503 21.3018 25.8043 21.4283 25.9296C21.554 26.0545 21.7072 26.1178 21.8836 26.1178C22.0003 26.1178 22.1095 26.0883 22.2077 26.0302C22.3036 25.972 22.3818 25.8942 22.4387 25.7988C22.498 25.7017 22.5283 25.5921 22.5283 25.4731C22.5283 25.2975 22.4635 25.1447 22.3362 25.0189C22.2093 24.8932 22.0572 24.8296 21.8836 24.8296Z" fill="#FF3C3C"/>
<path d="M27.9411 22.3215C27.9293 22.239 27.9175 22.1487 27.9057 22.0662C27.89 21.964 27.8743 21.8658 27.8507 21.7715C27.835 21.6772 27.8114 21.579 27.7839 21.4808L27.7054 21.1979C27.6504 21.0172 27.5836 20.8326 27.4893 20.6126C27.2025 19.9447 26.8018 19.3397 26.2989 18.8172L24.2325 15.5172L27.1593 10.7676H25.1989L23.0971 14.2483H23.0225L20.9325 10.7676H18.9604L21.9225 15.5172L20.9443 17.069C20.9168 17.069 20.8893 17.0769 20.8657 17.0808C20.7832 17.0965 20.7007 17.1122 20.6221 17.1319C20.5986 17.1358 20.575 17.1397 20.5436 17.1476C20.4493 17.1712 20.3589 17.1947 20.2725 17.2222C20.19 17.2458 20.1114 17.2733 20.0368 17.2969C19.5143 17.4736 19.0232 17.7212 18.5754 18.0276L18.3946 18.1572C18.3789 18.169 18.3593 18.1808 18.3593 18.1847C18.2886 18.2397 18.2218 18.2908 18.1511 18.3497C17.9625 18.5108 17.7857 18.6758 17.6207 18.8487V10.7676H15.515L12.6943 17.6504H12.5804L9.76357 10.7676H7.65786V20.2669H9.30786V13.7297H9.39429L12.0225 20.2394H13.2561L15.8804 13.7415H15.9668V20.2669H16.6189C16.6071 20.2826 16.5993 20.3022 16.5914 20.3179C16.5404 20.424 16.4854 20.5301 16.4382 20.6479C16.3871 20.7697 16.3439 20.8837 16.3007 21.0094L16.2771 21.0722C16.2339 21.1979 16.1946 21.3315 16.1554 21.4808C16.12 21.6262 16.0925 21.7715 16.065 21.9169C16.0336 22.0622 16.0179 22.2115 15.9982 22.3647C15.9786 22.5572 15.9668 22.7576 15.9668 22.9815C15.9668 23.1033 15.9707 23.2251 15.9825 23.3469C15.9864 23.4451 15.9943 23.5472 16.0061 23.6415C16.0179 23.7397 16.0296 23.8379 16.0454 23.9322C16.0886 24.2112 16.1514 24.4862 16.2418 24.769C16.2693 24.8672 16.3007 24.9615 16.3321 25.0479C16.3911 25.2012 16.4618 25.3662 16.5521 25.5626C16.6661 25.8062 16.8075 26.0537 16.9686 26.2972L17.1218 26.5212C17.1768 26.5958 17.2357 26.6744 17.2946 26.7412C17.5539 27.0633 17.8525 27.3658 18.1825 27.6408L18.3671 27.7822L18.3946 27.8019C18.4654 27.8529 18.54 27.9079 18.6186 27.959C18.6971 28.014 18.7757 28.0651 18.8582 28.1122C18.9407 28.1633 19.0271 28.2144 19.1096 28.2576C19.2 28.3047 19.2825 28.3519 19.3689 28.3872C19.4554 28.4344 19.5457 28.4737 19.6321 28.509C19.7186 28.5483 19.8129 28.5837 19.9111 28.619C20.0014 28.6544 20.0918 28.6858 20.1939 28.7172C20.2686 28.7369 20.3393 28.7604 20.4061 28.7722C20.4414 28.7879 20.4846 28.7958 20.5279 28.8076C20.6536 28.839 20.7871 28.8665 20.9404 28.894C21.0739 28.9176 21.2154 28.9372 21.3568 28.9529C21.4354 28.9608 21.5179 28.9647 21.5964 28.9687C21.7221 28.9804 21.8439 28.9844 21.9696 28.9844C22.5825 28.9844 23.1836 28.894 23.7532 28.7133C23.8436 28.6858 23.93 28.6583 24.0164 28.6229L24.0361 28.619C24.315 28.5169 24.5743 28.399 24.81 28.2694L24.8336 28.2576C25.8589 27.7037 26.6957 26.8669 27.2496 25.8415L27.2575 25.8179C27.3911 25.5783 27.505 25.3269 27.6111 25.044L27.615 25.0283C27.6464 24.9419 27.6779 24.8515 27.7054 24.7612C27.8861 24.1915 27.9725 23.5904 27.9725 22.9815C27.9725 22.7694 27.9646 22.5533 27.9411 22.3215ZM23.0225 16.8137H23.0971L23.2896 17.124C23.2779 17.124 23.27 17.124 23.2582 17.1201L23.2346 17.1122C23.1404 17.0926 23.0461 17.0729 22.9596 17.0612C22.9321 17.0572 22.9086 17.0494 22.8811 17.0494L23.0225 16.8137ZM21.9696 27.8097C19.5221 27.8097 17.4125 25.9004 17.1729 23.4647L17.1571 23.3429C17.1454 23.2408 17.1414 23.1308 17.1414 22.9815C17.1414 22.8754 17.1454 22.7654 17.1532 22.6633C17.1571 22.6437 17.1571 22.624 17.1611 22.6004C17.1611 22.5847 17.1611 22.569 17.165 22.5494C17.2318 21.7558 17.5029 20.9819 17.9546 20.3101C18.2964 19.7876 18.7404 19.3397 19.2707 18.9783C19.4986 18.8251 19.7382 18.6915 19.9857 18.5815C20.5475 18.3262 21.1604 18.1808 21.7889 18.1572C21.8243 18.1533 21.8675 18.1533 21.9225 18.1533C21.9304 18.1494 21.95 18.1494 21.9579 18.1494C22.0286 18.1494 22.1071 18.1533 22.1975 18.1612C22.3036 18.1651 22.4175 18.1729 22.5432 18.1847C22.5786 18.1887 22.6139 18.1926 22.6571 18.2004C23.2386 18.2829 23.7846 18.4715 24.2796 18.7426C24.9554 19.1119 25.5289 19.6383 25.9571 20.2669C26.4914 21.0447 26.8018 21.9837 26.8018 22.9815C26.8018 25.6412 24.6332 27.8097 21.9696 27.8097Z" fill="#FF3C3C"/>
</svg>
