<svg width="16" height="16" viewBox="0 0 16 16" fill="none" xmlns="http://www.w3.org/2000/svg">
<path d="M11.7352 0C14.456 0 15.992 1.5432 16 4.264V11.736C16 14.456 14.456 16 11.7352 16H4.264C1.5432 16 0 14.456 0 11.736V4.264C0 1.5432 1.5432 0 4.264 0H11.7352ZM8.4 3.304C8.1752 3.168 7.9032 3.168 7.688 3.304C7.4712 3.4392 7.352 3.688 7.3752 3.936V12.088C7.416 12.432 7.7032 12.688 8.0392 12.688C8.384 12.688 8.6712 12.432 8.7032 12.088V3.936C8.7352 3.688 8.616 3.4392 8.4 3.304ZM4.664 5.928C4.448 5.792 4.1752 5.792 3.96 5.928C3.7432 6.064 3.624 6.3112 3.648 6.56V12.088C3.6792 12.432 3.9672 12.688 4.3112 12.688C4.656 12.688 4.9432 12.432 4.9752 12.088V6.56C5 6.3112 4.8792 6.064 4.664 5.928ZM12.0712 8.832C11.856 8.696 11.584 8.696 11.36 8.832C11.1432 8.968 11.024 9.2072 11.056 9.464V12.088C11.088 12.432 11.3752 12.688 11.72 12.688C12.056 12.688 12.3432 12.432 12.384 12.088V9.464C12.4072 9.2072 12.288 8.968 12.0712 8.832Z" fill="#2ECFA5"/>
</svg>
