<svg width="21" height="21" viewBox="0 0 21 21" fill="none" xmlns="http://www.w3.org/2000/svg">
<path d="M0 5.6C0 3.63982 0 2.65972 0.381477 1.91103C0.717034 1.25247 1.25247 0.717034 1.91103 0.381477C2.65972 0 3.63982 0 5.6 0H15.4C17.3602 0 18.3403 0 19.089 0.381477C19.7475 0.717034 20.283 1.25247 20.6185 1.91103C21 2.65972 21 3.63982 21 5.6V15.4C21 17.3602 21 18.3403 20.6185 19.089C20.283 19.7475 19.7475 20.283 19.089 20.6185C18.3403 21 17.3602 21 15.4 21H5.6C3.63982 21 2.65972 21 1.91103 20.6185C1.25247 20.283 0.717034 19.7475 0.381477 19.089C0 18.3403 0 17.3602 0 15.4V5.6Z" fill="#130F40" fill-opacity="0.1"/>
<path d="M14.3086 16.4258H13.0595L12.8056 15.6641H8.19441L7.94051 16.4258H6.69141C6.48094 16.4258 6.31055 16.5962 6.31055 16.8066C6.31055 17.0171 6.48094 17.1875 6.69141 17.1875H14.3086C14.5191 17.1875 14.6895 17.0171 14.6895 16.8066C14.6895 16.5962 14.5191 16.4258 14.3086 16.4258Z" fill="#130F40"/>
<path d="M14.3086 7.28516C14.0984 7.28516 13.9277 7.45585 13.9277 7.66602C13.9277 7.87618 14.0984 8.04688 14.3086 8.04688C14.5188 8.04688 14.6895 7.87618 14.6895 7.66602C14.6895 7.45585 14.5188 7.28516 14.3086 7.28516Z" fill="#130F40"/>
<path d="M15.832 5H5.14258C4.51257 5 4 5.51257 4 6.14258V12.6172H6.31055V11.4746C6.31055 11.2641 6.48094 11.0938 6.69141 11.0938H7.27985C7.31923 10.983 7.36426 10.8743 7.41524 10.7675L6.99897 10.351C6.8502 10.2022 6.8502 9.96119 6.99897 9.81242L8.07609 8.7353C8.22486 8.58652 8.46587 8.58652 8.61465 8.7353L9.03121 9.15186C9.13793 9.10088 9.24654 9.05556 9.35742 9.01608V8.42773C9.35742 8.21727 9.52782 8.04688 9.73828 8.04688H11.2617C11.4722 8.04688 11.6426 8.21727 11.6426 8.42773V9.01618C11.7534 9.05556 11.8621 9.10098 11.9688 9.15186L12.3854 8.7353C12.5341 8.58662 12.7751 8.58662 12.9239 8.7353L14.001 9.81242C14.1498 9.96119 14.1498 10.2023 14.001 10.351L13.5848 10.7675C13.6357 10.8744 13.6808 10.983 13.7201 11.0938H14.3086C14.5191 11.0938 14.6895 11.2641 14.6895 11.4746V12.6172H17V6.14258C17 5.51257 16.462 5 15.832 5ZM14.3086 8.80859C13.6786 8.80859 13.166 8.29602 13.166 7.66602C13.166 7.03601 13.6786 6.52344 14.3086 6.52344C14.9386 6.52344 15.4512 7.03601 15.4512 7.66602C15.4512 8.29602 14.9386 8.80859 14.3086 8.80859Z" fill="#130F40"/>
<path d="M9.35742 12.2363C9.35742 12.3679 9.38777 12.4949 9.43131 12.6172H11.5687C11.6122 12.4949 11.6426 12.3679 11.6426 12.2363C11.6426 11.6063 11.13 11.0938 10.5 11.0938C9.8699 11.0938 9.35742 11.6063 9.35742 12.2363Z" fill="#130F40"/>
<path d="M7.92989 11.5698C7.88645 11.7379 7.7347 11.8555 7.56094 11.8555H7.07227V12.6172H8.64579C8.6202 12.4917 8.5957 12.3657 8.5957 12.2363C8.5957 11.1864 9.45006 10.332 10.5 10.332C11.5499 10.332 12.4043 11.1864 12.4043 12.2363C12.4043 12.3657 12.3798 12.4917 12.3542 12.6172H13.9277V11.8555H13.4391C13.2653 11.8555 13.1135 11.7379 13.0701 11.5698C13.0094 11.3337 12.9146 11.1053 12.7881 10.891C12.7 10.7416 12.7242 10.5511 12.8468 10.4283L13.1932 10.0817L12.6546 9.54314L12.308 9.88978C12.1852 10.013 11.9944 10.0375 11.8449 9.9482C11.6311 9.82214 11.4031 9.72692 11.1665 9.66622C10.9984 9.62278 10.8809 9.47103 10.8809 9.29726V8.80859H10.1191V9.29726C10.1191 9.47103 10.0016 9.62278 9.8335 9.66622C9.59695 9.72692 9.36893 9.82214 9.15509 9.9482C9.00632 10.0375 8.81509 10.013 8.69201 9.88978L8.34537 9.54314L7.80681 10.0817L8.15315 10.4283C8.27584 10.5511 8.30004 10.7416 8.21187 10.891C8.08541 11.1053 7.99059 11.3337 7.92989 11.5698Z" fill="#130F40"/>
<path d="M4 13.7598C4 14.3898 4.51257 14.9023 5.14258 14.9023H15.832C16.462 14.9023 17 14.3898 17 13.7598V13.3789H4V13.7598Z" fill="#130F40"/>
</svg>
