<svg width="28" height="22" viewBox="0 0 28 22" fill="none" xmlns="http://www.w3.org/2000/svg">
<path fill-rule="evenodd" clip-rule="evenodd" d="M24.0195 9.88063H9.15346L12.6617 6.36074C12.7821 6.24663 12.8382 6.11151 12.8382 5.93548C12.8382 5.75945 12.7821 5.62433 12.6617 5.51022L12.6593 5.50796L11.9826 4.83143C11.8553 4.70409 11.717 4.64478 11.5475 4.64478C11.372 4.64478 11.2309 4.70409 11.1035 4.83142L5.29397 10.641L5.28648 10.6482C5.17231 10.7562 5.11914 10.8913 5.11914 11.0732C5.11914 11.2549 5.1756 11.396 5.29685 11.5172L11.0981 17.3184C11.2316 17.4434 11.3744 17.5016 11.5475 17.5016C11.7146 17.5016 11.8546 17.4434 11.988 17.3185L12.6516 16.6549C12.7789 16.5276 12.8382 16.3865 12.8382 16.2109C12.8382 16.0353 12.7789 15.8942 12.6516 15.7669L9.15044 12.2658H24.0195C24.1761 12.2658 24.2873 12.218 24.3803 12.1107C24.4899 11.9843 24.5431 11.8316 24.5431 11.6441V10.5024C24.5431 10.3148 24.4899 10.1621 24.3803 10.0357C24.2873 9.92846 24.1761 9.88063 24.0195 9.88063Z" fill="#130F40"/>
</svg>
