<svg width="20" height="20" viewBox="0 0 20 20" fill="none" xmlns="http://www.w3.org/2000/svg">
<path d="M17.9451 15.8142C17.5685 15.8142 17.1941 15.8142 16.7939 15.8142C16.7939 15.8881 16.7939 15.9572 16.7939 16.0262C16.7939 16.7286 16.7948 17.4311 16.7936 18.1335C16.7928 18.5888 16.5673 18.8125 16.1079 18.8125C11.6713 18.8129 7.23472 18.8128 2.79808 18.8127C2.258 18.8127 2.0387 18.5682 2.08558 17.9904C2.16479 17.9904 2.24667 17.9904 2.32854 17.9904C6.38784 17.9904 10.4471 17.9905 14.5064 17.9903C15.3913 17.9903 15.8549 17.5281 15.8549 16.6459C15.855 11.5402 15.855 6.43431 15.8549 1.32853C15.8549 0.466575 15.3908 9.0625e-05 14.5331 1.25e-05C10.4283 1.25e-05 6.32347 -6.5625e-05 2.21862 0.00016875C1.37534 0.000246875 0.903779 0.472825 0.903779 1.31814C0.903623 6.91173 0.90417 12.5054 0.903076 18.099C0.90292 18.8696 1.21331 19.457 1.91308 19.8063C2.00308 19.8513 2.10019 19.8821 2.19894 19.9096C2.3769 19.9592 2.56104 19.9837 2.74581 19.9837H16.1047C16.3705 19.9837 16.636 19.9394 16.882 19.8387C17.0359 19.7757 17.182 19.694 17.3157 19.5816C17.7293 19.234 17.9478 18.789 17.9575 18.2565C17.9721 17.4633 17.9618 16.6695 17.9614 15.876C17.9614 15.8582 17.9522 15.8403 17.9451 15.8142ZM4.6519 5.29017C4.86769 5.08306 5.07409 4.86626 5.28776 4.65689C5.67237 4.27986 6.04831 4.27618 6.42901 4.6504C6.79917 5.01415 7.16612 5.38111 7.53003 5.75118C7.84519 6.07165 7.8462 6.58603 7.53136 6.90689C7.32573 7.1165 7.11737 7.32361 6.90573 7.52712C6.81331 7.61595 6.78386 7.75329 6.8373 7.86978C7.07644 8.39111 7.43128 8.83064 7.81229 9.24939C8.36245 9.85407 8.97495 10.3817 9.7155 10.7487C9.85948 10.8201 9.95401 10.797 10.0572 10.6909C10.2704 10.472 10.4867 10.2559 10.7054 10.0424C11.0783 9.67837 11.4471 9.67306 11.8155 10.0336C12.2013 10.4111 12.5835 10.7924 12.9605 11.1787C13.3188 11.5457 13.314 11.9198 12.9547 12.292C12.7425 12.5119 12.5201 12.7222 12.3128 12.9465C11.9632 13.3248 11.5282 13.4222 11.0358 13.3724C10.2692 13.2949 9.57995 12.9978 8.91862 12.6291C7.01417 11.5671 5.59542 10.0459 4.668 8.07376C4.41323 7.53197 4.21354 6.96759 4.21737 6.29829C4.18972 5.92861 4.34823 5.58157 4.6519 5.29017Z" fill="white"/>
<path d="M18.4209 6.60712C17.9312 6.59079 17.4405 6.60149 16.935 6.60274C16.8858 6.6029 16.8457 6.64266 16.8457 6.69188V9.93751C16.8457 9.98673 16.8857 10.0266 16.935 10.0266C17.4433 10.0277 17.9398 10.0374 18.4356 10.0226C18.8096 10.0114 19.0857 9.71391 19.0905 9.33094C19.0992 8.65055 19.099 7.96985 19.0905 7.28938C19.0859 6.9193 18.7909 6.61946 18.4209 6.60712Z" fill="white"/>
<path d="M16.9309 5.45938C17.4663 5.4611 17.9948 5.47719 18.5214 5.45172C18.836 5.43649 19.0831 5.13462 19.0883 4.80337C19.0992 4.10798 19.099 3.41219 19.0885 2.7168C19.0836 2.38962 18.849 2.0904 18.542 2.07454C18.0092 2.04712 17.4741 2.0643 16.931 2.06618C16.8818 2.06633 16.8419 2.1061 16.8419 2.15532V5.37024C16.8418 5.41946 16.8817 5.45922 16.9309 5.45938Z" fill="white"/>
<path d="M18.4568 11.1684C17.9536 11.1542 17.4497 11.1633 16.9333 11.1643C16.8841 11.1644 16.844 11.2042 16.844 11.2535V14.4854C16.844 14.5346 16.8839 14.5743 16.9331 14.5745C17.4592 14.5763 17.9755 14.5926 18.4897 14.5672C18.8199 14.551 19.0801 14.2797 19.0864 13.9492C19.0999 13.24 19.1003 12.5303 19.0871 11.8212C19.0806 11.4665 18.8002 11.1781 18.4568 11.1684Z" fill="white"/>
</svg>
