<svg width="16" height="17" viewBox="0 0 16 17" fill="none" xmlns="http://www.w3.org/2000/svg">
<path fill-rule="evenodd" clip-rule="evenodd" d="M15.5703 7.95846C15.5698 7.9581 15.5695 7.95761 15.5691 7.95724L9.0417 1.4301C8.76347 1.15175 8.39356 0.998535 8.00009 0.998535C7.60662 0.998535 7.23671 1.15175 6.95836 1.4301L0.434386 7.95395C0.432189 7.95615 0.429869 7.95846 0.427794 7.96066C-0.143553 8.53531 -0.142576 9.46765 0.430602 10.0408C0.692469 10.3028 1.03821 10.4544 1.408 10.4704C1.42313 10.4719 1.43827 10.4726 1.45353 10.4726H1.71357V15.2761C1.71357 16.2268 2.48708 17.0001 3.43774 17.0001H5.99147C6.2504 17.0001 6.46026 16.7902 6.46026 16.5313V12.7653C6.46026 12.3316 6.8132 11.9788 7.24696 11.9788H8.75322C9.18698 11.9788 9.5398 12.3316 9.5398 12.7653V16.5313C9.5398 16.7902 9.74966 17.0001 10.0086 17.0001H12.5623C13.5131 17.0001 14.2865 16.2268 14.2865 15.2761V10.4726H14.5277C14.9211 10.4726 15.291 10.3194 15.5695 10.0409C16.1432 9.46692 16.1435 8.53286 15.5703 7.95846Z" fill="#2ECFA5"/>
</svg>
