<svg width="20" height="19" viewBox="0 0 20 19" fill="none" xmlns="http://www.w3.org/2000/svg">
<path fill-rule="evenodd" clip-rule="evenodd" d="M12.5739 2.29875C11.4092 0.35354 8.59073 0.353541 7.42606 2.29875L0.594528 13.7087C-0.602712 15.7084 0.837806 18.2498 3.16844 18.2498H16.8315C19.1622 18.2498 20.6027 15.7084 19.4054 13.7087L12.5739 2.29875ZM9.552 11.8556C9.584 12.261 9.78133 12.4636 10.144 12.4636C10.496 12.4636 10.688 12.261 10.72 11.8556L11.168 5.96763C11.2 5.63696 11.1147 5.35963 10.912 5.13563C10.7093 4.91163 10.448 4.79963 10.128 4.79963C9.808 4.79963 9.54667 4.91163 9.344 5.13563C9.152 5.35963 9.06667 5.63696 9.088 5.96763L9.552 11.8556ZM9.312 15.7596C9.48267 15.9196 9.72267 15.9996 10.032 15.9996H10.24C10.5493 15.9996 10.784 15.9196 10.944 15.7596C11.1147 15.589 11.2 15.349 11.2 15.0396V14.7676C11.2 14.4583 11.1147 14.2236 10.944 14.0636C10.784 13.893 10.5493 13.8076 10.24 13.8076H10.032C9.72267 13.8076 9.48267 13.893 9.312 14.0636C9.152 14.2236 9.072 14.4583 9.072 14.7676V15.0396C9.072 15.349 9.152 15.589 9.312 15.7596Z" fill="#EC1C24"/>
</svg>
