<svg width="11" height="6" viewBox="0 0 11 6" fill="none" xmlns="http://www.w3.org/2000/svg">
<path d="M10.2108 1.84164C10.6298 1.47172 10.6298 0.818201 10.2108 0.448282C9.90812 0.181147 9.46764 0.139938 9.12071 0.346301L6.52245 1.89182C6.0241 2.18825 5.77493 2.33646 5.5 2.33646C5.22507 2.33646 4.9759 2.18825 4.47755 1.89182L1.87929 0.346301C1.53236 0.139938 1.09188 0.181147 0.789247 0.448281C0.370173 0.818201 0.370169 1.47172 0.789237 1.84164L4.17643 4.83164C4.80666 5.38796 5.12177 5.66613 5.5 5.66613C5.87823 5.66613 6.19334 5.38796 6.82357 4.83164L10.2108 1.84164Z" fill="#130F40"/>
</svg>
