<svg width="18" height="16" viewBox="0 0 18 16" fill="none" xmlns="http://www.w3.org/2000/svg">
<path d="M11.4326 9.44885C11.662 9.32026 11.769 9.06544 11.6926 8.82954C11.6584 8.72301 11.5851 8.60955 11.4865 8.51027C10.8208 7.83865 10.1519 7.17049 9.48309 6.50233L9.11103 6.13059C8.7894 5.80896 8.50292 5.80833 8.18223 6.12886C7.39352 6.91694 6.60513 7.70565 5.81689 8.4942L5.80018 8.51075C5.76835 8.54242 5.73652 8.57425 5.708 8.60892C5.58335 8.76131 5.54474 8.96049 5.60446 9.14187C5.66356 9.32152 5.81122 9.4572 5.99921 9.50495C6.1995 9.55601 6.38167 9.49597 6.55533 9.32136C7.00051 8.87398 7.44678 8.42802 7.89322 7.98189L8.08012 7.79516C8.08453 7.79074 8.08894 7.78633 8.09351 7.78208L8.09367 15.287L8.09351 15.3318C8.0932 15.386 8.09288 15.44 8.09698 15.4939C8.10958 15.6511 8.18349 15.7897 8.3053 15.8844C8.40222 15.9599 8.51867 15.9993 8.64064 15.9993C8.67311 15.9993 8.70573 15.9965 8.73866 15.991C8.94793 15.9552 9.19755 15.817 9.19755 15.3603L9.19786 7.77672C9.20527 7.78586 9.21315 7.79468 9.22166 7.80319C9.73255 8.31755 10.2442 8.83112 10.7591 9.34169C10.9574 9.53851 11.203 9.57744 11.4326 9.44885Z" fill="#2DDE89"/>
<path d="M17.2539 7.91588C17.2303 7.72851 17.1925 7.54209 17.1466 7.38687C16.7542 5.82253 15.7634 4.75096 14.2017 4.20225C14.1002 4.16616 14.0674 4.13133 14.0493 4.04057C13.838 2.97246 13.3399 2.0788 12.5686 1.38464C11.0183 -0.00730456 9.24062 -0.351942 7.28563 0.360497C6.25629 0.734603 5.42519 1.42955 4.81518 2.42659C4.78681 2.47339 4.77232 2.48426 4.70125 2.48001L4.65318 2.47717C4.425 2.46362 4.1891 2.44975 3.95587 2.47244C3.24469 2.54414 2.5696 2.9225 2.10347 3.51061C1.64143 4.09367 1.42885 4.82975 1.52041 5.5299C1.54719 5.73428 1.48589 5.82663 1.34722 5.94513C0.594754 6.58681 0.151942 7.4113 0.0312324 8.39557C-0.0935744 9.41782 0.156039 10.3717 0.773455 11.2307C1.44681 12.1694 2.32818 12.7148 3.3933 12.8514C3.63093 12.8811 3.87424 12.8793 4.1092 12.8779C4.18011 12.8776 4.25103 12.8768 4.32115 12.8773C4.53106 12.8788 4.73907 12.8788 4.9485 12.8788C5.26556 12.8804 5.58104 12.8804 5.89747 12.8788C6.04355 12.8788 6.18254 12.8216 6.28938 12.7167C6.39339 12.6108 6.45059 12.472 6.45059 12.3259C6.45059 12.026 6.21626 11.7836 5.91528 11.7743C5.59207 11.7728 5.27044 11.7728 4.94881 11.7728H3.82051C3.74833 11.7728 3.67112 11.7715 3.59532 11.7624C2.73806 11.6568 2.06187 11.2148 1.58517 10.4483C1.00353 9.51473 0.947586 8.55583 1.41876 7.59866C1.63008 7.17145 1.94935 6.82288 2.395 6.53292C2.72167 6.31924 2.79117 6.13675 2.69331 5.75398C2.68968 5.73854 2.6848 5.72309 2.67975 5.70765C2.67613 5.69631 2.67235 5.68496 2.66935 5.67251C2.51224 5.04595 2.65753 4.50119 3.10098 4.05317C3.55277 3.59823 4.10117 3.44978 4.73071 3.61225C5.229 3.73942 5.40738 3.66158 5.63966 3.21608C6.42018 1.71509 8.13438 0.87375 9.80745 1.16938C11.5144 1.47289 12.8052 2.83126 13.0193 4.54893C13.0658 4.93297 13.207 5.08992 13.5788 5.17108C14.4444 5.36049 15.186 5.88698 15.6671 6.65379C16.1496 7.42327 16.3012 8.32418 16.0938 9.19042C15.7295 10.7158 14.3267 11.8282 12.8277 11.7758C12.3227 11.7581 11.8083 11.7624 11.3108 11.7671L11.2191 11.7679C10.914 11.7679 10.666 12.0153 10.666 12.3257C10.666 12.611 10.8793 12.8472 11.1702 12.8757H11.8289C11.9405 12.8757 12.0519 12.8773 12.1627 12.8788L12.2926 12.8822C12.4383 12.8859 12.586 12.8899 12.7343 12.8899C12.9379 12.8899 13.1423 12.8826 13.3432 12.8579C15.113 12.6444 16.3482 11.6662 17.0143 9.95171C17.0455 9.87308 17.0737 9.78672 17.0994 9.6917C17.1753 9.45674 17.2289 9.20886 17.2587 8.95499C17.2993 8.6124 17.2976 8.25295 17.2539 7.91588Z" fill="#2DDE89"/>
</svg>
