<svg width="21" height="21" viewBox="0 0 21 21" fill="none" xmlns="http://www.w3.org/2000/svg">
<path fill-rule="evenodd" clip-rule="evenodd" d="M5.29935 17.9255C6.03352 17.9255 6.63094 18.5218 6.63094 19.256C6.63094 19.9902 6.03352 20.5876 5.29935 20.5876C4.56518 20.5876 3.96879 19.9902 3.96879 19.256C3.96879 18.5218 4.56518 17.9255 5.29935 17.9255ZM16.8983 17.9255C17.6335 17.9255 18.231 18.5218 18.231 19.256C18.231 19.9902 17.6335 20.5876 16.8983 20.5876C16.1642 20.5876 15.5678 19.9902 15.5678 19.256C15.5678 18.5218 16.1642 17.9255 16.8983 17.9255ZM0.902749 0.504384L3.04151 0.874555C3.38598 0.935222 3.64818 1.22108 3.678 1.57068L3.91964 4.45082L4.81818 4.4512C4.96481 4.45127 5.10988 4.45133 5.25341 4.4514L6.90304 4.45218C7.03453 4.45225 7.16456 4.45232 7.29312 4.45238L9.11456 4.45338C9.22899 4.45345 9.34205 4.45351 9.45375 4.45358L10.7302 4.4544C10.8313 4.45446 10.9311 4.45453 11.0297 4.4546L12.1523 4.45543C12.241 4.4555 12.3284 4.45557 12.4146 4.45564L13.3935 4.45648C13.4705 4.45655 13.5463 4.45662 13.6211 4.45669L14.2644 4.45733C14.3327 4.4574 14.3999 4.45747 14.4661 4.45754L15.2111 4.45841C15.2692 4.45848 15.3263 4.45855 15.3825 4.45863L16.0115 4.45951C16.0603 4.45958 16.1082 4.45965 16.1552 4.45973L16.555 4.46039C16.5969 4.46047 16.6379 4.46054 16.6782 4.46062L17.1236 4.46152C17.1576 4.4616 17.1909 4.46167 17.2235 4.46175L17.4976 4.46243C17.526 4.46251 17.5537 4.46259 17.5807 4.46266L17.8745 4.46359C17.8965 4.46367 17.918 4.46375 17.9388 4.46382L18.1114 4.46453C18.1289 4.46461 18.1459 4.46468 18.1624 4.46476L18.3369 4.46571C18.3496 4.46579 18.3618 4.46587 18.3736 4.46595L18.4688 4.46668C18.4781 4.46676 18.4871 4.46684 18.4958 4.46692L18.5643 4.46765C18.5709 4.46773 18.5772 4.46781 18.5832 4.46789L18.6298 4.46863C18.6342 4.46871 18.6383 4.46879 18.6422 4.46888L18.6717 4.46962C18.6744 4.46971 18.6769 4.46979 18.6793 4.46987L18.7006 4.47088C18.7019 4.47096 18.7031 4.47105 18.7043 4.47113C18.7143 4.47207 18.7157 4.47224 18.7172 4.47241C19.29 4.5557 19.7938 4.85492 20.1372 5.31558C20.4807 5.77521 20.6246 6.34177 20.5424 6.90937L19.5666 13.6526C19.3825 14.9359 18.2679 15.9035 16.9723 15.9035H5.74273C4.38853 15.9035 3.24202 14.8465 3.132 13.4943L2.19012 2.29252L0.640545 2.02517C0.219989 1.95114 -0.0607234 1.5532 0.0112543 1.13265C0.0852885 0.712091 0.491448 0.438576 0.902749 0.504384ZM4.61189 5.99355L4.0492 5.9932L4.66924 13.3678C4.71448 13.9354 5.17822 14.3611 5.74479 14.3611H16.9702C17.5059 14.3611 17.9635 13.9622 18.0396 13.4326L19.0164 6.6883C19.0391 6.52789 18.999 6.36748 18.9013 6.23792C18.8046 6.10733 18.6627 6.02302 18.5023 6.00039C18.4949 6.00068 18.4771 6.00094 18.4495 6.00117L18.3377 6.00181C18.3143 6.00191 18.2886 6.002 18.2606 6.00208L17.6781 6.00297C17.6289 6.003 17.5778 6.00303 17.5248 6.00306L16.1552 6.003C16.0788 6.00297 16.0009 6.00294 15.9217 6.00291L14.3586 6.00196C14.265 6.00189 14.1703 6.00182 14.0747 6.00175L13.1902 6.00104C13.0895 6.00095 12.988 6.00087 12.8858 6.00078L11.949 5.99996C11.8432 5.99986 11.7369 5.99976 11.6301 5.99967L10.9848 5.99907C10.8766 5.99897 10.768 5.99887 10.6591 5.99877L9.67436 5.99785C9.56456 5.99775 9.45469 5.99765 9.34482 5.99754L8.68607 5.99693C8.57644 5.99683 8.46694 5.99673 8.35762 5.99663L7.70447 5.99604C7.59615 5.99594 7.48815 5.99584 7.38052 5.99575L6.42372 5.99492C6.31892 5.99484 6.21468 5.99475 6.11107 5.99467L4.90192 5.99375C4.80434 5.99368 4.70765 5.99361 4.61189 5.99355ZM15.3187 8.25155C15.7444 8.25155 16.0899 8.59704 16.0899 9.02274C16.0899 9.44843 15.7444 9.79393 15.3187 9.79393H12.4684C12.0417 9.79393 11.6972 9.44843 11.6972 9.02274C11.6972 8.59704 12.0417 8.25155 12.4684 8.25155H15.3187Z" fill="black"/>
</svg>
