<svg width="8" height="12" viewBox="0 0 8 12" fill="none" xmlns="http://www.w3.org/2000/svg">
<path d="M2.23208 0.653883C2.20806 0.631615 2.19604 0.620482 2.18542 0.61118C1.8083 0.280929 1.24492 0.280934 0.867803 0.611191C0.857181 0.620493 0.84517 0.631627 0.821146 0.653894V0.653894C0.793615 0.679413 0.779849 0.692172 0.768777 0.703094C0.371801 1.0947 0.371806 1.73533 0.768789 2.12692C0.779861 2.13785 0.793627 2.15061 0.821159 2.17612L3.36417 4.53317C4.10517 5.21998 4.47567 5.56339 4.47567 6C4.47567 6.43661 4.10517 6.78002 3.36417 7.46683L0.821159 9.82388C0.793627 9.84939 0.779861 9.86215 0.768789 9.87308C0.371806 10.2647 0.371801 10.9053 0.768777 11.2969C0.779849 11.3078 0.793615 11.3206 0.821146 11.3461V11.3461C0.84517 11.3684 0.857181 11.3795 0.867803 11.3888C1.24492 11.7191 1.8083 11.7191 2.18542 11.3888C2.19604 11.3795 2.20806 11.3684 2.23208 11.3461L6.41744 7.46683C7.15844 6.78002 7.52894 6.43661 7.52894 6C7.52894 5.56339 7.15844 5.21998 6.41744 4.53317L2.23208 0.653883Z" fill="#130F40"/>
</svg>
