<svg width="40" height="40" viewBox="0 0 40 40" fill="none" xmlns="http://www.w3.org/2000/svg">
<rect opacity="0.1" width="40" height="40" rx="10" fill="#1FE190"/>
<path d="M27.5702 18.9592C27.5698 18.9589 27.5695 18.9585 27.5691 18.9581L21.0417 12.4316C20.7635 12.1533 20.3936 12 20.0001 12C19.6066 12 19.2367 12.1532 18.9584 12.4315L12.4344 18.9547C12.4322 18.9569 12.43 18.9592 12.4278 18.9614C11.8564 19.536 11.8574 20.4683 12.4306 21.0414C12.6925 21.3033 13.0383 21.4551 13.4081 21.4709C13.4231 21.4724 13.4383 21.4731 13.4535 21.4731H13.7137V26.2762C13.7137 27.2267 14.4871 28 15.4379 28H17.9916C18.2504 28 18.4604 27.7902 18.4604 27.5312V23.7656C18.4604 23.3319 18.8132 22.9791 19.247 22.9791H20.7532C21.187 22.9791 21.5398 23.3319 21.5398 23.7656V27.5312C21.5398 27.7902 21.7497 28 22.0086 28H24.5623C25.5131 28 26.2865 27.2267 26.2865 26.2762V21.4731H26.5277C26.9211 21.4731 27.291 21.3199 27.5695 21.0416C28.1433 20.4675 28.1435 19.5337 27.5702 18.9592Z" fill="#1FE190"/>
</svg>
