<svg width="21" height="21" viewBox="0 0 21 21" fill="none" xmlns="http://www.w3.org/2000/svg">
<rect opacity="0.1" width="21" height="21" rx="4" fill="#130F40"/>
<path fill-rule="evenodd" clip-rule="evenodd" d="M12.5 10.5C12.2235 10.5 12.0001 10.724 12.0001 11V13C12.0001 13.2755 11.776 13.4999 11.5 13.4999H10V5.99997C10 5.57297 9.728 5.19147 9.31903 5.04947L9.17099 4.99994H11.5C11.776 4.99994 12.0001 5.22442 12.0001 5.5V7C12.0001 7.27594 12.2235 7.49997 12.5 7.49997C12.7766 7.49997 13 7.27594 13 7V5.5C13 4.67301 12.327 4 11.5 4H6.12501C6.10596 4 6.09003 4.00851 6.07154 4.01098C6.04746 4.00897 6.02448 4 6.00003 4C5.44852 4 5 4.44843 5 4.99994V14C5 14.4269 5.272 14.8085 5.68097 14.9504L8.69005 15.9535C8.79205 15.985 8.89348 16 9.00005 16C9.55158 16 10 15.5515 10 14.9999V14.5H11.5C12.327 14.5 13 13.827 13 13V11C13 10.724 12.7766 10.5 12.5 10.5Z" fill="#130F40"/>
<path opacity="0.4" fill-rule="evenodd" clip-rule="evenodd" d="M16.8577 8.66993L14.9183 6.80336C14.7797 6.66989 14.5711 6.62973 14.3899 6.70202C14.209 6.77439 14.0907 6.94469 14.0907 7.13327V8.53322H12.1514C11.8837 8.53322 11.6665 8.74222 11.6665 8.99984C11.6665 9.25746 11.8837 9.46647 12.1514 9.46647H14.0907V10.8664C14.0907 11.055 14.209 11.2253 14.3899 11.2976C14.5711 11.3699 14.7797 11.3298 14.9183 11.1964L16.8577 9.32975C17.0472 9.14732 17.0472 8.85236 16.8577 8.66993Z" fill="#130F40"/>
</svg>
