<svg width="18" height="21" viewBox="0 0 18 21" fill="none" xmlns="http://www.w3.org/2000/svg">
<path fill-rule="evenodd" clip-rule="evenodd" d="M6.81323 18.273C7.29509 18.8098 7.9137 19.1047 8.55556 19.1047H8.55649C9.20114 19.1047 9.82254 18.8098 10.3053 18.2721C10.5639 17.9865 11.0049 17.9633 11.2904 18.2209C11.577 18.4786 11.6002 18.9205 11.3425 19.206C10.5909 20.0405 9.60207 20.5 8.55649 20.5H8.55463C7.51184 20.4991 6.52486 20.0395 5.77602 19.2051C5.51835 18.9195 5.54161 18.4777 5.82812 18.2209C6.11463 17.9623 6.55556 17.9856 6.81323 18.273ZM8.60188 0.5C12.7368 0.5 15.5144 3.72047 15.5144 6.72791C15.5144 8.27488 15.9079 8.9307 16.3256 9.62651C16.7386 10.313 17.2065 11.0926 17.2065 12.566C16.8819 16.3307 12.9517 16.6377 8.60188 16.6377C4.25212 16.6377 0.320955 16.3307 1.23129e-05 12.6256C-0.00276596 11.0926 0.465141 10.313 0.878164 9.62651L1.02397 9.38107C1.38298 8.76405 1.68933 8.09289 1.68933 6.72791C1.68933 3.72047 4.467 0.5 8.60188 0.5ZM8.60188 1.89535C5.35072 1.89535 3.08468 4.44233 3.08468 6.72791C3.08468 8.66186 2.54793 9.55581 2.07351 10.3447C1.69305 10.9781 1.39258 11.4786 1.39258 12.566C1.54793 14.3205 2.70607 15.2423 8.60188 15.2423C14.4651 15.2423 15.6596 14.2795 15.814 12.5056C15.8112 11.4786 15.5107 10.9781 15.1303 10.3447C14.6558 9.55581 14.1191 8.66186 14.1191 6.72791C14.1191 4.44233 11.853 1.89535 8.60188 1.89535Z" fill="black"/>
</svg>
