<svg width="12" height="13" viewBox="0 0 12 13" fill="none" xmlns="http://www.w3.org/2000/svg">
<path d="M5.89599 0.0647167L10.2103 1.51224C10.6933 1.6735 11.0198 2.11712 11.0224 2.61429L11.0499 6.93071C11.0584 8.23928 10.5814 9.50833 9.70776 10.5027C9.30597 10.959 8.79097 11.351 8.13332 11.7016L5.8142 12.9413C5.74156 12.9796 5.66173 12.9993 5.58124 13C5.50075 13.0006 5.42026 12.9815 5.34828 12.9439L3.00756 11.7328C2.34271 11.388 1.82313 11.0017 1.41742 10.5517C0.529425 9.56761 0.0360225 8.3043 0.0275156 6.99382L1.57147e-05 2.68058C-0.0025859 2.18277 0.31806 1.73596 0.798375 1.56833L5.09634 0.0691785C5.35155 -0.0213313 5.6362 -0.0232435 5.89599 0.0647167ZM7.95912 4.69213C7.76608 4.50664 7.45525 4.50792 7.26483 4.69595L5.07527 6.85416L4.17877 5.99241C3.98573 5.80693 3.67555 5.80884 3.48447 5.99687C3.29405 6.1849 3.29601 6.48702 3.48905 6.67251L4.73434 7.8708C4.83119 7.96386 4.95683 8.00976 5.08247 8.00851C5.20811 8.00784 5.3331 7.96068 5.42864 7.86634L7.96305 5.36776C8.15347 5.17973 8.15151 4.87761 7.95912 4.69213Z" fill="url(#paint0_linear_6578_3968)"/>
<defs>
<linearGradient id="paint0_linear_6578_3968" x1="2.17348e-05" y1="6.045e-06" x2="3.59584e-05" y2="13" gradientUnits="userSpaceOnUse">
<stop stop-color="#656096"/>
<stop offset="1" stop-color="#130F40"/>
</linearGradient>
</defs>
</svg>
