<svg width="38" height="38" viewBox="0 0 38 38" fill="none" xmlns="http://www.w3.org/2000/svg">
<rect opacity="0.1" width="38" height="38" rx="10" fill="#1BDD97"/>
<path d="M19.8172 14.1202C19.8535 14.3587 19.8644 14.6048 19.9332 14.8337C20.0048 15.0717 19.9379 15.2153 19.7666 15.3844C18.3031 16.8296 16.8456 18.2809 15.4001 19.744C15.1971 19.9494 15.022 19.9959 14.7443 19.9347C13.1504 19.5835 11.6255 20.4744 11.1587 22.0132C11.0038 22.524 10.9868 23.0421 11.1141 23.5625C11.2267 24.0228 11.5915 24.1349 11.9301 23.8071C12.3135 23.436 12.6787 23.0458 13.0711 22.6847C13.4306 22.3541 13.9545 22.3759 14.2823 22.7039C14.6119 23.0338 14.6189 23.5387 14.2951 23.9113C14.2126 24.0063 14.1197 24.0924 14.0306 24.1816C13.7425 24.4698 13.4502 24.7538 13.1667 25.0464C12.8474 25.3761 12.9509 25.7346 13.3921 25.8487C15.3618 26.3585 17.3087 24.7077 17.1151 22.6923C17.104 22.5767 17.1262 22.448 17.0826 22.347C16.9139 21.9569 17.1031 21.7209 17.3716 21.4573C18.7908 20.064 20.1975 18.6579 21.5949 17.2428C21.7913 17.0439 21.9607 17.0016 22.226 17.0601C23.6947 17.3836 25.0676 16.7018 25.6867 15.3501C25.9657 14.7412 26.041 14.1007 25.8631 13.4518C25.8202 13.2955 25.694 13.1232 25.5563 13.041C25.3702 12.93 25.1891 13.0503 25.0419 13.1986C24.6729 13.5705 24.3069 13.9457 23.925 14.3042C23.6248 14.5859 23.2462 14.6233 22.9021 14.4393C22.5841 14.2693 22.3912 13.9307 22.4705 13.565C22.5129 13.369 22.6279 13.1677 22.7638 13.017C23.0882 12.6573 23.4413 12.323 23.7893 11.985C23.947 11.8319 24.08 11.6448 23.9624 11.4505C23.8757 11.3072 23.6866 11.1754 23.5205 11.1377C21.634 10.7097 19.8322 12.1749 19.8172 14.1202Z" fill="#1BDD97"/>
<path d="M21.3402 18.8687C22.7283 20.2518 24.1255 21.626 25.4978 23.0245C25.9676 23.5032 26.0812 24.1091 25.8658 24.7513C25.4494 25.9931 23.9086 26.348 22.9562 25.4115C21.6211 24.0989 20.3016 22.7705 18.9762 21.4481C18.9226 21.3947 18.8758 21.3344 18.8359 21.2887C19.656 20.47 20.4647 19.6625 21.2865 18.842C21.3063 18.8515 21.3274 18.8559 21.3402 18.8687ZM24.0708 23.5587C24.0289 23.4845 23.9628 23.4222 23.9015 23.3608C23.0857 22.5455 22.269 21.7312 21.452 20.9171C21.404 20.8693 21.3568 20.8184 21.3009 20.7813C21.107 20.6528 20.9115 20.6582 20.7435 20.8199C20.5753 20.9817 20.5572 21.1752 20.6898 21.3714C20.7327 21.4348 20.7899 21.4894 20.8446 21.544C21.654 22.352 22.462 23.1614 23.2764 23.9643C23.3876 24.0739 23.5316 24.1505 23.5986 24.1983C24.0214 24.1997 24.2334 23.847 24.0708 23.5587Z" fill="#1BDD97"/>
<path d="M16.3223 17.5362C16.7753 17.0892 17.1736 16.6962 17.5704 16.3046C16.6078 15.3383 15.646 14.3727 14.6702 13.3931C14.7454 13.3069 14.8032 13.2459 14.8552 13.1804C15.0485 12.9369 15.0234 12.669 14.76 12.5071C14.0005 12.0404 13.2329 11.5866 12.4662 11.1315C12.2546 11.0059 12.0562 11.0447 11.8836 11.2154C11.6492 11.4471 11.4151 11.6791 11.1836 11.9136C11.0122 12.0873 10.9836 12.2855 11.1095 12.4955C11.5622 13.2509 12.0124 14.0078 12.4749 14.7572C12.6532 15.0462 12.9302 15.0698 13.1892 14.8442C13.2682 14.7754 13.3427 14.7014 13.4336 14.6163C14.4055 15.5986 15.3648 16.5683 16.3223 17.5362Z" fill="#1BDD97"/>
</svg>
