<svg width="43" height="39" viewBox="0 0 43 39" fill="none" xmlns="http://www.w3.org/2000/svg">
<path d="M9.98817 19.9763C15.5045 19.9763 19.9763 15.5045 19.9763 9.98817C19.9763 4.47186 15.5045 0 9.98817 0C4.47186 0 0 4.47186 0 9.98817C0 15.5045 4.47186 19.9763 9.98817 19.9763Z" fill="#F50303"/>
<path d="M32.4616 19.9763C37.9779 19.9763 42.4497 15.5045 42.4497 9.98817C42.4497 4.47186 37.9779 0 32.4616 0C26.9452 0 22.4734 4.47186 22.4734 9.98817C22.4734 15.5045 26.9452 19.9763 32.4616 19.9763Z" fill="#FFF600"/>
<path d="M21.225 38.7044C26.7413 38.7044 31.2132 34.2325 31.2132 28.7162C31.2132 23.1999 26.7413 18.728 21.225 18.728C15.7087 18.728 11.2368 23.1999 11.2368 28.7162C11.2368 34.2325 15.7087 38.7044 21.225 38.7044Z" fill="#AE00B9"/>
</svg>
