<svg width="13" height="13" viewBox="0 0 13 13" fill="none" xmlns="http://www.w3.org/2000/svg">
<path d="M7.34635 6.5C7.11314 7.57205 6.69184 7.97454 6.13137 7.97454C5.66869 7.97454 5.43171 7.60966 5.43171 6.9401C5.43171 5.9621 5.89815 4.91262 6.68056 4.91262C7.35388 4.91262 7.59838 5.3941 7.34635 6.5ZM13 6.5C13 10.0885 10.0885 13 6.5 13C2.91146 13 0 10.0885 0 6.5C0 2.91146 2.91146 0 6.5 0C10.0885 0 13 2.91146 13 6.5ZM11.2772 5.67622C11.2772 2.98669 9.21962 1.61748 6.82726 1.61748C3.77286 1.61748 1.7228 3.73524 1.7228 6.74074C1.7228 9.55816 3.69763 11.3825 6.33449 11.3825C7.68866 11.3825 8.5463 11.0854 9.09925 10.7393L8.85475 9.83276C8.13629 10.2127 7.35764 10.3594 6.39091 10.3594C4.2581 10.3594 2.90017 8.76071 2.90394 6.74826C2.9077 4.15278 4.46875 2.59549 6.80469 2.59549C8.81337 2.59549 10.1751 3.79167 10.1751 5.72512C10.1751 7.07928 9.60706 7.98958 8.86979 7.98958C8.48235 7.98958 8.34693 7.79774 8.48235 7.1658L9.16696 4.03993H7.90307L7.7338 4.67188C7.61719 4.29196 7.24103 3.92708 6.46615 3.92708C5.1496 3.92708 4.07755 5.26997 4.07755 6.98901C4.07755 8.31684 4.7772 8.99769 5.74016 8.99769C6.48495 8.99769 6.91754 8.73061 7.30498 8.22656C7.41406 8.76823 7.90683 9.00521 8.58767 9.00521C10.2127 9.00521 11.2772 7.71875 11.2772 5.67622Z" fill="url(#paint0_linear_6124_3049)"/>
<defs>
<linearGradient id="paint0_linear_6124_3049" x1="2.55704e-05" y1="6.045e-06" x2="3.76604e-05" y2="13" gradientUnits="userSpaceOnUse">
<stop stop-color="#656096"/>
<stop offset="1" stop-color="#130F40"/>
</linearGradient>
</defs>
</svg>
