<svg width="17" height="16" viewBox="0 0 17 16" fill="none" xmlns="http://www.w3.org/2000/svg">
<path opacity="0.37" fill-rule="evenodd" clip-rule="evenodd" d="M10.3716 15.466C5.02576 16.4349 0.432165 11.7783 1.50783 6.56539C1.12202 5.91675 0.900391 5.16447 0.900391 4.36068C0.900391 0.904562 4.76792 -1.13253 7.67279 0.670138C13.0233 -0.236969 17.5798 4.48773 16.4223 9.68876C18.3268 13.4792 14.1508 17.4647 10.3716 15.466Z" fill="#929CBF"/>
<path fill-rule="evenodd" clip-rule="evenodd" d="M13.3626 9.98148C13.3592 11.3078 12.5461 12.2967 11.2794 12.8136C9.87563 13.3908 7.56572 13.3942 6.16791 12.6622C4.17484 11.5997 3.82055 9.20673 5.53987 9.20673C6.83592 9.20673 6.42575 10.7178 7.73428 11.3337C8.33486 11.6115 9.62591 11.6402 10.3766 11.1339C11.1177 10.6379 11.0496 9.85756 10.6469 9.48454C9.5794 8.49908 6.5247 8.89052 5.12846 7.16527C4.52164 6.41673 4.40708 5.09603 5.15312 4.13867C6.45291 2.46586 10.2674 2.36378 11.9074 3.62705C13.4216 4.79917 13.013 6.35462 11.791 6.35462C10.3214 6.35462 11.0936 4.43146 8.72099 4.43146C7.00104 4.43146 6.3243 5.65478 7.53575 6.25005C9.17797 7.066 13.3626 6.7935 13.3626 9.98148Z" fill="#929CBF"/>
</svg>
