<svg width="66" height="65" viewBox="0 0 66 65" fill="none" xmlns="http://www.w3.org/2000/svg">
<circle cx="33" cy="32.5" r="32.5" fill="#08B2FF" fill-opacity="0.0980392"/>
<path fill-rule="evenodd" clip-rule="evenodd" d="M41.5938 35.625H41.3259C40.6736 33.781 38.9067 32.5 36.9062 32.5C34.8929 32.5 33.1167 33.7978 32.4743 35.6601C30.8264 35.8829 29.5011 37.1379 29.1723 38.75H29.0938C27.3703 38.75 25.9688 40.1515 25.9688 41.875C25.9688 43.5985 27.3703 45 29.0938 45H41.5938C44.1786 45 46.3333 42.8973 46.3333 40.3125C46.3333 37.7277 44.1786 35.625 41.5938 35.625V35.625Z" fill="url(#paint0_linear_1_4486)"/>
<path fill-rule="evenodd" clip-rule="evenodd" d="M40.0316 20H19.667V26.25H40.0316V20ZM24.4066 24.6875H22.8441V23.125H24.4066V24.6875ZM27.5316 24.6875H25.9691V23.125H27.5316V24.6875ZM30.6566 24.6875H29.0941V23.125H30.6566V24.6875Z" fill="url(#paint1_linear_1_4486)"/>
<path fill-rule="evenodd" clip-rule="evenodd" d="M36.9066 30.9375C38.0291 30.9375 39.101 31.2416 40.0316 31.7802V27.8125H19.667V32.5H32.7907C33.9062 31.5211 35.3534 30.9375 36.9066 30.9375V30.9375ZM24.4066 30.9375H22.8441V29.375H24.4066V30.9375ZM27.5316 30.9375H25.9691V29.375H27.5316V30.9375ZM30.6566 30.9375H29.0941V29.375H30.6566V30.9375Z" fill="#08B2FF"/>
<path fill-rule="evenodd" clip-rule="evenodd" d="M27.9992 37.3165C28.6332 35.8859 29.857 34.7873 31.3554 34.3151C31.4011 34.2268 31.4594 34.148 31.509 34.0625H19.667V40.3125H24.6754C25.2011 38.8303 26.4515 37.6882 27.9992 37.3165V37.3165ZM25.9691 35.625H27.5316V37.1875H25.9691V35.625ZM24.4066 37.1875H22.8441V35.625H24.4066V37.1875Z" fill="#08B2FF"/>
<defs>
<linearGradient id="paint0_linear_1_4486" x1="25.9688" y1="32.5" x2="25.9688" y2="45" gradientUnits="userSpaceOnUse">
<stop stop-color="white"/>
<stop offset="1" stop-color="#08B2FF"/>
</linearGradient>
<linearGradient id="paint1_linear_1_4486" x1="19.667" y1="20" x2="19.667" y2="26.25" gradientUnits="userSpaceOnUse">
<stop stop-color="white"/>
<stop offset="1" stop-color="#08B2FF"/>
</linearGradient>
</defs>
</svg>
