<?xml version="1.0" encoding="utf-8"?>
<!-- Generator: Adobe Illustrator 26.0.2, SVG Export Plug-In . SVG Version: 6.00 Build 0)  -->
<svg version="1.1" id="Layer_1" xmlns="http://www.w3.org/2000/svg" xmlns:xlink="http://www.w3.org/1999/xlink" x="0px" y="0px"
	 viewBox="0 0 112 112" style="enable-background:new 0 0 112 112;" xml:space="preserve">
<style type="text/css">
	.st0{fill:#FF6C2C;}
</style>
<g>
	<path class="st0" d="M22.546,55.509c1.718-1.313,3.703-1.969,5.954-1.969h9.845c1.812,0,3.406-0.53,4.781-1.595
		c1.373-1.062,2.311-2.468,2.812-4.219l3.281-12.563H28.031c-3.126,0-6.126,0.501-9,1.501c-2.875,1-5.485,2.391-7.829,4.172
		c-2.344,1.781-4.375,3.938-6.095,6.469c-1.721,2.534-3.004,5.339-3.797,8.298l-0.375,1.406C-0.19,61.384-0.3,65.65,0.607,69.807
		c0.905,4.157,2.609,7.86,5.11,11.109c2.499,3.252,5.64,5.86,9.422,7.829c3.781,1.969,7.923,2.954,12.424,2.954h6.563l3.75-13.876
		c0.313-1.125,0.109-2.14-0.609-3.047c-0.719-0.905-1.64-1.36-2.766-1.36h-6c-1.626,0-3.126-0.342-4.5-1.03
		c-1.376-0.687-2.501-1.609-3.376-2.767c-0.875-1.155-1.485-2.484-1.828-3.984c-0.344-1.5-0.297-3.094,0.14-4.781
		C19.624,58.602,20.826,56.821,22.546,55.509z"/>
	<path class="st0" d="M111.38,38.585c-0.938-4.156-2.658-7.859-5.157-11.11c-2.501-3.249-5.642-5.859-9.422-7.828
		c-3.783-1.969-7.922-2.954-12.422-2.954H64.783c-1.815,0-3.408,0.532-4.781,1.595c-1.376,1.064-2.314,2.469-2.813,4.219
		l-18.47,69.191v0.001H51.75c1.75,0,3.313-0.53,4.688-1.594c1.374-1.062,2.312-2.438,2.813-4.125l13.688-50.91h10.502
		c1.624,0,3.124,0.36,4.5,1.078c1.374,0.72,2.499,1.657,3.375,2.812c0.875,1.157,1.485,2.485,1.829,3.985
		c0.342,1.5,0.296,3.032-0.141,4.594c-0.563,2.189-1.734,3.97-3.516,5.344c-1.781,1.375-3.797,2.063-6.046,2.063h-5.438
		c-1.814,0-3.407,0.532-4.781,1.593c-1.376,1.064-2.313,2.438-2.813,4.126l-3.375,12.657h16.97c3.124,0,6.125-0.499,9-1.501
		c2.874-0.999,5.485-2.405,7.829-4.218c2.344-1.812,4.359-3.985,6.048-6.516c1.687-2.532,2.937-5.298,3.75-8.298l0.374-1.407
		C112.191,47.009,112.318,42.743,111.38,38.585z"/>
</g>
</svg>
