<svg width="21" height="21" viewBox="0 0 21 21" fill="none" xmlns="http://www.w3.org/2000/svg">
<path d="M13.8874 12.4021C14.1661 12.2334 14.2961 11.8989 14.2032 11.5893C14.1617 11.4494 14.0727 11.3005 13.9529 11.1702C13.1443 10.2887 12.3317 9.41168 11.5193 8.53468L11.0674 8.04675C10.6767 7.62459 10.3287 7.62377 9.93915 8.04448C8.98109 9.07887 8.02341 10.1141 7.06593 11.1491L7.04564 11.1708C7.00697 11.2124 6.9683 11.2542 6.93366 11.2997C6.78224 11.4997 6.73534 11.7612 6.80789 11.9992C6.87968 12.235 7.05904 12.4131 7.2874 12.4758C7.5307 12.5428 7.75198 12.464 7.96292 12.2348C8.50369 11.6476 9.04579 11.0622 9.58808 10.4767L9.81511 10.2316C9.82047 10.2258 9.82583 10.22 9.83138 10.2144L9.83157 20.0651L9.83138 20.1238C9.831 20.195 9.83061 20.2659 9.83559 20.3367C9.8509 20.5429 9.94068 20.7249 10.0886 20.8492C10.2064 20.9483 10.3478 21 10.496 21C10.5354 21 10.575 20.9963 10.6151 20.989C10.8693 20.9421 11.1725 20.7607 11.1725 20.1613L11.1729 10.2074C11.1819 10.2194 11.1914 10.231 11.2018 10.2421C11.8223 10.9173 12.4439 11.5913 13.0693 12.2615C13.3103 12.5198 13.6085 12.5709 13.8874 12.4021Z" fill="#130F40"/>
<path d="M20.9587 10.39C20.93 10.1441 20.884 9.89942 20.8283 9.69568C20.3517 7.6424 19.148 6.2359 17.251 5.51568C17.1278 5.46832 17.088 5.42261 17.0659 5.30347C16.8092 3.90152 16.2042 2.72854 15.2674 1.81742C13.3842 -0.00958765 11.2247 -0.461943 8.84998 0.473173C7.59962 0.964207 6.59007 1.87636 5.84908 3.18503C5.81463 3.24646 5.79702 3.26073 5.71069 3.25515L5.6523 3.25143C5.37513 3.23364 5.08857 3.21544 4.80527 3.24522C3.94139 3.33933 3.12134 3.83595 2.55512 4.60787C1.99387 5.37317 1.73565 6.33932 1.84686 7.2583C1.8794 7.52657 1.80494 7.64777 1.63649 7.80332C0.722458 8.64556 0.184567 9.72774 0.0379386 11.0197C-0.113666 12.3614 0.189544 13.6134 0.939529 14.7409C1.75747 15.973 2.82808 16.6889 4.1219 16.8682C4.41056 16.9071 4.70611 16.9048 4.99152 16.903C5.07766 16.9025 5.1638 16.9015 5.24898 16.9021C5.50395 16.9042 5.75663 16.9042 6.01102 16.9042C6.39616 16.9063 6.77939 16.9063 7.16376 16.9042C7.34121 16.9042 7.51004 16.8291 7.63982 16.6914C7.76616 16.5524 7.83564 16.3701 7.83564 16.1784C7.83564 15.7848 7.551 15.4667 7.18539 15.4545C6.79279 15.4524 6.4021 15.4524 6.01141 15.4524H4.64084C4.55317 15.4524 4.45937 15.4508 4.3673 15.4388C3.32597 15.3002 2.50458 14.72 1.92554 13.7139C1.219 12.4886 1.15105 11.23 1.7234 9.97367C1.98009 9.41293 2.36791 8.95541 2.90925 8.57482C3.30606 8.29435 3.39048 8.05483 3.27161 7.55242C3.2672 7.53215 3.26127 7.51188 3.25514 7.49161C3.25074 7.47672 3.24615 7.46183 3.24251 7.44549C3.05166 6.6231 3.22815 5.90806 3.76681 5.32002C4.31561 4.72287 4.98176 4.52803 5.74648 4.74128C6.35175 4.9082 6.56844 4.80602 6.85059 4.22129C7.7987 2.25116 9.88097 1.14685 11.9133 1.53487C13.9868 1.93324 15.5547 3.71619 15.8148 5.97073C15.8713 6.47479 16.0428 6.68081 16.4944 6.78733C17.5458 7.03595 18.4467 7.72699 19.0311 8.73347C19.6172 9.74346 19.8013 10.926 19.5494 12.0629C19.1069 14.0651 17.4028 15.5252 15.582 15.4563C14.9685 15.4332 14.3437 15.4388 13.7394 15.445L13.628 15.446C13.2574 15.446 12.9561 15.7707 12.9561 16.1782C12.9561 16.5526 13.2153 16.8626 13.5687 16.9001H14.3688C14.5044 16.9001 14.6397 16.9021 14.7743 16.9042L14.932 16.9085C15.109 16.9135 15.2884 16.9187 15.4685 16.9187C15.7159 16.9187 15.9641 16.9092 16.2082 16.8767C18.358 16.5964 19.8584 15.3126 20.6675 13.0622C20.7054 12.959 20.7397 12.8456 20.7709 12.7209C20.8631 12.4125 20.9282 12.0871 20.9644 11.7539C21.0138 11.3043 21.0117 10.8325 20.9587 10.39Z" fill="#130F40"/>
</svg>
