<svg width="35" height="35" viewBox="0 0 35 35" fill="none" xmlns="http://www.w3.org/2000/svg">
<path d="M24.3431 8H19.2597H13.8318C13.0133 8 12.3498 8.66358 12.3498 9.48203V10.5528H10.4083C9.0804 10.5528 8 11.6332 8 12.9611V25.5917C8 26.9196 9.0804 28 10.4083 28H20.9511C22.279 28 23.3594 26.9196 23.3594 25.5917V23.5576H24.3431C25.1615 23.5576 25.8251 22.894 25.8251 22.0756V14.8303V9.48203C25.8251 8.66358 25.1615 8 24.3431 8ZM21.5069 25.5917C21.5069 25.8981 21.2575 26.1475 20.9511 26.1475H10.4083C10.1019 26.1475 9.85254 25.8981 9.85254 25.5917V12.9611C9.85254 12.6547 10.1019 12.4053 10.4083 12.4053H12.3498V22.0756C12.3498 22.894 13.0133 23.5576 13.8318 23.5576H21.5069V25.5917ZM23.9726 21.1493C23.9726 21.4563 23.7238 21.7051 23.4168 21.7051H14.7581C14.4511 21.7051 14.2023 21.4563 14.2023 21.1493V10.4083C14.2023 10.1013 14.4511 9.85254 14.7581 9.85254H19.4542C20.0156 12.1108 21.7514 13.9096 23.9726 14.5635V21.1493Z" fill="#130F40"/>
</svg>
