<svg width="19" height="20" viewBox="0 0 19 20" fill="none" xmlns="http://www.w3.org/2000/svg">
<path d="M18.369 6.12112C18.3677 9.13596 18.361 12.1509 18.3626 15.1657C18.3628 15.3973 18.3173 15.5411 18.0973 15.6661C15.6697 17.0449 13.0473 18.4383 10.6255 19.8277C10.5328 19.8809 10.4173 19.8125 10.4173 19.7057C10.4173 19.0135 10.4173 18.3791 10.4173 17.7448C10.4173 15.3527 10.419 12.9606 10.4145 10.5686C10.4141 10.3442 10.439 10.1817 10.6645 10.0533C13.1143 8.65747 15.7597 7.24846 18.2047 5.84372C18.2671 5.80787 18.3554 5.83137 18.3719 5.90141C18.3891 5.97468 18.3691 6.05122 18.369 6.12112ZM7.96852 10.4683C7.9595 13.4795 7.96219 16.4916 7.96133 19.5028L7.96137 19.8381C7.96137 19.8901 7.90501 19.9226 7.85999 19.8965C7.50548 19.6931 6.96943 19.5014 6.6369 19.3102C4.53028 18.0937 2.42468 16.876 0.315981 15.6626C0.127653 15.5547 -0.00200324 15.4584 2.3427e-05 15.1876C0.0164901 12.1165 0.0154768 9.04539 0.0205941 5.97429C0.0205941 5.8741 0.139769 5.81886 0.226584 5.86889C0.625472 6.09874 1.00506 6.31873 1.38621 6.53711C3.4105 7.70294 5.63644 8.86976 7.6628 10.0324C7.83785 10.1318 7.96959 10.2154 7.96852 10.4683ZM2.82814 9.5881C2.82504 9.08346 2.54101 8.7682 2.12524 8.76398C1.70019 8.76081 1.42751 9.06549 1.42234 9.57435C1.41514 10.3392 1.42026 11.1041 1.42026 11.8679C1.42026 12.6179 1.41509 13.369 1.42234 14.1191C1.42644 14.6248 1.70121 14.9453 2.11287 14.9496C2.52044 14.9538 2.82504 14.6259 2.82707 14.1318C2.83533 12.6169 2.83533 11.103 2.82814 9.5881ZM16.2725 4.39632C14.0185 5.69638 11.7615 6.99237 9.50854 8.29445C9.34235 8.39049 9.2135 8.45518 9.0119 8.33794C6.69299 6.99039 4.36719 5.65497 2.04432 4.31549C1.95494 4.26444 1.96563 4.13052 2.05493 4.07933C4.41686 2.72524 6.73698 1.39534 9.05522 0.0635629C9.18011 -0.00820797 9.27846 -0.0284163 9.41612 0.0514275C11.6843 1.36337 13.9552 2.66891 16.2245 3.97502C16.4148 4.08457 16.4629 4.28676 16.2725 4.39632ZM9.8173 2.00648C9.63439 1.6496 9.2361 1.54549 8.83188 1.76992C8.28904 2.07117 7.75304 2.38554 7.21415 2.69591C6.66441 3.01231 6.11174 3.32471 5.56591 3.6482C5.27382 3.82205 5.13124 4.092 5.22269 4.4357C5.30629 4.75211 5.52462 4.93205 5.91404 4.95533C5.99272 4.96747 6.1166 4.9169 6.23167 4.85122C7.32131 4.22648 8.41191 3.60372 9.49663 2.96888C9.87536 2.74752 9.99433 2.35018 9.8173 2.00648Z" fill="white"/>
</svg>
