<svg width="66" height="65" viewBox="0 0 66 65" fill="none" xmlns="http://www.w3.org/2000/svg">
<circle cx="33" cy="32.5" r="32.5" fill="#FF7A80"/>
<mask id="mask0_1_9951" style="mask-type:alpha" maskUnits="userSpaceOnUse" x="20" y="20" width="26" height="25">
<rect x="20.5" y="20" width="25" height="25" fill="white"/>
</mask>
<g mask="url(#mask0_1_9951)">
<path fill-rule="evenodd" clip-rule="evenodd" d="M39.1548 27.1284H26.8191C26.4147 27.1284 26.1113 27.457 26.1113 27.8362V30.2629C26.1113 30.6673 26.4399 30.9707 26.8191 30.9707H39.1548C39.5593 30.9707 39.8626 30.6421 39.8626 30.2629V27.8362C39.8879 27.457 39.5593 27.1284 39.1548 27.1284ZM27.4004 28.8221C27.1476 28.8221 26.9707 28.6199 26.9707 28.3924C26.9707 28.1396 27.1729 27.9626 27.4004 27.9626C27.6532 27.9626 27.8302 28.1649 27.8302 28.3924C27.8302 28.6452 27.6532 28.8221 27.4004 28.8221ZM37.9918 30.1112H34.8826V29.0748H37.9918L37.9918 30.1112Z" fill="white"/>
<path fill-rule="evenodd" clip-rule="evenodd" d="M39.1548 32.4116H26.8191C26.4147 32.4116 26.1113 32.7402 26.1113 33.1194V35.5461C26.1113 35.9505 26.4399 36.2539 26.8191 36.2539H39.1548C39.5593 36.2539 39.8626 35.9253 39.8626 35.5461V33.1194C39.8879 32.715 39.5593 32.4116 39.1548 32.4116ZM27.4004 34.1052C27.1476 34.1052 26.9707 33.903 26.9707 33.6755C26.9707 33.4227 27.1729 33.2458 27.4004 33.2458C27.6532 33.2458 27.8302 33.448 27.8302 33.6755C27.8302 33.903 27.6532 34.1052 27.4004 34.1052ZM37.9918 35.3692H34.8826V34.3328H37.9918L37.9918 35.3692Z" fill="white"/>
<path fill-rule="evenodd" clip-rule="evenodd" d="M39.1548 37.6694H26.8191C26.4147 37.6694 26.1113 37.998 26.1113 38.3772V40.8039C26.1113 41.2084 26.4399 41.5117 26.8191 41.5117H39.1548C39.5593 41.5117 39.8626 41.1831 39.8626 40.8039V38.3772C39.8879 37.998 39.5593 37.6694 39.1548 37.6694ZM27.4004 39.3631C27.1476 39.3631 26.9707 39.1608 26.9707 38.9333C26.9707 38.6805 27.1729 38.5036 27.4004 38.5036C27.6532 38.5036 27.8302 38.7058 27.8302 38.9333C27.8302 39.1608 27.6532 39.3631 27.4004 39.3631ZM37.9918 40.6522H34.8826V39.6158H37.9918L37.9918 40.6522Z" fill="white"/>
<path fill-rule="evenodd" clip-rule="evenodd" d="M40.2923 23.7159C40.1154 23.6906 39.9637 23.6148 39.8373 23.4631C38.8515 22.1234 37.259 21.3145 35.5653 21.3145C35.4642 21.3145 35.3631 21.3145 35.2367 21.3145C35.0851 21.3145 34.9334 21.2892 34.8323 21.1881C33.8212 20.4297 32.5825 20 31.2681 20C28.9425 20 26.8697 21.365 25.8838 23.4125C25.7827 23.5895 25.6058 23.7412 25.4036 23.7664C22.8505 24.1203 20.8535 26.3195 20.8535 28.999C20.8535 31.5521 22.6483 33.6754 25.0497 34.181V32.6138C25.0497 32.4115 25.075 32.2346 25.1508 32.0576C23.8616 31.6279 22.9263 30.4398 22.9263 28.999C22.9263 27.2295 24.3672 25.7887 26.1366 25.7887C26.2377 25.7887 26.3136 25.7887 26.3894 25.814C26.895 25.8645 27.35 25.5106 27.4764 25.0303C27.9567 23.2861 29.4986 22.0981 31.2681 22.0981C32.2792 22.0981 33.2398 22.4772 33.9728 23.2103C34.2256 23.4631 34.5795 23.5642 34.9081 23.4884C35.1356 23.4378 35.3378 23.4125 35.5653 23.4125C36.804 23.4125 37.9162 24.1203 38.447 25.2326C38.6493 25.637 39.0537 25.8645 39.4834 25.814C39.5846 25.814 39.7109 25.7887 39.8121 25.7887C41.5815 25.7887 43.0224 27.2295 43.0224 28.999C43.0224 30.4146 42.0871 31.6279 40.7979 32.0576C40.8485 32.2346 40.899 32.4115 40.899 32.6138V34.181C43.3004 33.6754 45.0952 31.5521 45.0952 28.999C45.1457 26.2184 42.9971 23.9434 40.2923 23.7159Z" fill="white"/>
<path fill-rule="evenodd" clip-rule="evenodd" d="M37.5621 43.1798H34.4276C34.3518 43.1798 34.3012 43.1293 34.2759 43.0787C34.0737 42.5731 33.5682 42.2192 32.9868 42.2192C32.4054 42.2192 31.8998 42.5731 31.6976 43.0787C31.6723 43.1292 31.6217 43.1798 31.5459 43.1798H28.4114C28.3356 43.1798 28.2598 43.2556 28.2598 43.3315V43.8876C28.2598 43.9634 28.3356 44.0393 28.4114 44.0393H31.5712C31.647 44.0393 31.6976 44.0898 31.7229 44.1404C31.9251 44.6459 32.4306 44.9998 33.012 44.9998C33.5934 44.9998 34.099 44.6459 34.3012 44.1404C34.3265 44.0898 34.3771 44.0393 34.4529 44.0393H37.5874C37.6632 44.0393 37.739 43.9634 37.739 43.8876V43.3315C37.7138 43.2304 37.6379 43.1798 37.5621 43.1798ZM32.9869 44.2162C32.633 44.2162 32.355 43.9381 32.355 43.5842C32.355 43.2303 32.633 42.9523 32.9869 42.9523C33.3408 42.9523 33.6189 43.2303 33.6189 43.5842C33.6189 43.9381 33.3408 44.2162 32.9869 44.2162Z" fill="white"/>
</g>
</svg>
