<svg width="422" height="553" viewBox="0 0 422 553" fill="none" xmlns="http://www.w3.org/2000/svg">
<path fill-rule="evenodd" clip-rule="evenodd" d="M408.258 1.44043H275.141V185.193H408.258V1.44043Z" fill="white" stroke="black" stroke-width="2.5" stroke-linecap="round" stroke-linejoin="round"/>
<path fill-rule="evenodd" clip-rule="evenodd" d="M397.881 11.1318H285.519V175.49H397.881V11.1318Z" fill="white" stroke="black" stroke-width="2.5" stroke-linecap="round" stroke-linejoin="round"/>
<path d="M326.489 11.1318C326.489 11.1318 312.055 58.5879 358.919 85.4363C398.724 108.249 387.783 159.417 365.181 175.053" stroke="black" stroke-width="2.5" stroke-linecap="round" stroke-linejoin="round"/>
<path d="M308.084 11.1318C308.084 11.1318 292.919 45.0105 316.092 72.8667C339.266 100.723 318.322 132.136 285.519 122.351" stroke="black" stroke-width="2.5" stroke-linecap="round" stroke-linejoin="round"/>
<path fill-rule="evenodd" clip-rule="evenodd" d="M367.387 51.6207C361.496 51.6207 356.72 46.8452 356.72 40.9539C356.72 35.0627 361.496 30.2871 367.387 30.2871C373.278 30.2871 378.054 35.0627 378.054 40.9539C378.054 46.8452 373.278 51.6207 367.387 51.6207Z" fill="black"/>
<path fill-rule="evenodd" clip-rule="evenodd" d="M127.451 79.7935H59.3587V88.0054H127.451V79.7935Z" fill="black" stroke="black" stroke-width="2" stroke-linecap="round" stroke-linejoin="round"/>
<path fill-rule="evenodd" clip-rule="evenodd" d="M146.653 76.0253L155.428 85.5941L180.258 97.3511L143.553 137.383L132.771 110.301L123.996 100.732C120.99 97.4561 119.301 93.0127 119.301 88.3786C119.301 83.7445 120.99 79.3004 123.996 76.0253C127 72.7488 131.076 70.9077 135.325 70.9077C139.574 70.9077 143.648 72.7481 146.653 76.0253Z" fill="white" stroke="black" stroke-width="2" stroke-linecap="round" stroke-linejoin="round"/>
<path fill-rule="evenodd" clip-rule="evenodd" d="M145.84 140.793C138.342 132.616 140.67 116.82 151.041 105.511C161.411 94.2026 175.897 91.663 183.395 99.84C190.893 108.016 188.565 123.813 178.194 135.122C167.824 146.43 153.338 148.97 145.84 140.793Z" fill="black" stroke="black" stroke-width="2" stroke-linecap="round" stroke-linejoin="round"/>
<path d="M143.134 86.8351L133.601 76.4399" stroke="black" stroke-width="2" stroke-linecap="round" stroke-linejoin="round"/>
<path d="M140.059 90.1871L130.526 79.792" stroke="black" stroke-width="2" stroke-linecap="round" stroke-linejoin="round"/>
<path d="M136.987 93.5392L127.455 83.144" stroke="black" stroke-width="2" stroke-linecap="round" stroke-linejoin="round"/>
<path d="M133.912 96.8907L124.379 86.4956" stroke="black" stroke-width="2" stroke-linecap="round" stroke-linejoin="round"/>
<path fill-rule="evenodd" clip-rule="evenodd" d="M175.679 113.613C179.752 118.055 180.41 125.002 177.257 130.258C174.103 135.514 168.001 137.639 162.639 135.348C157.276 133.057 154.12 126.979 155.079 120.786L146.901 111.869C149.533 107.562 152.921 103.867 156.87 100.998L165.048 109.916C168.931 109.195 172.895 110.573 175.679 113.613Z" fill="white"/>
<path d="M151.389 105.896L164.77 120.493" stroke="black" stroke-width="2" stroke-linecap="round" stroke-linejoin="round"/>
<path d="M163.615 126.114C162.51 124.909 163.098 122.315 164.928 120.319C166.757 118.324 169.137 117.682 170.242 118.888C171.347 120.093 170.759 122.687 168.93 124.683C167.1 126.678 164.721 127.32 163.615 126.114Z" stroke="black" stroke-width="2" stroke-linecap="round" stroke-linejoin="round"/>
<path fill-rule="evenodd" clip-rule="evenodd" d="M115.713 374.474H124.673L62.1392 88.0059H53.1788L115.713 374.474Z" fill="black" stroke="black" stroke-width="2" stroke-linecap="round" stroke-linejoin="round"/>
<path fill-rule="evenodd" clip-rule="evenodd" d="M57.6589 96.9617C51.0418 96.9617 45.6782 91.1121 45.6782 83.8971C45.6782 76.6821 51.0418 70.8325 57.6589 70.8325C64.276 70.8325 69.6396 76.6821 69.6396 83.8971C69.6396 91.1121 64.276 96.9617 57.6589 96.9617Z" fill="white" stroke="black" stroke-width="2" stroke-linecap="round" stroke-linejoin="round"/>
<path fill-rule="evenodd" clip-rule="evenodd" d="M57.6604 90.1841C54.4763 90.1841 51.896 87.3697 51.896 83.8982C51.896 80.4268 54.4769 77.6123 57.6604 77.6123C60.8445 77.6123 63.4248 80.4268 63.4248 83.8982C63.4248 87.3697 60.8445 90.1841 57.6604 90.1841Z" fill="white" stroke="black" stroke-width="2" stroke-linecap="round" stroke-linejoin="round"/>
<path fill-rule="evenodd" clip-rule="evenodd" d="M133.473 375.299H111.146C103.837 375.299 97.9114 381.761 97.9114 389.732V407.672H146.708V389.732C146.708 381.761 140.783 375.299 133.473 375.299Z" fill="black" stroke="black" stroke-width="2" stroke-linecap="round" stroke-linejoin="round"/>
<path fill-rule="evenodd" clip-rule="evenodd" d="M155.443 397.756H89.1721V407.67H155.443V397.756Z" fill="black" stroke="black" stroke-width="2" stroke-linecap="round" stroke-linejoin="round"/>
<path d="M343.231 256.818L409.668 407.304H193.931L127.519 256.818H343.231ZM201.215 397.106H391.781L335.694 270.069H145.129L201.215 397.106Z" fill="black" stroke="black" stroke-width="2" stroke-linecap="round" stroke-linejoin="round"/>
<path fill-rule="evenodd" clip-rule="evenodd" d="M90.4479 407.676H308.191C314.287 407.676 321.026 402.287 323.243 395.639L372.868 246.981C375.085 240.339 371.945 234.944 365.844 234.944H148.101C142.005 234.944 135.267 240.333 133.049 246.981L83.4293 395.639C81.2216 402.287 84.3521 407.676 90.4479 407.676Z" fill="black" stroke="black" stroke-width="2" stroke-linecap="round" stroke-linejoin="round"/>
<path fill-rule="evenodd" clip-rule="evenodd" d="M83.6025 407.676H301.347C307.443 407.676 314.181 402.287 316.398 395.639L366.017 246.981C368.235 240.339 365.094 234.944 358.994 234.944H141.25C135.154 234.944 128.416 240.333 126.198 246.981L76.5786 395.639C74.3657 402.287 77.5113 407.676 83.6025 407.676Z" fill="white" stroke="black" stroke-width="2" stroke-linecap="round" stroke-linejoin="round"/>
<path fill-rule="evenodd" clip-rule="evenodd" d="M89.6389 397.766H273.336C276.07 397.766 279.091 395.348 280.084 392.371L327.516 250.25C328.519 247.274 327.105 244.861 324.371 244.861H140.673C137.944 244.861 134.924 247.274 133.925 250.25L86.4928 392.365C85.5 395.342 86.9093 397.766 89.6389 397.766Z" fill="white" stroke="black" stroke-width="2" stroke-linecap="round" stroke-linejoin="round"/>
<path fill-rule="evenodd" clip-rule="evenodd" d="M311.199 331.583C307.572 326.843 309.694 318.395 315.938 312.713C322.183 307.032 330.185 306.268 333.812 311.009C337.438 315.748 335.316 324.197 329.071 329.879C322.827 335.56 314.825 336.323 311.199 331.583Z" fill="black"/>
<path fill-rule="evenodd" clip-rule="evenodd" d="M316.267 326.97C314.267 324.356 315.438 319.695 318.882 316.561C322.326 313.427 326.741 313.007 328.741 315.621C330.741 318.236 329.571 322.896 326.127 326.03C322.683 329.164 318.269 329.585 316.267 326.97Z" fill="white" stroke="black" stroke-width="2"/>
<path fill-rule="evenodd" clip-rule="evenodd" d="M326.608 292.244H337.811C339.753 292.244 341.905 290.526 342.613 288.414C343.32 286.292 342.317 284.584 340.375 284.584H329.172C327.226 284.584 325.073 286.303 324.366 288.414C323.658 290.538 324.662 292.244 326.608 292.244Z" fill="white" stroke="black" stroke-width="2"/>
<path fill-rule="evenodd" clip-rule="evenodd" d="M334.084 269.836H345.293C347.239 269.836 349.387 268.117 350.095 266.006C350.802 263.883 349.799 262.176 347.857 262.176H336.653C334.707 262.176 332.554 263.894 331.847 266.006C331.139 268.107 332.142 269.836 334.084 269.836Z" fill="white" stroke="black" stroke-width="2"/>
<path fill-rule="evenodd" clip-rule="evenodd" d="M297.159 380.471H308.367C310.309 380.471 312.461 378.753 313.169 376.641C313.876 374.524 312.873 372.811 310.927 372.811H299.723C297.781 372.811 295.629 374.529 294.921 376.641C294.214 378.753 295.217 380.471 297.159 380.471Z" fill="white" stroke="black" stroke-width="2"/>
<path fill-rule="evenodd" clip-rule="evenodd" d="M304.64 358.06H315.849C317.79 358.06 319.942 356.337 320.65 354.23C321.358 352.108 320.354 350.4 318.408 350.4H307.205C305.263 350.4 303.111 352.119 302.403 354.23C301.695 356.337 302.698 358.06 304.64 358.06Z" fill="white" stroke="black" stroke-width="2"/>
<path fill-rule="evenodd" clip-rule="evenodd" d="M199.365 357.658H245.894L264.457 302.029L248.974 278.717L217.933 302.029L199.365 357.658Z" fill="white" stroke="black" stroke-width="2" stroke-linecap="round" stroke-linejoin="round"/>
<path fill-rule="evenodd" clip-rule="evenodd" d="M154.16 357.657H199.364L215.815 308.363H170.611L154.16 357.657Z" fill="white" stroke="black" stroke-width="2" stroke-linecap="round" stroke-linejoin="round"/>
<path fill-rule="evenodd" clip-rule="evenodd" d="M162.228 314.808H213.668L215.815 308.363H164.38L162.228 314.808Z" fill="white" stroke="black" stroke-width="2" stroke-linecap="round" stroke-linejoin="round"/>
<path d="M204.441 314.808L190.138 357.657" stroke="black" stroke-width="2" stroke-linecap="round" stroke-linejoin="round"/>
<path d="M191.508 314.736L177.209 357.585" stroke="black" stroke-width="2" stroke-linecap="round" stroke-linejoin="round"/>
<path d="M178.578 314.663L164.274 357.512" stroke="black" stroke-width="2" stroke-linecap="round" stroke-linejoin="round"/>
<path fill-rule="evenodd" clip-rule="evenodd" d="M211.973 357.514H245.939L259.852 315.842H225.881L211.973 357.514Z" fill="white" stroke="black" stroke-width="2" stroke-linecap="round" stroke-linejoin="round"/>
<path fill-rule="evenodd" clip-rule="evenodd" d="M219.795 357.517H238.117L248.618 326.053H230.301L219.795 357.517Z" fill="black"/>
<path d="M233.963 256.12L276.829 320.651" stroke="black" stroke-width="2" stroke-linecap="round" stroke-linejoin="round"/>
<path fill-rule="evenodd" clip-rule="evenodd" d="M264.523 357.517H137.189H264.523Z" fill="white"/>
<path d="M264.523 357.517H137.189" stroke="black" stroke-width="2" stroke-linecap="round" stroke-linejoin="round"/>
<path fill-rule="evenodd" clip-rule="evenodd" d="M31.6327 455.463C31.6327 455.463 58.6854 452.323 62.2677 453.275C65.85 454.227 70.5207 478.371 58.0933 478.939C51.8619 479.223 33.0932 479.071 31.0008 478.994C21.0921 478.666 21.7339 456.41 31.6327 455.463Z" fill="white" stroke="black" stroke-width="2" stroke-linecap="round" stroke-linejoin="round"/>
<path fill-rule="evenodd" clip-rule="evenodd" d="M34.3823 455.169C34.3823 455.169 36.7407 458.452 36.8906 467.063C36.8684 471.335 35.8493 475.53 33.9305 479.253C33.9305 479.253 23.2137 482.705 18.3924 493.51C13.571 504.315 4.30415 501.34 2.65839 500.201C1.01262 499.063 3.47634 461.395 9.68217 453.895C14.7052 447.888 34.3823 455.169 34.3823 455.169Z" fill="white" stroke="black" stroke-width="2" stroke-linecap="round" stroke-linejoin="round"/>
<path fill-rule="evenodd" clip-rule="evenodd" d="M8.61934 496.32C11.1728 489.049 15.4781 477.171 17.615 466.738C19.7526 456.305 18.6183 448.88 11.0929 452.174C2.34801 456.004 -0.446444 488.086 0.0552082 495.231C0.556208 502.376 6.05017 503.623 8.61934 496.32Z" fill="black"/>
<path fill-rule="evenodd" clip-rule="evenodd" d="M156.253 369.185C156.253 369.185 145.215 422.801 139.917 444.264C134.358 466.827 132.828 485.297 112.594 486.578C92.3603 487.858 50.8128 479.602 46.5789 479.465C50.9136 475.986 53.8136 461.685 49.0223 453.084C54.1397 452.657 92.7015 449.046 92.7015 449.046L109.037 361.378L156.253 369.185Z" fill="black"/>
<path fill-rule="evenodd" clip-rule="evenodd" d="M87.445 459.518C87.445 459.518 114.262 455.842 117.954 455.798C126.187 455.705 130.497 482.157 115.084 483.082C108.858 483.454 89.9133 483.044 87.8058 483.082C77.9123 483.229 77.5959 460.968 87.445 459.518Z" fill="white" stroke="black" stroke-width="2" stroke-linecap="round" stroke-linejoin="round"/>
<path fill-rule="evenodd" clip-rule="evenodd" d="M90.1784 459.085C90.1784 459.085 92.6867 462.241 93.189 470.837C93.3521 475.107 92.5125 479.351 90.7508 483.169C90.7508 483.169 80.2149 487.157 75.8801 498.214C71.5453 509.271 62.4645 506.76 60.7735 505.709C59.0826 504.659 59.6045 466.892 65.4999 459.085C70.2152 452.809 90.1784 459.085 90.1784 459.085Z" fill="white" stroke="black" stroke-width="2" stroke-linecap="round" stroke-linejoin="round"/>
<path fill-rule="evenodd" clip-rule="evenodd" d="M66.202 501.502C68.4444 494.105 72.2225 482.025 73.9285 471.499C75.6345 460.972 74.1545 453.609 66.8091 457.274C58.2398 461.553 56.7748 493.733 57.6327 500.84C58.4906 507.947 63.9544 508.926 66.202 501.502Z" fill="black"/>
<path d="M69.3438 456.309C69.3438 456.309 63.8249 456.44 60.98 466.934C58.1352 477.427 58.1404 482.57 58.1404 482.57" stroke="white" stroke-width="2" stroke-linecap="round" stroke-linejoin="round"/>
<path fill-rule="evenodd" clip-rule="evenodd" d="M178.145 363.845C178.145 363.845 197.736 426.143 200.792 446.079C204.324 469.124 189.479 487.49 169.239 486.395C145.122 485.055 112.36 484.267 108.206 483.359C111.462 477.176 111.101 463.116 105.07 456.868C109.997 455.298 154.559 447.955 154.559 447.955L124.05 370.491L178.145 363.845Z" fill="black"/>
<path d="M114.296 393.591L137.872 405.589L146.692 428.288" stroke="white" stroke-width="2" stroke-linecap="round" stroke-linejoin="round"/>
<path d="M139.713 450.422L109.279 455.702" stroke="white" stroke-width="2" stroke-linecap="round" stroke-linejoin="round"/>
<path fill-rule="evenodd" clip-rule="evenodd" d="M235.427 286.706C235.427 286.706 224.414 307.441 216.623 319.631C203.041 340.869 189.029 334.95 182.145 330.102C172.778 323.51 159.568 315.768 159.568 315.768L180.81 293.659L197.502 303.72C197.502 303.72 232.286 265.023 242.25 263.781C246.234 263.284 250.588 271.911 253.369 275.501C255.2 277.864 251.306 280.972 248.702 277.448C246.535 274.51 245.747 272.07 242.988 273.695C241.603 274.51 237.665 277.733 242.25 280.365C246.314 282.701 248.702 284.485 246.49 286.683C245.05 288.112 235.427 286.706 235.427 286.706Z" fill="white" stroke="black" stroke-width="2" stroke-linecap="round" stroke-linejoin="round"/>
<path fill-rule="evenodd" clip-rule="evenodd" d="M171.184 328.226C171.184 328.226 137.092 308.634 135.316 293.61C133.811 280.77 142.842 266.425 162.795 277.816C182.748 289.206 192.943 294.283 191.684 299.476C189.677 307.803 179.266 325.458 174.852 327.882C173.729 328.559 172.396 328.684 171.184 328.226Z" fill="#7B4CFF"/>
<path d="M197.413 303.702C197.413 303.702 201.723 305.994 203.936 310.07" stroke="black" stroke-width="2" stroke-linecap="round" stroke-linejoin="round"/>
<path d="M167.165 325.78L144.187 308.054" stroke="white" stroke-width="2" stroke-linecap="round" stroke-linejoin="round"/>
<path fill-rule="evenodd" clip-rule="evenodd" d="M252.652 291.816L259.33 295.257L257.158 287.849L233.753 256.243C232.75 254.887 230.928 254.674 229.684 255.767C228.44 256.861 228.245 258.847 229.247 260.204L252.652 291.816Z" fill="black"/>
<path fill-rule="evenodd" clip-rule="evenodd" d="M163.387 269.271L172.694 244.652L193.896 254.648L187.133 275.903C185.976 279.494 187.429 283.466 190.535 285.204L192.346 286.216C192.346 286.216 188.624 288.913 171.591 283.481C158.009 279.104 154.357 273.803 154.357 273.803L156.439 273.972C159.442 274.199 162.241 272.306 163.387 269.271Z" fill="white" stroke="black" stroke-width="2"/>
<path fill-rule="evenodd" clip-rule="evenodd" d="M127.817 285.447C140.144 271.469 154.437 273.187 154.437 273.187L192.663 285.65C192.663 285.65 220.082 301.576 204.027 339.556C200.435 348.052 190.481 363.273 183.281 373.012C180.13 377.28 175.525 378.423 170.558 379.265C146.917 383.286 113.789 373.088 113.789 373.088C107.192 371.283 105.355 366.452 106.078 360.801C108.536 341.504 115.153 299.836 127.817 285.447Z" fill="white" stroke="black" stroke-width="2" stroke-linecap="round" stroke-linejoin="round"/>
<path fill-rule="evenodd" clip-rule="evenodd" d="M230.036 353.575L220.053 333.119L193.517 344.608C193.517 344.608 200.446 359.511 205.829 370.355C210.469 379.705 220.549 389.782 241.119 376.854C259.131 365.529 273.124 355.058 273.124 355.058C273.124 355.058 284.819 355.808 285.666 354.959C286.514 354.111 276.886 349.789 276.886 349.789C276.886 349.789 287.637 352.07 287.467 351.162C287.297 350.254 278.517 346.561 278.517 346.561C278.517 346.561 286.825 348.541 288.757 346.719C290.688 344.898 278.155 341.795 278.155 341.795C278.155 341.795 285.997 338.551 286.489 336.795C286.981 335.039 273.63 338.983 272.15 339.53C271.964 339.606 274.312 333.988 272.546 333.321C270.419 332.516 265.918 341.084 265.241 341.314C254.098 345.128 230.036 353.575 230.036 353.575Z" fill="white" stroke="black" stroke-width="2" stroke-linecap="round" stroke-linejoin="round"/>
<path fill-rule="evenodd" clip-rule="evenodd" d="M193.206 351.509C193.206 351.509 173.599 315.822 178.697 301.723C182.309 291.755 197.26 284.216 207.249 301.072C219.491 321.708 227.85 334.527 224.308 338.274C218.663 344.293 201.429 353.631 196.498 353.243C195.225 353.197 194.03 352.567 193.206 351.509Z" fill="white" stroke="black" stroke-width="2" stroke-linecap="round" stroke-linejoin="round"/>
<path d="M230.036 353.578C230.036 353.578 231.286 358.622 229.906 363.103" stroke="black" stroke-width="2" stroke-linecap="round" stroke-linejoin="round"/>
<path d="M190.907 347.161L179.519 319.095" stroke="white" stroke-width="2" stroke-linecap="round" stroke-linejoin="round"/>
<path fill-rule="evenodd" clip-rule="evenodd" d="M177.015 233.171C177.015 233.171 166.981 256.242 178.967 270.04C190.953 283.838 209.07 278.181 213.886 262.118L214.122 262.195C215.042 262.463 216.022 262.14 216.652 261.361C217.281 260.581 217.452 259.48 217.092 258.518L215.456 254.344C218.392 240.935 217.107 232.291 217.107 232.291C217.107 232.291 205.112 243.484 177.015 233.171Z" fill="white" stroke="black" stroke-width="2"/>
<path fill-rule="evenodd" clip-rule="evenodd" d="M208.431 253.511C207.508 253.511 206.76 252.696 206.76 251.689C206.76 250.683 207.508 249.868 208.431 249.868C209.354 249.868 210.102 250.683 210.102 251.689C210.102 252.696 209.354 253.511 208.431 253.511Z" fill="black"/>
<path d="M206.786 242.336C206.786 242.336 210.077 241.357 212.209 244.026" stroke="black" stroke-width="2" stroke-linecap="round" stroke-linejoin="round"/>
<path fill-rule="evenodd" clip-rule="evenodd" d="M204.599 262.868C202.425 262.868 200.661 260.945 200.661 258.573C200.661 256.201 202.425 254.278 204.599 254.278C206.774 254.278 208.538 256.201 208.538 258.573C208.538 260.945 206.775 262.868 204.599 262.868Z" fill="#FFFBF6"/>
<path fill-rule="evenodd" clip-rule="evenodd" d="M178.662 277.613L143.241 256.746C143.241 256.746 152.693 208.803 178.993 202.583C206.306 196.121 217.811 219.056 217.811 219.056C217.811 219.056 233.283 230.573 216.853 246.138C216.853 246.138 218.559 240.344 217.109 232.286C217.109 232.286 208.479 246.38 190.101 243.851C190.101 243.851 184.527 237.751 180.834 244.158C177.322 250.225 179.931 256.61 186.268 257.726L178.662 277.613Z" fill="black"/>
<path d="M186.411 247.15C186.411 247.15 189.979 248.863 189.377 254.427" stroke="black" stroke-width="2" stroke-linecap="round" stroke-linejoin="round"/>
<path d="M189.252 251.297C189.252 251.297 187.712 249.624 185.74 250.515" stroke="black" stroke-width="2" stroke-linecap="round" stroke-linejoin="round"/>
<path d="M193.245 250.657C193.245 250.657 193.562 246.8 190.1 243.856" stroke="black" stroke-width="2" stroke-linecap="round" stroke-linejoin="round"/>
<path d="M199.307 270.375C199.307 270.375 196.296 268.186 198.278 263.744" stroke="black" stroke-width="2" stroke-linecap="round" stroke-linejoin="round"/>
<path fill-rule="evenodd" clip-rule="evenodd" d="M396.373 511.357H358.93C358.881 511.357 358.831 511.358 358.781 511.361C358.732 511.363 358.683 511.366 358.634 511.371C358.584 511.376 358.535 511.382 358.487 511.389C358.438 511.396 358.389 511.405 358.34 511.415C358.292 511.425 358.243 511.435 358.195 511.448C358.147 511.46 358.099 511.473 358.052 511.487C358.005 511.501 357.958 511.517 357.911 511.533C357.865 511.55 357.818 511.568 357.773 511.587C357.727 511.606 357.682 511.626 357.637 511.647C357.593 511.668 357.549 511.69 357.505 511.713C357.462 511.737 357.418 511.761 357.376 511.786C357.333 511.812 357.292 511.838 357.25 511.865C357.209 511.893 357.169 511.921 357.129 511.951C357.089 511.98 357.05 512.011 357.012 512.043C356.973 512.074 356.936 512.106 356.9 512.14C356.863 512.173 356.828 512.207 356.792 512.242C356.757 512.277 356.723 512.312 356.69 512.349C356.656 512.385 356.624 512.423 356.593 512.461C356.561 512.5 356.531 512.538 356.501 512.578C356.472 512.618 356.443 512.658 356.416 512.7C356.388 512.741 356.362 512.782 356.336 512.825C356.311 512.867 356.286 512.911 356.263 512.954C356.24 512.998 356.218 513.042 356.196 513.087C356.176 513.132 356.156 513.177 356.136 513.223C356.118 513.269 356.1 513.315 356.083 513.362C356.066 513.408 356.051 513.455 356.036 513.502C356.021 513.549 356.009 513.597 355.997 513.645C355.985 513.693 355.974 513.741 355.965 513.79C355.956 513.839 355.947 513.887 355.94 513.936C355.933 513.986 355.926 514.034 355.921 514.084C355.916 514.133 355.913 514.182 355.911 514.231C355.909 514.281 355.907 514.33 355.907 514.38V514.381C355.907 514.43 355.909 514.479 355.911 514.529C355.913 514.578 355.916 514.628 355.921 514.677C355.926 514.726 355.933 514.776 355.94 514.824C355.947 514.873 355.956 514.922 355.965 514.971C355.974 515.019 355.986 515.067 355.997 515.115C356.009 515.164 356.022 515.211 356.036 515.258C356.051 515.305 356.066 515.353 356.083 515.399C356.1 515.445 356.118 515.492 356.136 515.538C356.156 515.583 356.176 515.628 356.196 515.673C356.218 515.718 356.24 515.762 356.263 515.806C356.286 515.85 356.311 515.892 356.336 515.935C356.362 515.977 356.388 516.02 356.416 516.06C356.443 516.102 356.471 516.142 356.501 516.182C356.531 516.222 356.561 516.26 356.593 516.299C356.624 516.337 356.656 516.375 356.69 516.411C356.723 516.447 356.757 516.483 356.792 516.518C356.827 516.553 356.863 516.587 356.9 516.62C356.936 516.654 356.974 516.686 357.012 516.717C357.05 516.749 357.089 516.779 357.129 516.809C357.169 516.838 357.209 516.867 357.25 516.894C357.291 516.922 357.333 516.949 357.376 516.974C357.418 516.999 357.462 517.024 357.505 517.047C357.549 517.07 357.593 517.092 357.637 517.113C357.682 517.134 357.727 517.154 357.773 517.173C357.819 517.192 357.865 517.209 357.911 517.227C357.958 517.243 358.004 517.259 358.052 517.273C358.099 517.287 358.147 517.301 358.195 517.312C358.243 517.324 358.292 517.335 358.34 517.345C358.389 517.355 358.437 517.363 358.487 517.371C358.536 517.379 358.584 517.384 358.634 517.389C358.683 517.394 358.732 517.397 358.781 517.399C358.831 517.401 358.881 517.403 358.93 517.403H396.373C396.422 517.403 396.471 517.401 396.521 517.399C396.571 517.397 396.62 517.393 396.669 517.389C396.718 517.384 396.768 517.378 396.816 517.371C396.865 517.364 396.914 517.355 396.963 517.345C397.011 517.335 397.059 517.324 397.108 517.312C397.155 517.3 397.203 517.287 397.25 517.273C397.298 517.259 397.345 517.243 397.391 517.227C397.438 517.21 397.484 517.192 397.53 517.173C397.575 517.154 397.62 517.134 397.665 517.113C397.71 517.092 397.755 517.069 397.798 517.047C397.842 517.023 397.885 516.999 397.927 516.974C397.97 516.948 398.012 516.922 398.053 516.894C398.095 516.867 398.135 516.839 398.175 516.809C398.215 516.779 398.253 516.749 398.292 516.717C398.33 516.686 398.367 516.654 398.404 516.62C398.44 516.587 398.477 516.553 398.512 516.518C398.547 516.483 398.581 516.447 398.614 516.411C398.647 516.375 398.679 516.337 398.711 516.299C398.742 516.261 398.773 516.222 398.802 516.182C398.832 516.142 398.86 516.102 398.888 516.06C398.915 516.019 398.942 515.977 398.967 515.935C398.993 515.893 399.017 515.85 399.04 515.806C399.064 515.763 399.086 515.718 399.107 515.673C399.128 515.628 399.148 515.583 399.167 515.538C399.185 515.492 399.203 515.445 399.22 515.399C399.236 515.353 399.252 515.305 399.267 515.258C399.281 515.211 399.294 515.163 399.306 515.115C399.317 515.068 399.329 515.019 399.339 514.971C399.349 514.922 399.356 514.873 399.364 514.824C399.372 514.775 399.378 514.726 399.382 514.677C399.387 514.628 399.391 514.578 399.393 514.529C399.395 514.48 399.396 514.431 399.396 514.381V514.38C399.396 514.331 399.395 514.281 399.393 514.231C399.391 514.182 399.386 514.133 399.382 514.084C399.377 514.034 399.371 513.985 399.364 513.936C399.357 513.887 399.349 513.839 399.339 513.79C399.329 513.741 399.318 513.693 399.306 513.645C399.294 513.597 399.281 513.549 399.267 513.502C399.252 513.455 399.236 513.408 399.22 513.362C399.204 513.315 399.186 513.269 399.167 513.223C399.148 513.177 399.127 513.132 399.107 513.087C399.085 513.042 399.063 512.999 399.04 512.954C399.017 512.911 398.992 512.868 398.967 512.825C398.942 512.783 398.915 512.741 398.888 512.7C398.861 512.658 398.832 512.618 398.802 512.578C398.773 512.538 398.742 512.5 398.711 512.461C398.679 512.422 398.647 512.385 398.614 512.349C398.58 512.312 398.547 512.277 398.512 512.242C398.477 512.207 398.441 512.172 398.404 512.14C398.367 512.106 398.33 512.074 398.292 512.043C398.253 512.011 398.215 511.98 398.175 511.951C398.135 511.922 398.095 511.893 398.053 511.865C398.012 511.838 397.97 511.811 397.927 511.786C397.885 511.76 397.842 511.736 397.798 511.713C397.755 511.69 397.71 511.668 397.665 511.647C397.62 511.626 397.575 511.605 397.53 511.587C397.484 511.568 397.438 511.55 397.391 511.533C397.345 511.517 397.298 511.501 397.25 511.487C397.203 511.473 397.155 511.459 397.108 511.448C397.06 511.435 397.011 511.425 396.963 511.415C396.914 511.405 396.866 511.397 396.816 511.389C396.767 511.381 396.718 511.376 396.669 511.371C396.62 511.366 396.571 511.363 396.521 511.361C396.471 511.358 396.422 511.357 396.373 511.357Z" fill="black"/>
<path fill-rule="evenodd" clip-rule="evenodd" d="M371.44 551.44H383.861C388.527 551.44 392.928 549.269 395.767 545.566C398.607 541.864 399.563 537.052 398.355 532.545L394.307 517.394H360.995L356.946 532.545C355.74 537.052 356.697 541.864 359.536 545.565C362.376 549.267 366.775 551.437 371.44 551.44Z" fill="black"/>
<path d="M394.308 517.402H375.971" stroke="white" stroke-width="2" stroke-linecap="round" stroke-linejoin="round"/>
<path d="M410.172 551.439H353.957" stroke="black" stroke-width="2" stroke-linecap="round" stroke-linejoin="round"/>
<path d="M345.571 551.439H329.228" stroke="black" stroke-width="2" stroke-linecap="round" stroke-linejoin="round"/>
<path fill-rule="evenodd" clip-rule="evenodd" d="M376.82 447.482C374.535 456.52 385.587 481.626 385.587 481.626C385.587 481.626 407.257 464.797 409.547 455.759C411.833 446.722 406.359 437.543 397.322 435.257C388.286 432.971 379.105 438.445 376.82 447.482Z" fill="#FFA733"/>
<path fill-rule="evenodd" clip-rule="evenodd" d="M348.838 472.08C350.926 480.38 370.72 495.887 370.72 495.887C370.72 495.887 380.963 472.885 378.894 464.576C376.75 456.364 368.396 451.406 360.16 453.46C351.924 455.514 346.875 463.814 348.839 472.071V472.08H348.838Z" fill="#FFA733"/>
<path fill-rule="evenodd" clip-rule="evenodd" d="M392.547 447.39L375.969 526.278L392.547 447.39Z" fill="white"/>
<path d="M392.547 447.39L375.969 526.278" stroke="black" stroke-width="2" stroke-linecap="round" stroke-linejoin="round"/>
<path fill-rule="evenodd" clip-rule="evenodd" d="M406.614 468.478C400.87 470.777 391.715 486.517 391.715 486.517C391.715 486.517 409.206 491.569 414.951 489.275C420.694 486.973 423.483 480.451 421.181 474.708C418.878 468.966 412.357 466.176 406.614 468.478Z" fill="#FFA733"/>
<path fill-rule="evenodd" clip-rule="evenodd" d="M383.354 491.14L414.871 475.691L383.354 491.14Z" fill="white"/>
<path d="M383.354 491.14L414.871 475.691" stroke="black" stroke-width="2" stroke-linecap="round" stroke-linejoin="round"/>
<path fill-rule="evenodd" clip-rule="evenodd" d="M374.709 513.77L359.841 455.374L374.709 513.77Z" fill="white"/>
<path d="M374.709 513.77L359.841 455.374" stroke="black" stroke-width="2" stroke-linecap="round" stroke-linejoin="round"/>
<path fill-rule="evenodd" clip-rule="evenodd" d="M404.416 480.813L405.141 471.515L404.416 480.813Z" fill="white"/>
<path d="M404.416 480.813L405.141 471.515" stroke="black" stroke-width="2" stroke-linecap="round" stroke-linejoin="round"/>
<path fill-rule="evenodd" clip-rule="evenodd" d="M397.474 484.371L413.709 486.544L397.474 484.371Z" fill="white"/>
<path d="M397.474 484.371L413.709 486.544" stroke="black" stroke-width="2" stroke-linecap="round" stroke-linejoin="round"/>
<path fill-rule="evenodd" clip-rule="evenodd" d="M374.709 469.983L366.319 480.811L374.709 469.983Z" fill="white"/>
<path d="M374.709 469.983L366.319 480.811" stroke="black" stroke-width="2" stroke-linecap="round" stroke-linejoin="round"/>
<path fill-rule="evenodd" clip-rule="evenodd" d="M364.332 473.012L350.652 468.725L364.332 473.012Z" fill="white"/>
<path d="M364.332 473.012L350.652 468.725" stroke="black" stroke-width="2" stroke-linecap="round" stroke-linejoin="round"/>
<path fill-rule="evenodd" clip-rule="evenodd" d="M366.32 458.842L361.988 463.79L366.32 458.842Z" fill="white"/>
<path d="M366.32 458.842L361.988 463.79" stroke="black" stroke-width="2" stroke-linecap="round" stroke-linejoin="round"/>
<path fill-rule="evenodd" clip-rule="evenodd" d="M387.797 469.983L399.111 466.209L387.797 469.983Z" fill="white"/>
<path d="M387.797 469.983L399.111 466.209" stroke="black" stroke-width="2" stroke-linecap="round" stroke-linejoin="round"/>
<path fill-rule="evenodd" clip-rule="evenodd" d="M389.781 460.544L381.472 449.387L389.781 460.544Z" fill="white"/>
<path d="M389.781 460.544L381.472 449.387" stroke="black" stroke-width="2" stroke-linecap="round" stroke-linejoin="round"/>
</svg>
