<svg width="20" height="20" viewBox="0 0 20 20" fill="none" xmlns="http://www.w3.org/2000/svg">
<rect width="20" height="20" rx="4" fill="#17DC69"/>
<path d="M14.821 7.50094C14.2558 6.7419 13.6862 5.98585 13.12 5.22775C13.0789 5.17259 13.0326 5.12588 12.9805 5.08742C12.9011 5.02908 12.8037 5.00019 12.7052 5.00019H11.9728C11.9721 5.20561 11.9704 5.41085 11.9704 5.61628C11.9702 6.65635 11.9706 7.69642 11.9702 8.73687C11.97 9.00476 11.8406 9.1843 11.6094 9.23702C11.5627 9.24771 11.5126 9.24771 11.4641 9.24771C10.0842 9.24827 8.70441 9.24827 7.3244 9.2479C7.00229 9.2479 6.81863 9.06292 6.81825 8.73668C6.8175 7.53339 6.81806 6.33011 6.81806 5.12719C6.81806 5.08461 6.81712 5.0424 6.81694 5H5.97479C5.45419 5 5.02889 5.40804 5.00131 5.92188C5.00038 8.62881 5.00094 11.3355 5 14.0421V14.0507C5.01351 14.5773 5.44462 15.0006 5.97479 15.0006H6.81675C6.81694 13.9633 6.81731 12.9264 6.81825 11.8895C6.81844 11.6215 6.94713 11.4434 7.17995 11.39C7.22666 11.3793 7.27656 11.3787 7.32497 11.3787C9.10851 11.3781 10.8917 11.3781 12.6752 11.3785C12.9977 11.3785 13.1818 11.5631 13.1821 11.8895C13.1829 12.8906 13.1823 13.8915 13.1827 14.8925C13.1827 14.9287 13.1833 14.9647 13.1836 15.0006H14.025C14.5634 15.0006 15 14.564 15 14.0256V7.79866C14.9409 7.69905 14.8897 7.59343 14.821 7.50094Z" fill="white"/>
<path d="M12.1537 12.2881H7.84841C7.78462 12.2881 7.73303 12.3397 7.73303 12.4035V13.0775C7.73303 13.1411 7.78462 13.1929 7.84841 13.1929H12.1537C12.2175 13.1929 12.2691 13.1413 12.2691 13.0775V12.4035C12.2691 12.3397 12.2173 12.2881 12.1537 12.2881Z" fill="white" fill-opacity="0.8"/>
<path d="M12.1533 14.1094H7.8403C7.77633 14.1094 7.72455 14.1612 7.72455 14.2251V15.0001H12.269V14.2251C12.269 14.1612 12.2171 14.1094 12.1533 14.1094Z" fill="white" fill-opacity="0.8"/>
<path d="M7.93017 8.33784H10.8562C10.9699 8.33784 11.062 8.24572 11.062 8.13204V5H7.72437V8.13204C7.72437 8.24572 7.81648 8.33784 7.93017 8.33784Z" fill="white" fill-opacity="0.8"/>
</svg>
