<svg width="13" height="12" viewBox="0 0 13 12" fill="none" xmlns="http://www.w3.org/2000/svg">
<path d="M12.9971 4.37762C12.9933 3.85996 12.6721 3.38731 12.198 3.19225C11.9685 3.09847 11.7353 3.10222 11.5288 3.10972H11.4638C11.4561 3.10972 11.4485 3.10972 11.4485 3.10972C11.4447 3.10972 11.4408 3.09472 11.437 3.09097C11.0508 2.40075 10.6034 1.82307 10.091 1.36918C9.12361 0.495155 7.93441 0.0375117 6.53489 0C6.04162 0.00375117 5.55982 0.0712722 5.10479 0.198812C4.4968 0.360112 3.93088 0.622695 3.41849 0.967802C3.38407 0.982807 3.34583 1.00531 3.3076 1.03157C3.18141 1.12535 3.05522 1.22663 2.93669 1.33167C2.88698 1.37293 2.84109 1.41419 2.79521 1.45545C2.73402 1.50797 2.67667 1.56424 2.62313 1.62051C2.59254 1.65052 2.56195 1.68428 2.53519 1.71429C2.21399 2.04439 1.93867 2.40825 1.7016 2.80588C1.67865 2.85089 1.65571 2.89591 1.63659 2.94092L1.63277 2.95217C1.606 3.00469 1.56776 3.09472 1.541 3.10972C1.53717 3.10972 1.52952 3.11347 1.51423 3.11722H1.40334L1.36128 3.11347C1.31157 3.10972 1.25421 3.10597 1.19685 3.10972C1.14332 3.10972 1.08596 3.11722 1.04008 3.12473C0.6424 3.16974 0.286786 3.43607 0.114714 3.82244C0.0382382 3.9875 0 4.16755 0 4.35136V7.58862C0 7.73492 0.0229429 7.87746 0.0726524 8.01626C0.2409 8.49641 0.676815 8.82276 1.15861 8.82276C1.23891 8.83026 1.32686 8.83026 1.43393 8.82276H1.50658C1.51041 8.83026 1.51805 8.83776 1.52188 8.84526C2.50842 10.7921 4.40885 12 6.47754 12C6.74903 12 7.02434 11.9775 7.29583 11.9362C9.05096 11.6549 10.4122 10.6908 11.3376 9.06658C11.4523 8.86402 11.5326 8.81526 11.7315 8.81526H11.7544C12.0832 8.81526 12.3891 8.68772 12.6186 8.46265C12.8595 8.22632 12.9933 7.89997 12.9971 7.54361C13.001 6.61332 13.001 5.608 12.9971 4.37762ZM9.73925 3.75492L8.33591 8.66896H7.38378L6.49665 5.70928L5.60953 8.66896H4.66123L3.25024 3.71366H4.45092L4.45856 3.73992L5.19273 6.38074L6.06456 3.71366H6.92874L7.8044 6.38074L8.54622 3.71366H9.75072L9.73925 3.75492Z" fill="url(#paint0_linear_6121_3042)"/>
<defs>
<linearGradient id="paint0_linear_6121_3042" x1="2.55704e-05" y1="5.58e-06" x2="3.58719e-05" y2="12" gradientUnits="userSpaceOnUse">
<stop stop-color="#656096"/>
<stop offset="1" stop-color="#130F40"/>
</linearGradient>
</defs>
</svg>
