<svg width="18" height="18" viewBox="0 0 18 18" fill="none" xmlns="http://www.w3.org/2000/svg">
<g opacity="0.7">
<path d="M7.20386 8.56283C7.24161 8.41182 7.27187 8.27753 7.31048 8.14555C7.31913 8.11644 7.35256 8.08388 7.38195 8.07351C7.91997 7.88216 8.44848 7.6571 9.04126 7.69283C9.54614 7.72309 10.0098 8.02509 10.0891 8.47551C10.1383 8.75677 10.1205 9.06771 10.0559 9.34752C9.90981 9.98007 9.71068 10.6005 9.54441 11.2287C9.49743 11.4068 9.4764 11.5944 9.4666 11.7788C9.45248 12.0445 9.56717 12.1808 9.83114 12.2307C10.1061 12.2826 10.3746 12.2474 10.6363 12.1509C10.6539 12.1443 10.6732 12.1425 10.7161 12.133C10.6789 12.2777 10.6493 12.4068 10.6107 12.533C10.6023 12.5607 10.566 12.5892 10.5366 12.5993C10.211 12.712 9.89022 12.8509 9.55565 12.9246C9.07958 13.0295 8.60179 13.0278 8.1727 12.7318C7.86032 12.5163 7.72603 12.218 7.7462 11.8428C7.78251 11.1682 8.05224 10.5506 8.21218 9.906C8.29143 9.58671 8.3724 9.26395 8.40583 8.93774C8.44301 8.57579 8.25223 8.4075 7.87991 8.42047C7.76724 8.4245 7.65427 8.44266 7.54361 8.46571C7.43526 8.48877 7.32979 8.52623 7.20386 8.56283Z" fill="#130F40"/>
<path d="M9.41193 5.0293C9.96378 5.02786 10.377 5.44744 10.3672 5.98546C10.36 6.3794 10.0891 6.72088 9.69059 6.83875C9.25199 6.96814 8.76181 6.75229 8.5719 6.34626C8.3039 5.77279 8.67997 5.10509 9.31049 5.03564C9.34824 5.03189 9.38657 5.03103 9.41193 5.0293Z" fill="#130F40"/>
<path d="M9 1C4.58892 1 1 4.58892 1 9C1 13.4114 4.58892 17 9 17C13.4114 17 17 13.4114 17 9C17 4.58892 13.4114 1 9 1ZM9 16.0801C7.109 16.0801 5.33097 15.3436 3.99355 14.0064C2.65614 12.6693 1.91985 10.8913 1.91985 9C1.91985 7.10871 2.65642 5.33068 3.99355 3.99355C5.33068 2.65614 7.10871 1.91985 9 1.91985C10.8913 1.91985 12.669 2.65642 14.0064 3.99355C15.3439 5.33068 16.0801 7.109 16.0801 9C16.0801 10.891 15.3436 12.669 14.0064 14.0064C12.6693 15.3439 10.891 16.0801 9 16.0801Z" fill="#130F40" stroke="#130F40" stroke-width="0.4"/>
</g>
</svg>
