<svg width="38" height="38" viewBox="0 0 38 38" fill="none" xmlns="http://www.w3.org/2000/svg">
<rect opacity="0.1" width="38" height="38" rx="10" fill="#FF5EE5"/>
<path d="M23.0018 11C25.5525 11 26.9925 12.4467 27 14.9975V22.0025C27 24.5525 25.5525 26 23.0018 26H15.9975C13.4467 26 12 24.5525 12 22.0025V14.9975C12 12.4467 13.4467 11 15.9975 11H23.0018ZM19.875 14.0975C19.6643 13.97 19.4093 13.97 19.2075 14.0975C19.0043 14.2243 18.8925 14.4575 18.9143 14.69V22.3325C18.9525 22.655 19.2218 22.895 19.5368 22.895C19.86 22.895 20.1293 22.655 20.1593 22.3325V14.69C20.1893 14.4575 20.0775 14.2243 19.875 14.0975ZM16.3725 16.5575C16.17 16.43 15.9142 16.43 15.7125 16.5575C15.5092 16.685 15.3975 16.9168 15.42 17.15V22.3325C15.4492 22.655 15.7192 22.895 16.0417 22.895C16.365 22.895 16.6342 22.655 16.6642 22.3325V17.15C16.6875 16.9168 16.5742 16.685 16.3725 16.5575ZM23.3168 19.28C23.115 19.1525 22.86 19.1525 22.65 19.28C22.4468 19.4075 22.335 19.6318 22.365 19.8725V22.3325C22.395 22.655 22.6643 22.895 22.9875 22.895C23.3025 22.895 23.5718 22.655 23.61 22.3325V19.8725C23.6318 19.6318 23.52 19.4075 23.3168 19.28Z" fill="#FF5EE5"/>
</svg>
