<svg width="35" height="35" viewBox="0 0 35 35" fill="none" xmlns="http://www.w3.org/2000/svg">
<rect width="35" height="35" rx="7" fill="white"/>
<g clip-path="url(#clip0_5792_3092)">
<path d="M14.9214 16.3893C14.7536 16.0812 14.5138 15.8442 14.2022 15.6795C13.8906 15.5147 13.5196 15.4321 13.0879 15.4321H11.5554V19.5678H13.0754C13.5112 19.5678 13.8862 19.4853 14.1996 19.3192C14.5129 19.154 14.7536 18.9165 14.9219 18.6062C15.0902 18.2969 15.1741 17.9263 15.1741 17.496C15.1737 17.0665 15.0897 16.6978 14.9214 16.3893ZM14.1299 18.25C14.0371 18.4451 13.8987 18.5879 13.7152 18.6803C13.5317 18.7723 13.3058 18.8187 13.0375 18.8187H12.4616V16.1812H13.0393C13.3076 16.1812 13.5326 16.2272 13.7161 16.3187C13.8991 16.4103 14.0371 16.5527 14.1299 16.7469C14.2228 16.9406 14.2692 17.1906 14.2692 17.496C14.2692 17.804 14.2228 18.0558 14.1299 18.25Z" fill="#CC3CFF"/>
<path d="M19.3094 15.4321V19.5678H18.5192L16.637 16.9647H16.6053V19.5678H15.6906V15.4321H16.4933L18.3607 18.033H18.3986V15.4321H19.3094Z" fill="#CC3CFF"/>
<path d="M22.4554 16.6446C22.4375 16.4861 22.3607 16.3629 22.2254 16.2754C22.0897 16.1879 21.9062 16.1437 21.6737 16.1437C21.5161 16.1437 21.3826 16.1629 21.2737 16.2018C21.1647 16.2406 21.0821 16.2937 21.0245 16.362C20.9674 16.4303 20.9384 16.5076 20.9384 16.5937C20.9353 16.6656 20.9531 16.7286 20.9911 16.7821C21.029 16.8357 21.0817 16.8821 21.1487 16.9205C21.2156 16.9594 21.2933 16.9924 21.3808 17.0205C21.4687 17.0486 21.5625 17.0728 21.6625 17.0924L22.0737 17.179C22.2732 17.2183 22.4562 17.2705 22.6232 17.3361C22.7902 17.4018 22.9344 17.4821 23.0567 17.5777C23.1786 17.6732 23.2737 17.7861 23.3415 17.9156C23.4094 18.0455 23.4437 18.1937 23.4455 18.3616C23.4442 18.608 23.3728 18.821 23.2321 19.0009C23.0915 19.1808 22.8888 19.3205 22.6245 19.4192C22.3603 19.5183 22.042 19.5674 21.6696 19.5674C21.3004 19.5674 20.979 19.5174 20.7058 19.4183C20.4326 19.3187 20.2196 19.171 20.067 18.9754C19.9143 18.7795 19.8344 18.537 19.8268 18.2473H20.7625C20.7728 18.3821 20.8174 18.4946 20.8955 18.5844C20.9737 18.6741 21.0786 18.7415 21.2107 18.7866C21.3424 18.8317 21.492 18.8545 21.6585 18.8545C21.8223 18.8545 21.9647 18.8335 22.0862 18.7915C22.2076 18.7495 22.3018 18.6915 22.3687 18.6165C22.4357 18.5419 22.4692 18.4562 22.4692 18.3594C22.4692 18.2692 22.4388 18.1928 22.3786 18.1312C22.3183 18.0696 22.2304 18.0174 22.1152 17.9741C21.9995 17.9308 21.8585 17.8915 21.692 17.8562L21.1937 17.7464C20.808 17.6638 20.5036 17.5348 20.2804 17.3594C20.0571 17.1839 19.946 16.9473 19.9473 16.65C19.946 16.4062 20.0201 16.1937 20.1696 16.0116C20.3192 15.8295 20.525 15.6875 20.787 15.5853C21.0491 15.483 21.3469 15.4321 21.6804 15.4321C22.0196 15.4321 22.3165 15.483 22.5705 15.5853C22.8245 15.6875 23.0219 15.8295 23.1638 16.0116C23.3054 16.1937 23.3781 16.4045 23.3826 16.6442L22.4554 16.6446Z" fill="#CC3CFF"/>
<path d="M29.8707 16.9911C29.6743 16.6027 29.3529 16.3884 28.9154 16.375C28.5047 16.3616 28.0895 16.3706 27.6966 16.3706C27.5716 15.7947 27.4779 15.25 27.3305 14.7232C26.2502 10.8259 22.8752 7.90181 18.8707 7.37949C18.6788 7.35271 18.6163 7.28128 18.6252 7.09378C18.643 6.79021 18.6341 6.4911 18.6297 6.18753C18.6207 5.50003 18.1386 4.99557 17.4957 5.00003C16.8529 5.00449 16.3752 5.50449 16.3663 6.19646C16.3618 6.56699 16.3663 6.93753 16.3663 7.32592C16.2725 7.34378 16.1966 7.3661 16.1207 7.37503C14.9645 7.53128 13.8663 7.86164 12.8395 8.41074C9.74126 10.0759 7.91091 12.6518 7.37519 16.134C7.34841 16.3081 7.29483 16.3795 7.1118 16.3706C6.78144 16.3572 6.45555 16.3616 6.12519 16.3706C5.48233 16.3884 4.99126 16.8884 4.99573 17.509C5.00466 18.125 5.48233 18.6116 6.11626 18.6295C6.43769 18.6384 6.75912 18.6474 7.07608 18.625C7.2993 18.6116 7.38412 18.7009 7.37966 18.9107C7.37519 18.9554 7.38412 19 7.38858 19.0447C8.09841 23.5402 11.6118 26.9911 16.1386 27.6206C16.3216 27.6473 16.3752 27.7143 16.3707 27.8929C16.3618 28.2456 16.3573 28.6027 16.3752 28.9554C16.4064 29.5357 16.902 29.9911 17.4868 30C18.0805 30.009 18.5895 29.5447 18.6252 28.9509C18.6386 28.7232 18.6297 28.4911 18.6297 28.259C18.6297 27.6697 18.6297 27.6697 19.2055 27.5715C23.2904 26.884 26.5805 23.7634 27.4645 19.7411C27.5448 19.3795 27.6073 19.0134 27.6788 18.6295C28.0895 18.6295 28.4868 18.634 28.8841 18.6295C29.277 18.625 29.5895 18.4554 29.8038 18.1295C30.0404 17.7679 30.0672 17.3795 29.8707 16.9911ZM17.5002 26.0447C12.777 26.0447 8.95108 22.2188 8.95108 17.5C8.95108 12.7813 12.777 8.95539 17.5002 8.95539C22.2189 8.95539 26.0448 12.7813 26.0448 17.5C26.0448 22.2188 22.2189 26.0447 17.5002 26.0447Z" fill="#CC3CFF"/>
</g>
<defs>
<clipPath id="clip0_5792_3092">
<rect width="25" height="25" fill="white" transform="translate(5 5)"/>
</clipPath>
</defs>
</svg>
