<svg width="38" height="38" viewBox="0 0 38 38" fill="none" xmlns="http://www.w3.org/2000/svg">
<rect opacity="0.1" width="38" height="38" rx="10" fill="#1BDD97"/>
<path d="M23.8553 23.0281C23.8551 22.8867 23.7344 22.7717 23.5863 22.7723C23.3455 22.7732 23.1244 22.7747 22.9034 22.7707C22.3549 22.7608 22.0697 22.5005 22.0669 21.9858C22.06 20.7398 22.06 19.4937 22.0645 18.2477C22.0663 17.7475 22.3544 17.4807 22.874 17.4768C23.1057 17.4751 23.3376 17.4758 23.5806 17.4762C23.7245 17.4764 23.8436 17.3678 23.85 17.2303C23.8989 16.1898 23.7104 15.2139 23.1629 14.2963C23.0816 14.1599 22.8896 14.1284 22.7625 14.228L22.7603 14.2297C22.3027 14.5881 21.7313 14.564 21.282 14.1497C20.4241 13.3587 19.4079 12.9894 18.2157 13.0638C17.3264 13.1194 16.5531 13.4387 15.8908 14.0015C15.2251 14.5672 14.8772 14.6375 14.2359 14.21C14.108 14.1248 13.9297 14.158 13.851 14.2866C13.2977 15.1902 13.1084 16.1706 13.154 17.2308C13.1599 17.3686 13.2788 17.4779 13.4232 17.4772C13.6747 17.4762 13.9225 17.4745 14.1702 17.4791C14.6358 17.4877 14.9314 17.7466 14.9354 18.1928C14.9472 19.4814 14.9479 20.7702 14.9372 22.0587C14.9339 22.459 14.6633 22.7467 14.2597 22.7594C13.6818 22.7775 13.0969 22.7904 12.5245 22.7274C11.6434 22.6304 11.025 21.9297 11.0106 21.0811C10.9996 20.4426 10.9929 19.8033 11.0124 19.165C11.0336 18.4725 11.4855 17.8699 12.1552 17.6041C12.3866 17.5122 12.4421 17.3991 12.4337 17.1737C12.3825 15.8141 12.7268 14.56 13.5586 13.4408C14.9964 11.5057 17.5343 10.603 19.9616 11.1648C22.3195 11.7106 24.1761 13.6616 24.5061 15.9646C24.5663 16.3848 24.5632 16.814 24.572 17.2394C24.5757 17.4152 24.6033 17.5159 24.8085 17.587C25.5713 17.8513 25.9909 18.4486 25.9967 19.2292C26.001 19.8256 26.0013 20.4219 25.9965 21.0183C25.9905 21.7935 25.5688 22.3823 24.8016 22.6578C24.6221 22.7223 24.565 22.8033 24.5716 22.9787C24.5801 23.2117 24.5776 23.4488 24.5431 23.6791C24.4144 24.5371 23.7059 25.1352 22.8008 25.1473C21.9871 25.1581 21.1732 25.1566 20.3595 25.1475C20.1624 25.1452 20.0478 25.1802 19.9501 25.3696C19.7421 25.7728 19.3744 25.9799 18.9001 25.9934C18.6327 26.0011 18.3647 26.0036 18.0976 25.9925C17.4133 25.964 16.9009 25.4572 16.897 24.8156C16.8931 24.168 17.4258 23.6412 18.1161 23.6168C18.35 23.6085 18.5842 23.6156 18.8183 23.6144C19.335 23.6117 19.7248 23.8299 19.9597 24.2618C20.0476 24.4235 20.1444 24.4658 20.3188 24.4642C21.1094 24.4571 21.8999 24.4649 22.6905 24.4599C23.3323 24.4558 23.8499 23.9589 23.8548 23.3458C23.8556 23.2424 23.8555 23.1387 23.8553 23.0281Z" fill="#1BDD97"/>
</svg>
