<svg width="60" height="60" viewBox="0 0 60 60" fill="none" xmlns="http://www.w3.org/2000/svg">
<circle opacity="0.5" cx="30" cy="30" r="29.5" fill="#16D88E" fill-opacity="0.0980392" stroke="#16D88E"/>
<mask id="mask0_778_48" style="mask-type:alpha" maskUnits="userSpaceOnUse" x="20" y="20" width="21" height="20">
<rect x="20.5977" y="20" width="20" height="20" fill="white"/>
</mask>
<g mask="url(#mask0_778_48)">
<path fill-rule="evenodd" clip-rule="evenodd" d="M37.4727 25.6641C37.3983 25.6641 37.3241 25.6667 37.2502 25.672C37.0276 24.962 36.6091 24.3214 36.0384 23.8286C35.2712 23.1663 34.2779 22.8168 33.2616 22.8543C32.2656 21.1078 30.4035 20 28.4102 20C25.9062 20 23.6904 21.721 23.0253 24.1353C21.5841 24.7759 20.6367 26.215 20.6367 27.8125C20.6367 29.3701 21.5264 30.7237 22.8242 31.392V29.9219C22.8242 28.9526 23.6128 28.1641 24.582 28.1641H36.6133C37.5826 28.1641 38.3711 28.9526 38.3711 29.9219V31.7019C39.6358 31.3163 40.5586 30.1392 40.5586 28.75C40.5586 27.0484 39.1742 25.6641 37.4727 25.6641V25.6641Z" fill="#16D88E"/>
<path fill-rule="evenodd" clip-rule="evenodd" d="M36.6133 29.3359H24.582C24.2584 29.3359 23.9961 29.5983 23.9961 29.9219V34.0603H37.1992V29.9219C37.1992 29.5983 36.9368 29.3359 36.6133 29.3359ZM29.0201 32.3438H25.9102C25.5866 32.3438 25.3242 32.0814 25.3242 31.7578C25.3242 31.4342 25.5866 31.1719 25.9102 31.1719H29.0201C29.3437 31.1719 29.6061 31.4342 29.6061 31.7578C29.6061 32.0814 29.3437 32.3438 29.0201 32.3438H29.0201ZM32.7852 32.3381C32.4616 32.3381 32.1992 32.0758 32.1992 31.7522C32.1992 31.4286 32.4616 31.1663 32.7852 31.1663C33.1087 31.1663 33.3711 31.4286 33.3711 31.7522C33.3711 32.0758 33.1087 32.3381 32.7852 32.3381ZM35.2852 32.3381C34.9616 32.3381 34.6992 32.0758 34.6992 31.7522C34.6992 31.4286 34.9616 31.1663 35.2852 31.1663C35.6087 31.1663 35.8711 31.4286 35.8711 31.7522C35.8711 32.0758 35.6087 32.3381 35.2852 32.3381Z" fill="#16D88E"/>
<path fill-rule="evenodd" clip-rule="evenodd" d="M23.9961 39.4141C23.9961 39.7376 24.2584 40 24.582 40H36.6133C36.9368 40 37.1992 39.7376 37.1992 39.4141V35.2322H23.9961V39.4141ZM35.2852 36.875C35.6087 36.875 35.8711 37.1373 35.8711 37.4609C35.8711 37.7845 35.6087 38.0469 35.2852 38.0469C34.9616 38.0469 34.6992 37.7845 34.6992 37.4609C34.6992 37.1373 34.9616 36.875 35.2852 36.875ZM32.7852 36.875C33.1087 36.875 33.3711 37.1373 33.3711 37.4609C33.3711 37.7845 33.1087 38.0469 32.7852 38.0469C32.4616 38.0469 32.1992 37.7845 32.1992 37.4609C32.1992 37.1373 32.4616 36.875 32.7852 36.875ZM25.9102 36.875H29.0201C29.3437 36.875 29.6061 37.1373 29.6061 37.4609C29.6061 37.7845 29.3437 38.0469 29.0201 38.0469H25.9102C25.5866 38.0469 25.3242 37.7845 25.3242 37.4609C25.3242 37.1373 25.5866 36.875 25.9102 36.875Z" fill="#16D88E"/>
</g>
</svg>
