<svg width="47" height="47" viewBox="0 0 47 47" fill="none" xmlns="http://www.w3.org/2000/svg">
<path d="M7.1895 11.0928C7.18823 11.0928 7.18681 11.0928 7.18554 11.0928C6.74102 11.0928 6.32292 11.2661 6.00721 11.581C5.68802 11.8994 5.51221 12.3233 5.51221 12.7747V37.9941C5.51221 38.9189 6.26753 39.6731 7.19614 39.6755C11.1109 39.6849 17.6697 40.5008 22.1944 45.2358V18.8429C22.1944 18.5294 22.1143 18.2349 21.9632 17.9912C18.2496 12.0106 11.1131 11.102 7.1895 11.0928Z" fill="url(#paint0_linear_1_8909)"/>
<path d="M41.4877 37.9938V12.7742C41.4877 12.3228 41.3119 11.8989 40.9927 11.5805C40.677 11.2656 40.2586 11.0923 39.8145 11.0923C39.8131 11.0923 39.8117 11.0923 39.8104 11.0923C35.8869 11.1016 28.7505 12.0103 25.0367 17.9909C24.8856 18.2346 24.8057 18.5291 24.8057 18.8426V45.2353C29.3303 40.5003 35.8892 39.6844 39.8039 39.675C40.7324 39.6727 41.4877 38.9184 41.4877 37.9938Z" fill="url(#paint1_linear_1_8909)"/>
<path d="M45.3187 16.9087H44.0992V37.9941C44.0992 40.3553 42.1754 42.2807 39.8105 42.2866C36.4899 42.2945 31.0148 42.9438 27.1372 46.6138C33.8435 44.9718 40.9132 46.0392 44.9422 46.9573C45.4453 47.0719 45.9651 46.9535 46.3682 46.6323C46.7698 46.3118 47.0002 45.8328 47.0002 45.3186V18.5903C47.0004 17.6631 46.2459 16.9087 45.3187 16.9087Z" fill="url(#paint2_linear_1_8909)"/>
<path d="M2.90103 37.994V16.9087H1.68156C0.754535 16.9087 0 17.6631 0 18.5903V45.3181C0 45.8325 0.230412 46.3113 0.632049 46.6318C1.03479 46.9529 1.55417 47.0717 2.05804 46.9568C6.08707 46.0385 13.1569 44.9713 19.8629 46.6133C15.9854 42.9435 10.5103 42.2943 7.18976 42.2864C4.82503 42.2807 2.90103 40.3553 2.90103 37.994Z" fill="url(#paint3_linear_1_8909)"/>
<path d="M23.4999 1.97739C23.2681 1.97739 23.0801 1.78923 23.0801 1.55755V0.461829C23.0801 0.229993 23.2682 0.0419922 23.4999 0.0419922C23.7316 0.0419922 23.9198 0.230151 23.9198 0.461829V1.55755C23.9199 1.78923 23.7317 1.97739 23.4999 1.97739Z" fill="url(#paint4_linear_1_8909)"/>
<path d="M27.1791 3.50096C27.0716 3.50096 26.964 3.46013 26.8824 3.37784C26.7183 3.21373 26.7183 2.94787 26.8824 2.78377L27.6573 2.00882C27.8214 1.84472 28.0873 1.84472 28.2514 2.00882C28.4155 2.17293 28.4155 2.43879 28.2514 2.60289L27.4764 3.37784C27.394 3.45965 27.2865 3.50096 27.1791 3.50096Z" fill="url(#paint5_linear_1_8909)"/>
<path d="M29.7984 7.18001H28.7027C28.4709 7.18001 28.2827 6.99185 28.2827 6.76017C28.2827 6.52833 28.4709 6.34033 28.7027 6.34033H29.7984C30.0303 6.34033 30.2184 6.52849 30.2184 6.76017C30.2183 6.992 30.0303 7.18001 29.7984 7.18001Z" fill="url(#paint6_linear_1_8909)"/>
<path d="M27.954 11.6338C27.8466 11.6338 27.739 11.5929 27.6573 11.5107L26.8824 10.7357C26.7183 10.5716 26.7183 10.3057 26.8824 10.1416C27.0465 9.97753 27.3123 9.97753 27.4764 10.1416L28.2514 10.9166C28.4155 11.0807 28.4155 11.3465 28.2514 11.5107C28.1691 11.5929 28.0616 11.6338 27.954 11.6338Z" fill="url(#paint7_linear_1_8909)"/>
<path d="M19.0463 11.6338C18.9388 11.6338 18.8312 11.5929 18.7495 11.5107C18.5854 11.3465 18.5854 11.0807 18.7495 10.9166L19.5245 10.1416C19.6886 9.97753 19.9545 9.97753 20.1186 10.1416C20.2827 10.3057 20.2827 10.5716 20.1186 10.7357L19.3436 11.5107C19.2612 11.5929 19.1537 11.6338 19.0463 11.6338Z" fill="url(#paint8_linear_1_8909)"/>
<path d="M18.2968 7.18001H17.2011C16.9693 7.18001 16.7812 6.99185 16.7812 6.76017C16.7812 6.52833 16.9694 6.34033 17.2011 6.34033H18.2968C18.5286 6.34033 18.7166 6.52849 18.7166 6.76017C18.7166 6.992 18.5286 7.18001 18.2968 7.18001Z" fill="url(#paint9_linear_1_8909)"/>
<path d="M19.8207 3.50096C19.7133 3.50096 19.6057 3.46013 19.524 3.37784L18.7491 2.60289C18.585 2.43879 18.585 2.17293 18.7491 2.00882C18.9132 1.84472 19.179 1.84472 19.3431 2.00882L20.1181 2.78377C20.2822 2.94787 20.2822 3.21373 20.1181 3.37784C20.0352 3.45965 19.9283 3.50096 19.8207 3.50096Z" fill="url(#paint10_linear_1_8909)"/>
<path d="M25.1795 11.7988V12.4986C25.1795 13.036 24.7372 13.4783 24.1998 13.4783H22.8C22.3297 13.4783 21.8203 13.1201 21.8203 12.3361V11.7988H25.1795Z" fill="url(#paint11_linear_1_8909)"/>
<path d="M25.9691 3.71394C25.051 2.96922 23.8416 2.6782 22.6601 2.93013C21.1764 3.23808 19.9727 4.44743 19.6648 5.93118C19.3513 7.45401 19.9222 8.96577 21.1428 9.88963C21.4731 10.136 21.7027 10.5168 21.781 10.9591V10.9646C21.7923 10.9591 21.8091 10.9591 21.8203 10.9591H25.1796C25.1908 10.9591 25.1964 10.9591 25.2076 10.9646V10.9591C25.286 10.5336 25.5379 10.1417 25.9243 9.83931C26.8705 9.08905 27.4192 7.96927 27.4192 6.75993C27.4192 5.57274 26.893 4.4642 25.9691 3.71394ZM25.5996 7.03972C25.37 7.03972 25.1798 6.84934 25.1798 6.61988C25.1798 5.76881 24.4911 5.08027 23.6402 5.08027C23.4105 5.08027 23.2203 4.88989 23.2203 4.66043C23.2203 4.43097 23.4107 4.2406 23.6402 4.2406C24.9503 4.2406 26.0196 5.31005 26.0196 6.62004C26.0194 6.84934 25.8292 7.03972 25.5996 7.03972Z" fill="url(#paint12_linear_1_8909)"/>
<path d="M21.7812 10.959H21.8197C21.8087 10.959 21.7922 10.959 21.7812 10.9645V10.959Z" fill="url(#paint13_linear_1_8909)"/>
<path d="M25.2071 10.959V10.9645C25.1961 10.959 25.1907 10.959 25.1797 10.959H25.2071Z" fill="url(#paint14_linear_1_8909)"/>
<defs>
<linearGradient id="paint0_linear_1_8909" x1="5.51221" y1="11.0928" x2="5.51221" y2="45.2358" gradientUnits="userSpaceOnUse">
<stop stop-color="#D1F1FF"/>
<stop offset="1" stop-color="#1270FE"/>
</linearGradient>
<linearGradient id="paint1_linear_1_8909" x1="24.8057" y1="11.0923" x2="24.8057" y2="45.2353" gradientUnits="userSpaceOnUse">
<stop stop-color="#D1F1FF"/>
<stop offset="1" stop-color="#1270FE"/>
</linearGradient>
<linearGradient id="paint2_linear_1_8909" x1="27.1372" y1="16.9087" x2="27.1372" y2="47" gradientUnits="userSpaceOnUse">
<stop stop-color="#D1F1FF"/>
<stop offset="1" stop-color="#1270FE"/>
</linearGradient>
<linearGradient id="paint3_linear_1_8909" x1="0" y1="16.9087" x2="0" y2="46.9997" gradientUnits="userSpaceOnUse">
<stop stop-color="#D1F1FF"/>
<stop offset="1" stop-color="#1270FE"/>
</linearGradient>
<linearGradient id="paint4_linear_1_8909" x1="23.0801" y1="0.0419922" x2="23.0801" y2="1.97739" gradientUnits="userSpaceOnUse">
<stop stop-color="#D1F1FF"/>
<stop offset="1" stop-color="#1270FE"/>
</linearGradient>
<linearGradient id="paint5_linear_1_8909" x1="26.7593" y1="1.88574" x2="26.7593" y2="3.50096" gradientUnits="userSpaceOnUse">
<stop stop-color="#D1F1FF"/>
<stop offset="1" stop-color="#1270FE"/>
</linearGradient>
<linearGradient id="paint6_linear_1_8909" x1="28.2827" y1="6.34033" x2="28.2827" y2="7.18001" gradientUnits="userSpaceOnUse">
<stop stop-color="#D1F1FF"/>
<stop offset="1" stop-color="#1270FE"/>
</linearGradient>
<linearGradient id="paint7_linear_1_8909" x1="26.7593" y1="10.0186" x2="26.7593" y2="11.6338" gradientUnits="userSpaceOnUse">
<stop stop-color="#D1F1FF"/>
<stop offset="1" stop-color="#1270FE"/>
</linearGradient>
<linearGradient id="paint8_linear_1_8909" x1="18.6265" y1="10.0186" x2="18.6265" y2="11.6338" gradientUnits="userSpaceOnUse">
<stop stop-color="#D1F1FF"/>
<stop offset="1" stop-color="#1270FE"/>
</linearGradient>
<linearGradient id="paint9_linear_1_8909" x1="16.7812" y1="6.34033" x2="16.7812" y2="7.18001" gradientUnits="userSpaceOnUse">
<stop stop-color="#D1F1FF"/>
<stop offset="1" stop-color="#1270FE"/>
</linearGradient>
<linearGradient id="paint10_linear_1_8909" x1="18.626" y1="1.88574" x2="18.626" y2="3.50096" gradientUnits="userSpaceOnUse">
<stop stop-color="#D1F1FF"/>
<stop offset="1" stop-color="#1270FE"/>
</linearGradient>
<linearGradient id="paint11_linear_1_8909" x1="21.8203" y1="11.7988" x2="21.8203" y2="13.4783" gradientUnits="userSpaceOnUse">
<stop stop-color="#D1F1FF"/>
<stop offset="1" stop-color="#1270FE"/>
</linearGradient>
<linearGradient id="paint12_linear_1_8909" x1="19.5801" y1="2.84131" x2="19.5801" y2="10.9646" gradientUnits="userSpaceOnUse">
<stop stop-color="#D1F1FF"/>
<stop offset="1" stop-color="#1270FE"/>
</linearGradient>
<linearGradient id="paint13_linear_1_8909" x1="21.7812" y1="10.959" x2="21.7812" y2="10.9645" gradientUnits="userSpaceOnUse">
<stop stop-color="#D1F1FF"/>
<stop offset="1" stop-color="#1270FE"/>
</linearGradient>
<linearGradient id="paint14_linear_1_8909" x1="25.1797" y1="10.959" x2="25.1797" y2="10.9645" gradientUnits="userSpaceOnUse">
<stop stop-color="#D1F1FF"/>
<stop offset="1" stop-color="#1270FE"/>
</linearGradient>
</defs>
</svg>
