<svg width="40" height="40" viewBox="0 0 40 40" fill="none" xmlns="http://www.w3.org/2000/svg">
<rect width="40" height="40" rx="20" fill="url(#paint0_linear_1401_61)"/>
<path fill-rule="evenodd" clip-rule="evenodd" d="M19.9898 11C24.3954 11 27.9789 14.5835 27.9789 18.989C27.9789 21.0675 27.1812 22.9632 25.8759 24.386L28.4443 26.9491C28.6847 27.1894 28.6855 27.5783 28.4452 27.8187C28.3254 27.9401 28.1671 28 28.0095 28C27.8528 28 27.6953 27.9401 27.5747 27.8203L24.9753 25.2281C23.6078 26.3232 21.874 26.9789 19.9898 26.9789C15.5843 26.9789 12 23.3945 12 18.989C12 14.5835 15.5843 11 19.9898 11ZM19.9898 12.2306C16.2628 12.2306 13.2306 15.262 13.2306 18.989C13.2306 22.7161 16.2628 25.7483 19.9898 25.7483C23.7161 25.7483 26.7483 22.7161 26.7483 18.989C26.7483 15.262 23.7161 12.2306 19.9898 12.2306Z" fill="white"/>
<defs>
<linearGradient id="paint0_linear_1401_61" x1="0" y1="0" x2="0" y2="40" gradientUnits="userSpaceOnUse">
<stop stop-color="#FFBACF"/>
<stop offset="1" stop-color="#AE00B9"/>
</linearGradient>
</defs>
</svg>
