<svg width="38" height="38" viewBox="0 0 38 38" fill="none" xmlns="http://www.w3.org/2000/svg">
<rect opacity="0.1" width="38" height="38" rx="10" fill="#FFAC0B"/>
<path fill-rule="evenodd" clip-rule="evenodd" d="M19.9008 11.8149H19.9008H19.9008C19.961 11.8153 20.0241 11.8157 20.0914 11.8157C20.0733 11.7616 20.0575 11.7121 20.0427 11.6659L20.0426 11.6659L20.0426 11.6659C20.0129 11.5729 19.9874 11.4931 19.956 11.4155C19.8095 11.054 19.5236 10.9167 19.1542 11.0499C17.4685 11.6579 15.7838 12.2695 14.101 12.8861C13.7404 13.0183 13.6107 13.3188 13.7327 13.6896C13.741 13.7148 13.7492 13.7402 13.7574 13.7656L13.7574 13.7657L13.7574 13.7657C13.8062 13.9172 13.8556 14.0702 13.9336 14.2057C13.9827 14.291 14.108 14.3826 14.2007 14.3846C14.7365 14.396 15.2726 14.3948 15.8087 14.3936H15.8087H15.8087H15.8087C15.9752 14.3932 16.1416 14.3928 16.3081 14.3928H18.1373C18.1373 14.2577 18.135 14.1247 18.1327 13.9932C18.1278 13.7063 18.1229 13.4267 18.1424 13.1488C18.1952 12.3956 18.8027 11.837 19.5562 11.8164C19.667 11.8133 19.778 11.8141 19.9008 11.8149ZM25.0213 18.4435H25.0214H25.0214C25.2397 18.4443 25.4604 18.4451 25.6847 18.4451C25.6847 18.243 25.6852 18.0431 25.6856 17.8445L25.6856 17.8439C25.6866 17.4101 25.6875 16.9833 25.6838 16.5567C25.6764 15.7292 25.215 15.2713 24.3898 15.271C20.6894 15.2698 16.989 15.2697 13.2886 15.271C12.472 15.2713 12.0011 15.745 12.0008 16.5626C11.9997 19.2768 11.9997 21.9911 12.0008 24.7054C12.0011 25.5212 12.4764 25.9989 13.2893 25.9992C16.9897 26.0003 20.6901 26.0003 24.3905 25.9992C25.21 25.9989 25.6752 25.5355 25.6839 24.71C25.6893 24.198 25.6878 23.6859 25.6862 23.1739L25.6859 23.0697C25.6857 23.0203 25.6775 22.971 25.6686 22.9181C25.6643 22.8925 25.6599 22.866 25.6562 22.8382C25.4577 22.8382 25.261 22.8401 25.0656 22.8419L25.0654 22.8419H25.0654H25.0653C24.596 22.8463 24.1343 22.8507 23.6739 22.8291C23.3497 22.814 23.0077 22.7546 22.7122 22.6264C21.7721 22.2183 21.2772 21.1949 21.4877 20.1867C21.6956 19.1906 22.572 18.4627 23.6007 18.4471C24.0701 18.4401 24.5397 18.4418 25.0213 18.4435ZM25.0174 21.9597C24.8722 21.9597 24.7271 21.9606 24.5819 21.9615C24.2589 21.9635 23.9359 21.9656 23.6131 21.9575C22.8797 21.9392 22.3125 21.3601 22.3143 20.6482C22.3162 19.9299 22.8732 19.3413 23.6055 19.3278C24.4257 19.3128 25.2463 19.3169 26.0667 19.321H26.0668L26.5017 19.3231C26.8246 19.3244 26.9964 19.4914 27.0004 19.8061C27.0077 20.3618 27.0071 20.9179 27.0007 21.4737C26.9969 21.7953 26.8328 21.9566 26.5094 21.9604C26.1613 21.9645 25.8132 21.9635 25.465 21.9626H25.465C25.3158 21.9622 25.1665 21.9618 25.0173 21.9618L25.0174 21.9597ZM23.6303 20.2045C23.3907 20.206 23.1862 20.4208 23.1957 20.6607C23.2049 20.892 23.4024 21.08 23.635 21.0786C23.8682 21.0773 24.0633 20.8877 24.0697 20.6561C24.0766 20.4161 23.8692 20.2031 23.6303 20.2045ZM19.0221 14.3797H24.1303C24.1303 14.2574 24.1312 14.1383 24.132 14.0216C24.134 13.7605 24.1359 13.511 24.1275 13.2619C24.1165 12.9363 23.8917 12.6996 23.5712 12.6976C22.2336 12.6894 20.896 12.6894 19.5585 12.6977C19.2726 12.6995 19.0556 12.8694 19.0311 13.1525C19.0066 13.435 19.012 13.7203 19.0174 14.008C19.0198 14.1314 19.0221 14.2553 19.0221 14.3797Z" fill="#FFAC0B"/>
</svg>
