<svg width="35" height="35" viewBox="0 0 35 35" fill="none" xmlns="http://www.w3.org/2000/svg">
<rect width="35" height="35" rx="7" fill="white"/>
<path d="M27.9917 14.9328C27.9876 14.1177 27.469 13.3647 26.7013 13.059C26.3309 12.9111 25.9552 12.9189 25.6234 12.9254L25.5156 12.9274C25.5039 12.9276 25.4907 12.9279 25.4923 12.9299C25.4882 12.9259 25.4775 12.907 25.4728 12.8988C23.591 9.59381 20.7665 7.94739 17.0806 8.00128C16.5687 8.00828 16.0374 8.08267 15.4562 8.22874C15.2197 8.28763 15.0371 8.4428 14.9554 8.65437C14.8776 8.85643 14.9053 9.0779 15.0312 9.26196C15.28 9.6286 15.6822 9.54322 15.8339 9.51092C16.0133 9.47333 16.1792 9.44343 16.341 9.41954L16.3968 9.41134C16.4345 9.40584 16.472 9.40024 16.5096 9.39564L16.5275 9.39344C16.6412 9.37844 16.765 9.36495 16.8998 9.35435C16.9455 9.35055 16.9902 9.34685 17.0364 9.34495C17.2482 9.33025 17.4803 9.32485 17.719 9.33205C17.7786 9.33295 17.839 9.33585 17.9037 9.33895C18.001 9.34395 18.0981 9.35085 18.1954 9.35975C18.2736 9.36675 18.352 9.37564 18.4298 9.38464C21.1977 9.71688 23.6097 11.5729 24.7245 14.2283L24.7375 14.2591H25.9321C26.4125 14.2591 26.6885 14.555 26.6896 15.0711C26.6904 16.1249 26.6901 17.1782 26.6898 18.2316L26.6896 19.8122C26.6896 20.3337 26.4091 20.6332 25.92 20.6341C25.5487 20.6352 25.1766 20.6352 24.8044 20.6352H24.7704L24.7576 20.6664C23.7396 23.1573 21.6086 24.9581 19.0549 25.4838C18.9945 25.4966 18.9342 25.5093 18.8737 25.5201L18.8827 25.5692L18.8562 25.5232C16.9834 25.8755 15.0653 25.5021 13.456 24.4718L13.4376 24.46C13.398 24.4354 13.3592 24.4099 13.3196 24.3827C12.7924 24.0391 12.3025 23.6261 11.8633 23.1549L11.8484 23.1388H11.8376C11.4998 22.7698 11.2078 22.3871 10.9473 21.972L10.901 21.8957C10.6586 21.5066 10.4474 21.0931 10.2734 20.6664L10.2607 20.6352H9.06871C8.6352 20.6352 8.36317 20.4307 8.28197 20.0445C8.26866 19.9784 8.26684 19.9006 8.26684 19.8262C8.26584 18.2396 8.26584 16.6518 8.26684 15.0642C8.26684 14.5604 8.55239 14.2592 9.03038 14.2583H10.2925L10.3054 14.2275C10.7156 13.2517 11.2977 12.3803 12.0358 11.6377C12.08 11.593 12.1251 11.5482 12.1702 11.5046C12.2053 11.4708 12.2395 11.4379 12.2762 11.4035C12.3067 11.3751 12.3384 11.3458 12.3712 11.3173C12.4179 11.2739 12.4656 11.2316 12.5148 11.1907C12.5499 11.1609 12.585 11.1311 12.6206 11.1017C12.687 11.0455 12.7569 10.9894 12.8353 10.9298C12.9012 10.8773 12.9692 10.8268 13.0411 10.775C13.1735 10.6784 13.3549 10.5461 13.3963 10.2856C13.4418 9.99854 13.3425 9.75698 13.1167 9.6056C12.8737 9.44133 12.606 9.45363 12.3426 9.6414C11.2899 10.3964 10.418 11.3412 9.75085 12.4498C9.7098 12.5179 9.67661 12.5896 9.64444 12.659L9.63526 12.6788C9.59713 12.7622 9.53339 12.9018 9.49092 12.9258C9.48588 12.9286 9.47105 12.9356 9.44816 12.9393L9.2667 12.9394L9.19933 12.934C9.11864 12.928 9.02735 12.9215 8.93547 12.9253C8.84681 12.9294 8.75593 12.9384 8.6819 12.9506C8.03657 13.0235 7.46195 13.4464 7.18226 14.0544C7.06122 14.3176 7 14.5997 7 14.8931V20.0172C7 20.2485 7.03893 20.4754 7.11579 20.6917C7.38721 21.4567 8.09407 21.9708 8.87192 21.9708C9.00002 21.9803 9.14627 21.9807 9.31572 21.972H9.43545C9.4414 21.981 9.44906 21.9944 9.45552 22.0078C11.0519 25.0871 14.1199 27 17.4626 27C17.8993 27 18.3441 26.9655 18.7846 26.8975C21.6198 26.4561 23.8168 24.9274 25.3141 22.3539C25.4972 22.0387 25.6274 21.957 25.9471 21.957H25.9864C26.5176 21.957 27.013 21.7598 27.3814 21.4018C27.7708 21.0239 27.9876 20.5079 27.9916 19.9487C28.0028 18.4746 28.0028 16.8807 27.9917 14.9328Z" fill="#28A6FF"/>
<path d="M14.5262 21.7271H16.0593L17.494 17.0402L18.9286 21.7271H20.4619L22.7323 13.3351L22.7492 13.2722H20.8074L19.6038 18.1077L18.1915 13.2722H16.7965L15.3863 18.1042L14.2018 13.3103L14.1924 13.2722H12.2506L14.5262 21.7271Z" fill="#28A6FF"/>
</svg>
