<svg width="66" height="65" viewBox="0 0 66 65" fill="none" xmlns="http://www.w3.org/2000/svg">
<circle cx="33" cy="32.5" r="32.5" fill="#16D8AC" fill-opacity="0.0980392"/>
<path fill-rule="evenodd" clip-rule="evenodd" d="M38.5581 23.7929V31.1738C34.8266 31.1889 31.7924 34.1611 31.6772 37.8681C31.5927 37.9272 31.5087 37.9897 31.4252 38.0556V37.5898C31.4248 33.665 31.4248 29.7402 31.4238 25.8154C31.4238 25.6708 31.4218 25.5263 31.4169 25.3823C31.3916 24.7036 31.3911 24.704 32.0312 24.415C32.9306 24.0087 33.8725 23.7939 34.8613 23.7929C36.0844 23.7919 37.3076 23.7929 38.5581 23.7929Z" fill="url(#paint0_linear_1_4579)"/>
<path fill-rule="evenodd" clip-rule="evenodd" d="M25.4844 20.2441C26.9656 20.2773 28.1774 20.8103 29.0835 21.9587C29.7702 22.829 30.1659 23.8355 30.1973 24.9358C30.2498 26.773 30.2372 28.6122 30.2425 30.4505C30.2484 32.5253 30.2438 34.6001 30.2147 36.6918C29.9273 35.6414 29.3988 34.7562 28.5039 34.116C27.6077 33.4749 26.5949 33.2676 25.4844 33.3359C25.4844 28.9709 25.4844 24.6325 25.4844 20.2441Z" fill="url(#paint1_linear_1_4579)"/>
<path fill-rule="evenodd" clip-rule="evenodd" d="M31.7524 39.1318C31.8193 39.5737 31.9282 40.0015 32.0747 40.4116C32.064 40.4126 32.0532 40.4136 32.043 40.4136C31.2397 40.4312 30.4355 40.4312 29.6323 40.4136C29.4814 40.4106 29.2983 40.3394 29.1885 40.2373C28.458 39.5601 27.6074 39.2295 26.6079 39.2363C24.8027 39.2485 22.9976 39.2397 21.1929 39.2397H20.7295V24.9961H21.8799V38.0562H22.3374C23.7603 38.0557 25.1831 38.064 26.606 38.0513C27.7139 38.041 28.6973 38.374 29.5977 39.0093C29.7847 39.1406 30.0474 39.1655 30.2759 39.2373C30.2998 39.2446 30.3286 39.2363 30.355 39.2383C30.8433 39.2739 31.3076 39.2598 31.7524 39.1318Z" fill="url(#paint2_linear_1_4579)"/>
<path fill-rule="evenodd" clip-rule="evenodd" d="M40.9355 26.1807V31.5835C40.5562 31.4463 40.1611 31.3413 39.7539 31.272V26.1807H40.9355Z" fill="url(#paint3_linear_1_4579)"/>
<path fill-rule="evenodd" clip-rule="evenodd" d="M24.2599 34.5119C24.9471 34.5119 25.5653 34.4993 26.1828 34.5144C27.6907 34.5513 29.0141 35.8357 29.0159 37.3082C27.0917 36.5627 25.0878 37.0172 23.1055 36.8439C23.1055 32.1187 23.1055 27.3965 23.1055 22.6418C23.4705 22.6418 23.8441 22.6418 24.2599 22.6418C24.2599 26.5738 24.2599 30.5176 24.2599 34.5119Z" fill="url(#paint4_linear_1_4579)"/>
<path fill-rule="evenodd" clip-rule="evenodd" d="M40.6197 38.7642C40.6099 39.5298 39.9849 40.1328 39.2149 40.1201C38.4805 40.1084 37.8731 39.4829 37.8799 38.7461C37.8873 37.9707 38.5128 37.3667 39.293 37.3814C40.0245 37.3955 40.6295 38.0259 40.6197 38.7642Z" fill="#16D8AC"/>
<path fill-rule="evenodd" clip-rule="evenodd" d="M39.25 32.5C35.7983 32.5 33 35.2983 33 38.75C33 42.2017 35.7983 45 39.25 45C42.7017 45 45.5 42.2017 45.5 38.75C45.5 35.2983 42.7017 32.5 39.25 32.5ZM42.729 40.3935C42.6333 40.581 42.5268 40.7641 42.4121 40.9409C42.1724 41.31 41.7168 41.4218 41.3271 41.2163C41.2568 41.1787 41.1899 41.1337 41.1172 41.1015C40.7627 40.9453 40.3735 41.1826 40.3486 41.5693C40.3437 41.6435 40.3481 41.7177 40.3452 41.7919C40.3286 42.2241 39.9868 42.5688 39.5557 42.5864C39.4531 42.5903 39.3501 42.5869 39.2476 42.5869C39.2476 42.5873 39.2476 42.5873 39.2476 42.5878H39.1616C38.458 42.5878 38.1733 42.3139 38.1523 41.6166C38.1387 41.1611 37.7183 40.9189 37.3164 41.1342C37.2559 41.1664 37.1977 41.2031 37.1362 41.2324C36.8686 41.3598 36.5893 41.3691 36.3545 41.1928C35.981 40.913 35.7583 40.5175 35.689 40.06C35.6421 39.7475 35.8022 39.4985 36.0664 39.3242C36.1333 39.2807 36.2056 39.2451 36.2705 39.1992C36.5889 38.9736 36.5864 38.5229 36.2656 38.2993C36.21 38.2602 36.1479 38.2294 36.0898 38.1933C35.6914 37.9472 35.5654 37.4897 35.7861 37.0776C35.8691 36.9218 35.959 36.7695 36.0503 36.6181C36.3105 36.184 36.7764 36.0624 37.2163 36.3105C37.2607 36.3359 37.3047 36.3632 37.3506 36.3857C37.7226 36.5688 38.1318 36.3286 38.1514 35.915C38.1548 35.8525 38.1514 35.7895 38.1533 35.7265C38.165 35.2763 38.5107 34.9267 38.96 34.915C39.1484 34.9101 39.3369 34.9111 39.5254 34.9145C39.9858 34.9233 40.334 35.2709 40.3462 35.7299C40.3481 35.8041 40.3428 35.8788 40.3506 35.9526C40.3901 36.332 40.7729 36.5537 41.1211 36.3979C41.2041 36.3608 41.2808 36.309 41.3628 36.2695C41.7388 36.0873 42.1748 36.2006 42.4048 36.5497C42.5234 36.7304 42.6328 36.9189 42.7309 37.1118C42.9228 37.4907 42.8008 37.9316 42.4477 38.1679C42.3769 38.2153 42.2993 38.2529 42.2295 38.3022C41.9101 38.5268 41.9121 38.9785 42.2334 39.2016C42.3032 39.2504 42.3808 39.288 42.4517 39.3359C42.8042 39.5742 42.9228 40.0146 42.729 40.3935Z" fill="#16D8AC"/>
<defs>
<linearGradient id="paint0_linear_1_4579" x1="34.4767" y1="14.6381" x2="34.4767" y2="30.924" gradientUnits="userSpaceOnUse">
<stop stop-color="white"/>
<stop offset="1" stop-color="#16D8AC"/>
</linearGradient>
<linearGradient id="paint1_linear_1_4579" x1="27.527" y1="9.68765" x2="27.527" y2="28.4679" gradientUnits="userSpaceOnUse">
<stop stop-color="white"/>
<stop offset="1" stop-color="#16D8AC"/>
</linearGradient>
<linearGradient id="paint2_linear_1_4579" x1="25.5976" y1="15.0923" x2="25.5976" y2="32.7113" gradientUnits="userSpaceOnUse">
<stop stop-color="white"/>
<stop offset="1" stop-color="#16D8AC"/>
</linearGradient>
<linearGradient id="paint3_linear_1_4579" x1="40.2609" y1="22.713" x2="40.2609" y2="28.8821" gradientUnits="userSpaceOnUse">
<stop stop-color="white"/>
<stop offset="1" stop-color="#16D8AC"/>
</linearGradient>
<linearGradient id="paint4_linear_1_4579" x1="25.6416" y1="13.2286" x2="25.6416" y2="29.9749" gradientUnits="userSpaceOnUse">
<stop stop-color="white"/>
<stop offset="1" stop-color="#16D8AC"/>
</linearGradient>
</defs>
</svg>
