<svg width="20" height="20" viewBox="0 0 20 20" fill="none" xmlns="http://www.w3.org/2000/svg">
<g clip-path="url(#clip0_118_1991)">
<path opacity="0.6" d="M20 13.9406C20 16.7306 17.76 18.9906 14.97 19.0006H14.96H5.05C2.27 19.0006 0 16.7506 0 13.9606V13.9506C0 13.9506 0.006 9.52461 0.014 7.29861C0.015 6.88061 0.495 6.64661 0.822 6.90661C3.198 8.79161 7.447 12.2286 7.5 12.2736C8.21 12.8426 9.11 13.1636 10.03 13.1636C10.95 13.1636 11.85 12.8426 12.56 12.2626C12.613 12.2276 16.767 8.89361 19.179 6.97761C19.507 6.71661 19.989 6.95061 19.99 7.36761C20 9.57661 20 13.9406 20 13.9406Z" fill="white"/>
<path d="M19.4764 3.674C18.6104 2.042 16.9064 1 15.0304 1H5.05037C3.17437 1 1.47037 2.042 0.604372 3.674C0.410372 4.039 0.502372 4.494 0.825372 4.752L8.25037 10.691C8.77037 11.111 9.40037 11.32 10.0304 11.32C10.0344 11.32 10.0374 11.32 10.0404 11.32C10.0434 11.32 10.0474 11.32 10.0504 11.32C10.6804 11.32 11.3104 11.111 11.8304 10.691L19.2554 4.752C19.5784 4.494 19.6704 4.039 19.4764 3.674Z" fill="white"/>
</g>
<defs>
<clipPath id="clip0_118_1991">
<rect width="20" height="20" fill="white"/>
</clipPath>
</defs>
</svg>
