<svg width="441" height="552" viewBox="0 0 441 552" fill="none" xmlns="http://www.w3.org/2000/svg">
<path d="M19.1482 132.729C22.6798 132.729 25.5425 129.867 25.5425 126.335C25.5425 122.804 22.6798 119.941 19.1482 119.941C15.6166 119.941 12.7539 122.804 12.7539 126.335C12.7539 129.867 15.6171 132.729 19.1482 132.729Z" stroke="black" stroke-width="2"/>
<path d="M31.6783 126.986C44.5756 125.658 64.813 127.228 67.2054 137.205C69.5974 147.181 60.4634 150.83 55.5979 151.408C37.0717 154.352 12.5078 152.966 12.5078 137.205" stroke="black" stroke-width="2" stroke-linecap="round"/>
<path d="M27.0195 142.075C27.8346 142.075 28.4952 141.414 28.4952 140.599C28.4952 139.784 27.8346 139.124 27.0195 139.124C26.2045 139.124 25.5439 139.784 25.5439 140.599C25.5439 141.414 26.2045 142.075 27.0195 142.075Z" stroke="black" stroke-width="2"/>
<path d="M41.2824 140.599C41.2824 141.316 40.615 142.075 39.5614 142.075C38.5078 142.075 37.8398 141.316 37.8398 140.599C37.8398 139.882 38.5078 139.124 39.5614 139.124C40.615 139.124 41.2824 139.882 41.2824 140.599Z" stroke="black" stroke-width="2"/>
<path d="M52.1035 142.075C52.9186 142.075 53.5791 141.414 53.5791 140.599C53.5791 139.784 52.9186 139.124 52.1035 139.124C51.289 139.124 50.6279 139.784 50.6279 140.599C50.6279 141.414 51.289 142.075 52.1035 142.075Z" stroke="black" stroke-width="2"/>
<path d="M398.018 47.341C401.279 47.341 403.92 44.6981 403.92 41.4385C403.92 38.1789 401.279 35.5361 398.018 35.5361C394.757 35.5361 392.115 38.1789 392.115 41.4385C392.115 44.6981 394.757 47.341 398.018 47.341Z" stroke="black" stroke-width="2.5"/>
<path d="M409.615 36.2739C413.939 36.2739 426.299 36.2739 432.113 36.2739C436.82 36.2739 439.088 37.3157 439.088 44.6071C439.088 51.6915 439.029 60.8683 439.088 64.572C439.127 67.176 437.833 70.0578 433.505 70.4745C429.182 70.8911 411.824 70.6481 403.683 70.4745C400.658 70.4745 395.312 68.7608 395.312 61.794V53.9816" stroke="black" stroke-width="2.5" stroke-linecap="round"/>
<path d="M406.625 48.5713L417.446 55.9493" stroke="black" stroke-width="2.5" stroke-linecap="round"/>
<path d="M417.445 55.9486L437.12 37.7495" stroke="black" stroke-width="2.5" stroke-linecap="round"/>
<path d="M422.434 51.5225L427.81 56.933L433.186 62.3435" stroke="black" stroke-width="2.5" stroke-linecap="round"/>
<path d="M402.689 62.3435L410.623 51.5225" stroke="black" stroke-width="2.5" stroke-linecap="round"/>
<path d="M23.6027 338.321C21.797 331.682 15.8007 319.438 6.26535 323.577C-3.27055 327.715 2.29176 335.13 6.26535 338.321C8.93901 340.046 14.6872 341.891 16.2885 335.475C17.8897 329.06 11.1415 326.422 9.2449 329.268C8.24485 330.388 7.11521 333.199 10.5996 335.475" stroke="black" stroke-width="2" stroke-linecap="round"/>
<path d="M64.5397 2.18427L74.6521 9.37427C75.6114 10.0569 76.9054 10.0495 77.8573 9.3561L87.8858 2.05167C87.9538 2.00256 88.0004 1.99667 88.0316 1.99765C88.0722 1.99864 88.1253 2.01337 88.1774 2.0502C88.2289 2.08703 88.2601 2.13221 88.274 2.17002C88.2849 2.199 88.2944 2.24467 88.2686 2.32422L84.4903 14.0725C84.1313 15.1873 84.5383 16.4042 85.4982 17.0863L95.61 24.2768C95.6785 24.3254 95.6988 24.3676 95.7077 24.3971C95.7191 24.4359 95.7211 24.4904 95.7018 24.5508C95.6824 24.6107 95.6487 24.6539 95.617 24.679C95.5922 24.6981 95.5515 24.7212 95.4672 24.7217L83.0193 24.7924C81.8384 24.7988 80.7957 25.5585 80.4368 26.6733L76.6585 38.4216C76.6327 38.5011 76.598 38.533 76.5727 38.5502C76.539 38.5733 76.4874 38.592 76.4235 38.5925C76.3595 38.593 76.308 38.5743 76.2743 38.5522C76.2485 38.535 76.2133 38.5031 76.187 38.424L72.2723 26.7195C71.901 25.6086 70.85 24.8612 69.6685 24.8681L57.2211 24.9388C57.1368 24.9393 57.0952 24.9162 57.0709 24.8975C57.0381 24.873 57.0044 24.8302 56.9841 24.7703C56.9643 24.7104 56.9658 24.6559 56.9767 24.6171C56.9856 24.5872 57.0049 24.5444 57.0728 24.4953L67.1009 17.1909C68.0528 16.4975 68.4455 15.2761 68.0741 14.1653L64.16 2.46074C64.1332 2.38168 64.1426 2.33552 64.1525 2.30655C64.1664 2.26873 64.1967 2.22306 64.2482 2.18574C64.2998 2.14841 64.3523 2.13319 64.393 2.13172C64.4242 2.13024 64.4713 2.13565 64.5397 2.18427Z" stroke="black" stroke-width="2.5"/>
<path d="M122.607 220.637L129.202 340.476C129.345 343.084 131.501 345.125 134.113 345.125H318.089C320.805 345.125 323.007 342.923 323.007 340.206V217.798C323.007 215.055 320.764 212.843 318.022 212.88L127.452 215.449C124.656 215.486 122.453 217.845 122.607 220.637Z" fill="black"/>
<path d="M132.901 346.846H318.335C320.916 346.846 323.008 348.938 323.008 351.519C323.008 354.1 320.916 356.192 318.335 356.192H132.901C130.32 356.192 128.229 354.1 128.229 351.519C128.229 348.938 130.32 346.846 132.901 346.846Z" fill="black"/>
<path d="M216.265 226.949V268.925" stroke="black" stroke-width="5" stroke-linecap="round"/>
<path d="M248.554 232.33V272.154" stroke="black" stroke-width="5" stroke-linecap="round"/>
<path d="M174.793 413.152C164.476 414.447 140.321 419.222 135.031 428.932C133.443 431.846 131.602 438.934 136.935 443.983C142.269 449.031 152.015 447.708 156.221 446.409L180.746 436.457" stroke="black" stroke-width="2.5" stroke-linecap="round"/>
<path d="M316.29 340C296.852 340.627 210.999 382.255 170.502 402.992C167.054 425.841 181.606 442.248 189.314 447.594C229.68 435.857 312.527 412.069 320.992 410.817C329.458 409.565 337.844 403.514 340.979 400.645C362.926 374.978 346.727 353.173 335.884 345.478C328.166 340 321.503 339.832 316.29 340Z" fill="black"/>
<path d="M134.218 334.718C148.014 335.629 208.198 358.708 236.714 370.804L171.499 403.049C142.312 411.518 124.383 408.728 118.907 406.903C87.3011 391.835 99.6845 354.665 112.242 340.895C120.336 334.079 129.275 334.392 134.218 334.718Z" fill="black"/>
<path d="M287.393 417.458C296.035 421.603 300.707 427.035 303.076 431.49C308.153 443.09 299.037 450.06 288.63 446.785C282.878 444.971 281.522 443.756 278.477 441.236C276.931 439.956 269.712 433.259 261.47 425.349" stroke="black" stroke-width="2.5" stroke-linecap="round"/>
<path d="M248.554 161.296C265.715 161.051 303.488 174.074 318.515 215.109" stroke="black" stroke-width="2" stroke-linecap="round"/>
<path d="M210.883 160.217C172.015 167.905 153.437 184.771 138.77 217.262" stroke="black" stroke-width="2" stroke-linecap="round"/>
<path d="M328.201 242.017C337.082 256.358 347.162 273.419 328.201 305.52" stroke="black" stroke-width="2" stroke-linecap="round"/>
<path d="M248.678 162.429C250.86 155.823 248.872 151.377 246.932 150.53C235.292 161.71 217.639 157.56 211.092 150.784C208.764 153.02 210.122 159.634 211.092 161.667C223.701 176.304 241.645 168.104 248.678 162.429Z" fill="black"/>
<path d="M196.891 201.117L200.796 195.28C204.603 189.591 212.011 187.32 218.478 189.859L227.786 193.513C233.593 195.794 240.246 194.212 244.321 189.583L255.012 177.438" stroke="black" stroke-width="2" stroke-linecap="round"/>
<path d="M119.925 251.704C116.385 260.319 112.185 281.205 123.7 295.833" stroke="black" stroke-width="2" stroke-linecap="round"/>
<path d="M282.683 61.7122C277.29 81.1421 274.594 82.8637 266.749 91.4719C266.749 82.9646 265.293 68.6849 265.293 62.7388C239.607 62.7388 217.93 52.2192 210.302 46.9593C210.576 64.7969 193.908 76.4602 193.908 76.4602C193.908 76.4602 196.299 83.664 197.665 99.7869C198.758 112.685 195.616 110.192 193.908 107.334C188.989 91.4168 180.928 95.6702 177.513 99.7869C135.6 31.4607 200.056 18.2582 212.351 19.516C221.642 11.5576 234.598 5.32089 243.706 4.40645C276.555 1.10731 291.428 30.2073 282.683 61.7122Z" fill="black"/>
<path d="M194.737 119.626C199.147 146.739 228.742 166.234 250.098 144.272C271.454 122.309 267.181 82.1073 264.899 63.3477" stroke="black" stroke-width="2" stroke-linecap="round"/>
<path d="M177.353 97.79C174.667 104.484 177.187 119.316 194.738 119.316" stroke="black" stroke-width="2" stroke-linecap="round"/>
<path d="M185.171 102.095C184.791 103.427 185.095 106.585 189.356 108.553" stroke="black" stroke-width="2" stroke-linecap="round"/>
<path d="M264.698 116.088C270.468 113.658 274.536 104.662 272.971 90.2559" stroke="black" stroke-width="2" stroke-linecap="round"/>
<path d="M231.333 131.921C237.046 133.397 236.685 129.337 241.02 125.774" stroke="black" stroke-width="2" stroke-linecap="round"/>
<path d="M249.092 101.019C251.173 101.019 252.859 99.5733 252.859 97.79C252.859 96.0067 251.173 94.561 249.092 94.561C247.012 94.561 245.325 96.0067 245.325 97.79C245.325 99.5733 247.012 101.019 249.092 101.019Z" fill="black"/>
<path d="M216.264 102.095C218.047 102.095 219.493 100.409 219.493 98.3282C219.493 96.2476 218.047 94.561 216.264 94.561C214.481 94.561 213.035 96.2476 213.035 98.3282C213.035 100.409 214.481 102.095 216.264 102.095Z" fill="black"/>
<path d="M207.653 90.2561C208.466 87.9827 211.971 83.7769 219.493 85.1408" stroke="black" stroke-width="2" stroke-linecap="round"/>
<path d="M242.096 85.9505C243.89 84.326 248.769 82.0519 253.935 85.9505" stroke="black" stroke-width="2" stroke-linecap="round"/>
<path d="M230.604 95.6377C230.103 100.437 229.762 110.17 232.409 110.706" stroke="black" stroke-width="2" stroke-linecap="round"/>
<path d="M342.193 200.041L351.88 183.896" stroke="black" stroke-width="2.5" stroke-linecap="round"/>
<path d="M351.881 204.346L364.797 193.583" stroke="black" stroke-width="2.5" stroke-linecap="round"/>
<path d="M354.033 210.99C356.505 212.029 362.118 213.016 364.796 208.651" stroke="black" stroke-width="2.5" stroke-linecap="round"/>
<path d="M101.913 196.581L87.1572 181.333" stroke="black" stroke-width="2.5" stroke-linecap="round"/>
<path d="M116.915 194.122L108.062 171.25" stroke="black" stroke-width="2.5" stroke-linecap="round"/>
<path d="M98.2242 205.189L87.1572 201.008" stroke="black" stroke-width="2.5" stroke-linecap="round"/>
<path d="M223.26 551.998C290.729 551.998 345.423 545.492 345.423 537.467C345.423 529.442 290.729 522.937 223.26 522.937C155.792 522.937 101.098 529.442 101.098 537.467C101.098 545.492 155.792 551.998 223.26 551.998Z" fill="black"/>
<path d="M412.282 378.848L418.92 375.003L420.467 376.541L410.134 382.442L408.881 381.195L412.896 373.709L405.484 377.817L404.231 376.571L410.014 366.145L411.557 367.68L407.789 374.376L414.675 370.78L415.793 371.892L412.282 378.848ZM427.35 384.237C428.27 383.292 428.555 381.854 428.057 380.665C427.819 380.096 427.402 379.696 426.995 379.307L426.857 379.177C426.771 379.162 426.746 379.051 426.751 378.905C426.754 378.804 426.773 378.686 426.798 378.571C426.802 378.559 426.803 378.546 426.805 378.532C426.838 378.421 426.866 378.314 426.892 378.2C426.898 378.179 426.904 378.161 426.908 378.146C426.912 378.138 426.916 378.13 426.915 378.122L426.917 378.121C428.444 372.138 427.119 367.022 422.972 362.897C422.902 362.827 422.834 362.76 422.761 362.692C422.152 362.101 421.431 361.567 420.564 361.065C420.299 360.91 419.998 360.89 419.735 361.013C419.489 361.129 419.314 361.354 419.259 361.633C419.162 362.106 419.447 362.358 419.77 362.563C420.043 362.737 420.288 362.903 420.521 363.073L420.599 363.131C420.658 363.174 420.71 363.211 420.763 363.251L420.788 363.273C420.963 363.404 421.133 363.538 421.302 363.683C421.366 363.735 421.426 363.788 421.491 363.844C421.783 364.096 422.078 364.376 422.356 364.673C422.428 364.745 422.5 364.824 422.578 364.91C422.693 365.04 422.806 365.167 422.918 365.301C423.003 365.406 423.089 365.515 423.175 365.623C426.173 369.453 426.823 374.794 424.88 379.596L426.172 380.881C426.89 381.594 426.854 382.527 426.078 383.318L420.132 389.352C419.349 390.147 418.41 390.191 417.679 389.467C417.27 389.06 416.855 388.652 416.444 388.242C412.016 390.147 407.114 389.827 403.295 387.37C403.204 387.314 403.113 387.254 403.023 387.192L403.13 387.028L403.103 387.016L402.999 387.176C400.199 385.307 398.28 382.43 397.595 379.081L397.587 379.046C397.569 378.966 397.553 378.88 397.539 378.793C397.33 377.732 397.247 376.626 397.293 375.506L397.291 375.504L397.289 375.334C397.34 374.436 397.468 373.578 397.677 372.712L397.717 372.554C397.899 371.805 398.144 371.063 398.442 370.341L397.156 369.062C396.517 368.426 396.422 367.645 396.895 366.922C396.978 366.799 397.086 366.682 397.192 366.574C399.182 364.552 401.173 362.531 403.166 360.513C403.924 359.743 404.876 359.701 405.589 360.411L406.963 361.777C408.68 361.058 410.47 360.667 412.285 360.615C412.397 360.614 412.51 360.61 412.622 360.609H412.653C412.731 360.609 412.804 360.608 412.886 360.608C412.961 360.61 413.041 360.611 413.12 360.617C413.229 360.616 413.345 360.62 413.461 360.627L413.704 360.643C413.857 360.652 414.016 360.667 414.195 360.685C414.338 360.7 414.489 360.719 414.647 360.739C414.907 360.773 415.177 360.809 415.441 360.61C415.658 360.45 415.901 360.168 415.823 359.745C415.781 359.518 415.665 359.209 415.124 359.131C412.942 358.823 410.742 358.968 408.583 359.558C408.469 359.591 408.349 359.635 408.232 359.682L408.19 359.698C407.84 359.838 407.658 359.894 407.496 359.85C407.452 359.84 407.388 359.815 407.313 359.765L407.271 359.726L406.953 359.399C406.877 359.307 406.779 359.195 406.674 359.098C406.571 359.007 406.46 358.916 406.366 358.85C405.57 358.225 404.47 358.088 403.479 358.479C403.045 358.649 402.657 358.906 402.323 359.245L395.896 365.766C395.634 366.033 395.42 366.34 395.257 366.673C394.692 367.845 394.879 369.194 395.723 370.033C395.877 370.21 396.043 370.374 396.25 370.56L396.41 370.716L396.544 370.85L396.502 371.037C396.497 371.066 396.485 371.109 396.47 371.148C394.596 376.867 395.901 382.882 399.878 386.837C400.397 387.353 400.97 387.837 401.576 388.27C405.492 391.079 409.987 391.777 414.931 390.347C415.667 390.133 416.055 390.217 416.535 390.694L416.583 390.742C417.164 391.32 417.928 391.634 418.735 391.626C419.592 391.617 420.418 391.257 421.061 390.616C422.923 388.756 424.922 386.727 427.35 384.237Z" fill="black"/>
<path d="M70.8477 471.998V489.799" stroke="black" stroke-width="3" stroke-linecap="round"/>
<path d="M77.0977 489.797L86.8734 481.885" stroke="black" stroke-width="3" stroke-linecap="round"/>
<path d="M57 478.208L64.3336 489.794" stroke="black" stroke-width="3" stroke-linecap="round"/>
</svg>
