<svg width="66" height="65" viewBox="0 0 66 65" fill="none" xmlns="http://www.w3.org/2000/svg">
<circle cx="33" cy="32.5" r="32.5" fill="#FFCD1B" fill-opacity="0.0980392"/>
<path fill-rule="evenodd" clip-rule="evenodd" d="M39.3347 24.147C35.1388 19.9512 28.3478 19.9507 24.151 24.147C20.777 27.5216 20.1393 32.5382 22.1344 36.5338L21.0285 41.3985C20.8844 42.0304 21.4513 42.5977 22.0836 42.4537L26.9484 41.3477C29.0822 42.4132 31.342 42.692 33.4577 42.3409C33.1745 41.587 33.0197 40.7706 33.0197 39.9176C33.0197 36.1085 36.1081 33.0201 39.9172 33.0201C40.7722 33.0201 41.591 33.1759 42.3464 33.46C42.4343 32.9034 42.4797 32.3292 42.4797 31.7393C42.4797 28.8712 41.363 26.1754 39.3347 24.147ZM33.9827 34.4127H27.2639C26.7766 34.4127 26.3821 34.0177 26.3821 33.5309C26.3821 33.0441 26.7766 32.649 27.2639 32.649H33.9827C34.47 32.649 34.8645 33.0441 34.8645 33.5309C34.8645 34.0177 34.47 34.4127 33.9827 34.4127ZM36.2224 30.8292H27.2639C26.7766 30.8292 26.3821 30.4347 26.3821 29.9474C26.3821 29.4606 26.7766 29.0656 27.2639 29.0656H36.2224C36.7097 29.0656 37.1043 29.4606 37.1043 29.9474C37.1043 30.4347 36.7097 30.8292 36.2224 30.8292Z" fill="url(#paint0_linear_1_4616)"/>
<path fill-rule="evenodd" clip-rule="evenodd" d="M42.5162 42.2655C42.1373 41.8866 41.7579 41.5082 41.3785 41.1302C41.3561 41.1078 41.3341 41.0844 41.3082 41.0668C41.2179 41.0067 41.1271 41.0096 41.049 41.0848C40.9708 41.16 40.9625 41.2504 41.0241 41.3407C41.0441 41.371 41.0704 41.3959 41.0958 41.4213C41.4723 41.7967 41.8473 42.1727 42.2262 42.5458C42.2775 42.5965 42.3449 42.6327 42.3756 42.6547C42.5719 42.6551 42.6705 42.4916 42.5949 42.3573C42.5758 42.3231 42.5451 42.2943 42.5162 42.2655Z" fill="#FFCD1B"/>
<path fill-rule="evenodd" clip-rule="evenodd" d="M40.0068 34.0137C36.6968 34.0137 34.0137 36.6968 34.0137 40.0068C34.0137 43.3169 36.6968 46 40.0068 46C43.3169 46 46 43.3169 46 40.0068C46 36.6968 43.3169 34.0137 40.0068 34.0137ZM36.6069 36.9462C36.7148 36.8373 36.8232 36.7294 36.9321 36.622C37.0127 36.5424 37.105 36.5244 37.2031 36.5829C37.5596 36.7944 37.916 37.0053 38.269 37.2221C38.3916 37.2973 38.4028 37.4218 38.313 37.5351C38.289 37.5654 38.2622 37.5937 38.227 37.6337C38.6806 38.0888 39.1274 38.5375 39.5747 38.9867C39.3906 39.1689 39.2055 39.3515 38.9951 39.559C38.5498 39.1093 38.104 38.6586 37.6528 38.2021C37.6103 38.2416 37.5757 38.2763 37.5391 38.308C37.4184 38.413 37.29 38.4018 37.207 38.2675C36.9922 37.9194 36.7832 37.5678 36.5727 37.2167C36.5142 37.1191 36.5273 37.0268 36.6069 36.9462ZM39.4825 41.3815C39.3579 41.5036 39.27 41.6134 39.3482 41.7946C39.3687 41.8415 39.3584 41.9015 39.3633 41.9552C39.4532 42.8917 38.5489 43.6588 37.6333 43.422C37.4283 43.3688 37.3804 43.2023 37.5288 43.049C37.6602 42.9132 37.7964 42.7809 37.9302 42.6471C37.9717 42.6056 38.0147 42.5656 38.0528 42.5216C38.2036 42.3483 38.2002 42.1139 38.0469 41.9606C37.8946 41.8082 37.6514 41.798 37.4844 41.9518C37.3018 42.1193 37.1324 42.3009 36.9541 42.4733C36.7969 42.6256 36.627 42.5734 36.5747 42.3595C36.5157 42.1178 36.5235 41.8771 36.5957 41.6398C36.8125 40.9245 37.521 40.5104 38.2618 40.674C38.3907 40.7023 38.4722 40.6808 38.5664 40.5851C39.2383 39.9054 39.9156 39.2311 40.5952 38.5592C40.6748 38.4806 40.7061 38.4142 40.6729 38.3034C40.6411 38.1969 40.6358 38.0827 40.6192 37.9718C40.626 37.068 41.4634 36.3869 42.3399 36.5861C42.417 36.6037 42.5049 36.6647 42.5454 36.7311C42.5996 36.8215 42.5381 36.9084 42.4649 36.9797C42.3032 37.1369 42.1392 37.2922 41.9883 37.4591C41.9248 37.5295 41.8716 37.6227 41.8521 37.714C41.815 37.8839 41.9048 38.0412 42.0523 38.1203C42.2124 38.2057 42.3882 38.1881 42.5278 38.0573C42.7051 37.8908 42.8755 37.7165 43.0469 37.5436C43.1152 37.4748 43.1992 37.4186 43.2857 37.4704C43.3496 37.5085 43.4087 37.5885 43.4282 37.6613C43.5112 37.963 43.4761 38.2604 43.3462 38.5436C43.0586 39.1715 42.4209 39.4884 41.7383 39.338C41.6153 39.3107 41.5362 39.3302 41.4448 39.423C40.7959 40.0807 40.1421 40.734 39.4825 41.3815ZM43.4298 42.9116C43.2365 43.4888 42.5201 43.6538 42.0778 43.2183C41.4572 42.6084 40.8444 41.9912 40.2281 41.377C40.2032 41.352 40.1818 41.3242 40.1627 41.3027C40.5441 40.9224 40.92 40.5469 41.3019 40.166C41.3112 40.1704 41.3204 40.1724 41.3268 40.1782C41.9718 40.8213 42.6207 41.4595 43.2589 42.1094C43.4772 42.3315 43.5299 42.6133 43.4298 42.9116Z" fill="#FFCD1B"/>
<defs>
<linearGradient id="paint0_linear_1_4616" x1="22.7662" y1="16.3608" x2="22.7662" y2="34.3229" gradientUnits="userSpaceOnUse">
<stop stop-color="white"/>
<stop offset="1" stop-color="#FFCD1B"/>
</linearGradient>
</defs>
</svg>
