<svg width="50" height="50" viewBox="0 0 50 50" fill="none" xmlns="http://www.w3.org/2000/svg">
<rect opacity="0.7" x="0.5" y="0.5" width="49" height="49" rx="11.5" fill="#DF146E" fill-opacity="0.0980392" stroke="#DF146E"/>
<path fill-rule="evenodd" clip-rule="evenodd" d="M32.716 27.6831L21.4336 25.8901L22.9609 32.5507L32.716 27.6831ZM33.1744 27.1387L24.3025 14.8203L21.4072 25.2992L33.1744 27.1387ZM20.8566 25.1532L11.5664 13.2798L23.7387 14.7341L20.8566 25.1532ZM16.3473 20.2325L11.1875 15.3716H12.5422L16.3473 20.2325ZM35.9439 21.1558L33.7592 27.0726L30.2197 22.1784L35.9439 21.1558ZM24.3359 32.4645L32.9023 29.0246L33.2676 27.9355L24.3359 32.4645ZM17.1973 38.7199L20.8695 25.8438L22.7289 34.2242L17.1973 38.7199ZM36.4686 21.1953L35.5654 23.6391L38.8127 23.5859L36.4686 21.1953Z" fill="#DF146E"/>
</svg>
