<svg xmlns="http://www.w3.org/2000/svg" width="14" height="14" viewBox="0 0 14 14"><mask id="a" width="14" height="12" x="0" y="1" maskUnits="userSpaceOnUse" style="mask-type:alpha"><path d="M13.5 1H.5v12h13V1z"/></mask><g mask="url(#a)"><path fill-rule="evenodd" d="M10.2 4.421H3.787c-.21 0-.368.158-.368.34v1.165c0 .194.17.34.368.34h6.415c.21 0 .368-.158.368-.34V4.761c.013-.182-.158-.34-.368-.34zm-6.112.813c-.131 0-.223-.097-.223-.206 0-.121.105-.206.223-.206.132 0 .224.097.224.206 0 .121-.092.206-.224.206zm5.508.62H7.979v-.498h1.617v.497z" clip-rule="evenodd"/><path fill-rule="evenodd" d="M10.2 6.958H3.787c-.21 0-.368.157-.368.34v1.164c0 .194.17.34.368.34h6.415c.21 0 .368-.158.368-.34V7.297c.013-.194-.158-.34-.368-.34zm-6.112.813c-.131 0-.223-.098-.223-.207 0-.121.105-.206.223-.206.132 0 .224.097.224.206 0 .11-.092.207-.224.207zm5.508.606H7.979V7.88h1.617v.497zM10.2 9.481H3.787c-.21 0-.368.158-.368.34v1.165c0 .194.17.34.368.34h6.415c.21 0 .368-.158.368-.34V9.82c.013-.182-.158-.34-.368-.34zm-6.112.813c-.131 0-.223-.097-.223-.206 0-.121.105-.206.223-.206.132 0 .224.097.224.206 0 .11-.092.206-.224.206zm5.508.619H7.979v-.498h1.617v.498z" clip-rule="evenodd"/><path fill-rule="evenodd" d="M10.792 2.784a.37.37 0 01-.237-.122c-.512-.643-1.34-1.031-2.221-1.031h-.171c-.079 0-.158-.012-.21-.06A3.252 3.252 0 006.099 1c-1.21 0-2.287.655-2.8 1.638a.356.356 0 01-.25.17C1.723 2.978.685 4.033.685 5.32c0 1.225.933 2.244 2.182 2.487v-.752c0-.097.013-.182.052-.267-.67-.207-1.157-.777-1.157-1.468 0-.85.75-1.541 1.67-1.541.052 0 .092 0 .131.012.263.024.5-.146.565-.376.25-.838 1.052-1.408 1.972-1.408.526 0 1.025.182 1.407.534.131.121.315.17.486.133.118-.024.223-.036.342-.036.644 0 1.222.34 1.498.874a.541.541 0 00.54.279c.052 0 .117-.012.17-.012.92 0 1.67.691 1.67 1.54 0 .68-.487 1.262-1.157 1.469.026.085.052.17.052.267v.752c1.249-.243 2.182-1.262 2.182-2.487.027-1.335-1.09-2.427-2.497-2.536z" clip-rule="evenodd"/><path fill-rule="evenodd" d="M9.372 12.127h-1.63a.089.089 0 01-.078-.05.724.724 0 00-.67-.412.724.724 0 00-.671.413.089.089 0 01-.08.049H4.615c-.04 0-.079.036-.079.072v.267c0 .037.04.073.079.073h1.643c.04 0 .066.024.079.049a.724.724 0 00.67.412c.303 0 .566-.17.67-.412a.089.089 0 01.08-.049h1.63c.039 0 .078-.036.078-.073V12.2a.094.094 0 00-.092-.072zm-2.379.497c-.184 0-.328-.133-.328-.303 0-.17.144-.304.328-.304.184 0 .33.134.33.304 0 .17-.146.303-.33.303z" clip-rule="evenodd"/></g><g><path fill-opacity=".05" d="M0 3.733c0-1.306 0-1.96.254-2.459C.478.835.835.478 1.274.254 1.774 0 2.427 0 3.734 0h6.533c1.306 0 1.96 0 2.459.254.439.224.796.581 1.02 1.02.254.5.254 1.153.254 2.46v6.533c0 1.306 0 1.96-.254 2.459-.224.439-.581.796-1.02 1.02-.5.254-1.153.254-2.46.254H3.734c-1.306 0-1.96 0-2.459-.254a2.334 2.334 0 01-1.02-1.02C0 12.226 0 11.573 0 10.266V3.734z"/></g><defs><linearGradient id="paint0_linear_545:146" x1="2.135" x2="2.131" y1="3.721" y2="6.258" gradientUnits="userSpaceOnUse"><stop stop-color="#fff"/><stop offset="1" stop-color="#130F40"/></linearGradient><linearGradient id="paint1_linear_545:146" x1="-1.578" x2="-1.609" y1="-1.586" y2="7.778" gradientUnits="userSpaceOnUse"><stop stop-color="#fff"/><stop offset="1" stop-color="#130F40"/></linearGradient></defs></svg>
