<svg width="15" height="15" viewBox="0 0 15 15" fill="none" xmlns="http://www.w3.org/2000/svg">
<path fill-rule="evenodd" clip-rule="evenodd" d="M0 9.72656V10.166C0 10.893 0.620684 11.4844 1.34766 11.4844H7.08984C7.08984 10.8588 7.22561 10.2659 7.46235 9.72656H0Z" fill="url(#paint0_linear_120_100)"/>
<path fill-rule="evenodd" clip-rule="evenodd" d="M7.17867 12.3633H5.33203V13.2422H4.89258C4.16446 13.2422 3.57422 13.8324 3.57422 14.5605C3.57422 14.8032 3.77098 15 4.01367 15H8.87484C8.02266 14.3655 7.39834 13.441 7.17867 12.3633Z" fill="url(#paint1_linear_120_100)"/>
<path fill-rule="evenodd" clip-rule="evenodd" d="M12.2026 11.4918C12.1973 11.8932 11.8698 12.2093 11.466 12.2028C11.0811 12.1964 10.7626 11.8685 10.7661 11.4824C10.77 11.0761 11.0981 10.7594 11.5071 10.767C11.8906 10.7743 12.2075 11.1048 12.2026 11.4918Z" fill="url(#paint2_linear_120_100)"/>
<path opacity="0.5" fill-rule="evenodd" clip-rule="evenodd" d="M11.4844 7.96875C9.54287 7.96875 7.96875 9.54287 7.96875 11.4844C7.96875 13.4259 9.54287 15 11.4844 15C13.4259 15 15 13.4259 15 11.4844C15 9.54287 13.4259 7.96875 11.4844 7.96875ZM13.4674 12.4212C13.4129 12.5279 13.3521 12.6324 13.2868 12.733C13.1501 12.9433 12.8905 13.0073 12.6684 12.8901C12.6283 12.8687 12.5901 12.8429 12.5487 12.8248C12.3467 12.7356 12.125 12.8707 12.1107 13.0914C12.1078 13.1335 12.1103 13.1761 12.1088 13.2182C12.0992 13.4648 11.9042 13.661 11.6586 13.6709C11.6 13.6734 11.5414 13.6715 11.4828 13.6715V13.6718H11.4341C11.033 13.6718 10.8709 13.5157 10.8588 13.1182C10.8508 12.8589 10.6113 12.7206 10.3822 12.8433C10.3478 12.8617 10.3147 12.8824 10.2793 12.8993C10.1271 12.972 9.96778 12.9771 9.83399 12.8767C9.6212 12.7174 9.49409 12.4919 9.45459 12.231C9.42784 12.0529 9.51926 11.9112 9.66993 11.8118C9.70784 11.7866 9.74893 11.7666 9.7862 11.7404C9.96778 11.6121 9.96619 11.355 9.78334 11.2273C9.75148 11.205 9.71612 11.1878 9.68299 11.1671C9.45619 11.0269 9.38419 10.766 9.51002 10.5312C9.55749 10.4424 9.60845 10.3554 9.66038 10.2691C9.80914 10.0219 10.0745 9.95242 10.3252 10.0939C10.3507 10.1082 10.3755 10.1238 10.4016 10.1369C10.6138 10.241 10.847 10.1041 10.8584 9.86832C10.86 9.83265 10.8581 9.79697 10.8591 9.76097C10.8661 9.50422 11.063 9.30513 11.3191 9.29844C11.4264 9.29557 11.5341 9.29621 11.6414 9.29812C11.9036 9.30322 12.1024 9.50135 12.1091 9.76288C12.1103 9.80525 12.1075 9.84794 12.1116 9.88967C12.1342 10.1063 12.3524 10.2324 12.5509 10.1436C12.5984 10.1225 12.642 10.0932 12.6885 10.0706C12.9032 9.96644 13.1514 10.0311 13.2826 10.2302C13.3505 10.3334 13.4126 10.4408 13.4683 10.5507C13.5779 10.7663 13.5081 11.018 13.3071 11.1524C13.2667 11.1798 13.2224 11.2011 13.1826 11.2292C13.0007 11.3572 13.0017 11.6146 13.1848 11.7417C13.2246 11.7698 13.2692 11.7911 13.3094 11.8185C13.5104 11.9542 13.5779 12.2052 13.4674 12.4212Z" fill="url(#paint3_linear_120_100)"/>
<path fill-rule="evenodd" clip-rule="evenodd" d="M13.6816 0H1.34766C0.620801 0 0 0.620801 0 1.34766V8.84766H7.99131C8.79434 7.78682 10.0544 7.08984 11.4844 7.08984C12.9144 7.08984 14.1744 7.78682 14.9774 8.84766H15V1.34766C15 0.620801 14.4085 0 13.6816 0ZM1.92105 2.85378C2.48882 2.85319 3.05689 2.85378 3.62466 2.85378C3.62466 2.85378 3.62466 2.85407 3.62466 2.85436C4.19625 2.85436 4.76812 2.85348 5.34 2.85465C5.56295 2.85524 5.61129 2.92555 5.53892 3.13913C5.3649 3.65065 5.19 4.16188 5.01568 4.67311C4.95943 4.83747 4.88912 4.88962 4.71421 4.88962C3.97447 4.8902 3.23472 4.8902 2.49498 4.88962C2.30748 4.88962 2.23804 4.836 2.18531 4.65465C2.03472 4.13551 1.88384 3.61667 1.73355 3.09753C1.67613 2.90006 1.71129 2.85407 1.92105 2.85378ZM2.82306 7.35123C2.53009 7.35152 2.28752 7.1107 2.28517 6.81685C2.28283 6.52008 2.53273 6.27047 2.82834 6.27486C3.12189 6.27896 3.36125 6.52271 3.35978 6.81627C3.35832 7.10982 3.11632 7.35094 2.82306 7.35123ZM5.0877 7.3462C4.79385 7.34327 4.55713 7.10215 4.55772 6.80596C4.55801 6.50889 4.79473 6.26954 5.08945 6.26866C5.38594 6.26749 5.62266 6.50303 5.625 6.80157C5.62734 7.10303 5.38477 7.34883 5.0877 7.3462ZM7.54862 2.41819C7.40858 2.42171 7.26795 2.42581 7.1285 2.41702C7.03094 2.41087 6.99139 2.44603 6.95975 2.53802C6.57127 3.67063 6.17664 4.8012 5.78729 5.93382C5.7577 6.01937 5.71932 6.04983 5.62704 6.04896C5.06307 6.04427 4.49881 6.04661 3.93455 6.04661C3.3744 6.04661 2.81424 6.0472 2.25409 6.04603C2.19871 6.04573 2.14129 6.04222 2.08827 6.02728C1.95643 5.99007 1.86883 5.86175 1.87469 5.72728C1.88084 5.59075 1.97664 5.47093 2.1117 5.44632C2.18993 5.43255 2.27108 5.43284 2.35077 5.43284C3.29911 5.43226 4.24715 5.43167 5.19549 5.43548C5.2869 5.43606 5.32733 5.40823 5.35604 5.32093C5.47938 4.94827 5.61092 4.57854 5.73924 4.20765C6.00379 3.443 6.26834 2.67835 6.53348 1.91429C6.55076 1.8639 6.55692 1.80882 6.63866 1.81028C6.94276 1.81526 7.24686 1.80911 7.55096 1.8138C7.72674 1.81643 7.85418 1.95472 7.85067 2.12376C7.84715 2.28782 7.72059 2.41351 7.54862 2.41819ZM11.9238 5.33203H10.166C9.92314 5.33203 9.72656 5.13545 9.72656 4.89258C9.72656 4.64971 9.92314 4.45312 10.166 4.45312H11.9238C12.1667 4.45312 12.3633 4.64971 12.3633 4.89258C12.3633 5.13545 12.1667 5.33203 11.9238 5.33203ZM11.9238 3.57422H10.166C9.92314 3.57422 9.72656 3.37764 9.72656 3.13477C9.72656 2.89189 9.92314 2.69531 10.166 2.69531H11.9238C12.1667 2.69531 12.3633 2.89189 12.3633 3.13477C12.3633 3.37764 12.1667 3.57422 11.9238 3.57422Z" fill="url(#paint4_linear_120_100)"/>
<defs>
<linearGradient id="paint0_linear_120_100" x1="0.515621" y1="9.2739" x2="0.515621" y2="10.7888" gradientUnits="userSpaceOnUse">
<stop stop-color="white"/>
<stop offset="1" stop-color="#08B2FF"/>
</linearGradient>
<linearGradient id="paint1_linear_120_100" x1="3.94047" y1="11.6843" x2="3.94047" y2="13.9567" gradientUnits="userSpaceOnUse">
<stop stop-color="white"/>
<stop offset="1" stop-color="#08B2FF"/>
</linearGradient>
<linearGradient id="paint2_linear_120_100" x1="10.8654" y1="10.397" x2="10.8654" y2="11.6347" gradientUnits="userSpaceOnUse">
<stop stop-color="white"/>
<stop offset="1" stop-color="#08B2FF"/>
</linearGradient>
<linearGradient id="paint3_linear_120_100" x1="8.45458" y1="6.15809" x2="8.45458" y2="12.2178" gradientUnits="userSpaceOnUse">
<stop stop-color="white"/>
<stop offset="1" stop-color="#08B2FF"/>
</linearGradient>
<linearGradient id="paint4_linear_120_100" x1="1.03644" y1="-2.27841" x2="1.03644" y2="5.3467" gradientUnits="userSpaceOnUse">
<stop stop-color="white"/>
<stop offset="1" stop-color="#08B2FF"/>
</linearGradient>
</defs>
</svg>
