<svg width="100" height="100" viewBox="0 0 100 100" fill="none" xmlns="http://www.w3.org/2000/svg">
<circle cx="50" cy="50" r="50" fill="#FF1B28"/>
<path d="M53.8059 50.5003L72.1068 32.1986C73.2977 31.0081 73.2977 29.0833 72.1068 27.8928C70.9163 26.7024 68.9916 26.7024 67.8011 27.8928L49.4997 46.1946L31.1989 27.8928C30.0079 26.7024 28.0837 26.7024 26.8932 27.8928C25.7023 29.0833 25.7023 31.0081 26.8932 32.1986L45.1941 50.5003L26.8932 68.8021C25.7023 69.9926 25.7023 71.9174 26.8932 73.1079C27.4865 73.7017 28.2666 74 29.0461 74C29.8255 74 30.605 73.7017 31.1989 73.1079L49.4997 54.8061L67.8011 73.1079C68.395 73.7017 69.1745 74 69.9539 74C70.7334 74 71.5129 73.7017 72.1068 73.1079C73.2977 71.9174 73.2977 69.9926 72.1068 68.8021L53.8059 50.5003Z" fill="white" stroke="white" stroke-width="0.5"/>
</svg>
