<svg width="60" height="60" viewBox="0 0 60 60" fill="none" xmlns="http://www.w3.org/2000/svg">
<circle opacity="0.5" cx="30" cy="30" r="29.5" fill="#08B2FF" fill-opacity="0.0980392" stroke="#08B2FF"/>
<mask id="mask0_821_50" style="mask-type:alpha" maskUnits="userSpaceOnUse" x="20" y="20" width="20" height="20">
<rect x="20" y="20" width="20" height="20" fill="white"/>
</mask>
<g mask="url(#mask0_821_50)">
<path fill-rule="evenodd" clip-rule="evenodd" d="M39.4141 31.7187H36.0547V26.0883L36.5982 26.5154C36.7056 26.5997 36.8332 26.6406 36.9598 26.6406C37.1335 26.6406 37.3054 26.5637 37.421 26.4167C37.6209 26.1622 37.5767 25.7939 37.3223 25.5939L30.362 20.1252C30.1496 19.9583 29.8505 19.9583 29.638 20.1252L22.6778 25.5939C22.4234 25.7939 22.3791 26.1622 22.5791 26.4167C22.779 26.6711 23.1474 26.7153 23.4018 26.5154L23.9453 26.0883V31.7187H20.5859C20.2623 31.7187 20 31.981 20 32.3046C20 32.6282 20.2623 32.8906 20.5859 32.8906H39.4141C39.7377 32.8906 40 32.6282 40 32.3046C40 31.981 39.7377 31.7187 39.4141 31.7187H39.4141ZM30 30.5446C29.6764 30.5446 29.4141 30.2823 29.4141 29.9587C29.4141 29.6351 29.6764 29.3728 30 29.3728C30.3236 29.3728 30.5859 29.6351 30.5859 29.9587C30.5859 30.2823 30.3236 30.5446 30 30.5446ZM32.0716 28.7157C31.9572 28.8301 31.8073 28.8874 31.6573 28.8874C31.5073 28.8874 31.3574 28.8301 31.243 28.7157C30.5576 28.0304 29.4425 28.0304 28.7571 28.7157C28.5282 28.9446 28.1573 28.9446 27.9284 28.7157C27.6996 28.4869 27.6996 28.1159 27.9284 27.8871C29.0707 26.7448 30.9293 26.7448 32.0716 27.8871C32.3005 28.1159 32.3005 28.4869 32.0716 28.7157H32.0716ZM33.729 27.0585C33.6145 27.1729 33.4646 27.2301 33.3147 27.2301C33.1647 27.2301 33.0147 27.1729 32.9004 27.0585C31.3012 25.4593 28.699 25.4593 27.0999 27.0585C26.8711 27.2873 26.5001 27.2873 26.2712 27.0585C26.0424 26.8297 26.0424 26.4587 26.2712 26.2298C28.3274 24.1737 31.6729 24.1737 33.729 26.2298C33.9578 26.4587 33.9578 26.8297 33.729 27.0585H33.729Z" fill="#08B2FF"/>
<path fill-rule="evenodd" clip-rule="evenodd" d="M23.5547 40C22.9085 40 22.3828 39.4743 22.3828 38.8281C22.3828 38.182 22.9085 37.6562 23.5547 37.6562C24.2009 37.6562 24.7266 38.182 24.7266 38.8281C24.7266 39.4743 24.2009 40 23.5547 40Z" fill="#08B2FF"/>
<path fill-rule="evenodd" clip-rule="evenodd" d="M36.4453 40C35.7991 40 35.2734 39.4743 35.2734 38.8281C35.2734 38.182 35.7991 37.6562 36.4453 37.6562C37.0915 37.6562 37.6172 38.182 37.6172 38.8281C37.6172 39.4743 37.0915 40 36.4453 40Z" fill="#08B2FF"/>
<path fill-rule="evenodd" clip-rule="evenodd" d="M30 40C29.3538 40 28.8281 39.4743 28.8281 38.8281C28.8281 38.182 29.3538 37.6562 30 37.6562C30.6462 37.6562 31.1719 38.182 31.1719 38.8281C31.1719 39.4743 30.6462 40 30 40Z" fill="#08B2FF"/>
<path fill-rule="evenodd" clip-rule="evenodd" d="M30.5859 36.5586V34.0625H29.4141V36.5586C29.6014 36.5102 29.7977 36.4844 30 36.4844C30.2023 36.4844 30.3986 36.5102 30.5859 36.5586Z" fill="#08B2FF"/>
<path fill-rule="evenodd" clip-rule="evenodd" d="M26.2893 34.897L24.6582 36.7611C25.0084 36.9488 25.3053 37.2229 25.5209 37.5547L27.3161 35.503C27.4096 35.3962 27.4611 35.2591 27.4611 35.1172V34.0625H26.2892V34.897H26.2893Z" fill="#08B2FF"/>
<path fill-rule="evenodd" clip-rule="evenodd" d="M35.342 36.7611L33.7109 34.897V34.0625H32.5391V35.1172C32.5391 35.2591 32.5906 35.3963 32.684 35.503L34.4792 37.5547C34.6949 37.2229 34.9918 36.9487 35.342 36.7611Z" fill="#08B2FF"/>
</g>
</svg>
