<svg width="50" height="50" viewBox="0 0 50 50" fill="none" xmlns="http://www.w3.org/2000/svg">
<rect opacity="0.7" x="0.5" y="0.5" width="49" height="49" rx="11.5" fill="#F69220" fill-opacity="0.0980392" stroke="#F69220"/>
<path fill-rule="evenodd" clip-rule="evenodd" d="M35.9933 26.0516C35.9933 26.3738 35.9933 26.7384 35.9594 27.0691C35.8492 28.5191 35.4846 29.8589 34.9079 31.1308C34.6875 31.6396 34.3992 32.106 34.1109 32.5808C31.9401 36.0235 28.1328 38.2706 23.7828 38.2706C21.9343 38.2706 20.162 37.8381 18.5679 37.1089C14.4383 35.1416 11.5723 30.9019 11.5723 26.0516C11.5723 21.2352 14.3281 17.0972 18.3474 15.1045C18.0252 15.503 17.7284 15.9779 17.474 16.4103C17.4401 16.4443 17.4401 16.4867 17.3977 16.5206C17.2536 16.6647 17.0755 16.775 16.9229 16.9191L16.3886 17.4618L16.2784 17.572C16.2445 17.606 16.2021 17.6484 16.1682 17.7162C16.0919 17.7925 16.024 17.8603 15.9901 17.9367C15.8799 18.0808 15.7357 18.225 15.6255 18.4115C15.1167 19.0644 14.6843 19.8276 14.3536 20.5823L14.2433 20.8027C14.2094 20.913 14.167 20.9808 14.1331 21.091C14.1331 21.125 14.0992 21.2013 14.0992 21.2352C14.0652 21.3793 13.9889 21.5235 13.955 21.6676C13.9211 21.7779 13.8787 21.8457 13.8787 21.956C13.8787 21.9899 13.8448 22.0662 13.8448 22.1001C13.8109 22.2103 13.8109 22.2782 13.7685 22.3884C13.6921 22.6767 13.6243 23.0074 13.5904 23.3296C13.5904 23.406 13.5565 23.4738 13.5565 23.584C13.5565 23.6603 13.5565 23.6943 13.5226 23.7621C13.5226 23.8723 13.5226 23.9402 13.4886 24.0504V24.8475C13.4886 28.1799 15.0065 31.1562 17.4062 33.1065C19.2547 34.6244 21.612 35.5317 24.1474 35.5317C26.4708 35.5317 28.6416 34.7685 30.3799 33.5051C31.6518 32.5639 32.7372 31.3682 33.5003 29.9861C33.6106 29.808 33.6784 29.6215 33.7886 29.4434C34.4076 28.1715 34.7638 26.7215 34.8062 25.2375V24.8729C34.8062 24.5083 34.8062 24.1861 34.7723 23.8554C34.8062 23.8554 34.8062 23.8893 34.8062 23.8893C34.9843 24.0334 35.1284 24.1776 35.281 24.3217C35.4252 24.0674 35.5693 23.813 35.7559 23.601C35.8661 24.0758 35.934 24.5422 35.9764 25.0171C35.9933 25.3223 35.9933 25.6869 35.9933 26.0516Z" fill="#EA2227"/>
<path fill-rule="evenodd" clip-rule="evenodd" d="M34.797 24.8133V25.1779C34.797 27.3487 33.8897 29.1633 33.7795 29.3837C33.7032 29.5618 33.6014 29.7484 33.4912 29.9264C32.728 31.3001 31.6427 32.5381 30.3707 33.4454C28.6324 34.7174 26.4532 35.472 24.1383 35.472C21.569 35.472 19.2117 34.5647 17.397 33.0469C15.0058 31.0881 13.4795 28.1203 13.4795 24.7878V23.9908C13.4795 23.8805 13.4795 23.8127 13.5134 23.7025C13.5134 23.6261 13.5134 23.5922 13.5473 23.5244C13.5473 23.4481 13.5812 23.3802 13.5812 23.27C13.6152 22.9478 13.6915 22.651 13.7593 22.3288C13.7932 22.2185 13.7932 22.1507 13.8356 22.0405C13.8356 22.0065 13.8696 21.9302 13.8696 21.8963C13.9035 21.7861 13.9035 21.7182 13.9459 21.608C13.9798 21.4639 14.0561 21.3197 14.09 21.1756C14.09 21.1416 14.1239 21.0653 14.1239 21.0314C14.1579 20.9212 14.2003 20.8533 14.2342 20.7431L14.3444 20.5226C14.6666 19.7595 15.1076 19.0048 15.6163 18.3519C15.7266 18.2077 15.8707 18.0636 15.981 17.877C16.0573 17.8007 16.0912 17.7329 16.159 17.6566C16.1929 17.6226 16.2353 17.5802 16.2693 17.5124L16.3795 17.4022L16.9222 16.8595C17.0663 16.7153 17.2444 16.5712 17.397 16.4609C17.3631 16.4949 17.3631 16.5373 17.3207 16.5712C17.2868 16.6051 17.2868 16.6475 17.2444 16.7153C16.6254 17.9873 16.2269 19.4373 16.0827 21.0314C16.0488 21.4639 16.0064 21.9048 16.0064 22.3373C16.0064 27.9168 19.271 32.4449 23.3242 32.4449H23.7228C24.2994 32.4449 24.8845 32.3685 25.4272 32.2244C28.183 31.4612 30.1757 28.9598 30.1757 25.9919V25.8139C30.1418 24.0416 29.3786 22.4814 28.183 21.3197C29.014 21.3536 29.8111 21.4639 30.6082 21.6419C32.0921 22.0405 33.4742 22.7273 34.6275 23.6685C34.6614 23.6685 34.6614 23.7025 34.7038 23.7025C34.7631 24.1264 34.797 24.4571 34.797 24.8133Z" fill="#F69220"/>
<path fill-rule="evenodd" clip-rule="evenodd" d="M34.8392 24.8136V25.1783C34.8392 27.4592 33.8217 29.418 33.8217 29.418C33.7454 29.5961 33.6436 29.7826 33.5334 29.9607C32.7702 31.3344 31.6848 32.5724 30.379 33.5136C28.5304 34.8195 26.3936 35.5402 24.1126 35.5402C21.6451 35.5402 19.2199 34.6668 17.3375 33.1151C14.836 31.0885 13.4199 28.0443 13.4199 24.8136C13.4199 21.5829 14.8699 18.5473 17.3714 16.5207L17.4816 16.4443C17.4477 16.4783 17.4477 16.5207 17.4053 16.5546C17.3629 16.5885 17.3714 16.6309 17.329 16.6648C14.9038 18.6914 13.4878 21.6677 13.4878 24.8221C13.4878 28.0104 14.9038 31.0206 17.3629 33.0473C19.2454 34.6075 21.6366 35.4385 24.1041 35.4385C26.3512 35.4385 28.4881 34.7516 30.3027 33.4458C31.5746 32.5385 32.66 31.309 33.4231 29.9268C33.5334 29.7487 33.6012 29.5622 33.7114 29.3841C33.7114 29.3502 34.729 27.4253 34.729 25.1783V24.8136C34.729 24.4914 34.729 24.1268 34.6951 23.7961V23.7622C34.729 23.7622 34.729 23.7961 34.7714 23.7961L34.8053 23.83C34.8392 24.1692 34.8392 24.4914 34.8392 24.8136Z" fill="#F69220"/>
<path fill-rule="evenodd" clip-rule="evenodd" d="M31.9401 18.1821C31.9401 18.1821 23.2401 16.554 19.1445 24.1263C19.1445 24.1263 19.8653 18.869 26.1062 16.5201L24.8682 14.1967C24.8682 14.1967 27.3697 11.9497 31.7536 12.5263L31.9401 18.1821Z" fill="#EA2227"/>
<path fill-rule="evenodd" clip-rule="evenodd" d="M21.1367 22.2101C21.1367 22.2101 24.6133 17.682 32.5502 18.8437L32.4399 16.1981C32.4399 16.1981 35.7724 16.0879 38.4519 18.4113L35.1534 23.4142C35.1534 23.4142 32.8724 20.7686 28.1578 20.6922C26.2499 20.6498 23.8926 20.9042 21.1367 22.2101Z" fill="#F69220"/>
<path fill-rule="evenodd" clip-rule="evenodd" d="M17.6944 26.3397C17.6944 26.3397 13.709 17.6821 22.9517 12.1025L25.1649 16.1642C25.1649 16.1642 23.6809 16.673 22.0868 18.0467C20.34 19.5306 18.4575 22.066 17.6944 26.3397Z" fill="#F69220"/>
<path fill-rule="evenodd" clip-rule="evenodd" d="M22.9529 23.9824C22.9529 23.9824 22.1898 24.1605 22.2322 23.7619C22.2322 23.6178 22.3085 23.5839 22.3763 23.6178C22.3763 23.5415 22.2322 23.3634 22.5544 23.2532C22.6646 23.109 22.7749 22.9649 22.8088 22.8885C22.8427 22.7783 22.919 22.6681 23.2073 22.7105C23.4956 22.7868 23.8263 23.0751 23.8602 23.1429C24.0383 23.1429 24.2249 23.1768 24.1485 23.2192C24.0722 23.2532 24.0383 23.3295 24.0722 23.3295C24.0722 23.3295 24.1825 23.4058 23.8942 23.4058C23.8942 23.4821 23.9705 23.4821 24.0044 23.516C24.0383 23.5499 24.0044 23.5923 24.0044 23.5923C24.0044 23.5923 24.0383 23.7365 23.8942 23.7026C23.75 23.6263 23.75 23.5923 23.6737 23.5923C23.6398 23.5923 23.5295 23.6263 23.5295 23.6686C23.5295 23.7026 23.7076 23.8128 23.4956 23.8467C23.4617 23.8806 23.5719 23.923 23.4956 23.957C23.4193 23.9909 23.0971 24.2453 22.9529 24.2792C22.8088 24.2792 22.7749 24.2453 22.7749 24.1689C22.7749 24.0926 22.8512 24.0587 22.9529 24.0587C22.9869 24.0163 22.9869 23.9824 22.9529 23.9824Z" fill="#EC1C24"/>
<path fill-rule="evenodd" clip-rule="evenodd" d="M22.8752 24.7796C22.7989 24.7796 22.5869 24.6354 22.6972 24.5591C22.8074 24.4828 23.3162 24.1605 23.4179 24.1266C23.5281 24.0927 23.6723 24.2369 23.5281 24.3471C23.4179 24.4573 22.8752 24.7796 22.8752 24.7796Z" fill="#EC1C24"/>
<path fill-rule="evenodd" clip-rule="evenodd" d="M23.6719 24.4148C23.6719 24.3385 23.7482 24.0163 23.7482 23.94C23.7482 23.8636 24.0026 23.8637 23.9263 24.118C23.8923 24.4148 23.6719 24.4911 23.6719 24.4148Z" fill="#EC1C24"/>
<path fill-rule="evenodd" clip-rule="evenodd" d="M24.0035 23.8381C24.0035 23.8381 25.3772 23.7618 25.4874 23.8381C25.5976 23.9144 26.064 24.6352 25.9623 25.2881C25.852 25.941 25.64 26.1191 24.7666 26.1954C24.7666 25.975 24.7327 25.4323 24.6225 25.2881C24.5462 25.144 24.224 24.8133 24.0798 24.8133C24.0798 24.9574 24.0459 25.4323 24.0459 25.4323C24.0459 25.4323 23.6134 25.4662 23.5371 25.356V24.6691C23.5371 24.6691 23.9356 24.3045 23.9696 24.2367C24.0459 24.2706 24.0459 24.491 24.5462 24.4571C24.5801 24.3808 24.0035 24.4571 24.0035 23.8381Z" fill="#EC1C24"/>
<path fill-rule="evenodd" clip-rule="evenodd" d="M23.4935 24.457C23.4935 24.457 23.061 24.8217 22.9508 24.8895C22.9169 24.9997 22.8405 25.3983 23.4256 25.3983C23.4595 25.1439 23.4935 24.457 23.4935 24.457Z" fill="#EC1C24"/>
<path fill-rule="evenodd" clip-rule="evenodd" d="M22.4434 25C22.2993 25 22.1891 24.9661 22.223 24.8558C22.223 24.7456 22.4434 24.6354 22.5452 24.6777C22.6554 24.7117 22.8674 24.7541 22.8674 25.2204C22.9437 25.3307 23.232 25.5087 23.5543 25.5427C23.8765 25.5766 24.097 25.5087 24.097 25.619V26.2719C24.097 26.2719 23.6984 26.2719 22.6809 25.5511C22.6046 25.4409 22.5367 25.3731 22.5367 25.1865C22.5537 25.1102 22.4774 25 22.4434 25Z" fill="#EC1C24"/>
<path fill-rule="evenodd" clip-rule="evenodd" d="M22.1197 25.0679C21.9417 25.0679 21.4668 25.4664 21.8314 25.6445C21.9417 25.5682 22.0095 25.4664 22.0095 25.4664C22.0095 25.4664 21.9332 25.6869 22.1197 25.7547C22.2978 25.831 22.23 25.6445 22.3402 25.6445C22.4165 25.7547 22.4165 25.7886 22.5183 25.7886C22.62 25.7886 22.6285 25.5003 22.5183 25.3562C22.408 25.1781 22.2978 25.1103 22.1197 25.0679Z" fill="#EC1C24"/>
<path fill-rule="evenodd" clip-rule="evenodd" d="M24.1816 25.144V26.416C24.1816 26.416 24.6141 26.2718 24.6565 26.1616C24.6565 25.9411 24.5802 25.144 24.1816 25.144Z" fill="#EC1C24"/>
<path fill-rule="evenodd" clip-rule="evenodd" d="M23.1631 25.9751C23.1631 25.9751 23.6719 26.2973 23.9602 26.45C23.9262 26.5263 23.7058 26.7722 23.6379 26.7722C23.5616 26.7383 23.2055 26.2295 23.1631 25.9751Z" fill="#EC1C24"/>
<path fill-rule="evenodd" clip-rule="evenodd" d="M20.7383 26.4502H21.3912V26.7046H20.7722L20.7383 26.4502Z" fill="#EC1C24"/>
<path fill-rule="evenodd" clip-rule="evenodd" d="M28.1669 26.3398H25.3008L25.7756 26.7045H28.1669V26.3398Z" fill="#EC1C24"/>
<path fill-rule="evenodd" clip-rule="evenodd" d="M24.7581 26.3058C24.7921 26.2719 25.1228 26.5263 25.0464 26.5602C24.9362 26.5941 24.0713 26.9927 23.995 26.9588C23.9187 26.9248 23.9187 26.7044 24.0289 26.6705C24.1137 26.6281 24.614 26.4839 24.7581 26.3058Z" fill="#EC1C24"/>
<path fill-rule="evenodd" clip-rule="evenodd" d="M23.7828 26.9165C23.6725 26.8401 23.0959 27.4252 23.3503 27.4591C23.6047 27.4931 24.2237 27.6033 24.3678 27.6796C24.512 27.6033 24.6562 27.5015 24.6222 27.4252C24.7325 27.4252 24.8766 27.5694 25.0208 27.5355C25.1649 27.4592 25.8518 26.9589 25.8942 26.8825C25.75 26.7723 25.4617 26.5942 25.3176 26.5942C25.1988 26.5942 24.2576 27.1369 23.7828 26.9165Z" fill="#EC1C24"/>
<path fill-rule="evenodd" clip-rule="evenodd" d="M23.4953 27.6114C23.5716 27.6114 24.2924 27.8997 24.4705 27.8658C24.6485 27.8319 24.6909 27.6453 24.7927 27.6453C24.9029 27.6453 24.9368 27.7556 25.1149 27.6453C25.293 27.5351 25.5897 27.2807 25.6576 27.2129C25.6576 27.3231 25.6576 27.6453 25.0047 27.9337C24.3517 28.222 22.7915 28.6544 22.7576 28.8749C22.8339 28.9088 23.012 28.841 23.1561 28.7646C23.2324 28.841 23.3766 29.019 23.3342 29.3837C23.3003 29.7059 23.0459 30.291 23.0459 30.4351V31.3763C23.0459 31.4527 23.19 31.8512 22.9696 31.8088C22.7915 31.7749 22.6474 31.7749 22.571 31.7749C22.4947 31.7749 22.3506 31.919 22.2064 31.8851C22.0623 31.8512 21.8418 31.8088 21.8418 31.741C21.8418 31.6731 21.9859 31.6646 22.1301 31.6307C22.2743 31.5968 22.3506 31.4527 22.605 31.3424C22.605 31.1644 22.5286 29.9263 22.5286 29.672C22.5286 29.4176 22.4523 28.8749 22.5626 28.6544C22.6219 28.4424 23.207 27.6114 23.4953 27.6114Z" fill="#EC1C24"/>
<path fill-rule="evenodd" clip-rule="evenodd" d="M24.4355 28.3661C24.4355 28.4425 24.868 29.5618 25.0885 29.5957C25.2665 29.6296 27.1151 29.2311 27.4797 29.3413C27.5899 29.4854 27.8019 29.7398 27.8019 29.9179C27.8019 29.9179 27.8358 30.2825 27.8019 30.3164C27.8782 30.3164 28.0224 30.2825 28.0563 30.1723C28.0902 30.0621 28.0563 29.5957 28.0902 29.4854C28.0902 29.4091 28.3107 28.9428 28.0139 28.9767C27.7256 28.9767 26.8522 28.9767 26.5639 28.9004C26.2756 28.824 25.6566 28.7223 25.5124 28.7901C25.3683 28.858 25.1902 29.1123 25.1902 29.1887C25.1139 29.1887 25.1139 29.1547 25.1563 28.9343C25.2326 28.7562 25.4446 28.1711 25.4107 27.8828C25.1987 27.8998 24.4355 28.3661 24.4355 28.3661Z" fill="#EC1C24"/>
<path fill-rule="evenodd" clip-rule="evenodd" d="M23.3841 26.5939C23.418 26.6278 23.418 26.738 23.4943 26.772L22.0104 26.6617C22.0104 26.6617 21.8323 26.5515 21.9002 26.5176L23.3841 26.5939Z" fill="#EC1C24"/>
<path fill-rule="evenodd" clip-rule="evenodd" d="M21.756 26.4499H23.24C23.24 26.4499 23.1297 26.2719 23.0958 26.1616C22.8414 26.1616 21.7221 26.1955 21.7221 26.1955C21.7221 26.1955 21.578 26.1955 21.578 26.4838C21.5356 26.5602 21.6797 26.6619 21.756 26.4499Z" fill="#EC1C24"/>
<path fill-rule="evenodd" clip-rule="evenodd" d="M20.3402 26.7042H20.6285C20.6285 26.7042 20.7387 26.6703 20.6285 26.5601C20.5183 26.4499 20.3402 26.382 20.4844 26.1616C20.3402 26.1276 20.1197 26.0852 20.1621 26.5601H20.018C20.018 26.5601 19.9841 26.3057 19.6194 26.3057C19.2972 26.3057 18.4238 26.6703 18.4238 26.6703C18.4238 26.6703 19.3651 26.9247 19.6194 26.9247C19.8738 26.9247 20.018 26.7042 20.018 26.7042H20.1282C20.1282 26.7042 20.1621 26.8823 20.2384 26.9586V27.2469C20.2384 27.2469 20.0943 27.2809 20.1282 27.4674C20.1621 27.6116 20.2724 27.6116 20.2724 27.6116C20.3063 27.6116 20.3487 27.5776 20.4504 27.5776C20.5268 27.5013 20.4844 27.3233 20.3402 27.2554V27.0265C20.3402 27.0265 20.4504 26.9502 20.4504 26.8823C20.4504 26.8145 20.3402 26.8145 20.3402 26.7042Z" fill="#EC1C24"/>
<path fill-rule="evenodd" clip-rule="evenodd" d="M22.1206 28.1543C22.2309 28.078 22.2648 27.9338 22.2648 27.9338V27.0604C22.2648 26.84 21.9002 26.6958 21.8663 26.6958H21.8323C21.7984 26.7297 21.6882 26.806 21.6119 26.806C21.5016 26.806 21.4677 26.806 21.3575 26.6958C21.0692 26.6958 20.925 27.0604 20.8826 27.0604C20.8826 27.1367 20.8487 27.7473 20.8826 27.8575C20.9165 27.9677 20.9929 28.0356 21.0268 28.078C20.9505 28.2984 20.6622 29.4516 21.0607 29.5958V29.7739H22.0782V29.5534C22.4429 29.4177 22.1885 28.4426 22.1206 28.1543ZM20.9922 27.0605C21.0262 27.0266 21.1364 26.7383 21.3569 26.7383C21.4671 26.8485 21.5349 26.8485 21.6452 26.8485C21.7554 26.8485 21.8232 26.7722 21.8995 26.7383C22.0098 26.7722 22.2218 26.8824 22.2218 27.0266V27.9C22.2218 27.9339 22.1879 28.0102 22.1115 28.0441H21.9335V27.6795H21.2466V28.0441H21.1025C21.0686 28.0102 20.9922 27.9339 20.9922 27.8661C20.9583 27.7897 20.9583 27.3573 20.9922 27.0605ZM21.6802 29.4515H21.5021C21.4682 29.4515 21.4258 29.4175 21.4258 29.3751C21.4258 29.3412 21.4597 29.2988 21.5021 29.2988H21.6802C21.7141 29.2988 21.7565 29.3327 21.7565 29.3751C21.7565 29.4175 21.7226 29.4515 21.6802 29.4515ZM22.0441 29.5279L21.5692 28.9852L21.1368 29.5279C20.8485 29.4177 21.0265 28.5104 21.1368 28.1118H22.078C22.1543 28.5104 22.3324 29.3837 22.0441 29.5279Z" fill="#EC1C24"/>
<path fill-rule="evenodd" clip-rule="evenodd" d="M21.8995 28.5102C22.0097 28.3661 21.8655 28.2559 21.8655 28.2559H21.2889C21.1109 28.2559 21.1787 28.5102 21.1787 28.5102L21.5433 28.8325C21.5348 28.8409 21.7892 28.6968 21.8995 28.5102Z" fill="#EC1C24"/>
<path fill-rule="evenodd" clip-rule="evenodd" d="M21.6797 28.8753L22.0443 29.3077C22.0443 29.3077 22.0104 28.7989 22.0104 28.6548C21.9002 28.6548 21.6797 28.8753 21.6797 28.8753Z" fill="#EC1C24"/>
<path fill-rule="evenodd" clip-rule="evenodd" d="M21.1374 28.6548C21.1374 28.8329 21.1035 29.3077 21.1035 29.3077L21.4681 28.8753C21.4681 28.8753 21.2477 28.6548 21.1374 28.6548Z" fill="#EC1C24"/>
<path fill-rule="evenodd" clip-rule="evenodd" d="M21.8241 27.5691H21.9004V27.4928C21.9004 27.4589 21.8665 27.4165 21.8241 27.4165H21.2814C21.2475 27.4165 21.2051 27.4504 21.2051 27.4928V27.5691H21.2814H21.8241Z" fill="#EC1C24"/>
<path fill-rule="evenodd" clip-rule="evenodd" d="M21.0275 29.8501H20.9512V29.9264C20.9512 29.9603 20.9851 30.0027 21.0275 30.0027H22.0789C22.1129 30.0027 22.1553 29.9688 22.1553 29.9264V29.8501H22.0789H21.0275Z" fill="#EC1C24"/>
</svg>
