<svg xmlns="http://www.w3.org/2000/svg" width="14" height="14" viewBox="0 0 14 14"><g clip-path="url(#clip0_545:147)"><path fill-rule="evenodd" d="M12.976 3.141c.132-.867-.338-1.43-1.181-1.431-1.054 0-2.109.029-3.161-.01-.835-.03-1.377.585-1.24 1.441h5.582zM12.99 3.873H7.386v.682h5.602v-.682zM10.88 5.292H9.492v.683h1.386v-.683z" clip-rule="evenodd"/><path fill-rule="evenodd" d="M13 5.538v-.245h-1.407c0 .328.002.642 0 .956-.003.322-.121.446-.437.447-.64.004-1.28.004-1.921 0-.335 0-.45-.12-.453-.454-.002-.307 0-.614 0-.942H7.378v1.386H5.97v-.308-3.45c0-.369-.11-.482-.473-.485-.302-.003-.604 0-.933 0v-.969c-.002-.353-.116-.473-.458-.473a933.04 933.04 0 00-2.647 0c-.343 0-.457.12-.458.473v2.624c0 .353.114.472.46.473.883.003 1.765.003 2.647 0 .347-.001.454-.118.456-.476v-.928h.686V6.68h-.686v-.953c-.003-.32-.122-.445-.44-.446-.898-.004-1.796-.004-2.694 0-.305.002-.428.129-.428.432-.002.89-.002 1.78 0 2.671 0 .31.119.44.418.442.906.005 1.812.004 2.718 0 .305-.001.422-.127.425-.434.003-.314 0-.628 0-.962h.689v2.8h-.688c0-.099.003-.198 0-.297-.01-.25-.127-.391-.372-.393-.937-.007-1.874-.007-2.811 0-.257.001-.378.14-.379.407-.003.914-.003 1.828 0 2.742.001.288.13.416.419.417.906.003 1.812.003 2.718 0 .3 0 .423-.128.424-.434.003-.559 0-1.117 0-1.716.344 0 .655.003.967-.001.318-.005.44-.126.44-.446.002-.937 0-1.875 0-2.813v-.27h1.405V7.7c0 .93-.002 1.86 0 2.79.002.732.418 1.167 1.143 1.173 1.101.008 2.202.01 3.303 0 .773-.005 1.178-.429 1.179-1.208V5.538zM3.05 3.324a.124.124 0 01-.124.125h-.248a.124.124 0 01-.124-.125v-.25c0-.069.056-.124.124-.124h.248c.069 0 .124.055.124.124v.25zm0-.96c0 .069-.055.124-.124.124h-.248a.124.124 0 01-.124-.124v-.25c0-.069.056-.125.124-.125h.248c.069 0 .124.056.124.125v.25zm0 5.295a.124.124 0 01-.124.124h-.248a.124.124 0 01-.124-.124v-.25c0-.069.056-.125.124-.125h.248c.069 0 .124.056.124.125v.25zm0-.96a.124.124 0 01-.124.124h-.248a.124.124 0 01-.124-.124v-.25c0-.069.056-.125.124-.125h.248c.069 0 .124.056.124.125v.25zm0 5.295a.124.124 0 01-.124.124h-.248a.124.124 0 01-.124-.124v-.25c0-.069.056-.125.124-.125h.248c.069 0 .124.056.124.125v.25zm0-.96a.124.124 0 01-.124.124h-.248a.124.124 0 01-.124-.124v-.25c0-.069.056-.125.124-.125h.248c.069 0 .124.056.124.125v.25zm7.147-.798a.699.699 0 01-.71-.69.7.7 0 111.401-.02.699.699 0 01-.69.71z" clip-rule="evenodd"/><path fill-rule="evenodd" d="M7.394 3.141h5.582c.132-.867-.338-1.43-1.181-1.431-1.054 0-2.109.029-3.161-.01-.835-.03-1.377.585-1.24 1.441z" clip-rule="evenodd"/><path fill-rule="evenodd" d="M12.99 4.555v-.682H7.386v.682h5.602zM10.88 5.975v-.683H9.492v.683h1.386z" clip-rule="evenodd"/></g><path fill-opacity=".05" d="M0 3.733c0-1.306 0-1.96.254-2.459C.478.835.835.478 1.274.254 1.774 0 2.427 0 3.734 0h6.533c1.306 0 1.96 0 2.459.254.439.224.796.581 1.02 1.02.254.5.254 1.153.254 2.46v6.533c0 1.306 0 1.96-.254 2.459-.224.439-.581.796-1.02 1.02-.5.254-1.153.254-2.46.254H3.734c-1.306 0-1.96 0-2.459-.254a2.334 2.334 0 01-1.02-1.02C0 12.226 0 11.573 0 10.266V3.734z"/><defs><linearGradient id="paint0_linear_545:147" x1="6.191" x2="6.191" y1="1.094" y2="3.141" gradientUnits="userSpaceOnUse"><stop stop-color="#fff"/><stop offset="1" stop-color="#130F40"/></linearGradient><clipPath id="clip0_545:147"><path d="M0 0h12v13H0z" transform="translate(1 1)"/></clipPath></defs></svg>
