<svg width="65" height="65" viewBox="0 0 65 65" fill="none" xmlns="http://www.w3.org/2000/svg">
<circle cx="32.5" cy="32.5" r="32.5" fill="#FFCD1B"/>
<mask id="mask0_1_9884" style="mask-type:alpha" maskUnits="userSpaceOnUse" x="19" y="20" width="25" height="26">
<rect x="19" y="20.1804" width="25" height="25" fill="white"/>
</mask>
<g mask="url(#mask0_1_9884)">
<path fill-rule="evenodd" clip-rule="evenodd" d="M32.2324 38.7303V37.0692H38.4782C41.5229 37.0692 44 34.5922 44 31.5474C44 28.5027 41.5229 26.0256 38.4782 26.0256H37.8199C37.2515 24.6015 36.3033 23.3739 35.0547 22.4528C33.6316 21.403 31.9421 20.8481 30.1687 20.8481C25.9853 20.8481 22.4868 23.9881 21.9905 28.0861C20.2061 28.763 19 30.4791 19 32.4263C19 34.9864 21.0828 37.0692 23.6429 37.0692H30.7676V38.7303C31.0043 38.682 31.2492 38.6566 31.5 38.6566C31.7508 38.6566 31.9957 38.682 32.2324 38.7303ZM31.5 26.944C34.0616 26.944 36.1457 29.0281 36.1457 31.5897H34.6808C34.6808 29.8358 33.2539 28.4089 31.5 28.4089C29.746 28.4089 28.3191 29.8358 28.3191 31.5897H26.8542C26.8542 29.0281 28.9383 26.944 31.5 26.944ZM30.7676 33.0544V31.5896H32.2324V33.0544H30.7676ZM19 41.5847H27.9132C27.8649 41.8214 27.8395 42.0664 27.8395 42.3171C27.8395 42.5679 27.8649 42.8128 27.9132 43.0496H19V41.5847ZM35.0867 43.0496C35.135 42.8128 35.1604 42.5679 35.1604 42.3171C35.1604 42.0664 35.135 41.8214 35.0867 41.5847H43.9999V43.0496H35.0867ZM31.4999 44.5128C32.7125 44.5128 33.6955 43.5298 33.6955 42.3172C33.6955 41.1045 32.7125 40.1215 31.4999 40.1215C30.2872 40.1215 29.3042 41.1045 29.3042 42.3172C29.3042 43.5298 30.2872 44.5128 31.4999 44.5128Z" fill="white"/>
</g>
</svg>
