<svg width="50" height="50" viewBox="0 0 50 50" fill="none" xmlns="http://www.w3.org/2000/svg">
<rect opacity="0.7" x="0.5" y="0.5" width="49" height="49" rx="11.5" fill="#34A853" fill-opacity="0.0980392" stroke="#34A853"/>
<path d="M35.6136 18.2553C33.0491 16.7843 29.7699 17.6584 28.2879 20.2066L24.5522 26.6368C23.4713 28.4936 24.8629 29.1424 26.4145 30.0669L30.0092 32.1284C31.2265 32.8261 32.7813 32.4119 33.4834 31.2039L37.3238 24.5957C38.6139 22.3752 37.8484 19.5372 35.6136 18.2553Z" fill="#EA4335"/>
<path d="M31.3871 20.9172L27.7925 18.8557C25.8081 17.7611 24.6844 17.6887 23.8697 18.9754L18.5681 28.0987C17.0877 30.6453 17.969 33.9021 20.5318 35.3699C22.7666 36.6519 25.6227 35.8912 26.9128 33.6706L32.3159 24.3709C33.0212 23.1614 32.6044 21.6149 31.3871 20.9172Z" fill="#FBBC04"/>
<path d="M32.0781 16.2271L29.5533 14.7782C26.7606 13.1766 23.1898 14.1262 21.5779 16.9012L16.7707 25.174C16.0606 26.3946 16.4822 27.9568 17.7106 28.6608L20.5382 30.283C21.9345 31.0846 23.7191 30.609 24.5259 29.2215L30.0177 19.7706C31.1557 17.813 33.6742 17.1421 35.6443 18.2729L32.0781 16.2271Z" fill="#34A853"/>
<path d="M22.2612 19.2677L19.5319 17.7054C18.3147 17.0093 16.7598 17.4219 16.0577 18.6283L12.7832 24.2507C11.1713 27.0177 12.127 30.5581 14.9197 32.155L16.9976 33.344L19.5176 34.7866L20.6113 35.4118C18.6697 34.1205 18.0532 31.5329 19.2403 29.495L20.0882 28.0398L23.1931 22.7088C23.8937 21.5056 23.4769 19.9638 22.2612 19.2677Z" fill="#4285F4"/>
</svg>
