<svg width="21" height="21" viewBox="0 0 21 21" fill="none" xmlns="http://www.w3.org/2000/svg">
<rect opacity="0.1" width="21" height="21" rx="4" fill="#130F40"/>
<path d="M15.4468 9.95607C14.8714 9.95607 14.3253 9.94943 13.7795 9.95768C12.9566 9.97012 12.2555 10.5524 12.0891 11.3494C11.9208 12.1559 12.3167 12.9746 13.0688 13.3011C13.3051 13.4036 13.5788 13.4511 13.8382 13.4632C14.3598 13.4877 14.8835 13.4705 15.424 13.4705C15.4331 13.5385 15.4475 13.597 15.4478 13.6557C15.449 14.0932 15.4508 14.5306 15.4461 14.968C15.4392 15.6284 15.067 15.9991 14.4114 15.9993C11.4511 16.0002 8.49077 16.0002 5.53045 15.9993C4.88017 15.9991 4.49988 15.6169 4.49967 14.9642C4.49881 12.7928 4.49881 10.6214 4.49967 8.45003C4.49988 7.796 4.87663 7.41699 5.52992 7.41678C8.49023 7.41571 11.4505 7.41582 14.4109 7.41678C15.071 7.41699 15.4401 7.78335 15.446 8.44532C15.4504 8.94297 15.4468 9.44095 15.4468 9.95607Z" fill="#130F40"/>
<path opacity="0.4" d="M10.9723 4.65257C10.8088 4.65257 10.6764 4.64947 10.5441 4.65311C9.9413 4.66962 9.45533 5.11647 9.4131 5.71905C9.39038 6.04329 9.40903 6.37041 9.40903 6.71426C8.89551 6.71426 8.42058 6.71426 7.94565 6.71426C7.38368 6.71426 6.8215 6.71962 6.25975 6.70772C6.18558 6.70611 6.08536 6.6328 6.04602 6.56452C5.97314 6.43794 5.93155 6.29217 5.88536 6.15165C5.78771 5.85507 5.89147 5.61466 6.18 5.50887C7.52623 5.01561 8.87397 4.52631 10.2226 4.03991C10.5181 3.93337 10.7468 4.04323 10.8639 4.33242C10.9016 4.42534 10.9287 4.52235 10.9723 4.65257Z" fill="#130F40"/>
<path opacity="0.4" d="M14.9129 12.7678C14.5384 12.7678 14.1638 12.7754 13.7895 12.7661C13.2028 12.7514 12.749 12.2882 12.7505 11.7186C12.752 11.144 13.1976 10.6731 13.7834 10.6623C14.5556 10.6481 15.3282 10.6552 16.1004 10.6585C16.3587 10.6596 16.4961 10.7932 16.4994 11.0449C16.5051 11.4895 16.5047 11.9344 16.4996 12.3791C16.4966 12.6363 16.3653 12.7653 16.1065 12.7683C15.7087 12.7731 15.3108 12.7695 14.9128 12.7695C14.9129 12.7691 14.9129 12.7685 14.9129 12.7678ZM13.8033 11.3637C13.6116 11.3649 13.4479 11.5367 13.4555 11.7287C13.4629 11.9137 13.6209 12.064 13.807 12.063C13.9936 12.0619 14.1497 11.9102 14.1548 11.7249C14.1603 11.5329 13.9944 11.3625 13.8033 11.3637Z" fill="#130F40"/>
<path opacity="0.4" d="M14.2033 6.70361C12.8296 6.70361 11.4812 6.70361 10.1169 6.70361C10.1169 6.3722 10.096 6.04486 10.124 5.72181C10.1436 5.49533 10.3172 5.35942 10.5459 5.35802C11.6159 5.35138 12.6861 5.35138 13.7561 5.35792C14.0125 5.35953 14.1923 5.54892 14.2011 5.80938C14.2109 6.0977 14.2033 6.38678 14.2033 6.70361Z" fill="#130F40"/>
</svg>
