<svg width="136" height="33" viewBox="0 0 136 33" fill="none" xmlns="http://www.w3.org/2000/svg">
<path fill-rule="evenodd" clip-rule="evenodd" d="M1.37939 15.7795V0.21455H6.46788C8.15696 0.21455 9.42558 0.563762 10.2736 1.26219C11.1288 1.96061 11.5565 2.99399 11.5565 4.36234C11.5565 5.08928 11.3498 5.73425 10.9365 6.29726C10.5231 6.85315 9.96 7.28434 9.24737 7.59074C10.0883 7.82599 10.7511 8.27491 11.2357 8.93774C11.7275 9.59345 11.9733 10.3773 11.9733 11.2895C11.9733 12.6865 11.5208 13.784 10.6157 14.5821C9.71064 15.3803 8.43129 15.7795 6.77789 15.7795H1.37939V15.7795ZM3.43161 8.49849V14.1002H6.82039C7.77539 14.1002 8.52721 13.8543 9.07597 13.3626C9.63195 12.8636 9.90989 12.1794 9.90989 11.3101C9.90989 9.43564 8.89075 8.49849 6.85246 8.49849H3.43161V8.49849ZM3.43161 6.85252H6.53172C7.42969 6.85252 8.14593 6.62802 8.68046 6.17904C9.22211 5.73005 9.49293 5.12071 9.49293 4.35102C9.49293 3.49581 9.24345 2.87577 8.74461 2.49093C8.24577 2.09896 7.48672 1.90297 6.46758 1.90297H3.43161V6.85252V6.85252ZM17.2221 15.7785H15.1696V0.213629H17.2221V15.7785V15.7785ZM24.9405 8.54131L23.0376 10.519V15.7785H20.9851V0.213629H23.0376V7.91056L29.9542 0.213629H32.4343L26.3089 7.08736L32.9154 15.7785H30.4567L24.9405 8.54131V8.54131ZM36.9137 15.7785H34.8612V0.213629H36.9137V15.7785V15.7785ZM46.3848 9.48196H42.7287V15.7785H40.6655V0.213629H45.8182C47.5714 0.213629 48.9183 0.612725 49.859 1.41093C50.8069 2.20913 51.2808 3.37079 51.2808 4.89592C51.2808 5.86517 51.0171 6.70969 50.4898 7.42945C49.9695 8.14931 49.2425 8.68734 48.309 9.04377L51.965 15.6502V15.7785H49.7628L46.3848 9.48196V9.48196ZM42.729 7.8039H45.8827C46.9018 7.8039 47.7107 7.5403 48.3094 7.01287C48.9152 6.48549 49.218 5.77994 49.218 4.89621C49.218 3.9341 48.9294 3.19648 48.3521 2.68335C47.7819 2.17022 46.9552 1.91009 45.872 1.90297H42.729V7.8039V7.8039ZM62.7631 11.7163H56.2417L54.7771 15.7785H52.6604L58.6042 0.213629H60.4001L66.3547 15.7785H64.2485L62.7631 11.7163V11.7163ZM56.8611 10.0272H62.1527L59.5015 2.74721L56.8611 10.0272V10.0272ZM80.4119 15.7785H78.3484L70.5127 3.78415V15.7785H68.4493V0.213629H70.5127L78.3692 12.2615V0.213629H80.4119V15.7785V15.7785ZM83.7903 14.7419C83.7903 14.3998 83.8899 14.1148 84.0891 13.8868C84.296 13.6587 84.6026 13.5447 85.0087 13.5447C85.4148 13.5447 85.7213 13.6587 85.9282 13.8868C86.1417 14.1148 86.2489 14.3998 86.2489 14.7419C86.2489 15.0698 86.1417 15.3442 85.9282 15.5651C85.7213 15.786 85.4148 15.8965 85.0087 15.8965C84.6026 15.8965 84.296 15.786 84.0891 15.5651C83.8899 15.3442 83.7903 15.0698 83.7903 14.7419V14.7419ZM101.278 10.8399C101.086 12.4861 100.477 13.7583 99.4503 14.6562C98.4311 15.5471 97.0737 15.9925 95.3781 15.9925C93.539 15.9925 92.0634 15.3333 90.9523 14.0149C89.8467 12.6963 89.295 10.9325 89.295 8.7232V7.22656C89.295 5.77983 89.5511 4.50769 90.0645 3.41016C90.5845 2.31264 91.319 1.47168 92.267 0.887278C93.215 0.295759 94.3119 0 95.5598 0C97.2128 0 98.5384 0.463233 99.5357 1.38972C100.534 2.30907 101.114 3.58477 101.278 5.2168H99.2149C99.0376 3.97674 98.649 3.07877 98.0502 2.52287C97.4591 1.96699 96.6282 1.68905 95.5598 1.68905C94.2484 1.68905 93.2183 2.17366 92.4695 3.14291C91.7284 4.11216 91.3584 5.49118 91.3584 7.27998V8.78735C91.3584 10.4763 91.7109 11.8198 92.4159 12.8175C93.122 13.8153 94.1094 14.3141 95.3781 14.3141C96.5177 14.3141 97.3912 14.0575 97.9966 13.5445C98.6096 13.0242 99.0157 12.1227 99.2149 10.8399H101.278V10.8399ZM116.064 8.49868C116.064 10.0238 115.808 11.3565 115.294 12.4969C114.781 13.63 114.054 14.4959 113.114 15.0945C112.172 15.6932 111.075 15.9925 109.821 15.9925C108.595 15.9925 107.508 15.6932 106.56 15.0945C105.612 14.4887 104.875 13.63 104.348 12.5182C103.828 11.3992 103.559 10.1058 103.545 8.6377V7.51522C103.545 6.01856 103.806 4.69655 104.326 3.54913C104.847 2.40173 105.58 1.52513 106.528 0.919351C107.483 0.306454 108.574 0 109.799 0C111.047 0 112.144 0.302885 113.092 0.908667C114.048 1.50731 114.781 2.38035 115.294 3.52775C115.808 4.66804 116.064 5.99719 116.064 7.51522V8.49868V8.49868ZM114.022 7.49372C114.022 5.64792 113.651 4.23325 112.91 3.24976C112.168 2.25914 111.132 1.76383 109.799 1.76383C108.501 1.76383 107.479 2.25914 106.731 3.24976C105.99 4.23325 105.608 5.60159 105.587 7.3548V8.49863C105.587 10.2874 105.962 11.695 106.709 12.7212C107.465 13.7404 108.501 14.2499 109.82 14.2499C111.146 14.2499 112.172 13.7689 112.899 12.8068C113.625 11.8375 114 10.4514 114.022 8.64827V7.49372V7.49372ZM121.793 0.213629L126.882 12.9135L131.97 0.213629H134.633V15.7785H132.58V9.71721L132.773 3.17481L127.663 15.7785H126.091L120.992 3.20687L121.196 9.71721V15.7785H119.143V0.213629H121.793V0.213629Z" fill="black"/>
<path fill-rule="evenodd" clip-rule="evenodd" d="M2.76876 26.5412C1.88864 26.2881 1.24716 25.9781 0.844545 25.6111C0.445426 25.2405 0.245866 24.7844 0.245866 24.2427C0.245866 23.6298 0.489978 23.1238 0.978202 22.7247C1.46993 22.3221 2.1078 22.1208 2.89169 22.1208C3.42622 22.1208 3.90197 22.2241 4.31882 22.4308C4.7394 22.6375 5.06364 22.9225 5.29166 23.286C5.52329 23.6495 5.63911 24.0468 5.63911 24.478H4.60749C4.60749 24.0076 4.45784 23.6388 4.15856 23.3715C3.85917 23.1008 3.43695 22.9653 2.89169 22.9653C2.38574 22.9653 1.99023 23.0775 1.70507 23.3021C1.42363 23.523 1.28285 23.8312 1.28285 24.2267C1.28285 24.5439 1.41651 24.8129 1.68372 25.0338C1.95455 25.2512 2.41244 25.4508 3.05743 25.6325C3.70591 25.8142 4.21198 26.0155 4.57541 26.2364C4.94246 26.4539 5.21328 26.7086 5.38788 27.0009C5.56609 27.293 5.65509 27.6369 5.65509 28.0325C5.65509 28.6631 5.40923 29.1692 4.9175 29.5505C4.42577 29.9281 3.76831 30.1171 2.94522 30.1171C2.41069 30.1171 1.91174 30.0155 1.44859 29.8123C0.985317 29.6056 0.627142 29.3242 0.374161 28.9679C0.124795 28.6115 0 28.2071 0 27.7545H1.03162C1.03162 28.2248 1.20447 28.5972 1.55006 28.8717C1.89937 29.1425 2.36439 29.2779 2.94522 29.2779C3.48676 29.2779 3.90197 29.1673 4.19063 28.9464C4.47919 28.7255 4.62358 28.4244 4.62358 28.0431C4.62358 27.6618 4.48992 27.3679 4.2226 27.1612C3.95539 26.9509 3.47078 26.7443 2.76876 26.5412V26.5412ZM9.4397 30.1164C8.65569 30.1164 8.01783 29.8598 7.5261 29.3466C7.03437 28.8299 6.78851 28.1404 6.78851 27.2781V27.0964C6.78851 26.5227 6.89721 26.0114 7.11461 25.5623C7.33552 25.1098 7.64192 24.757 8.03392 24.504C8.42942 24.2474 8.85701 24.1191 9.31677 24.1191C10.0686 24.1191 10.653 24.3668 11.0699 24.8622C11.4868 25.3574 11.6953 26.0665 11.6953 26.9894V27.401H7.77733C7.79156 27.9712 7.95729 28.4327 8.27442 28.7854C8.59516 29.1346 9.00139 29.3093 9.49312 29.3093C9.84232 29.3093 10.1381 29.2379 10.3805 29.0954C10.6227 28.9529 10.8348 28.764 11.0165 28.5289L11.6205 28.9992C11.1359 29.744 10.4089 30.1164 9.4397 30.1164V30.1164ZM9.3165 24.9317C8.91738 24.9317 8.58241 25.0778 8.31159 25.37C8.04077 25.6586 7.87328 26.0649 7.80913 26.5887H10.7062V26.5138C10.6777 26.0115 10.5423 25.623 10.3 25.3486C10.0577 25.0707 9.72985 24.9317 9.3165 24.9317V24.9317ZM15.8584 25.1133C15.7088 25.0884 15.5467 25.076 15.3721 25.076C14.7236 25.076 14.2834 25.352 14.0518 25.9044V30.0094H13.0629V24.2261H14.0251L14.0411 24.8941C14.3654 24.3774 14.825 24.1191 15.4201 24.1191C15.6126 24.1191 15.7587 24.1441 15.8584 24.194V25.1133V25.1133ZM18.9963 28.6679L20.4287 24.2261H21.439L19.3651 30.0095H18.6114L16.5161 24.2261H17.5264L18.9963 28.6679V28.6679ZM23.7893 30.0095H22.6947V24.2261H23.7893V30.0095V30.0095ZM22.615 22.6921C22.615 22.5317 22.6632 22.3963 22.7594 22.2859C22.8591 22.1754 23.0053 22.1202 23.1976 22.1202C23.3901 22.1202 23.5362 22.1754 23.6359 22.2859C23.7357 22.3963 23.7857 22.5317 23.7857 22.6921C23.7857 22.8525 23.7357 22.9861 23.6359 23.093C23.5362 23.1999 23.3901 23.2533 23.1976 23.2533C23.0053 23.2533 22.8591 23.1999 22.7594 23.093C22.6632 22.9861 22.615 22.8525 22.615 22.6921V22.6921ZM27.8097 29.3093C28.1625 29.3093 28.4708 29.2023 28.7344 28.9885C28.9981 28.7748 29.1442 28.5074 29.1727 28.1868H30.1081C30.0903 28.5182 29.9763 28.8335 29.766 29.1328C29.5558 29.4322 29.2742 29.671 28.9214 29.8491C28.5722 30.0273 28.2017 30.1164 27.8097 30.1164C27.0222 30.1164 26.395 29.8544 25.9283 29.3306C25.465 28.8032 25.2334 28.0835 25.2334 27.1712V27.0055C25.2334 26.4424 25.3367 25.9418 25.5434 25.5035C25.7501 25.0652 26.0458 24.7249 26.4307 24.4826C26.8191 24.2403 27.277 24.1191 27.8043 24.1191C28.4529 24.1191 28.9909 24.3133 29.4185 24.7018C29.8497 25.0902 30.0796 25.5944 30.1081 26.2144H29.1727C29.1442 25.8403 29.0017 25.5339 28.7451 25.2951C28.4921 25.0528 28.1785 24.9316 27.8043 24.9316C27.302 24.9316 26.9117 25.1133 26.6338 25.4768C26.3595 25.8368 26.2222 26.3587 26.2222 27.0429V27.2299C26.2222 27.8964 26.3595 28.4095 26.6338 28.7694C26.9082 29.1293 27.3001 29.3093 27.8097 29.3093V29.3093ZM33.8387 30.1164C33.0548 30.1164 32.4169 29.8598 31.9252 29.3466C31.4334 28.8299 31.1876 28.1404 31.1876 27.2781V27.0964C31.1876 26.5227 31.2962 26.0114 31.5136 25.5623C31.7345 25.1098 32.041 24.757 32.433 24.504C32.8285 24.2474 33.2561 24.1191 33.7157 24.1191C34.4677 24.1191 35.052 24.3668 35.469 24.8622C35.8859 25.3574 36.0943 26.0665 36.0943 26.9894V27.401H32.1764C32.1906 27.9712 32.3564 28.4327 32.6735 28.7854C32.9942 29.1346 33.4003 29.3093 33.8922 29.3093C34.2414 29.3093 34.5372 29.2379 34.7794 29.0954C35.0218 28.9529 35.2338 28.764 35.4155 28.5289L36.0195 28.9992C35.5349 29.744 34.808 30.1164 33.8387 30.1164V30.1164ZM33.7163 24.9317C33.3173 24.9317 32.9823 25.0778 32.7115 25.37C32.4407 25.6586 32.2732 26.0649 32.2091 26.5887H35.1061V26.5138C35.0775 26.0115 34.9421 25.623 34.6999 25.3486C34.4575 25.0707 34.1297 24.9317 33.7163 24.9317V24.9317ZM37.4307 31.5597L36.8695 31.1749C37.2045 30.708 37.3791 30.227 37.3933 29.7317V28.8391H38.3608V29.6141C38.3608 29.9739 38.2717 30.3338 38.0936 30.6938C37.919 31.0537 37.698 31.3423 37.4307 31.5597V31.5597ZM45.2123 26.5406C44.3321 26.2876 43.6907 25.9775 43.2881 25.6105C42.889 25.24 42.6894 24.7838 42.6894 24.2422C42.6894 23.6292 42.9335 23.1233 43.4216 22.7242C43.9135 22.3216 44.5512 22.1202 45.3352 22.1202C45.8698 22.1202 46.3454 22.2236 46.7624 22.4303C47.1828 22.6369 47.5071 22.922 47.7352 23.2854C47.9668 23.649 48.0825 24.0462 48.0825 24.4774H47.051C47.051 24.007 46.9013 23.6382 46.602 23.3709C46.3027 23.1002 45.8804 22.9648 45.3352 22.9648C44.8292 22.9648 44.4337 23.077 44.1486 23.3015C43.8671 23.5224 43.7264 23.8307 43.7264 24.2262C43.7264 24.5433 43.8599 24.8124 44.1273 25.0333C44.3981 25.2507 44.856 25.4502 45.5009 25.632C46.1495 25.8137 46.6554 26.015 47.019 26.2359C47.386 26.4533 47.6568 26.708 47.8314 27.0003C48.0095 27.2925 48.0986 27.6363 48.0986 28.0319C48.0986 28.6626 47.8528 29.1686 47.361 29.5499C46.8692 29.9276 46.2119 30.1165 45.3887 30.1165C44.8541 30.1165 44.3553 30.0149 43.892 29.8118C43.4288 29.6051 43.0707 29.3236 42.8177 28.9673C42.5682 28.6109 42.4435 28.2065 42.4435 27.754H43.4752C43.4752 28.2243 43.6479 28.5967 43.9936 28.8711C44.3428 29.1419 44.8078 29.2773 45.3887 29.2773C45.9303 29.2773 46.3454 29.1668 46.6341 28.9459C46.9227 28.725 47.067 28.4238 47.067 28.0425C47.067 27.6613 46.9334 27.3673 46.6661 27.1607C46.3989 26.9504 45.9143 26.7437 45.2123 26.5406V26.5406ZM51.8828 30.1164C51.0989 30.1164 50.461 29.8598 49.9693 29.3466C49.4776 28.8299 49.2317 28.1404 49.2317 27.2781V27.0964C49.2317 26.5227 49.3403 26.0114 49.5577 25.5623C49.7786 25.1098 50.0851 24.757 50.4771 24.504C50.8726 24.2474 51.3002 24.1191 51.7599 24.1191C52.5118 24.1191 53.0961 24.3668 53.5131 24.8622C53.9299 25.3574 54.1385 26.0665 54.1385 26.9894V27.401H50.2205C50.2348 27.9712 50.4005 28.4327 50.7176 28.7854C51.0383 29.1346 51.4445 29.3093 51.9363 29.3093C52.2855 29.3093 52.5813 29.2379 52.8236 29.0954C53.0659 28.9529 53.2779 28.764 53.4597 28.5289L54.0636 28.9992C53.579 29.744 52.852 30.1164 51.8828 30.1164V30.1164ZM51.7596 24.9317C51.3605 24.9317 51.0256 25.0778 50.7548 25.37C50.484 25.6586 50.3165 26.0649 50.2523 26.5887H53.1494V26.5138C53.1208 26.0115 52.9854 25.623 52.7432 25.3486C52.5008 25.0707 52.173 24.9317 51.7596 24.9317V24.9317ZM57.8265 29.3093C58.1793 29.3093 58.4875 29.2023 58.7512 28.9885C59.0148 28.7748 59.161 28.5074 59.1894 28.1868H60.1248C60.1071 28.5182 59.993 28.8335 59.7828 29.1328C59.5726 29.4322 59.291 29.671 58.9383 29.8491C58.589 30.0273 58.2185 30.1164 57.8265 30.1164C57.039 30.1164 56.4118 29.8544 55.945 29.3306C55.4818 28.8032 55.2501 28.0835 55.2501 27.1712V27.0055C55.2501 26.4424 55.3535 25.9418 55.5602 25.5035C55.7668 25.0652 56.0626 24.7249 56.4475 24.4826C56.8359 24.2403 57.2938 24.1191 57.8211 24.1191C58.4697 24.1191 59.0077 24.3133 59.4354 24.7018C59.8665 25.0902 60.0964 25.5944 60.1248 26.2144H59.1894C59.161 25.8403 59.0185 25.5339 58.7619 25.2951C58.5089 25.0528 58.1953 24.9316 57.8211 24.9316C57.3188 24.9316 56.9285 25.1133 56.6506 25.4768C56.3762 25.8368 56.239 26.3587 56.239 27.0429V27.2299C56.239 27.8964 56.3762 28.4095 56.6506 28.7694C56.925 29.1293 57.3169 29.3093 57.8265 29.3093V29.3093ZM65.0262 29.4375C64.6409 29.8902 64.076 30.1165 63.3317 30.1165C62.7154 30.1165 62.2446 29.9383 61.9203 29.5819C61.5996 29.222 61.4374 28.6911 61.4338 27.9891V24.2261H62.4231V27.9624C62.4231 28.839 62.7788 29.2773 63.4915 29.2773C64.2468 29.2773 64.7493 28.9957 64.9988 28.4327V24.2261H65.9873V30.0095H65.047L65.0262 29.4375V29.4375ZM70.51 25.1133C70.3601 25.0884 70.1981 25.076 70.024 25.076C69.3749 25.076 68.9348 25.352 68.7038 25.9044V30.0094H67.7142V24.2261H68.6765L68.6929 24.8941C69.0169 24.3774 69.4767 24.1191 70.0722 24.1191C70.2648 24.1191 70.4104 24.1441 70.51 24.194V25.1133V25.1133ZM72.8229 30.0095H71.7282V24.2261H72.8229V30.0095V30.0095ZM71.6478 22.6921C71.6478 22.5317 71.6959 22.3963 71.7923 22.2859C71.8919 22.1754 72.0375 22.1202 72.2301 22.1202C72.4228 22.1202 72.5684 22.1754 72.6691 22.2859C72.7687 22.3963 72.818 22.5317 72.818 22.6921C72.818 22.8525 72.7687 22.9861 72.6691 23.093C72.5684 23.1999 72.4228 23.2533 72.2301 23.2533C72.0375 23.2533 71.8919 23.1999 71.7923 23.093C71.6959 22.9861 71.6478 22.8525 71.6478 22.6921V22.6921ZM75.865 22.8258V24.2262H76.9454V24.9905H75.865V28.5771C75.865 28.8087 75.9132 28.9833 76.0095 29.1009C76.1058 29.2149 76.27 29.272 76.501 29.272C76.6159 29.272 76.7725 29.2505 76.9717 29.2078V30.0096C76.7112 30.0808 76.4583 30.1165 76.2131 30.1165C75.7709 30.1165 75.4381 29.9829 75.2137 29.7155C74.9893 29.4483 74.8765 29.0688 74.8765 28.5771V24.9905H73.8234V24.2262H74.8765V22.8258H75.865V22.8258ZM80.2168 28.561L81.5633 24.2261H82.6218L80.2967 30.9021C79.9366 31.8642 79.3652 32.3453 78.5814 32.3453L78.3942 32.3292L78.0253 32.2598V31.458L78.2924 31.4794C78.6274 31.4794 78.8879 31.4117 79.0729 31.2763C79.2612 31.1409 79.4166 30.8932 79.5381 30.5333L79.7571 29.9454L77.6936 24.2261H78.7729L80.2168 28.561V28.561ZM86.4537 27.9196C86.4537 27.5454 86.5566 27.2016 86.7634 26.888C86.9736 26.5745 87.3721 26.2092 87.961 25.7923C87.6151 25.3718 87.383 25.0333 87.2659 24.7767C87.1477 24.5202 87.0897 24.2654 87.0897 24.0124C87.0897 23.4208 87.2637 22.9576 87.6129 22.6227C87.9621 22.2877 88.4361 22.1202 89.0349 22.1202C89.5691 22.1202 90.0113 22.277 90.3605 22.5906C90.7097 22.9006 90.8838 23.2925 90.8838 23.7665C90.8838 24.08 90.8039 24.3705 90.6441 24.6378C90.4864 24.9015 90.2106 25.1794 89.8154 25.4716L89.2429 25.8938L90.9747 27.9624C91.2177 27.4991 91.3381 26.9842 91.3381 26.4177H92.2313C92.2313 27.3263 92.0124 28.08 91.5734 28.6787L92.6856 30.0096H91.499L90.9801 29.3949C90.7163 29.63 90.4065 29.81 90.0508 29.9347C89.6972 30.0559 89.3381 30.1165 88.9703 30.1165C88.2117 30.1165 87.602 29.9151 87.1422 29.5125C86.6835 29.1098 86.4537 28.5788 86.4537 27.9196V27.9196ZM88.9708 29.3094C89.4951 29.3094 89.9746 29.1098 90.4092 28.7107L88.511 26.4391L88.3348 26.5673C87.7404 27.0057 87.4426 27.4563 87.4426 27.9196C87.4426 28.3401 87.5783 28.6769 87.8487 28.9299C88.1235 29.1829 88.4968 29.3094 88.9708 29.3094V29.3094ZM88.0788 23.9804C88.0788 24.3225 88.289 24.7501 88.7093 25.2633L89.3398 24.8196C89.5829 24.6485 89.7482 24.4864 89.8368 24.3332C89.9266 24.1763 89.9704 23.9875 89.9704 23.7666C89.9704 23.5279 89.8817 23.3301 89.7033 23.1733C89.5259 23.0129 89.3015 22.9328 89.03 22.9328C88.7378 22.9328 88.5068 23.0325 88.3349 23.2321C88.1642 23.428 88.0788 23.6775 88.0788 23.9804V23.9804ZM99.0732 26.5406C98.192 26.2876 97.5516 25.9775 97.1488 25.6105C96.7492 25.24 96.55 24.7838 96.55 24.2422C96.55 23.6292 96.7941 23.1233 97.2823 22.7242C97.7738 22.3216 98.412 22.1202 99.1958 22.1202C99.73 22.1202 100.206 22.2236 100.623 22.4303C101.044 22.6369 101.368 22.922 101.595 23.2854C101.827 23.649 101.943 24.0462 101.943 24.4774H100.911C100.911 24.007 100.762 23.6382 100.462 23.3709C100.164 23.1002 99.741 22.9648 99.1958 22.9648C98.6901 22.9648 98.2938 23.077 98.0092 23.3015C97.7279 23.5224 97.5867 23.8307 97.5867 24.2262C97.5867 24.5433 97.7202 24.8124 97.9873 25.0333C98.2588 25.2507 98.7164 25.4502 99.3611 25.632C100.01 25.8137 100.516 26.015 100.879 26.2359C101.246 26.4533 101.518 26.708 101.692 27.0003C101.87 27.2925 101.959 27.6363 101.959 28.0319C101.959 28.6626 101.714 29.1686 101.221 29.5499C100.729 29.9276 100.073 30.1165 99.2495 30.1165C98.7142 30.1165 98.2161 30.0149 97.7519 29.8118C97.2889 29.6051 96.9309 29.3236 96.6781 28.9673C96.4285 28.6109 96.3037 28.2065 96.3037 27.754H97.336C97.336 28.2243 97.5078 28.5967 97.8538 28.8711C98.203 29.1419 98.6682 29.2773 99.2495 29.2773C99.7902 29.2773 100.206 29.1668 100.494 28.9459C100.783 28.725 100.928 28.4238 100.928 28.0425C100.928 27.6613 100.794 27.3673 100.527 27.1607C100.26 26.9504 99.7749 26.7437 99.0732 26.5406V26.5406ZM106.913 29.4375C106.529 29.8902 105.964 30.1165 105.22 30.1165C104.602 30.1165 104.132 29.9383 103.808 29.5819C103.488 29.222 103.325 28.6911 103.321 27.9891V24.2261H104.31V27.9624C104.31 28.839 104.667 29.2773 105.379 29.2773C106.135 29.2773 106.637 28.9957 106.887 28.4327V24.2261H107.875V30.0095H106.935L106.913 29.4375V29.4375ZM114.487 27.1819C114.487 28.062 114.286 28.7711 113.883 29.3093C113.481 29.8473 112.936 30.1164 112.248 30.1164C111.546 30.1164 110.993 29.8936 110.591 29.4482V32.2329H109.602V24.2261H110.505L110.553 24.8674C110.956 24.3686 111.515 24.1191 112.232 24.1191C112.926 24.1191 113.476 24.3811 113.879 24.9049C114.285 25.4287 114.487 26.1574 114.487 27.091V27.1819V27.1819ZM113.499 27.07C113.499 26.4179 113.36 25.903 113.082 25.5252C112.804 25.1476 112.423 24.9586 111.938 24.9586C111.339 24.9586 110.89 25.2242 110.592 25.7551V28.5185C110.887 29.0459 111.339 29.3096 111.949 29.3096C112.423 29.3096 112.798 29.1226 113.076 28.7484C113.358 28.3706 113.499 27.8111 113.499 27.07V27.07ZM120.853 27.1819C120.853 28.062 120.652 28.7711 120.25 29.3093C119.847 29.8473 119.302 30.1164 118.615 30.1164C117.912 30.1164 117.36 29.8936 116.957 29.4482V32.2329H115.969V24.2261H116.872L116.92 24.8674C117.322 24.3686 117.882 24.1191 118.598 24.1191C119.293 24.1191 119.842 24.3811 120.244 24.9049C120.651 25.4287 120.853 26.1574 120.853 27.091V27.1819V27.1819ZM119.864 27.07C119.864 26.4179 119.725 25.903 119.447 25.5252C119.169 25.1476 118.788 24.9586 118.303 24.9586C117.704 24.9586 117.256 25.2242 116.957 25.7551V28.5185C117.252 29.0459 117.704 29.3096 118.314 29.3096C118.788 29.3096 119.164 29.1226 119.442 28.7484C119.724 28.3706 119.864 27.8111 119.864 27.07V27.07ZM122.072 27.0643C122.072 26.4977 122.182 25.9881 122.404 25.5356C122.628 25.0831 122.939 24.7339 123.334 24.488C123.732 24.242 124.187 24.1191 124.697 24.1191C125.484 24.1191 126.12 24.3918 126.605 24.9369C127.093 25.4822 127.337 26.2073 127.337 27.1124V27.1819C127.337 27.7449 127.229 28.251 127.011 28.6999C126.798 29.1453 126.489 29.4928 126.086 29.7422C125.688 29.9916 125.228 30.1164 124.708 30.1164C123.924 30.1164 123.288 29.8437 122.8 29.2986C122.315 28.7533 122.072 28.0318 122.072 27.1337V27.0643V27.0643ZM123.066 27.182C123.066 27.8234 123.214 28.3383 123.509 28.7267C123.808 29.1151 124.208 29.3094 124.707 29.3094C125.209 29.3094 125.608 29.1133 125.903 28.7213C126.2 28.3258 126.348 27.7735 126.348 27.0644C126.348 26.4301 126.196 25.917 125.893 25.525C125.594 25.1295 125.195 24.9317 124.696 24.9317C124.208 24.9317 123.814 25.1259 123.515 25.5144C123.215 25.9027 123.066 26.4586 123.066 27.182V27.182ZM131.592 25.1133C131.442 25.0884 131.28 25.076 131.105 25.076C130.456 25.076 130.016 25.352 129.784 25.9044V30.0094H128.796V24.2261H129.758L129.773 24.8941C130.098 24.3774 130.558 24.1191 131.153 24.1191C131.345 24.1191 131.491 24.1441 131.592 24.194V25.1133V25.1133ZM134.333 22.8258V24.2262H135.413V24.9905H134.333V28.5771C134.333 28.8087 134.381 28.9833 134.477 29.1009C134.573 29.2149 134.738 29.272 134.969 29.272C135.082 29.272 135.24 29.2505 135.439 29.2078V30.0096C135.179 30.0808 134.926 30.1165 134.681 30.1165C134.238 30.1165 133.906 29.9829 133.681 29.7155C133.456 29.4483 133.344 29.0688 133.344 28.5771V24.9905H132.291V24.2262H133.344V22.8258H134.333V22.8258Z" fill="black"/>
</svg>
