<svg width="18" height="14" viewBox="0 0 18 14" fill="none" xmlns="http://www.w3.org/2000/svg">
<path fill-rule="evenodd" clip-rule="evenodd" d="M0.149712 3.21869C0.255631 1.58982 1.51243 0.293606 3.141 0.183234C4.56254 0.0868962 6.47524 0 8.75 0C11.0247 0 12.9375 0.0868962 14.359 0.183234C15.9876 0.293606 17.2443 1.58982 17.3503 3.21869C17.4294 4.43495 17.5 5.84465 17.5 7C17.5 8.15535 17.4294 9.56506 17.3503 10.7813C17.2443 12.4102 15.9876 13.7064 14.359 13.8168C12.9375 13.9131 11.0247 14 8.75 14C6.47524 14 4.56254 13.9131 3.141 13.8168C1.51243 13.7064 0.255631 12.4102 0.149712 10.7813C0.07063 9.56506 0 8.15535 0 7C0 5.84465 0.07063 4.43495 0.149712 3.21869Z" fill="#929CBF" fill-opacity="0.25098"/>
<path fill-rule="evenodd" clip-rule="evenodd" d="M7.00098 5.25197C7.00098 4.55434 7.77736 4.13725 8.35906 4.52238L10.9783 6.25665C11.5113 6.60953 11.5113 7.39205 10.9782 7.74493L8.35898 9.47901C7.77736 9.8641 7.00098 9.44698 7.00098 8.74935V5.25197Z" fill="#929CBF"/>
</svg>
