<svg width="21" height="21" viewBox="0 0 21 21" fill="none" xmlns="http://www.w3.org/2000/svg">
<g clip-path="url(#clip0_6696_4350)">
<path d="M14.5687 0.65625C14.5687 1.01869 14.8626 1.3125 15.225 1.3125H19.3125C19.5197 1.3125 19.6875 1.48031 19.6875 1.6875V6.24375C19.6875 6.60619 19.9813 6.9 20.3438 6.9C20.7062 6.9 21 6.60619 21 6.24375V0.65625C21 0.293813 20.7062 0 20.3438 0H15.225C14.8626 0 14.5687 0.293813 14.5687 0.65625ZM0.65625 6.9C1.01869 6.9 1.3125 6.60619 1.3125 6.24375V1.6875C1.3125 1.48031 1.48031 1.3125 1.6875 1.3125H6.71438C7.07681 1.3125 7.37063 1.01869 7.37063 0.65625C7.37063 0.293813 7.07681 0 6.71438 0H0.65625C0.293813 0 0 0.293813 0 0.65625V6.24375C0 6.60619 0.293813 6.9 0.65625 6.9ZM19.6875 14.7562V19.3125C19.6875 19.5197 19.5197 19.6875 19.3125 19.6875H15.225C14.8626 19.6875 14.5687 19.9813 14.5687 20.3438C14.5687 20.7062 14.8626 21 15.225 21H20.3438C20.7062 21 21 20.7062 21 20.3438V14.7562C21 14.3938 20.7062 14.1 20.3438 14.1C19.9813 14.1 19.6875 14.3938 19.6875 14.7562ZM0.65625 14.1C0.293813 14.1 0 14.3938 0 14.7562V20.3438C0 20.7062 0.293813 21 0.65625 21H6.71438C7.07681 21 7.37063 20.7062 7.37063 20.3438C7.37063 19.9813 7.07681 19.6875 6.71438 19.6875H1.6875C1.48031 19.6875 1.3125 19.5197 1.3125 19.3125V14.7562C1.3125 14.3938 1.01869 14.1 0.65625 14.1Z" fill="black"/>
<path d="M13.9144 10.5042C13.8375 10.4246 13.7252 10.3857 13.5711 10.3857H7.40758C7.26658 10.3857 7.15221 10.4289 7.07683 10.5106C7.00389 10.5897 6.97089 10.7015 6.98158 10.8348C7.00108 11.0804 7.02133 11.3341 7.07571 11.5797C7.27371 12.4766 7.82552 13.2481 8.62952 13.7523C9.19858 14.1091 9.85408 14.2953 10.5053 14.2953C10.7646 14.2953 11.0233 14.2659 11.2753 14.2057C12.8809 13.8239 13.9583 12.5062 14.0198 10.8487C14.0254 10.6964 13.9909 10.5837 13.9144 10.5042ZM13.2173 11.1657C13.0603 12.3202 12.0773 13.5129 10.5004 13.5206C10.4957 13.5206 10.4912 13.5206 10.4865 13.5206C9.11946 13.5206 7.95189 12.4966 7.78089 11.1657H13.2173Z" fill="black"/>
<path d="M12.0206 9.25669L12.0611 9.22088C12.0782 9.2055 12.0951 9.18994 12.1131 9.17587C12.4755 8.89275 12.9853 8.91131 13.3256 9.22069C13.4038 9.29194 13.5006 9.36319 13.6301 9.36319C13.6416 9.36319 13.653 9.36263 13.665 9.3615C13.8248 9.34613 13.9419 9.25781 13.9946 9.1125C14.0509 8.95781 14.0151 8.80856 13.8941 8.69194C13.5609 8.37131 13.1591 8.20669 12.7003 8.20312H12.699C12.2387 8.20556 11.8363 8.36719 11.5035 8.68331C11.334 8.84419 11.3205 9.07875 11.4714 9.24112C11.6168 9.39712 11.8478 9.40387 12.0206 9.25669Z" fill="black"/>
<path d="M7.23006 9.33844C7.36318 9.38719 7.49312 9.363 7.62718 9.264L7.68737 9.21863C7.77831 9.14963 7.87224 9.07819 7.96937 9.042C8.32768 8.90869 8.65524 8.97112 8.94343 9.22687C9.02031 9.29494 9.11518 9.36319 9.24174 9.36319C9.25206 9.36319 9.26274 9.36281 9.27343 9.36188C9.43299 9.34781 9.55074 9.26025 9.60493 9.11531C9.66343 8.95894 9.62612 8.80669 9.49956 8.68613C9.16674 8.36944 8.76493 8.20687 8.30481 8.20312H8.30368C7.85143 8.205 7.45187 8.36588 7.11624 8.68088C7.01237 8.77838 6.96756 8.89275 6.98274 9.02063C7.00112 9.17381 7.08906 9.2865 7.23006 9.33844Z" fill="black"/>
<path d="M10.5 17.4502C6.66786 17.4502 3.55029 14.3324 3.55029 10.5005C3.55029 6.66834 6.66786 3.55078 10.5 3.55078C14.3321 3.55078 17.4497 6.66834 17.4497 10.5005C17.4497 14.3326 14.3321 17.4502 10.5 17.4502ZM10.5 4.67578C7.28829 4.67578 4.67529 7.28878 4.67529 10.5005C4.67529 13.7123 7.28829 16.3252 10.5 16.3252C13.7119 16.3252 16.3247 13.7122 16.3247 10.5005C16.3247 7.28878 13.7119 4.67578 10.5 4.67578Z" fill="black"/>
</g>
<defs>
<clipPath id="clip0_6696_4350">
<rect width="21" height="21" fill="white"/>
</clipPath>
</defs>
</svg>
