<svg width="17" height="16" viewBox="0 0 17 16" fill="none" xmlns="http://www.w3.org/2000/svg">
<path fill-rule="evenodd" clip-rule="evenodd" d="M0.136719 4.26667C0.136719 2.77319 0.136719 2.02645 0.427368 1.45603C0.68303 0.954258 1.09098 0.546311 1.59275 0.290649C2.16317 0 2.90991 0 4.40339 0H11.8701C13.3636 0 14.1102 0 14.6807 0.290649C15.1825 0.546311 15.5904 0.954258 15.8461 1.45603C16.1367 2.02645 16.1367 2.77319 16.1367 4.26667V11.7333C16.1367 13.2268 16.1367 13.9735 15.8461 14.544C15.5904 15.0458 15.1825 15.4537 14.6807 15.7093C14.1102 16 13.3636 16 11.8701 16H4.40339C2.90991 16 2.16317 16 1.59275 15.7093C1.09098 15.4537 0.68303 15.0458 0.427368 14.544C0.136719 13.9735 0.136719 13.2268 0.136719 11.7333V4.26667V4.26667Z" fill="#929CBF" fill-opacity="0.25098"/>
<path d="M13.7696 7.82505C13.7359 8.41933 13.65 9.00201 13.4144 9.55451C13 10.526 12.2467 11.1134 11.2566 11.407C10.8144 11.5382 10.3559 11.6148 9.89743 11.7169C9.89511 11.7018 9.89163 11.7204 9.89859 11.7274C10.2944 12.1313 10.4209 12.6385 10.4279 13.1783C10.4383 13.9281 10.4302 15.0273 10.4209 15.7771C10.4198 15.856 10.4232 15.9315 10.4372 16H6.18199C6.19359 15.9396 6.19591 15.8723 6.19475 15.8026C6.18663 15.3801 6.19243 14.6071 6.19243 14.166C5.9777 14.1927 5.79083 14.2229 5.60279 14.2392C5.01779 14.2891 4.45949 14.2078 3.9627 13.8677C3.65395 13.6565 3.43109 13.3744 3.28833 13.0262C3.07475 12.4992 2.77529 12.0384 2.27154 11.7367C2.19261 11.6891 2.12181 11.6229 2.06029 11.5533C1.95815 11.4384 1.98717 11.3478 2.1369 11.3037C2.33886 11.2445 2.53734 11.2759 2.73234 11.342C3.16413 11.4871 3.47752 11.7773 3.71431 12.1557C3.9569 12.5434 4.26333 12.8533 4.71368 12.9891C5.20118 13.1376 5.66895 13.0529 6.12743 12.866C6.15877 12.8533 6.19708 12.8173 6.20172 12.7883C6.26324 12.3762 6.42922 12.0164 6.73681 11.7111C6.43734 11.6589 6.15413 11.6183 5.87672 11.5591C5.20234 11.4151 4.57208 11.1702 4.04163 10.7152C3.36958 10.1407 3.04225 9.38273 2.91342 8.5296C2.82288 7.92255 2.78458 7.31201 2.93663 6.70612C3.06315 6.19889 3.29761 5.74853 3.64467 5.35853C3.69806 5.29701 3.71663 5.24942 3.68761 5.16353C3.45083 4.46826 3.52163 3.78344 3.77118 3.10791C3.78627 3.06728 3.85708 3.01737 3.89886 3.02085C4.11824 3.03826 4.34225 3.04871 4.55467 3.10442C5.09904 3.24835 5.58074 3.52924 6.05547 3.82523C6.1135 3.86121 6.2052 3.8821 6.2702 3.86585C7.60734 3.53505 8.94565 3.52576 10.2828 3.85889C10.4105 3.89139 10.5033 3.86817 10.6113 3.79853C11.1348 3.46076 11.6814 3.16942 12.3013 3.04407C12.7702 2.95121 12.8143 2.97326 12.9373 3.4271C13.094 4.00514 13.1068 4.58433 12.9315 5.16353C12.9164 5.21344 12.9292 5.29353 12.9617 5.33067C13.585 6.04799 13.8218 6.88835 13.7696 7.82505Z" fill="#929CBF"/>
</svg>
