<svg width="66" height="65" viewBox="0 0 66 65" fill="none" xmlns="http://www.w3.org/2000/svg">
<circle cx="33" cy="32.5" r="32.5" fill="#FF7A80"/>
<path fill-rule="evenodd" clip-rule="evenodd" d="M30.9169 45C32.8034 45 34.3815 43.6552 34.744 41.875H27.0898C27.4523 43.6552 29.0305 45 30.9169 45Z" fill="white"/>
<path fill-rule="evenodd" clip-rule="evenodd" d="M38.8083 35.1C38.7812 35.1 38.7563 35.1042 38.7292 35.1042C34.1344 35.1042 30.3958 31.3656 30.3958 26.7708C30.3958 24.9656 30.9792 23.2979 31.9583 21.9312V21.0417C31.9583 20.4656 31.4917 20 30.9167 20C30.3417 20 29.875 20.4656 29.875 21.0417V22.1667C26.3469 22.675 23.625 25.7094 23.625 29.375V32.2792C23.625 34.3406 22.7219 36.2865 21.1375 37.626C20.7323 37.9729 20.5 38.4771 20.5 39.0104C20.5 40.0156 21.3177 40.8333 22.3229 40.8333H39.5104C40.5156 40.8333 41.3333 40.0156 41.3333 39.0104C41.3333 38.4771 41.101 37.9729 40.6854 37.6177C39.8646 36.9229 39.2312 36.0583 38.8083 35.1Z" fill="white"/>
<path fill-rule="evenodd" clip-rule="evenodd" d="M38.7288 20C34.9955 20 31.958 23.0375 31.958 26.7708C31.958 30.5042 34.9955 33.5417 38.7288 33.5417C42.4622 33.5417 45.4997 30.5042 45.4997 26.7708C45.4997 23.0375 42.4622 20 38.7288 20ZM40.0309 28.3334C40.4622 28.3334 40.8122 28.6834 40.8122 29.1146C40.8122 29.5459 40.4622 29.8959 40.0309 29.8959H37.4268C36.9955 29.8959 36.6455 29.5459 36.6455 29.1146V28.2084C36.6455 26.9855 37.6413 25.9896 38.8643 25.9896C39.0768 25.9896 39.2497 25.8167 39.2497 25.6042C39.2497 25.3813 39.0768 25.2084 38.8643 25.2084H37.4268C36.9955 25.2084 36.6455 24.8584 36.6455 24.4271C36.6455 23.9959 36.9955 23.6459 37.4268 23.6459H38.8643C39.9382 23.6459 40.8122 24.5198 40.8122 25.5938C40.8122 26.6782 39.9382 27.5521 38.8643 27.5521C38.5028 27.5521 38.208 27.8469 38.208 28.2084V28.3334H40.0309Z" fill="white"/>
</svg>
