<svg width="15" height="15" viewBox="0 0 15 15" fill="none" xmlns="http://www.w3.org/2000/svg">
<mask id="mask0_128_136" style="mask-type:alpha" maskUnits="userSpaceOnUse" x="0" y="0" width="15" height="15">
<rect width="15" height="15" fill="white"/>
</mask>
<g mask="url(#mask0_128_136)">
<path fill-rule="evenodd" clip-rule="evenodd" d="M11.1928 4.2771H3.79137C3.5487 4.2771 3.3667 4.47427 3.3667 4.70177V6.15779C3.3667 6.40046 3.56387 6.58246 3.79137 6.58246H11.1928C11.4355 6.58246 11.6175 6.38529 11.6175 6.15779V4.70177C11.6326 4.47427 11.4355 4.2771 11.1928 4.2771ZM4.14026 5.29326C3.98859 5.29326 3.88242 5.17193 3.88242 5.03542C3.88242 4.88376 4.00376 4.77759 4.14026 4.77759C4.29193 4.77759 4.39809 4.89892 4.39809 5.03542C4.39809 5.18709 4.29193 5.29326 4.14026 5.29326ZM10.4952 6.06666H8.62969V5.44482H10.4952L10.4952 6.06666Z" fill="url(#paint0_linear_128_136)"/>
<path fill-rule="evenodd" clip-rule="evenodd" d="M11.1928 7.44702H3.79137C3.5487 7.44702 3.3667 7.64419 3.3667 7.87169V9.32771C3.3667 9.57038 3.56387 9.75238 3.79137 9.75238H11.1928C11.4355 9.75238 11.6175 9.55521 11.6175 9.32771V7.87169C11.6326 7.62902 11.4355 7.44702 11.1928 7.44702ZM4.14026 8.46318C3.98859 8.46318 3.88242 8.34185 3.88242 8.20535C3.88242 8.05368 4.00376 7.94751 4.14026 7.94751C4.29193 7.94751 4.39809 8.06884 4.39809 8.20535C4.39809 8.34185 4.29193 8.46318 4.14026 8.46318ZM10.4952 9.2215H8.62969V8.59966H10.4952L10.4952 9.2215Z" fill="#FF3B43"/>
<path fill-rule="evenodd" clip-rule="evenodd" d="M11.1928 10.6016H3.79137C3.5487 10.6016 3.3667 10.7987 3.3667 11.0262V12.4822C3.3667 12.7249 3.56387 12.9069 3.79137 12.9069H11.1928C11.4355 12.9069 11.6175 12.7098 11.6175 12.4822V11.0262C11.6326 10.7987 11.4355 10.6016 11.1928 10.6016ZM4.14026 11.6179C3.98859 11.6179 3.88242 11.4965 3.88242 11.36C3.88242 11.2084 4.00376 11.1022 4.14026 11.1022C4.29193 11.1022 4.39809 11.2235 4.39809 11.36C4.39809 11.4965 4.29193 11.6179 4.14026 11.6179ZM10.4952 12.3913H8.62969V11.7694H10.4952L10.4952 12.3913Z" fill="#FF3B43"/>
<path fill-rule="evenodd" clip-rule="evenodd" d="M11.8752 2.22952C11.769 2.21436 11.678 2.16886 11.6022 2.07786C11.0107 1.27401 10.0552 0.788675 9.03901 0.788675C8.97834 0.788675 8.91768 0.788675 8.84184 0.788675C8.75084 0.788675 8.65984 0.773509 8.59917 0.712841C7.9925 0.257836 7.24933 0 6.46065 0C5.0653 0 3.82162 0.819009 3.23011 2.04752C3.16945 2.15369 3.06328 2.24469 2.94194 2.25986C1.41009 2.47219 0.211914 3.79171 0.211914 5.39939C0.211914 6.93124 1.28876 8.20526 2.72961 8.50859V7.56825C2.72961 7.44692 2.74478 7.34075 2.79028 7.23458C2.01677 6.97674 1.45559 6.2639 1.45559 5.39939C1.45559 4.33772 2.3201 3.47321 3.38178 3.47321C3.44245 3.47321 3.48795 3.47321 3.53345 3.48837C3.83679 3.51871 4.10979 3.30637 4.18563 3.0182C4.47379 1.97169 5.39897 1.25885 6.46065 1.25885C7.06732 1.25885 7.64366 1.48635 8.0835 1.92619C8.23517 2.07786 8.4475 2.13852 8.64467 2.09302C8.78118 2.06269 8.90251 2.04752 9.03901 2.04752C9.78219 2.04752 10.4495 2.47219 10.768 3.13954C10.8894 3.3822 11.132 3.51871 11.3899 3.48837C11.4505 3.48837 11.5264 3.47321 11.587 3.47321C12.6487 3.47321 13.5132 4.33772 13.5132 5.39939C13.5132 6.24874 12.9521 6.97674 12.1785 7.23458C12.2089 7.34075 12.2392 7.44692 12.2392 7.56825V8.50859C13.6801 8.20526 14.7569 6.93124 14.7569 5.39939C14.7872 3.73104 13.4981 2.36603 11.8752 2.22952Z" fill="url(#paint1_linear_128_136)"/>
<path opacity="0.5" fill-rule="evenodd" clip-rule="evenodd" d="M10.2376 13.9079H8.35696C8.31146 13.9079 8.28112 13.8776 8.26596 13.8472C8.14462 13.5439 7.84128 13.3315 7.49245 13.3315C7.14361 13.3315 6.84027 13.5439 6.71894 13.8472C6.70377 13.8775 6.67344 13.9079 6.62794 13.9079H4.74725C4.70175 13.9079 4.65625 13.9534 4.65625 13.9989V14.3326C4.65625 14.3781 4.70175 14.4236 4.74725 14.4236H6.6431C6.68861 14.4236 6.71894 14.4539 6.73411 14.4842C6.85544 14.7876 7.15878 14.9999 7.50761 14.9999C7.85645 14.9999 8.15979 14.7876 8.28112 14.4842C8.29629 14.4539 8.32662 14.4236 8.37212 14.4236H10.2528C10.2983 14.4236 10.3438 14.3781 10.3438 14.3326V13.9989C10.3286 13.9382 10.2831 13.9079 10.2376 13.9079ZM7.49245 14.5296C7.28012 14.5296 7.11328 14.3628 7.11328 14.1505C7.11328 13.9381 7.28012 13.7713 7.49245 13.7713C7.70479 13.7713 7.87162 13.9381 7.87162 14.1505C7.87162 14.3628 7.70479 14.5296 7.49245 14.5296Z" fill="#FF3B43"/>
</g>
<defs>
<linearGradient id="paint0_linear_128_136" x1="1.88636" y1="3.40123" x2="1.88092" y2="6.57283" gradientUnits="userSpaceOnUse">
<stop stop-color="white"/>
<stop offset="1" stop-color="#FF3B43"/>
</linearGradient>
<linearGradient id="paint1_linear_128_136" x1="-2.39756" y1="-3.23266" x2="-2.4396" y2="8.47296" gradientUnits="userSpaceOnUse">
<stop stop-color="white"/>
<stop offset="1" stop-color="#FF3B43"/>
</linearGradient>
</defs>
</svg>
