<svg width="36" height="36" viewBox="0 0 36 36" fill="none" xmlns="http://www.w3.org/2000/svg">
<rect x="0.75" y="0.75" width="34.5" height="34.5" rx="17.25" fill="white" fill-opacity="0.0980392" stroke="white" stroke-width="1.5"/>
<path d="M24.6607 16.1607H20.1071C19.9592 16.1607 19.8393 16.0408 19.8393 15.8929V11.3393C19.8393 10.5997 19.2396 10 18.5 10C17.7604 10 17.1607 10.5997 17.1607 11.3393V15.8929C17.1607 16.0408 17.0408 16.1607 16.8929 16.1607H12.3393C11.5997 16.1607 11 16.7604 11 17.5C11 18.2396 11.5997 18.8393 12.3393 18.8393H16.8929C17.0408 18.8393 17.1607 18.9592 17.1607 19.1071V23.6607C17.1607 24.4003 17.7604 25 18.5 25C19.2396 25 19.8393 24.4003 19.8393 23.6607V19.1071C19.8393 18.9592 19.9592 18.8393 20.1071 18.8393H24.6607C25.4003 18.8393 26 18.2396 26 17.5C26 16.7604 25.4003 16.1607 24.6607 16.1607Z" fill="white"/>
</svg>
