<svg width="66" height="65" viewBox="0 0 66 65" fill="none" xmlns="http://www.w3.org/2000/svg">
<circle opacity="0.5" cx="33" cy="32.5" r="32.5" fill="#EA1BFF"/>
<mask id="mask0_1_9901" style="mask-type:alpha" maskUnits="userSpaceOnUse" x="20" y="20" width="26" height="25">
<rect x="20.5" y="20" width="25" height="25" fill="white"/>
</mask>
<g mask="url(#mask0_1_9901)">
<path fill-rule="evenodd" clip-rule="evenodd" d="M43.9863 32.7441V29.3262C43.9863 29.0576 43.7666 28.8379 43.498 28.8379H39.1035V30.3027H37.6387V28.8379H36.1738V30.3027H34.709V28.8379H22.502C22.2334 28.8379 22.0137 29.0576 22.0137 29.3262V32.7441C22.0137 33.0127 22.2334 33.2324 22.502 33.2324H33.2441V36.1621H28.4199L32.0674 39.8096C32.5459 40.2881 33.1953 40.5566 33.874 40.5566H34.084C34.7627 40.5566 35.4121 40.2881 35.8906 39.8096L39.5381 36.1621H34.709V33.2324H43.498C43.7666 33.2324 43.9863 33.0127 43.9863 32.7441ZM24.7383 31.8066H23.8838C23.7227 31.8066 23.5908 31.6748 23.5908 31.5137V30.6543C23.5908 30.4932 23.7227 30.3613 23.8838 30.3613H24.7432C24.9043 30.3613 25.0361 30.4932 25.0361 30.6543V31.5137C25.0313 31.6748 24.8994 31.8066 24.7383 31.8066ZM27.0283 31.8066H26.1689C26.0078 31.8066 25.876 31.6748 25.876 31.5137V30.6543C25.876 30.4932 26.0078 30.3613 26.1689 30.3613H27.0283C27.1895 30.3613 27.3213 30.4932 27.3213 30.6543V31.5137C27.3213 31.6748 27.1895 31.8066 27.0283 31.8066ZM29.3135 31.8066H28.4541C28.293 31.8066 28.1611 31.6748 28.1611 31.5137V30.6543C28.1611 30.4932 28.293 30.3613 28.4541 30.3613H29.3135C29.4746 30.3613 29.6064 30.4932 29.6064 30.6543V31.5137C29.6064 31.6748 29.4746 31.8066 29.3135 31.8066ZM31.5986 31.8066H30.7393C30.5781 31.8066 30.4463 31.6748 30.4463 31.5137V30.6543C30.4463 30.4932 30.5781 30.3613 30.7393 30.3613H31.5986C31.7598 30.3613 31.8916 30.4932 31.8916 30.6543V31.5137C31.8916 31.6748 31.7646 31.8066 31.5986 31.8066Z" fill="white"/>
<path fill-rule="evenodd" clip-rule="evenodd" d="M30.959 40.7715L27.3848 37.1973V44.1797C27.3848 44.6338 27.751 45 28.2051 45H39.748C40.2021 45 40.5684 44.6338 40.5684 44.1797V37.1973L36.9941 40.7715C36.1934 41.5723 35.1094 42.0215 33.9766 42.0215C32.8438 42.0215 31.7598 41.5723 30.959 40.7715Z" fill="white"/>
<path fill-rule="evenodd" clip-rule="evenodd" d="M39.1035 20V21.4648H37.6387V20H36.1738V21.4648H34.709V20H22.502C22.2334 20 22.0137 20.2197 22.0137 20.4883V23.9551C22.0137 24.2236 22.2334 24.4434 22.502 24.4434H43.498C43.7666 24.4434 43.9863 24.2236 43.9863 23.9551V20.4883C43.9863 20.2197 43.7666 20 43.498 20H39.1035ZM24.7383 22.9443H23.8838C23.7227 22.9443 23.5908 22.8125 23.5908 22.6514V21.792C23.5908 21.6309 23.7227 21.499 23.8838 21.499H24.7432C24.9043 21.499 25.0361 21.6309 25.0361 21.792V22.6514C25.0313 22.8125 24.8994 22.9443 24.7383 22.9443ZM27.0283 22.9443H26.1689C26.0078 22.9443 25.876 22.8125 25.876 22.6514V21.792C25.876 21.6309 26.0078 21.499 26.1689 21.499H27.0283C27.1895 21.499 27.3213 21.6309 27.3213 21.792V22.6514C27.3213 22.8125 27.1895 22.9443 27.0283 22.9443ZM29.3135 22.9443H28.4541C28.293 22.9443 28.1611 22.8125 28.1611 22.6514V21.792C28.1611 21.6309 28.293 21.499 28.4541 21.499H29.3135C29.4746 21.499 29.6064 21.6309 29.6064 21.792V22.6514C29.6064 22.8125 29.4746 22.9443 29.3135 22.9443ZM31.5986 22.9443H30.7393C30.5781 22.9443 30.4463 22.8125 30.4463 22.6514V21.792C30.4463 21.6309 30.5781 21.499 30.7393 21.499H31.5986C31.7598 21.499 31.8916 21.6309 31.8916 21.792V22.6514C31.8916 22.8125 31.7646 22.9443 31.5986 22.9443Z" fill="white"/>
<path fill-rule="evenodd" clip-rule="evenodd" d="M27.6387 25.9082H40.3145C40.4561 25.9082 40.5684 26.0205 40.5684 26.1621V27.1191C40.5684 27.2607 40.4561 27.373 40.3145 27.373H27.6387C27.4971 27.373 27.3848 27.2607 27.3848 27.1191V26.1621C27.3848 26.0205 27.4971 25.9082 27.6387 25.9082Z" fill="white"/>
</g>
</svg>
