<svg width="20" height="20" viewBox="0 0 20 20" fill="none" xmlns="http://www.w3.org/2000/svg">
<path d="M10 15C12.7614 15 15 12.7614 15 10C15 7.23858 12.7614 5 10 5C7.23858 5 5 7.23858 5 10C5 12.7614 7.23858 15 10 15Z" fill="#464646"/>
<path d="M10 3.07692C9.79599 3.07692 9.60033 2.99588 9.45607 2.85162C9.31181 2.70736 9.23077 2.51171 9.23077 2.30769V0.769231C9.23077 0.565218 9.31181 0.369561 9.45607 0.225302C9.60033 0.0810437 9.79599 0 10 0C10.204 0 10.3997 0.0810437 10.5439 0.225302C10.6882 0.369561 10.7692 0.565218 10.7692 0.769231V2.30769C10.7692 2.51171 10.6882 2.70736 10.5439 2.85162C10.3997 2.99588 10.204 3.07692 10 3.07692ZM10 20C9.79599 20 9.60033 19.919 9.45607 19.7747C9.31181 19.6304 9.23077 19.4348 9.23077 19.2308V17.6923C9.23077 17.4883 9.31181 17.2926 9.45607 17.1484C9.60033 17.0041 9.79599 16.9231 10 16.9231C10.204 16.9231 10.3997 17.0041 10.5439 17.1484C10.6882 17.2926 10.7692 17.4883 10.7692 17.6923V19.2308C10.7692 19.4348 10.6882 19.6304 10.5439 19.7747C10.3997 19.919 10.204 20 10 20ZM2.30769 10.7692H0.769231C0.565218 10.7692 0.369561 10.6882 0.225302 10.5439C0.0810437 10.3997 0 10.204 0 10C0 9.79599 0.0810437 9.60033 0.225302 9.45607C0.369561 9.31181 0.565218 9.23077 0.769231 9.23077H2.30769C2.51171 9.23077 2.70736 9.31181 2.85162 9.45607C2.99588 9.60033 3.07692 9.79599 3.07692 10C3.07692 10.204 2.99588 10.3997 2.85162 10.5439C2.70736 10.6882 2.51171 10.7692 2.30769 10.7692ZM19.2308 10.7692H17.6923C17.4883 10.7692 17.2926 10.6882 17.1484 10.5439C17.0041 10.3997 16.9231 10.204 16.9231 10C16.9231 9.79599 17.0041 9.60033 17.1484 9.45607C17.2926 9.31181 17.4883 9.23077 17.6923 9.23077H19.2308C19.4348 9.23077 19.6304 9.31181 19.7747 9.45607C19.919 9.60033 20 9.79599 20 10C20 10.204 19.919 10.3997 19.7747 10.5439C19.6304 10.6882 19.4348 10.7692 19.2308 10.7692ZM3.46923 17.3C3.26633 17.2971 3.07279 17.2142 2.93077 17.0692C2.7875 16.9251 2.70708 16.7301 2.70708 16.5269C2.70708 16.3237 2.7875 16.1287 2.93077 15.9846L4.01538 14.8923C4.16023 14.7475 4.35669 14.6661 4.56154 14.6661C4.76639 14.6661 4.96284 14.7475 5.10769 14.8923C5.25254 15.0372 5.33392 15.2336 5.33392 15.4385C5.33392 15.6433 5.25254 15.8398 5.10769 15.9846L4.01538 17.0692C3.94414 17.1419 3.85919 17.1997 3.76543 17.2394C3.67168 17.279 3.57101 17.2996 3.46923 17.3V17.3ZM15.4385 5.33077C15.3372 5.33135 15.2369 5.31195 15.1431 5.27367C15.0494 5.23539 14.9642 5.17899 14.8923 5.10769C14.8202 5.03618 14.763 4.9511 14.7239 4.85737C14.6849 4.76363 14.6648 4.66309 14.6648 4.56154C14.6648 4.45999 14.6849 4.35945 14.7239 4.26571C14.763 4.17197 14.8202 4.08689 14.8923 4.01538L15.9846 2.93077C16.1318 2.80475 16.3211 2.7389 16.5147 2.74638C16.7083 2.75385 16.8919 2.83411 17.0289 2.97111C17.1659 3.1081 17.2461 3.29175 17.2536 3.48534C17.2611 3.67894 17.1953 3.86823 17.0692 4.01538L15.9846 5.10769C15.9127 5.17899 15.8275 5.23539 15.7338 5.27367C15.6401 5.31195 15.5397 5.33135 15.4385 5.33077ZM16.5308 17.3C16.429 17.2996 16.3283 17.279 16.2346 17.2394C16.1408 17.1997 16.0559 17.1419 15.9846 17.0692L14.8923 15.9846C14.8206 15.9129 14.7637 15.8277 14.7249 15.734C14.6861 15.6403 14.6661 15.5399 14.6661 15.4385C14.6661 15.337 14.6861 15.2366 14.7249 15.1429C14.7637 15.0492 14.8206 14.964 14.8923 14.8923C14.964 14.8206 15.0492 14.7637 15.1429 14.7249C15.2366 14.6861 15.337 14.6661 15.4385 14.6661C15.5399 14.6661 15.6403 14.6861 15.734 14.7249C15.8277 14.7637 15.9129 14.8206 15.9846 14.8923L17.0692 15.9846C17.2125 16.1287 17.2929 16.3237 17.2929 16.5269C17.2929 16.7301 17.2125 16.9251 17.0692 17.0692C16.9272 17.2142 16.7337 17.2971 16.5308 17.3V17.3ZM4.56154 5.33077C4.4603 5.33135 4.35995 5.31195 4.26623 5.27367C4.1725 5.23539 4.08726 5.17899 4.01538 5.10769L2.93077 4.01538C2.80475 3.86823 2.7389 3.67894 2.74638 3.48534C2.75385 3.29175 2.83411 3.1081 2.97111 2.97111C3.1081 2.83411 3.29175 2.75385 3.48534 2.74638C3.67894 2.7389 3.86823 2.80475 4.01538 2.93077L5.10769 4.01538C5.17979 4.08689 5.23702 4.17197 5.27607 4.26571C5.31512 4.35945 5.33523 4.45999 5.33523 4.56154C5.33523 4.66309 5.31512 4.76363 5.27607 4.85737C5.23702 4.9511 5.17979 5.03618 5.10769 5.10769C5.03582 5.17899 4.95057 5.23539 4.85685 5.27367C4.76313 5.31195 4.66277 5.33135 4.56154 5.33077Z" fill="#464646"/>
</svg>
