<svg width="19" height="20" viewBox="0 0 19 20" fill="none" xmlns="http://www.w3.org/2000/svg">
<path fill-rule="evenodd" clip-rule="evenodd" d="M9.13122 0.505371C14.1661 0.505371 18.2615 4.51045 18.2615 9.43427C18.2615 11.7573 17.3499 13.8761 15.8581 15.4662L18.7935 18.3308C19.0682 18.5995 19.0691 19.0341 18.7944 19.3027C18.6575 19.4384 18.4766 19.5054 18.2966 19.5054C18.1175 19.5054 17.9375 19.4384 17.7996 19.3046L14.8288 16.4074C13.2661 17.6313 11.2846 18.3641 9.13122 18.3641C4.09635 18.3641 0 14.3581 0 9.43427C0 4.51045 4.09635 0.505371 9.13122 0.505371ZM9.13122 1.88074C4.87173 1.88074 1.40639 5.26873 1.40639 9.43427C1.40639 13.5998 4.87173 16.9887 9.13122 16.9887C13.3898 16.9887 16.8551 13.5998 16.8551 9.43427C16.8551 5.26873 13.3898 1.88074 9.13122 1.88074Z" fill="#130F40"/>
</svg>
