<svg width="66" height="65" viewBox="0 0 66 65" fill="none" xmlns="http://www.w3.org/2000/svg">
<circle cx="33" cy="32.5" r="32.5" fill="#8DEE12"/>
<path fill-rule="evenodd" clip-rule="evenodd" d="M46.4048 24.126C46.6793 22.3351 45.7039 21.1712 43.9522 21.1704C41.7633 21.1694 39.5723 21.2301 37.3862 21.1511C35.6531 21.0885 34.5272 22.3584 34.8114 24.126C38.6739 24.126 42.5414 24.126 46.4048 24.126Z" fill="white"/>
<path fill-rule="evenodd" clip-rule="evenodd" d="M46.4346 25.6367C42.5504 25.6367 38.687 25.6367 34.7979 25.6367C34.7979 26.1096 34.7979 26.5581 34.7979 27.0463C38.6613 27.0463 42.5223 27.0463 46.4346 27.0463C46.4346 26.5676 46.4346 26.1174 46.4346 25.6367Z" fill="white"/>
<path fill-rule="evenodd" clip-rule="evenodd" d="M42.0514 28.5662C41.0829 28.5662 40.1381 28.5662 39.1719 28.5662C39.1719 29.0422 39.1719 29.4908 39.1719 29.9772C40.1251 29.9772 41.0684 29.9772 42.0514 29.9772C42.0514 29.4883 42.0514 29.0405 42.0514 28.5662Z" fill="white"/>
<path fill-rule="evenodd" clip-rule="evenodd" d="M46.4554 29.0755V28.5681H43.5329C43.5329 29.2461 43.5365 29.8946 43.5324 30.5432C43.5277 31.2068 43.282 31.4633 42.6251 31.4664C41.295 31.4736 39.9654 31.4741 38.6352 31.4674C37.9392 31.4638 37.6992 31.2166 37.695 30.5273C37.6914 29.8941 37.6945 29.2605 37.6945 28.583H34.7777V31.4453H31.8541V30.8096C31.8541 28.4347 31.8546 26.0593 31.8531 23.6838C31.8526 22.9245 31.6238 22.6906 30.8727 22.6839C30.2442 22.6787 29.6162 22.6829 28.9336 22.6829C28.9336 21.9781 28.9352 21.3316 28.9331 20.6845C28.9305 19.9546 28.6931 19.7078 27.9826 19.7068C26.1497 19.7042 24.3167 19.7042 22.4838 19.7068C21.7729 19.7078 21.5349 19.954 21.5338 20.6845C21.5323 22.4907 21.5318 24.2964 21.5338 26.102C21.5349 26.8299 21.7693 27.0762 22.4889 27.0782C24.3219 27.0839 26.1548 27.0839 27.9873 27.0782C28.7065 27.0757 28.9306 26.8346 28.9331 26.0958C28.9352 25.4653 28.9336 24.8342 28.9336 24.1784H30.3591V31.4329H28.9336C28.9336 30.7581 28.9367 30.111 28.9326 29.464C28.928 28.8056 28.6812 28.5465 28.0203 28.5439C26.1548 28.5367 24.2894 28.5362 22.4245 28.5444C21.7914 28.5475 21.5364 28.8102 21.5349 29.4361C21.5302 31.2743 21.5307 33.1129 21.5349 34.951C21.5359 35.5908 21.7816 35.8602 22.4045 35.8633C24.2858 35.8731 26.1672 35.8726 28.0486 35.8638C28.6828 35.8613 28.9264 35.6016 28.9321 34.968C28.9378 34.3194 28.9331 33.6708 28.9331 32.9805H30.3627V38.7616H28.9331C28.9331 38.5582 28.9393 38.3536 28.9321 38.1491C28.9135 37.6314 28.6694 37.3419 28.1619 37.3382C26.2156 37.3233 24.2688 37.3233 22.3225 37.3367C21.7878 37.3403 21.5379 37.6257 21.5359 38.179C21.5297 40.066 21.5297 41.9531 21.5359 43.8406C21.5374 44.4336 21.8074 44.6994 22.4055 44.701C24.2874 44.7061 26.1688 44.7061 28.0501 44.701C28.6725 44.6994 28.929 44.4357 28.9321 43.8036C28.9372 42.6511 28.9331 41.4982 28.9331 40.2608C29.6461 40.2608 30.2932 40.268 30.9397 40.2587C31.6006 40.2494 31.8526 39.9986 31.8541 39.3391C31.8582 37.4032 31.8546 35.4672 31.8536 33.5312V32.9717H34.772V33.5394C34.772 35.4594 34.7689 37.3789 34.773 39.299C34.7761 40.8105 35.6406 41.7094 37.1464 41.7207C39.4332 41.7388 41.72 41.7403 44.0073 41.7228C45.6131 41.711 46.4538 40.8357 46.4549 39.2274C46.4564 35.8432 46.4554 32.4591 46.4554 29.0755ZM25.7906 24.5029C25.7906 24.6451 25.6752 24.7605 25.533 24.7605H25.0178C24.8757 24.7605 24.7603 24.6451 24.7603 24.5029V23.9877C24.7603 23.8456 24.8757 23.7302 25.0178 23.7302H25.533C25.6752 23.7302 25.7906 23.8456 25.7906 23.9877V24.5029ZM25.7906 22.5205C25.7906 22.6632 25.6752 22.7781 25.533 22.7781H25.0178C24.8757 22.7781 24.7603 22.6632 24.7603 22.5205V22.0054C24.7603 21.8632 24.8757 21.7478 25.0178 21.7478H25.533C25.6752 21.7478 25.7906 21.8632 25.7906 22.0054V22.5205ZM25.7906 33.4534C25.7906 33.5956 25.6752 33.711 25.533 33.711H25.0178C24.8757 33.711 24.7603 33.5956 24.7603 33.4534V32.9382C24.7603 32.7961 24.8757 32.6807 25.0178 32.6807H25.533C25.6752 32.6807 25.7906 32.7961 25.7906 32.9382V33.4534ZM25.7906 31.471C25.7906 31.6132 25.6752 31.7286 25.533 31.7286H25.0178C24.8757 31.7286 24.7603 31.6132 24.7603 31.471V30.9559C24.7603 30.8137 24.8757 30.6983 25.0178 30.6983H25.533C25.6752 30.6983 25.7906 30.8137 25.7906 30.9559V31.471ZM25.7906 42.4039C25.7906 42.546 25.6752 42.6614 25.533 42.6614H25.0178C24.8757 42.6614 24.7603 42.546 24.7603 42.4039V41.8887C24.7603 41.7465 24.8757 41.6311 25.0178 41.6311H25.533C25.6752 41.6311 25.7906 41.7465 25.7906 41.8887V42.4039ZM25.7906 40.4215C25.7906 40.5637 25.6752 40.6791 25.533 40.6791H25.0178C24.8757 40.6791 24.7603 40.5637 24.7603 40.4215V39.9063C24.7603 39.7641 24.8757 39.6487 25.0178 39.6487H25.533C25.6752 39.6487 25.7906 39.7641 25.7906 39.9063V40.4215ZM40.635 38.7756C39.8267 38.7849 39.1724 38.1517 39.1606 37.3486C39.1487 36.5475 39.7906 35.8901 40.5948 35.8804C41.3979 35.8706 42.0578 36.5099 42.0697 37.3099C42.0815 38.1105 41.4396 38.7663 40.635 38.7756Z" fill="white"/>
<path fill-rule="evenodd" clip-rule="evenodd" d="M34.8114 24.126C38.6739 24.126 42.5414 24.126 46.4048 24.126C46.6794 22.3351 45.704 21.1712 43.9522 21.1704C41.7634 21.1694 39.5723 21.2301 37.3863 21.1511C35.6531 21.0885 34.5272 22.3584 34.8114 24.126Z" fill="white"/>
<path fill-rule="evenodd" clip-rule="evenodd" d="M46.4346 27.0463C46.4346 26.5676 46.4346 26.1174 46.4346 25.6367C42.5504 25.6367 38.687 25.6367 34.7979 25.6367C34.7979 26.1096 34.7979 26.5581 34.7979 27.0463C38.6613 27.0463 42.5223 27.0463 46.4346 27.0463Z" fill="white"/>
<path fill-rule="evenodd" clip-rule="evenodd" d="M42.0514 29.9772C42.0514 29.4883 42.0514 29.0405 42.0514 28.5662C41.0829 28.5662 40.1381 28.5662 39.1719 28.5662C39.1719 29.0422 39.1719 29.4908 39.1719 29.9772C40.1251 29.9772 41.0684 29.9772 42.0514 29.9772Z" fill="white"/>
</svg>
