<svg width="20" height="20" viewBox="0 0 20 20" fill="none" xmlns="http://www.w3.org/2000/svg">
<path d="M0 4C0 1.79086 1.79086 0 4 0H16C18.2091 0 20 1.79086 20 4V16C20 18.2091 18.2091 20 16 20H4C1.79086 20 0 18.2091 0 16V4Z" fill="#17DC69" fill-opacity="0.1"/>
<path d="M10.1813 10.1679L14.5863 10.1106C14.8729 10.1069 15.1016 9.87229 15.0978 9.58569C15.0941 9.29915 14.8594 9.07052 14.5729 9.07424L10.1678 9.13147L10.1107 4.7264C10.1069 4.4398 9.87232 4.21123 9.58579 4.21495C9.29918 4.21861 9.07054 4.45326 9.07433 4.73987L9.1314 9.14494L4.72633 9.20224C4.43973 9.2059 4.21109 9.44055 4.21487 9.72715C4.21666 9.87002 4.27632 9.99905 4.37135 10.0916C4.46638 10.1842 4.59684 10.2405 4.73978 10.2386L9.14485 10.1813L9.20199 14.5864C9.20384 14.7294 9.26344 14.8583 9.35847 14.9509C9.4535 15.0435 9.58396 15.0997 9.72689 15.0979C10.0135 15.0942 10.2421 14.8596 10.2384 14.573L10.1813 10.1679Z" fill="#17DC69" stroke="#17DC69" stroke-width="0.5"/>
</svg>
