<svg width="20" height="20" viewBox="0 0 20 20" fill="none" xmlns="http://www.w3.org/2000/svg">
<circle cx="10" cy="10" r="10" fill="#17DC69"/>
<path fill-rule="evenodd" clip-rule="evenodd" d="M5.6837 11.5527L7.95532 14.2204C8.09736 14.3906 8.28548 14.5185 8.49618 14.5872C8.80753 14.685 9.23834 14.6784 9.60801 14.1507L14.6818 6.24005C14.7194 6.18174 14.7485 6.11777 14.7674 6.05193C14.8426 5.79326 14.8266 5.22606 14.2632 5.45275C14.107 5.51671 13.9688 5.61924 13.8625 5.74999L9.08031 11.5048C8.89689 11.7258 8.56955 11.7559 8.34851 11.5725C8.32781 11.5555 8.30806 11.5367 8.29019 11.516L7.22257 10.3026C7.00623 10.0505 6.69676 9.89722 6.36472 9.87653C6.00634 9.86148 5.59246 9.96683 5.44102 10.4898C5.33943 10.8632 5.42973 11.2611 5.6837 11.5527Z" fill="white"/>
</svg>
