<svg width="6" height="6" viewBox="0 0 6 6" fill="none" xmlns="http://www.w3.org/2000/svg">
<path opacity="0.15" d="M3.5655 0.215376C3.5945 0.248336 3.7185 0.372788 3.8205 0.488716C4.462 1.16837 5.512 2.94139 5.8325 3.86938C5.884 4.01031 5.993 4.36662 6 4.55699C6 4.73941 5.964 4.9133 5.891 5.07923C5.789 5.28609 5.6285 5.45202 5.439 5.54295C5.3075 5.60148 4.914 5.6924 4.907 5.6924C4.4765 5.78333 3.777 5.83333 3.004 5.83333C2.2675 5.83333 1.5965 5.78333 1.1595 5.70888C1.1525 5.70036 0.6635 5.60943 0.496 5.50999C0.19 5.32757 0 4.97126 0 4.58995L0 4.55699C0.0075 4.30865 0.1975 3.78641 0.2045 3.78641C0.5255 2.90843 1.524 1.17633 2.1875 0.480192C2.1875 0.480192 2.358 0.284137 2.4645 0.198896C2.6175 0.0659198 2.807 0 2.9965 0C3.208 0 3.405 0.0744439 3.5655 0.215376Z" fill="#130F40"/>
</svg>
