<svg width="65" height="65" viewBox="0 0 65 65" fill="none" xmlns="http://www.w3.org/2000/svg">
<circle cx="32.5" cy="32.5" r="32.5" fill="#16D8AC"/>
<mask id="mask0_1_9862" style="mask-type:alpha" maskUnits="userSpaceOnUse" x="20" y="20" width="26" height="25">
<rect x="20.5" y="20" width="25" height="25" fill="white"/>
</mask>
<g mask="url(#mask0_1_9862)">
<path fill-rule="evenodd" clip-rule="evenodd" d="M24.9433 34.6973V32.5001C24.9433 28.0577 28.5575 24.4435 32.9998 24.4435C37.4422 24.4435 41.0564 28.0577 41.0564 32.5001V34.6973C43.4796 34.6973 45.4997 32.7261 45.4997 30.3028C45.4997 28.4181 44.2392 26.7566 42.4983 26.1515C42.2508 23.553 40.0564 21.4651 37.3943 21.4651C36.516 21.4651 35.6648 21.6932 34.8981 22.131C33.6492 20.7691 31.9248 20.0002 30.0702 20.0002C26.622 20.0002 23.7832 22.7105 23.5078 26.1494C21.7626 26.7531 20.5 28.416 20.5 30.3028C20.5 32.7261 22.52 34.6973 24.9433 34.6973H24.9433Z" fill="white"/>
<path fill-rule="evenodd" clip-rule="evenodd" d="M45.3533 44.7066C45.5964 44.3833 45.5307 43.9242 45.2066 43.6817L39.5918 39.5068V37.1665C39.1749 37.7597 38.6846 38.2976 38.127 38.7587V39.873C38.127 40.1033 38.2357 40.3207 38.4202 40.4587L44.3283 44.8532C44.6527 45.0966 45.1117 45.03 45.3533 44.7066L45.3533 44.7066Z" fill="white"/>
<path fill-rule="evenodd" clip-rule="evenodd" d="M38.3415 44.7853C38.6275 45.0714 39.0911 45.0714 39.3771 44.7853C39.6632 44.4992 39.6632 44.0357 39.3771 43.7497L36.6621 41.0346V39.7161C36.1977 39.9542 35.7081 40.148 35.1973 40.2932V41.3379C35.1973 41.5324 35.2745 41.7184 35.4119 41.8557L38.3415 44.7853Z" fill="white"/>
<path fill-rule="evenodd" clip-rule="evenodd" d="M32.2676 40.5681V44.2673C32.2676 44.6721 32.5952 44.9997 33 44.9997C33.4048 44.9997 33.7324 44.6721 33.7324 44.2673V40.5681C33.4908 40.59 33.2472 40.6052 33 40.6052C32.7528 40.6052 32.5091 40.59 32.2676 40.5681V40.5681Z" fill="white"/>
<path fill-rule="evenodd" clip-rule="evenodd" d="M27.6584 44.7853L30.588 41.8557C30.7254 41.7183 30.8026 41.5324 30.8026 41.3379V40.2932C30.2918 40.1479 29.8022 39.9542 29.3378 39.7161V41.0346L26.6228 43.7497C26.3367 44.0357 26.3367 44.4992 26.6228 44.7853C26.9088 45.0714 27.3723 45.0714 27.6584 44.7853H27.6584Z" fill="white"/>
<path fill-rule="evenodd" clip-rule="evenodd" d="M27.8732 39.873V38.7587C27.3156 38.2975 26.8252 37.7597 26.4083 37.1665V39.5068L20.7934 43.6817C20.4694 43.9241 20.4036 44.3833 20.6468 44.7066C20.8885 45.0302 21.3476 45.0964 21.6717 44.8532L27.5799 40.4587C27.7644 40.3207 27.8732 40.1033 27.8732 39.873V39.873Z" fill="white"/>
<path fill-rule="evenodd" clip-rule="evenodd" d="M26.4824 31.7675H30.0986C30.2374 28.7485 31.2207 25.9082 33.0001 25.9082C29.616 25.9082 26.8522 28.4807 26.4824 31.7675H26.4824Z" fill="white"/>
<path fill-rule="evenodd" clip-rule="evenodd" d="M39.5177 31.7675C39.1479 28.4807 36.3841 25.9082 33 25.9082C34.7794 25.9082 35.7627 28.7485 35.9015 31.7675H39.5177Z" fill="white"/>
<path fill-rule="evenodd" clip-rule="evenodd" d="M33 27.373C32.6082 27.373 31.7036 28.9181 31.5635 31.7675H34.4364C34.2963 28.9181 33.3917 27.373 33 27.373Z" fill="white"/>
<path fill-rule="evenodd" clip-rule="evenodd" d="M39.5177 33.2324H35.9015C35.7627 36.2514 34.7794 39.1405 33 39.1405C36.3841 39.1405 39.1479 36.5192 39.5177 33.2324Z" fill="white"/>
<path fill-rule="evenodd" clip-rule="evenodd" d="M32.9999 37.6757C33.3917 37.6757 34.2963 36.0818 34.4364 33.2324H31.5635C31.7035 36.0818 32.6081 37.6757 32.9999 37.6757Z" fill="white"/>
<path fill-rule="evenodd" clip-rule="evenodd" d="M30.0986 33.2324H26.4824C26.8522 36.5192 29.616 39.1405 33.0001 39.1405C31.2206 39.1405 30.2374 36.2514 30.0986 33.2324Z" fill="white"/>
</g>
</svg>
