<svg width="38" height="38" viewBox="0 0 38 38" fill="none" xmlns="http://www.w3.org/2000/svg">
<rect opacity="0.1" width="38" height="38" rx="10" fill="#00A3FF"/>
<path fill-rule="evenodd" clip-rule="evenodd" d="M14.8198 14.8946C14.8198 12.7517 16.5715 11 18.7144 11C20.8573 11 22.609 12.7517 22.609 14.8946C22.609 17.0374 20.8573 18.7891 18.7144 18.7891C16.5715 18.7891 14.8198 17.0374 14.8198 14.8946ZM25.007 21.187C25.1601 21.4081 25.2961 21.6462 25.3982 21.9013C25.4492 22.0033 25.4322 22.1224 25.3472 22.2244C25.2111 22.4625 25.058 22.6836 24.888 22.9047C24.6499 23.2278 24.3778 23.5169 24.1057 23.789C23.8675 24.0271 23.5954 24.2652 23.3233 24.4693C21.9798 25.4727 20.3642 25.9999 18.6975 25.9999C17.0308 25.9999 15.4152 25.4727 14.0716 24.4693C13.7995 24.2482 13.5274 24.0271 13.2893 23.789C13.0002 23.5169 12.7451 23.2278 12.507 22.9047C12.3539 22.7006 12.1839 22.4625 12.0478 22.2244C11.9968 22.1224 11.9798 22.0033 12.0308 21.9013C12.1328 21.6632 12.2689 21.4081 12.422 21.187C13.1873 20.0305 14.4117 19.2652 15.7723 19.0781C15.9423 19.0441 16.1294 19.0951 16.2655 19.1972C16.9798 19.7244 17.8301 19.9965 18.7145 19.9965C19.5989 19.9965 20.4492 19.7244 21.1635 19.1972C21.2995 19.0951 21.4866 19.0611 21.6567 19.0781C23.0172 19.2652 24.2247 20.0305 25.007 21.187Z" fill="#00A3FF"/>
</svg>
