<svg width="21" height="21" viewBox="0 0 21 21" fill="none" xmlns="http://www.w3.org/2000/svg">
<path d="M0 5.6C0 3.63982 0 2.65972 0.381477 1.91103C0.717034 1.25247 1.25247 0.717034 1.91103 0.381477C2.65972 0 3.63982 0 5.6 0H15.4C17.3602 0 18.3403 0 19.089 0.381477C19.7475 0.717034 20.283 1.25247 20.6185 1.91103C21 2.65972 21 3.63982 21 5.6V15.4C21 17.3602 21 18.3403 20.6185 19.089C20.283 19.7475 19.7475 20.283 19.089 20.6185C18.3403 21 17.3602 21 15.4 21H5.6C3.63982 21 2.65972 21 1.91103 20.6185C1.25247 20.283 0.717034 19.7475 0.381477 19.089C0 18.3403 0 17.3602 0 15.4V5.6Z" fill="#130F40" fill-opacity="0.1"/>
<path opacity="0.3" fill-rule="evenodd" clip-rule="evenodd" d="M17 13.4111C17 15.2246 15.544 16.6936 13.7305 16.7001H13.724H7.2825C5.4755 16.7001 4 15.2376 4 13.4241V13.4176C4 13.4176 4.0039 10.5407 4.0091 9.0938C4.00975 8.8221 4.32175 8.67 4.5343 8.839C6.0787 10.0642 8.84055 12.2983 8.875 12.3275C9.3365 12.6974 9.9215 12.906 10.5195 12.906C11.1175 12.906 11.7025 12.6974 12.164 12.3204C12.1985 12.2976 14.8986 10.1305 16.4664 8.88515C16.6796 8.7155 16.9929 8.8676 16.9935 9.13865C17 10.5745 17 13.4111 17 13.4111Z" fill="#130F40"/>
<path fill-rule="evenodd" clip-rule="evenodd" d="M16.6595 6.7381C16.0966 5.6773 14.989 5 13.7696 5H7.28267C6.06327 5 4.95567 5.6773 4.39277 6.7381C4.26667 6.97535 4.32647 7.2711 4.53642 7.4388L9.36265 11.2991C9.70065 11.5721 10.1101 11.708 10.5196 11.708C10.5222 11.708 10.5242 11.708 10.5261 11.708C10.5281 11.708 10.5307 11.708 10.5326 11.708C10.9421 11.708 11.3516 11.5721 11.6896 11.2991L16.5159 7.4388C16.7258 7.2711 16.7856 6.97535 16.6595 6.7381Z" fill="#130F40"/>
</svg>
