<svg width="12" height="8" viewBox="0 0 12 8" fill="none" xmlns="http://www.w3.org/2000/svg">
<path opacity="0.5" d="M11.3461 2.23208C11.3684 2.20806 11.3795 2.19604 11.3888 2.18542C11.7191 1.8083 11.7191 1.24492 11.3888 0.867803C11.3795 0.857181 11.3684 0.845169 11.3461 0.821146C11.3206 0.793615 11.3078 0.779849 11.2969 0.768777C10.9053 0.371801 10.2647 0.371806 9.87308 0.768789C9.86215 0.779861 9.84939 0.793627 9.82388 0.821159L7.46683 3.36417C6.78002 4.10517 6.43661 4.47567 6 4.47567C5.56339 4.47567 5.21998 4.10517 4.53317 3.36417L2.17612 0.821158C2.15061 0.793626 2.13785 0.779861 2.12692 0.768789C1.73533 0.371806 1.0947 0.371801 0.703093 0.768777C0.692172 0.779849 0.679413 0.793614 0.653893 0.821146C0.631626 0.845169 0.620493 0.857181 0.611191 0.867803C0.280933 1.24492 0.280929 1.8083 0.61118 2.18542C0.620481 2.19604 0.631616 2.20806 0.653882 2.23208L4.53317 6.41744C5.21998 7.15844 5.56339 7.52894 6 7.52894C6.43661 7.52894 6.78002 7.15844 7.46683 6.41744L11.3461 2.23208Z" fill="#130F40"/>
</svg>
