<svg width="10" height="10" viewBox="0 0 10 10" fill="none" xmlns="http://www.w3.org/2000/svg">
<path d="M9.43877 8.86292C9.74827 8.86292 10 9.11793 10 9.43146C10 9.74559 9.74827 10 9.43877 10H6.26649C5.95699 10 5.70526 9.74559 5.70526 9.43146C5.70526 9.11793 5.95699 8.86292 6.26649 8.86292H9.43877ZM7.23881 0.388369L8.05826 1.03932C8.39429 1.3021 8.61831 1.64848 8.69495 2.01277C8.78338 2.4135 8.68906 2.80706 8.42377 3.14747L3.54244 9.45995C3.31842 9.74661 2.98828 9.90785 2.63456 9.91382L0.689108 9.93771C0.582993 9.93771 0.494563 9.86605 0.470981 9.76452L0.0288325 7.84749C-0.0478067 7.49513 0.0288325 7.13084 0.252855 6.85015L3.71341 2.3711C3.77236 2.29943 3.87848 2.28808 3.94922 2.34124L5.40536 3.49982C5.49969 3.57746 5.62939 3.61926 5.76498 3.60134C6.05385 3.56551 6.2484 3.30274 6.21892 3.02205C6.20123 2.87872 6.13049 2.75928 6.03616 2.6697C6.00669 2.64581 4.62129 1.53501 4.62129 1.53501C4.53286 1.46334 4.51517 1.33196 4.58592 1.24297L5.13418 0.531698C5.64118 -0.119257 6.52548 -0.178978 7.23881 0.388369Z" fill="#17DC69"/>
</svg>
