<svg width="11" height="13" viewBox="0 0 11 13" fill="none" xmlns="http://www.w3.org/2000/svg">
<path d="M0.486624 3.76413C0.780602 3.77078 1.07458 3.77049 1.36856 3.76413C1.65763 3.75807 1.85544 3.56257 1.85429 3.29775C1.85313 3.03323 1.65301 2.84235 1.36423 2.83484C1.21926 2.83109 1.074 2.83426 0.929035 2.83426C0.784067 2.83426 0.638811 2.83138 0.493844 2.83484C0.207374 2.84206 0.00320691 3.03439 3.03342e-05 3.29631C-0.00285746 3.55592 0.200732 3.75778 0.486624 3.76413Z" fill="#130F40"/>
<path d="M0.93516 10.1649C0.93516 10.1652 0.93516 10.1655 0.93516 10.1658C1.07637 10.1658 1.21788 10.1672 1.35909 10.1655C1.51532 10.1638 1.65364 10.1173 1.7527 9.98904C1.86503 9.8435 1.89015 9.68236 1.81507 9.51342C1.73133 9.32456 1.57538 9.23735 1.37468 9.23446C1.07637 9.23013 0.777775 9.23042 0.479754 9.23562C0.407271 9.23677 0.330166 9.25468 0.263747 9.28384C0.0714196 9.36846 -0.0302309 9.58158 0.0110646 9.79065C0.0532265 10.0049 0.226494 10.1522 0.464449 10.1635C0.620968 10.171 0.778352 10.1649 0.93516 10.1649Z" fill="#130F40"/>
<path d="M0.444261 6.96167C0.604534 6.97264 0.766251 6.96369 0.927101 6.96369C0.927101 6.96456 0.927101 6.96571 0.927101 6.96658C1.07236 6.96658 1.2179 6.96831 1.36316 6.966C1.51015 6.96369 1.6427 6.92182 1.74059 6.80486C1.86188 6.65961 1.89307 6.49558 1.81885 6.32087C1.73626 6.12623 1.57714 6.03671 1.37096 6.03411C1.07669 6.03036 0.782134 6.02978 0.487578 6.03555C0.411051 6.037 0.329904 6.0549 0.260308 6.08609C0.0720239 6.16984 -0.0284715 6.37891 0.00935869 6.58366C0.048344 6.79678 0.211216 6.9455 0.444261 6.96167Z" fill="#130F40"/>
<path d="M9.32613 0H9.314H1.92586C1.8658 0.0164604 1.80631 0.0337873 1.74566 0.0490926C1.04046 0.224671 0.544051 0.841793 0.530767 1.56663C0.525569 1.83722 0.53019 2.1078 0.53019 2.39312C0.578705 2.39601 0.622888 2.40005 0.667071 2.40092C0.946321 2.40409 1.22586 2.39543 1.50424 2.41189C1.966 2.43903 2.3264 2.83466 2.32842 3.29787C2.33015 3.76338 1.96283 4.1642 1.49529 4.18904C1.22528 4.20348 0.95383 4.19539 0.683532 4.19741C0.637616 4.1977 0.5917 4.19741 0.537698 4.19741V5.60088C0.799621 5.60088 1.06097 5.59569 1.32174 5.60319C1.4514 5.60637 1.58539 5.61561 1.7087 5.65258C2.10029 5.76924 2.36943 6.18133 2.32178 6.56801C2.2646 7.03352 1.94146 7.3636 1.49962 7.38785C1.22557 7.40287 0.950076 7.39536 0.675446 7.39738C0.629819 7.39767 0.58448 7.39738 0.533944 7.39738V8.80085C0.580437 8.80085 0.624909 8.80056 0.669093 8.80085C0.948343 8.80316 1.22817 8.79537 1.50655 8.81009C1.96167 8.83435 2.32871 9.23922 2.32784 9.69954C2.32669 10.1561 1.96543 10.5595 1.51753 10.5861C1.24319 10.602 0.967691 10.5945 0.693062 10.5974C0.643103 10.5982 0.593144 10.5976 0.526147 10.5976C0.536832 10.8142 0.524414 11.0285 0.524414 11.2405V11.596C0.524414 12.3713 1.15309 13 1.92846 13H9.32556C10.1012 13 10.7299 12.3713 10.7299 11.596V1.40434C10.7305 0.628674 10.1018 0 9.32613 0ZM5.92633 3.19997C6.77679 3.19881 7.46639 3.88842 7.46812 4.7409C7.46957 5.59251 6.78112 6.28298 5.92951 6.28471C5.08049 6.28645 4.38742 5.59424 4.38742 4.7435C4.38771 3.8916 5.07616 3.20083 5.92633 3.19997ZM3.5309 9.18984C3.5257 8.63971 3.46795 8.09017 3.79282 7.60097C4.12434 7.10196 4.58639 6.82358 5.18648 6.80596C5.68058 6.79152 6.17583 6.79528 6.67023 6.80481C7.5692 6.82242 8.30328 7.56228 8.32378 8.46385C8.32898 8.70325 8.32465 8.94351 8.32465 9.18984H3.5309Z" fill="url(#paint0_linear_5959_3060)"/>
<defs>
<linearGradient id="paint0_linear_5959_3060" x1="0.524434" y1="6.045e-06" x2="0.52445" y2="13" gradientUnits="userSpaceOnUse">
<stop stop-color="#656096"/>
<stop offset="1" stop-color="#130F40"/>
</linearGradient>
</defs>
</svg>
