<svg width="16" height="20" viewBox="0 0 16 20" fill="none" xmlns="http://www.w3.org/2000/svg">
<path d="M15.1697 10.0055C15.1697 12.449 15.1716 14.8926 15.169 17.3362C15.1676 18.5741 14.4426 19.5803 13.3274 19.9032C13.086 19.9731 12.8391 20.0001 12.5883 20C9.25318 19.9993 5.91805 20.0002 2.58286 19.9992C1.10785 19.9987 0.00554979 18.8739 0.00261112 17.3569C-0.00189821 15.0348 0.00139505 12.7127 0.00134438 10.3907C0.00134438 9.07436 0.00504299 7.75806 2.69958e-05 6.44176C-0.00321567 5.58514 0.285584 4.87988 0.91147 4.29337C2.13401 3.14775 3.35021 1.99348 4.53054 0.802486C5.09309 0.234881 5.72617 -0.00345185 6.49144 3.77341e-05C8.52008 0.00925648 10.5488 0.00300648 12.5774 0.00321482C14.0656 0.00337107 15.1655 1.12275 15.1684 2.65446C15.1732 5.10478 15.1697 7.55514 15.1697 10.0055ZM5.66091 14.7263C6.06235 14.288 6.77052 14.3507 7.09018 14.8518C7.42289 15.3733 7.75179 15.8887 8.08131 16.4036C8.42741 16.9445 9.0879 16.9989 9.5054 16.5188C9.93419 16.0259 10.3587 15.5289 10.7847 15.0334C11.3671 14.3558 11.9525 13.6808 12.5303 12.999C12.9435 12.5114 12.7589 11.8377 12.1779 11.713C11.8369 11.6398 11.5471 11.7475 11.3138 12.0227C10.6929 12.7553 10.0676 13.4841 9.44363 14.214C9.24183 14.45 8.86844 14.4215 8.70141 14.1597C8.26427 13.4746 7.83476 12.8005 7.40232 12.1283C7.07786 11.6239 6.43079 11.5506 6.02814 11.9817C4.9232 13.1645 3.82485 14.3539 2.72463 15.5414C2.59375 15.6826 2.51674 15.8515 2.50519 16.0477C2.48518 16.3865 2.68242 16.7093 2.99463 16.8538C3.3079 16.9989 3.63333 16.9347 3.89123 16.6564C4.48438 16.0162 5.0712 15.3698 5.66091 14.7263ZM1.63225 6.117C1.6234 6.17475 1.66668 6.22944 1.72502 6.23254C2.70162 6.2841 3.67827 6.33431 4.65487 6.38665C5.67809 6.4415 6.36989 5.76972 6.37166 4.7142C6.37323 3.76254 6.37247 2.81087 6.371 1.8592C6.3708 1.72989 6.26625 1.65724 6.13886 1.67945C5.93624 1.71477 5.75495 1.80541 5.59707 1.96499C5.32565 2.23936 5.04749 2.50676 4.77242 2.77733C3.84279 3.6917 2.9128 4.60566 1.98393 5.52082C1.81443 5.6878 1.67008 5.87003 1.63225 6.117ZM10.5131 6.31144C10.5128 6.31144 10.5126 6.31163 10.5126 6.31186C10.5126 6.31209 10.5125 6.31228 10.5122 6.31228C9.93518 6.31227 9.35812 6.30754 8.78112 6.31374C8.30424 6.31884 7.9933 6.64347 7.98656 7.12707C7.97992 7.60118 8.27597 7.95858 8.7379 7.96426C9.9314 7.979 11.1253 7.97608 12.3189 7.96493C12.6532 7.96181 12.9065 7.78733 13.0218 7.44775C13.2172 6.87191 12.8398 6.31858 12.2442 6.31275C11.6672 6.30702 11.0901 6.31144 10.5131 6.31144ZM10.5204 2.99327C9.93662 2.99327 9.35279 2.98884 8.76911 2.99467C8.30789 2.99931 7.99796 3.32499 7.98666 3.80118C7.97526 4.28228 8.28382 4.64332 8.7498 4.64733C9.93687 4.65759 11.1241 4.65561 12.3113 4.64759C12.6125 4.64556 12.8543 4.50415 12.9891 4.21129C13.2554 3.63269 12.8735 2.99931 12.2519 2.9942C11.6748 2.98946 11.0975 2.99321 10.5204 2.99327Z" fill="white"/>
</svg>
