<svg width="50" height="50" viewBox="0 0 50 50" fill="none" xmlns="http://www.w3.org/2000/svg">
<rect opacity="0.7" x="0.5" y="0.5" width="49" height="49" rx="11.5" fill="#03A9F4" fill-opacity="0.0980392" stroke="#03A9F4"/>
<mask id="mask0_1489_62" style="mask-type:alpha" maskUnits="userSpaceOnUse" x="12" y="12" width="27" height="27">
<rect x="12.0176" y="12.4453" width="26" height="26" fill="white"/>
</mask>
<g mask="url(#mask0_1489_62)">
<path fill-rule="evenodd" clip-rule="evenodd" d="M33.6233 18.4245C33.4648 18.3312 33.2698 18.3247 33.1054 18.4072C32.9414 18.4899 32.8304 18.6502 32.8108 18.8329C32.7913 19.0106 32.7609 19.1883 32.723 19.3746C31.6624 24.1879 29.5326 26.5289 26.21 26.5289H21.335C21.078 26.5294 20.8567 26.7104 20.8053 26.9622L19.1803 34.5792L18.89 36.5183C18.7231 37.4002 19.3026 38.2503 20.1843 38.4173C20.2816 38.4356 20.3803 38.4451 20.4792 38.4456H23.74C24.4874 38.4479 25.1391 37.9378 25.3163 37.2117L26.6336 31.9456H29.46C32.7956 31.9456 35.1009 29.286 35.9513 24.4566C36.5127 22.1569 35.584 19.7508 33.6233 18.4245Z" fill="#03A9F4"/>
<path fill-rule="evenodd" clip-rule="evenodd" d="M32.6005 14.3758C31.5301 13.1617 29.9941 12.4598 28.3755 12.4454H19.4055C18.0631 12.4381 16.9202 13.4203 16.7254 14.7485L13.9402 33.3287C13.8067 34.2162 14.418 35.0438 15.3055 35.1772C15.386 35.1894 15.4674 35.1954 15.5489 35.1953H19.7089C19.9659 35.1949 20.1872 35.0138 20.2386 34.762L21.7716 27.612H26.2132C30.0677 27.612 32.6147 24.9178 33.7847 19.5953C33.8317 19.3832 33.8678 19.1688 33.893 18.9529C34.1646 17.3109 33.6908 15.6332 32.6005 14.3758Z" fill="#283593"/>
</g>
</svg>
