<svg width="6" height="6" viewBox="0 0 6 6" fill="none" xmlns="http://www.w3.org/2000/svg">
<path opacity="0.15" d="M2.4345 5.61763C2.4055 5.58467 2.2815 5.46022 2.1795 5.34429C1.538 4.66464 0.488 2.89162 0.1675 1.96363C0.116 1.8227 0.00699997 1.46639 0 1.27602C0 1.0936 0.0360003 0.91971 0.109 0.753774C0.211 0.546922 0.3715 0.380986 0.561 0.290062C0.6925 0.23153 1.086 0.140606 1.093 0.140606C1.5235 0.0496826 2.223 -0.000326157 2.996 -0.000326157C3.7325 -0.000326157 4.4035 0.0496821 4.8405 0.124126C4.8475 0.13265 5.3365 0.223574 5.504 0.323022C5.81 0.505438 6 0.861746 6 1.24306V1.27602C5.9925 1.52435 5.8025 2.0466 5.7955 2.0466C5.4745 2.92458 4.476 4.65668 3.8125 5.35282C3.8125 5.35282 3.642 5.54887 3.5355 5.63411C3.3825 5.76709 3.193 5.83301 3.0035 5.83301C2.792 5.83301 2.595 5.75856 2.4345 5.61763Z" fill="#130F40"/>
</svg>
