<svg width="484" height="552" viewBox="0 0 484 552" fill="none" xmlns="http://www.w3.org/2000/svg">
<path d="M349.223 123.34C349.223 153.443 348.237 163.267 334.103 179.427C322.797 192.356 320.408 213.967 320.627 223.157" stroke="black" stroke-width="3" stroke-linecap="round"/>
<path d="M322.868 108.081C329.25 125.207 320.209 131.323 314.891 132.241" stroke="black" stroke-width="3" stroke-linecap="round"/>
<path d="M247.508 115.662C241.005 115.161 238.978 108.778 238.777 105.649" stroke="black" stroke-width="3" stroke-linecap="round"/>
<path d="M247.501 102.829C243.888 92.3168 237.767 93.4428 235.157 95.3202C216.13 108.085 235.459 125.251 247.501 132.238" stroke="black" stroke-width="3" stroke-linecap="round"/>
<path d="M290.089 86.4619C284.637 84.1591 278.493 85.5025 276.102 86.4619" stroke="black" stroke-width="3" stroke-linecap="round"/>
<path d="M349.214 89.6455C342.771 87.3427 335.51 88.6861 332.684 89.6455" stroke="black" stroke-width="3" stroke-linecap="round"/>
<path d="M359.557 82.4641C358.61 80.2274 346.935 70.0023 333.147 78.7111C333.147 72.2141 325.195 59.5393 293.386 60.8172C278.134 51.1248 246.809 44.329 243.528 94.6882C240.057 93.7294 232.104 94.0486 228.065 102.996C208.29 76.9004 186.537 22.8563 257.728 15.4431C306.114 -5.3264 394.9 -21.8324 359.557 82.4641Z" fill="black"/>
<path d="M285.644 121.117C298.109 121.117 308.214 111.012 308.214 98.5466C308.214 86.0815 298.109 75.9766 285.644 75.9766C273.179 75.9766 263.074 86.0815 263.074 98.5466C263.074 111.012 273.179 121.117 285.644 121.117Z" stroke="black" stroke-width="3"/>
<path d="M284.689 109.357C287.674 109.357 290.093 106.368 290.093 102.682C290.093 98.9946 287.674 96.0059 284.689 96.0059C281.705 96.0059 279.285 98.9946 279.285 102.682C279.285 106.368 281.705 109.357 284.689 109.357Z" fill="black"/>
<path d="M343.189 75.9766C330.529 75.9766 320.301 86.1013 320.301 98.5466C320.301 110.992 330.529 121.117 343.189 121.117C355.85 121.117 366.077 110.992 366.077 98.5466C366.077 86.1013 355.85 75.9766 343.189 75.9766Z" stroke="black" stroke-width="3"/>
<path d="M343.812 109.357C347.499 109.357 350.488 106.368 350.488 102.682C350.488 98.9946 347.499 96.0059 343.812 96.0059C340.126 96.0059 337.137 98.9946 337.137 102.682C337.137 106.368 340.126 109.357 343.812 109.357Z" fill="black"/>
<path d="M246.219 99.1809L262.749 95.3662" stroke="black" stroke-width="3" stroke-linecap="round"/>
<path d="M380.058 181.832C370.521 171.978 347.103 170.195 342.547 170.407" stroke="black" stroke-width="3" stroke-linecap="round"/>
<path d="M446.491 102.678C443.372 105.468 436.259 109.264 430.428 104.777C429.552 104.103 430.154 102.772 431.238 102.554C433.75 102.049 436.344 100.643 438.861 97.9102" stroke="black" stroke-width="3" stroke-linecap="round"/>
<path d="M438.867 97.9127C435.377 101.703 431.739 102.94 428.377 102.762C423.166 102.487 418.616 98.8123 416.297 95.9717" stroke="black" stroke-width="3" stroke-linecap="round"/>
<path d="M428.382 86.9727C424.359 94.9688 420.078 96.8959 416.302 95.9695C412.202 94.9637 408.696 90.5915 406.766 86.9727" stroke="black" stroke-width="3" stroke-linecap="round"/>
<path d="M438.163 118.255C438.081 117.121 437.974 115.964 437.84 114.786C437.735 113.874 436.633 113.251 435.715 113.284C431.768 113.427 423.838 110.847 418.549 104.773C418.11 104.269 416.989 104.657 416.86 105.312C416.152 108.892 412.927 110.826 408.987 107.765C400.802 101.407 394.843 99.2406 400.802 86.9727" stroke="black" stroke-width="3" stroke-linecap="round"/>
<path d="M475.645 126.201C472.086 110.617 466.862 96.019 459.539 89.3261C444.789 75.8477 423.299 64.0013 414.399 59.7626C407.405 56.4324 397.741 75.4027 399.776 84.5578C400.01 85.6132 400.363 86.4054 400.81 86.9712C402.145 88.6599 404.328 88.335 406.769 86.9712C410.61 84.8255 415.086 80.1074 417.895 76.6106" stroke="black" stroke-width="3" stroke-linecap="round"/>
<path d="M358.445 186.603C396.083 182.279 420.751 165.304 428.381 157.357C432.441 153.007 439.517 139.661 438.217 119.009C438.188 118.548 438.418 118.091 438.808 117.844C460.148 104.33 472.189 117.613 475.605 126.115C475.629 126.176 475.647 126.236 475.661 126.299C479.256 142.073 481.147 158.842 481.786 169.437C481.362 187.662 462.14 227.101 388.645 239.054" stroke="black" stroke-width="3" stroke-linecap="round"/>
<path d="M253.229 461.257C255.136 442.502 278.66 405.097 273.256 386.554C263.296 402.66 238.288 438.687 228.433 445.999C212.645 459.138 183.865 473.591 181.068 422.475C179.711 397.68 233.837 324.184 241.467 306.128C255.984 318.95 307.587 359.215 365.761 310.896C360.781 342.261 334.29 450.767 281.203 483.827C271.878 488.066 253.229 489.486 253.229 461.257Z" fill="black"/>
<path d="M324.751 196.453C319.877 201.54 317.272 205.963 304.724 213.619C286.661 224.641 261.423 206.963 249.173 195.515C248.516 194.902 247.45 195.125 247.114 195.958C232.817 231.473 229.607 275.182 241.988 304.274C242.062 304.448 242.178 304.605 242.32 304.729C300.573 355.842 348.808 328.587 366.9 307.547C366.989 307.445 367.058 307.33 367.108 307.205C381.225 272.729 382.814 253.36 385.67 226.389" stroke="black" stroke-width="3" stroke-linecap="round"/>
<path d="M188.381 356.67C167.782 384.135 131.692 389.306 114.949 390.366" stroke="black" stroke-width="3" stroke-linecap="round"/>
<path d="M114.949 390.366C142.669 419.866 168.461 432.327 177.891 434.871" stroke="black" stroke-width="3" stroke-linecap="round"/>
<path d="M209.68 352.539C189.589 392.72 141.016 393.335 114.949 390.368" stroke="black" stroke-width="3" stroke-linecap="round"/>
<path d="M399.773 238.096C464.368 293.281 445.655 387.291 429.655 428.511" stroke="black" stroke-width="3" stroke-linecap="round"/>
<path d="M429.641 428.513C488.896 326.026 450.728 254.099 423.602 230.469" stroke="black" stroke-width="3" stroke-linecap="round"/>
<path d="M341.922 421.836C384.201 392.273 418.745 411.24 429.659 428.512" stroke="black" stroke-width="3" stroke-linecap="round"/>
<path d="M252.531 491.701C245.615 511.164 241.862 522.781 252.911 523.138C270.33 522.829 276.934 499.916 278.929 490.142" stroke="black" stroke-width="3" stroke-linecap="round"/>
<path d="M161.668 327.425C163.374 323.786 165.567 321.664 167.708 320.496C170.354 319.053 172.919 319.068 174.383 319.478C180.741 325.073 178.092 331.346 175.973 333.783" stroke="black" stroke-width="3" stroke-linecap="round"/>
<path d="M153.406 319.48C155.256 317.199 156.956 315.834 158.492 315.134C163.296 312.948 166.507 317.271 167.711 320.498" stroke="black" stroke-width="3" stroke-linecap="round"/>
<path d="M151.824 309.741C155.639 300.404 161.043 303.384 171.851 309.741C180.498 314.828 175.984 317.888 174.394 319.478" stroke="black" stroke-width="3" stroke-linecap="round"/>
<path d="M228.434 342.684C211.65 351.331 174.711 355.717 161.678 347.77L146.737 335.373C142.922 332.723 136.946 324.967 143.558 315.132C146.516 310.734 149.371 309.45 151.823 309.741C154.854 310.101 157.269 312.868 158.499 315.132" stroke="black" stroke-width="3" stroke-linecap="round"/>
<path d="M283.426 152.588C290.101 163.396 302.394 163.926 308.221 161.171" stroke="black" stroke-width="3" stroke-linecap="round"/>
<path d="M180.828 351.265C184.395 347.53 182.779 335.656 181.237 328.814C181.018 327.844 181.544 326.865 182.465 326.489C194.926 321.4 218.914 303.346 226.29 285.077C226.439 284.706 226.467 284.328 226.364 283.941C221.887 267.078 205.408 209.839 249.719 185.327" stroke="black" stroke-width="3" stroke-linecap="round"/>
<path d="M258.621 194.231C262.69 183.296 260.316 172.085 258.621 167.847" stroke="black" stroke-width="3" stroke-linecap="round"/>
<path d="M186.469 464.432C182.145 481.98 185.428 490.959 189.33 493.36C197.595 498.446 211.37 475.77 213.807 462.207" stroke="black" stroke-width="3" stroke-linecap="round"/>
<path d="M2 547.744C71.7109 538.453 106.934 551.083 119.408 549.921C129.388 548.992 126.991 544.695 124.545 542.663C123.958 542.227 121.61 540.544 116.913 537.292C112.217 534.04 115.837 533.033 118.234 532.937C135.141 531.775 158.838 540.582 168.573 545.131" stroke="black" stroke-width="3" stroke-linecap="round"/>
<path d="M179.862 181.147C166.38 206.633 171.409 232.49 175.609 242.233" stroke="black" stroke-width="3" stroke-linecap="round"/>
<path d="M163.799 169.805C158.826 180.096 160.044 190.624 161.275 194.602" stroke="black" stroke-width="3" stroke-linecap="round"/>
<path d="M106.38 242.886C91.1946 274.542 94.9126 306.928 98.6716 319.163" stroke="black" stroke-width="3" stroke-linecap="round"/>
<path d="M407.547 504.81V522.611" stroke="black" stroke-width="3" stroke-linecap="round"/>
<path d="M413.797 522.609L423.573 514.697" stroke="black" stroke-width="3" stroke-linecap="round"/>
<path d="M393.699 511.021L401.033 522.606" stroke="black" stroke-width="3" stroke-linecap="round"/>
<path d="M87.8789 489.595V510.575" stroke="black" stroke-width="3" stroke-linecap="round"/>
<path d="M95.1836 510.574L106.623 501.25" stroke="black" stroke-width="3" stroke-linecap="round"/>
<path d="M71.6484 496.919L80.2308 510.573" stroke="black" stroke-width="3" stroke-linecap="round"/>
</svg>
