<svg width="17" height="16" viewBox="0 0 17 16" fill="none" xmlns="http://www.w3.org/2000/svg">
<path fill-rule="evenodd" clip-rule="evenodd" d="M8.90033 15.9999C13.3185 15.9999 16.9003 12.4181 16.9003 7.99994C16.9003 3.58169 13.3185 0 8.90033 0C4.48208 0 0.900391 3.58169 0.900391 7.99994C0.900391 12.4181 4.48208 15.9999 8.90033 15.9999Z" fill="#929CBF" fill-opacity="0.25098"/>
<path fill-rule="evenodd" clip-rule="evenodd" d="M9.69998 15.9604C9.43686 15.9866 9.16998 15.9999 8.89998 15.9999C8.62998 15.9999 8.36311 15.9866 8.09999 15.9604V9.59996H7.29999C6.85817 9.59996 6.5 9.2418 6.5 8.79996C6.5 8.35813 6.85817 7.99997 7.29999 7.99997H8.09999V6.39998C8.09999 5.07451 9.17446 4 10.5 4H11.3C11.7418 4 12.1 4.35817 12.1 4.79999C12.1 5.24182 11.7418 5.59999 11.3 5.59999H10.5C10.0581 5.59999 9.69998 5.95816 9.69998 6.39998V7.99997H11.3C11.7418 7.99997 12.1 8.35813 12.1 8.79996C12.1 9.2418 11.7418 9.59996 11.3 9.59996H9.69998V15.9604Z" fill="#929CBF"/>
</svg>
