<svg width="15" height="15" viewBox="0 0 15 15" fill="none" xmlns="http://www.w3.org/2000/svg">
<path d="M2.14977e-05 7.46336C0.00993221 3.33822 3.38413 -0.0117324 7.5173 -0.000214529C11.6673 0.0114373 15.0267 3.37867 14.9998 7.52979C14.9722 11.7906 11.479 15.0594 7.32685 14.9988C3.31649 14.9406 -0.00975529 11.5584 2.14977e-05 7.46336ZM1.56483 10.1208C1.81615 10.6751 2.53033 10.7313 3.01776 10.3668C4.32981 9.38554 5.82628 8.87305 7.52547 8.87697C9.2089 8.88087 10.6924 9.39442 11.984 10.3566C12.4774 10.7242 13.2013 10.6628 13.4518 10.1008C14.5038 7.74027 14.0828 4.68687 11.8582 2.67514C9.31489 0.375321 5.42346 0.447241 2.96212 2.85287C0.836904 4.93007 0.563585 7.91223 1.56483 10.1208Z" fill="url(#paint0_linear_126_131)"/>
<path d="M10.5053 4.98645C10.5097 6.641 9.16706 7.99181 7.51518 7.99489C5.85942 7.99783 4.50728 6.65694 4.50246 5.00721C4.4975 3.35667 5.84482 2.00145 7.49442 1.99757C9.14871 1.99368 10.5009 3.33578 10.5053 4.98645Z" fill="url(#paint1_linear_126_131)"/>
<defs>
<linearGradient id="paint0_linear_126_131" x1="0" y1="-0.000244141" x2="0" y2="14.9997" gradientUnits="userSpaceOnUse">
<stop stop-color="#F50057" stop-opacity="0.2"/>
<stop offset="1" stop-color="#F50057"/>
</linearGradient>
<linearGradient id="paint1_linear_126_131" x1="4.50244" y1="1.99756" x2="4.50244" y2="7.99489" gradientUnits="userSpaceOnUse">
<stop stop-color="#F50057" stop-opacity="0.2"/>
<stop offset="1" stop-color="#F50057"/>
</linearGradient>
</defs>
</svg>
