<svg width="15" height="17" viewBox="0 0 15 17" fill="none" xmlns="http://www.w3.org/2000/svg">
<path d="M14.01 11.3899C13.98 12.1799 13.43 12.7999 12.6 12.9599C12.56 12.9699 12.55 12.9799 12.54 12.9799C12.54 12.9799 12.54 12.9999 12.54 13.0299C12.51 13.6299 12.39 14.1399 12.18 14.5899C11.83 15.3299 11.22 15.8099 10.38 16.0099C10.02 16.0899 9.66 16.1399 9.28 16.1999C9.17 16.2199 9.06 16.2299 8.94 16.2499C8.93 16.4499 8.86 16.6199 8.72 16.7599C8.58 16.9099 8.36 16.9999 8.14 16.9999H6.32C6.12 16.9999 5.93 16.9299 5.79 16.8099C5.59 16.6299 5.5 16.3799 5.52 16.0599C5.53 15.9099 5.53 15.7499 5.53 15.5999C5.53 15.5099 5.52 15.4199 5.53 15.3299C5.53 14.8099 5.84 14.4999 6.36 14.4999C6.75 14.4899 7.15 14.4999 7.54 14.4999H8.04C8.59 14.4999 8.88 14.7499 8.93 15.2799C9.06 15.2699 9.18 15.2599 9.31 15.2499C9.76 15.2099 10.15 15.1299 10.48 14.9899C10.99 14.7699 11.32 14.3799 11.46 13.8399C11.52 13.6199 11.55 13.3999 11.59 13.1599C11.6 13.1199 11.6 13.0699 11.61 13.0199H11.34C10.92 13.0199 10.75 12.8499 10.75 12.4299V6.85994C10.76 6.51994 10.93 6.33994 11.27 6.32994H11.61C11.52 4.76994 10.85 3.55994 9.62 2.72994C8.07 1.68994 6.46 1.59994 4.82 2.48994C3.36 3.27994 2.56 4.56994 2.44 6.32994H2.74C3.11 6.33994 3.29 6.51994 3.29 6.87994C3.3 8.74994 3.3 10.6099 3.29 12.4799C3.29 12.5999 3.28 12.7799 3.15 12.8999C3.06 12.9899 2.93 13.0299 2.74 13.0299C2.64 13.0299 2.53 13.0199 2.43 13.0199C2.09 13.0199 1.75 13.0099 1.41 12.9499C0.66 12.8199 0.12 12.2299 0.03 11.4399C0.02 11.2799 0.01 11.1199 0 10.9499V10.3699C0 9.69994 -9.31323e-09 9.01995 0.00999999 8.34995C0.02 8.01995 0.06 7.71994 0.16 7.45994C0.36 6.87994 0.81 6.51994 1.49 6.37994C1.58 4.49994 2.39 3.01994 3.92 1.94994C4.93 1.24994 6.09 0.929945 7.37 1.00994C8.94 1.11994 10.25 1.77994 11.27 2.98994C12.06 3.92994 12.49 5.04994 12.54 6.31994L12.55 6.36994C12.57 6.37994 12.6 6.38994 12.63 6.39994C12.77 6.43994 12.92 6.47994 13.05 6.54994C13.67 6.83994 14.01 7.37994 14.03 8.07994C14.05 9.40994 14.05 10.4299 14.01 11.3899Z" fill="#2ECFA5"/>
</svg>
