<svg width="25" height="25" viewBox="0 0 25 25" fill="none" xmlns="http://www.w3.org/2000/svg">
<g clip-path="url(#clip0_4808_2852)">
<path d="M24.0078 12.7245C24.0078 11.7413 23.9295 11.0238 23.7598 10.2797H12.7295V14.7176H19.2041C19.0736 15.8205 18.3687 17.4815 16.8022 18.5976L16.7802 18.7462L20.2678 21.4964L20.5095 21.5209C22.7285 19.4347 24.0078 16.3653 24.0078 12.7245Z" fill="#4285F4"/>
<path d="M12.7296 24.4176C15.9016 24.4176 18.5645 23.3545 20.5095 21.5209L16.8023 18.5976C15.8102 19.3018 14.4787 19.7934 12.7296 19.7934C9.6228 19.7934 6.98598 17.7074 6.04603 14.824L5.90825 14.8359L2.2818 17.6927L2.23438 17.8269C4.1663 21.7334 8.13462 24.4176 12.7296 24.4176Z" fill="#34A853"/>
<path d="M6.04621 14.8239C5.7982 14.0798 5.65466 13.2825 5.65466 12.4587C5.65466 11.6349 5.7982 10.8376 6.03316 10.0935L6.02659 9.93507L2.3547 7.03235L2.23457 7.09052C1.43833 8.71162 0.981445 10.532 0.981445 12.4587C0.981445 14.3854 1.43833 16.2058 2.23457 17.8269L6.04621 14.8239Z" fill="#FBBC05"/>
<path d="M12.7295 5.12403C14.9356 5.12403 16.4237 6.09401 17.2722 6.90461L20.5878 3.60928C18.5515 1.6826 15.9015 0.5 12.7295 0.5C8.13462 0.5 4.1663 3.18406 2.23438 7.09056L6.03297 10.0936C6.98597 7.2102 9.62279 5.12403 12.7295 5.12403Z" fill="#EB4335"/>
</g>
<defs>
<clipPath id="clip0_4808_2852">
<rect width="23.04" height="24" fill="white" transform="translate(0.97998 0.5)"/>
</clipPath>
</defs>
</svg>
