<svg width="24" height="24" viewBox="0 0 24 24" fill="none" xmlns="http://www.w3.org/2000/svg">
<rect width="24" height="24" rx="12" fill="url(#paint0_linear_1_8961)"/>
<path d="M12.2773 15.8539L14.265 13.3564C14.465 13.0983 14.2843 12.711 13.9552 12.711L13.2905 12.711C13.0775 12.711 12.8904 12.5691 12.8904 12.3561L12.8904 8.38721C12.8904 8.17424 12.7355 8 12.5161 8L11.4706 8C11.2641 8 11.0834 8.17424 11.0834 8.38721L11.0834 12.3561C11.0834 12.5691 10.9156 12.711 10.7027 12.711L10.0379 12.711C9.71527 12.711 9.53457 13.0983 9.73463 13.3499L11.6707 15.841C11.8191 16.0475 12.1224 16.054 12.2773 15.8539Z" fill="white"/>
<defs>
<linearGradient id="paint0_linear_1_8961" x1="0" y1="0" x2="0" y2="24" gradientUnits="userSpaceOnUse">
<stop stop-color="#C2FFD5"/>
<stop offset="1" stop-color="#17DC69"/>
</linearGradient>
</defs>
</svg>
