<svg width="21" height="21" viewBox="0 0 21 21" fill="none" xmlns="http://www.w3.org/2000/svg">
<rect opacity="0.1" width="21" height="21" rx="4" fill="#130F40"/>
<path d="M9.22159 8.61635C11.6364 8.61635 13.4408 7.66173 13.4408 6.80815C13.4408 5.95465 11.6364 5 9.22159 5C6.80682 5 5.00244 5.95465 5.00244 6.80815C5.00244 7.66173 6.80678 8.61635 9.22159 8.61635Z" fill="#130F40"/>
<path opacity="0.5" d="M9.21914 15.8496C9.23828 15.8496 9.25738 15.8495 9.27644 15.8494C9.6972 15.8468 9.91091 15.3579 9.72305 14.9814C9.71887 14.973 9.71471 14.9646 9.71058 14.9562C9.61809 14.7681 9.42873 14.6443 9.2191 14.6443C7.83929 14.6443 6.53258 14.3709 5.53978 13.8745C5.49639 13.8528 5.45377 13.8307 5.41191 13.8083C5.23142 13.7117 5 13.8367 5 14.0415C5 14.8949 6.80433 15.8496 9.21914 15.8496Z" fill="#130F40"/>
<path opacity="0.5" d="M9.21918 13.4385C9.2388 13.4385 9.25392 13.4211 9.25164 13.4016C9.22982 13.2158 9.21846 13.0268 9.21846 12.8353C9.21846 12.6438 9.22978 12.4549 9.25163 12.2693C9.25391 12.2498 9.23877 12.2331 9.21918 12.2331C7.83937 12.2331 6.5327 11.9597 5.53986 11.4633C5.49644 11.4416 5.45379 11.4195 5.41191 11.3971C5.23141 11.3005 5 11.4256 5 11.6303C5.00004 12.4838 6.80437 13.4385 9.21918 13.4385Z" fill="#130F40"/>
<path opacity="0.5" d="M9.21918 11.0278C9.23575 11.0278 9.25228 11.0277 9.26878 11.0276C9.45427 11.0266 9.61637 10.9095 9.69713 10.7425C9.70556 10.7251 9.7141 10.7077 9.72274 10.6904C9.90298 10.3288 9.62317 9.82251 9.21918 9.82251C7.83937 9.82251 6.5327 9.5491 5.53986 9.05269C5.49645 9.03098 5.45381 9.00891 5.41193 8.9865C5.23144 8.88992 5 9.01496 5 9.21967C5.00004 10.0732 6.80438 11.0278 9.21918 11.0278Z" fill="#130F40"/>
<path d="M11.0278 10.8372C10.767 11.2293 10.5807 11.675 10.489 12.1539C10.4467 12.3746 10.4243 12.6024 10.4243 12.8353C10.4243 13.0104 10.4371 13.1826 10.4613 13.3511C10.5206 13.7651 10.6503 14.1565 10.8378 14.5131C11.0346 14.8873 11.2949 15.2231 11.6045 15.5058C12.2478 16.0934 13.1034 16.4523 14.0413 16.4523C16.0358 16.4523 17.6584 14.8297 17.6584 12.8353C17.6584 10.8408 16.0358 9.21826 14.0413 9.21826C13.8352 9.21826 13.6331 9.23586 13.4363 9.26914C12.4336 9.4387 11.57 10.0222 11.0278 10.8372Z" fill="#130F40"/>
</svg>
