<svg width="20" height="20" viewBox="0 0 20 20" fill="none" xmlns="http://www.w3.org/2000/svg">
<path d="M7.26839 5.66016V14.0002H5.90039V5.66016H7.26839Z" fill="#130F40"/>
<path d="M14.8965 8.14416C14.8965 8.56816 14.7965 8.96816 14.5965 9.34416C14.3965 9.72016 14.0765 10.0282 13.6365 10.2682C13.1965 10.5002 12.6325 10.6162 11.9445 10.6162H10.4325V14.0002H9.06445V5.66016H11.9445C12.5845 5.66016 13.1245 5.77216 13.5645 5.99616C14.0125 6.21216 14.3445 6.50816 14.5605 6.88416C14.7845 7.26016 14.8965 7.68016 14.8965 8.14416ZM11.9445 9.50016C12.4645 9.50016 12.8525 9.38416 13.1085 9.15216C13.3645 8.91216 13.4925 8.57616 13.4925 8.14416C13.4925 7.23216 12.9765 6.77616 11.9445 6.77616H10.4325V9.50016H11.9445Z" fill="#130F40"/>
<circle cx="10" cy="10" r="9.5" stroke="#130F40" stroke-opacity="0.5"/>
</svg>
