<svg width="16" height="16" viewBox="0 0 16 16" fill="none" xmlns="http://www.w3.org/2000/svg">
<path d="M4.34105 13.5263C5.00453 13.5263 5.54811 14.0814 5.54811 14.7672C5.54811 15.4448 5.00453 16 4.34105 16C3.66957 16 3.126 15.4448 3.126 14.7672C3.126 14.0814 3.66957 13.5263 4.34105 13.5263ZM13.334 13.5263C13.9975 13.5263 14.5411 14.0814 14.5411 14.7672C14.5411 15.4448 13.9975 16 13.334 16C12.6626 16 12.119 15.4448 12.119 14.7672C12.119 14.0814 12.6626 13.5263 13.334 13.5263ZM0.622581 9.55917e-05L0.704045 0.00699064L2.61056 0.300081C2.88235 0.349882 3.08219 0.577659 3.10617 0.855238L3.25805 2.68399C3.28204 2.94606 3.48987 3.14199 3.74567 3.14199H14.5413C15.0289 3.14199 15.3486 3.31344 15.6684 3.68899C15.9881 4.06453 16.0441 4.60336 15.9721 5.09239L15.2127 10.448C15.0689 11.4775 14.2055 12.236 13.1903 12.236H4.46911C3.40594 12.236 2.52662 11.404 2.43869 10.3264L1.70327 1.42672L0.496207 1.21446C0.176456 1.15731 -0.0473694 0.83891 0.00858702 0.512347C0.0645434 0.178436 0.3763 -0.0428102 0.704045 0.00699064L0.622581 9.55917e-05ZM11.9113 6.16188H9.69704C9.3613 6.16188 9.0975 6.4313 9.0975 6.77419C9.0975 7.10892 9.3613 7.3865 9.69704 7.3865H11.9113C12.247 7.3865 12.5108 7.10892 12.5108 6.77419C12.5108 6.4313 12.247 6.16188 11.9113 6.16188Z" fill="#2ECFA5"/>
</svg>
