<svg width="30" height="30" viewBox="0 0 30 30" fill="none" xmlns="http://www.w3.org/2000/svg">
<rect opacity="0.1" width="30" height="30" rx="10" fill="#130F40"/>
<path d="M10.7704 12.8932C10.7704 13.1519 10.5557 13.3594 10.3005 13.3594C10.0453 13.3594 9.83053 13.1418 9.83053 12.8725C9.84053 12.6138 10.0553 12.4063 10.3109 12.4169C10.5661 12.4164 10.7704 12.6341 10.7704 12.8932ZM12.1802 12.4164C11.9145 12.4164 11.6998 12.6341 11.7103 12.9034C11.7203 13.162 11.935 13.3695 12.1907 13.3589C12.4459 13.3589 12.6506 13.1413 12.6506 12.8826C12.6401 12.624 12.4359 12.4164 12.1802 12.4164ZM10.3105 12.4164C10.0553 12.4063 9.84053 12.6133 9.83006 12.872C9.83006 13.1413 10.0448 13.3589 10.3 13.3589C10.5552 13.3589 10.7699 13.1519 10.7699 12.8927C10.7704 12.6341 10.5661 12.4164 10.3105 12.4164ZM12.1802 12.4164C11.9145 12.4164 11.6998 12.6341 11.7103 12.9034C11.7203 13.162 11.935 13.3695 12.1907 13.3589C12.4459 13.3589 12.6506 13.1413 12.6506 12.8826C12.6401 12.624 12.4359 12.4164 12.1802 12.4164ZM14.0499 12.4164C13.7947 12.4164 13.59 12.6235 13.59 12.8927C13.59 13.1413 13.7942 13.3589 14.0499 13.3589C14.3156 13.3691 14.5303 13.1413 14.5198 12.8826C14.5198 12.624 14.3056 12.4063 14.0499 12.4164ZM19.6286 12.4164H16.451C16.1444 12.4164 15.9301 12.6133 15.9301 12.8927C15.9301 13.1722 16.1448 13.3589 16.4615 13.3589H19.6286C19.9352 13.3589 20.1495 13.1726 20.1495 12.8927C20.1495 12.6129 19.9352 12.4164 19.6286 12.4164ZM23 18.3459V21.8875C23 22.5501 22.5301 22.9955 21.8354 22.9955H9.1154C8.78831 22.9955 8.46169 23.0056 8.14459 22.9955C7.50088 22.9955 7.02095 22.5399 7.02095 21.929V18.3565C7.02095 17.7455 7.50135 17.29 8.14459 17.29H8.50216V15.5537C8.37979 15.5537 8.24696 15.5638 8.12412 15.5537C7.4804 15.5537 7 15.1189 7 14.4872V10.9349C7 10.324 7.4804 9.86844 8.12412 9.86844H14.4994C14.4994 9.8583 14.4894 9.83755 14.4894 9.82694V8.03561H10.8113C10.5252 8.03561 10.3005 7.80783 10.3005 7.51781C10.3005 7.23839 10.5252 7 10.8113 7H19.1891C19.4753 7 19.7 7.23839 19.7 7.51781C19.7 7.80783 19.4753 8.03561 19.1891 8.03561H15.5111V9.82694C15.5111 9.83707 15.5011 9.85782 15.5011 9.86844H21.8659C22.4996 9.86844 22.9795 10.324 22.9795 10.9248V14.4558C22.9795 15.129 22.5096 15.5537 21.8249 15.5537H20.4561V17.29H21.8764C22.5201 17.2996 23 17.7451 23 18.3459ZM21.764 14.6107C21.9787 14.6107 21.9887 14.6107 21.9887 14.4037V11.0382C21.9887 10.8206 21.9887 10.8206 21.7535 10.8206H8.21601C8.01175 10.8206 8.00128 10.8206 8.00128 11.0175V14.4037C8.00128 14.6107 8.01128 14.6107 8.21601 14.6107H21.764ZM9.51391 15.5633V17.2789H19.4553V15.5633H9.51391ZM21.9987 18.4598C21.9987 18.2421 21.9987 18.2421 21.774 18.2421H8.23648C8.02175 18.2421 8.01175 18.2522 8.01175 18.4491V21.8252C8.01175 22.0429 8.02175 22.0429 8.23648 22.0429H21.7845C21.9887 22.0429 21.9992 22.0328 21.9992 21.8252V18.4598H21.9987ZM20.1495 20.1579C20.1495 20.4374 19.9347 20.6241 19.6286 20.6241C19.0873 20.6342 18.5559 20.6241 18.0246 20.6241C17.5037 20.6241 16.9823 20.6342 16.4615 20.6241C16.1448 20.6241 15.9301 20.4378 15.9301 20.1579C15.9301 19.878 16.1448 19.6816 16.451 19.6816H19.6286C19.9352 19.6816 20.1495 19.878 20.1495 20.1579ZM14.5198 20.1473C14.5298 20.406 14.3156 20.6342 14.0499 20.6236C13.7947 20.6236 13.59 20.406 13.59 20.1575C13.59 19.8882 13.7942 19.6812 14.0499 19.6812C14.3056 19.6816 14.5198 19.8887 14.5198 20.1473ZM12.6501 20.1473C12.6501 20.406 12.4459 20.6236 12.1902 20.6236C11.935 20.6338 11.7203 20.4267 11.7098 20.1681C11.6998 19.8988 11.914 19.6812 12.1797 19.6812C12.4359 19.6816 12.6401 19.8887 12.6501 20.1473ZM10.7704 20.1579C10.7704 20.4166 10.5557 20.6241 10.3005 20.6241C10.0453 20.6241 9.83053 20.4065 9.83053 20.1372C9.84053 19.8785 10.0553 19.671 10.3109 19.6816C10.5661 19.6816 10.7704 19.8988 10.7704 20.1579ZM10.3105 12.4164C10.0553 12.4063 9.84053 12.6133 9.83006 12.872C9.83006 13.1413 10.0448 13.3589 10.3 13.3589C10.5552 13.3589 10.7699 13.1519 10.7699 12.8927C10.7704 12.6341 10.5661 12.4164 10.3105 12.4164ZM12.1802 12.4164C11.9145 12.4164 11.6998 12.6341 11.7103 12.9034C11.7203 13.162 11.935 13.3695 12.1907 13.3589C12.4459 13.3589 12.6506 13.1413 12.6506 12.8826C12.6401 12.624 12.4359 12.4164 12.1802 12.4164ZM14.0499 12.4164C13.7947 12.4164 13.59 12.6235 13.59 12.8927C13.59 13.1413 13.7942 13.3589 14.0499 13.3589C14.3156 13.3691 14.5303 13.1413 14.5198 12.8826C14.5198 12.624 14.3056 12.4063 14.0499 12.4164ZM19.6286 12.4164H16.451C16.1444 12.4164 15.9301 12.6133 15.9301 12.8927C15.9301 13.1722 16.1448 13.3589 16.4615 13.3589H19.6286C19.9352 13.3589 20.1495 13.1726 20.1495 12.8927C20.1495 12.6129 19.9352 12.4164 19.6286 12.4164ZM14.0499 12.4164C13.7947 12.4164 13.59 12.6235 13.59 12.8927C13.59 13.1413 13.7942 13.3589 14.0499 13.3589C14.3156 13.3691 14.5303 13.1413 14.5198 12.8826C14.5198 12.624 14.3056 12.4063 14.0499 12.4164ZM19.6286 12.4164H16.451C16.1444 12.4164 15.9301 12.6133 15.9301 12.8927C15.9301 13.1722 16.1448 13.3589 16.4615 13.3589H19.6286C19.9352 13.3589 20.1495 13.1726 20.1495 12.8927C20.1495 12.6129 19.9352 12.4164 19.6286 12.4164Z" fill="#130F40"/>
</svg>
