<svg width="20" height="20" viewBox="0 0 20 20" fill="none" xmlns="http://www.w3.org/2000/svg">
<path d="M14.5446 9.49279C14.2763 9.36057 13.9285 9.22905 13.5019 9.09801L13.5016 9.09792C13.1819 9.00193 12.9315 8.91324 12.7494 8.83198C12.5707 8.75224 12.4228 8.64651 12.3048 8.51513C12.1967 8.38135 12.141 8.2112 12.141 8.00094C12.141 7.68803 12.2331 7.45558 12.4111 7.29549C12.5914 7.13327 12.8254 7.05047 13.1173 7.05047C13.4405 7.05047 13.6957 7.14032 13.888 7.31588C14.0825 7.49338 14.1872 7.70511 14.2047 7.9529L14.208 7.99937H14.2546H15.4196H15.4733L15.4695 7.94581C15.4255 7.32972 15.1989 6.84215 14.7868 6.48836C14.3816 6.12832 13.8606 5.95 13.2283 5.95C12.7843 5.95 12.3912 6.03374 12.0503 6.20274C11.7092 6.37189 11.443 6.61564 11.253 6.93356C11.0628 7.25181 10.9685 7.62193 10.9685 8.04219C10.9685 8.4956 11.0623 8.86415 11.2547 9.14325C11.4438 9.41744 11.6718 9.62285 11.9391 9.75772L11.939 9.75774L11.9404 9.75838C12.2086 9.88359 12.5532 10.0082 12.9737 10.1323L12.974 10.1324C13.306 10.2284 13.5623 10.3171 13.7442 10.3982L13.7447 10.3985C13.929 10.478 14.0795 10.5902 14.1973 10.7348L14.1973 10.7348L14.1981 10.7357C14.3183 10.8762 14.3803 11.0598 14.3803 11.2911C14.3803 11.5882 14.2832 11.8293 14.0905 12.0184C13.8989 12.1995 13.6292 12.2932 13.2745 12.2932C12.9331 12.2932 12.673 12.1966 12.4874 12.0092C12.3055 11.8192 12.2017 11.5761 12.1779 11.2769L12.1742 11.2308H12.128H11H10.95V11.2808C10.95 11.7017 11.0507 12.0723 11.2537 12.3907C11.4561 12.7082 11.7344 12.9548 12.0872 13.1306L12.088 13.1309L14.5227 9.53774M14.5446 9.49279C14.5447 9.49283 14.5448 9.49286 14.5448 9.49289L14.5227 9.53774M14.5446 9.49279C14.5446 9.49276 14.5445 9.49273 14.5444 9.49269L14.5227 9.53774M14.5446 9.49279C14.8244 9.62759 15.0588 9.83651 15.248 10.1178M14.5227 9.53774C14.7939 9.66839 15.022 9.87123 15.2069 10.1463M15.248 10.1178C15.2479 10.1176 15.2478 10.1174 15.2477 10.1173L15.2069 10.1463M15.248 10.1178C15.2482 10.118 15.2483 10.1182 15.2484 10.1184L15.2069 10.1463M15.248 10.1178L15.2069 10.1463M9.27947 13.3112H9.32947V13.2612V6.08253V6.03253H9.27947H8.22542H8.17542V6.08253V11.2431L5.09704 6.05701L5.08251 6.03253H5.05404H4H3.95V6.08253V13.2612V13.3112H4H5.05404H5.10404V13.2612V8.09062L8.18241 13.2866L8.19693 13.3112H8.22542H9.27947ZM15.2694 12.2845C15.2694 12.2844 15.2695 12.2843 15.2695 12.2842L15.2254 12.2607L15.2692 12.2849C15.2692 12.2848 15.2693 12.2847 15.2694 12.2845Z" fill="#130F40" stroke="#130F40" stroke-width="0.1"/>
<circle cx="10" cy="10" r="9.5" stroke="#130F40" stroke-opacity="0.5"/>
</svg>
