<svg width="20" height="20" viewBox="0 0 20 20" fill="none" xmlns="http://www.w3.org/2000/svg">
<path d="M15 12.4998C13.8275 12.4998 10 12.3798 10 10.8332C10 9.2865 13.8275 9.1665 15 9.1665C16.1725 9.1665 20 9.2865 20 10.8332C20 12.3798 16.1725 12.4998 15 12.4998Z" fill="white" fill-opacity="0.3"/>
<path d="M20 14.5833C20 16.13 16.1725 16.25 15 16.25C13.8275 16.25 10 16.13 10 14.5833V12.5C10 14.0467 13.8275 14.1667 15 14.1667C16.1725 14.1667 20 14.0467 20 12.5V14.5833Z" fill="white"/>
<path d="M20 18.3333C20 19.88 16.1725 20 15 20C13.8275 20 10 19.88 10 18.3333V16.25C10 17.7967 13.8275 17.9167 15 17.9167C16.1725 17.9167 20 17.7967 20 16.25V18.3333Z" fill="white"/>
<path d="M10.058 6.2585C9.78301 5.9835 9.41634 5.8335 9.03301 5.8335H7.29134C6.49134 5.8335 5.83301 6.49183 5.83301 7.29183V11.0418C5.83301 11.8418 6.49134 12.5002 7.29134 12.5002H8.33301V10.8335C8.33301 9.69183 8.98301 8.39183 11.6163 7.81683L10.058 6.2585Z" fill="white" fill-opacity="0.3"/>
<path d="M17.5 4.16667H15.6833C15.425 3.45833 14.875 2.90833 14.1667 2.65V0.833333C14.1667 0.375 13.7917 0 13.3333 0C12.875 0 12.5 0.375 12.5 0.833333V2.5H10V0.833333C10 0.375 9.625 0 9.16667 0C8.70833 0 8.33333 0.375 8.33333 0.833333V2.5H5.83333V0.833333C5.83333 0.375 5.45833 0 5 0C4.54167 0 4.16667 0.375 4.16667 0.833333V2.65C3.45833 2.90833 2.90833 3.45833 2.65 4.16667H0.833333C0.375 4.16667 0 4.54167 0 5C0 5.45833 0.375 5.83333 0.833333 5.83333H2.5V8.33333H0.833333C0.375 8.33333 0 8.70833 0 9.16667C0 9.625 0.375 10 0.833333 10H2.5V12.5H0.833333C0.375 12.5 0 12.875 0 13.3333C0 13.7917 0.375 14.1667 0.833333 14.1667H2.65C2.90833 14.875 3.45833 15.425 4.16667 15.6833V17.5C4.16667 17.9583 4.54167 18.3333 5 18.3333C5.45833 18.3333 5.83333 17.9583 5.83333 17.5V15.8333H8.33333V14.1667H5C4.54167 14.1667 4.16667 13.7917 4.16667 13.3333V5C4.16667 4.54167 4.54167 4.16667 5 4.16667H13.3333C13.7917 4.16667 14.1667 4.54167 14.1667 5V7.51667C14.4333 7.50833 14.7083 7.5 15 7.5C15.2917 7.5 15.5667 7.50833 15.8333 7.51667V5.83333H17.5C17.9583 5.83333 18.3333 5.45833 18.3333 5C18.3333 4.54167 17.9583 4.16667 17.5 4.16667Z" fill="white"/>
</svg>
