<svg width="71" height="71" viewBox="0 0 71 71" fill="none" xmlns="http://www.w3.org/2000/svg">
<g opacity="0.2">
<path d="M35.5 0C15.975 0 0 15.975 0 35.5C0 55.025 15.975 71 35.5 71C55.025 71 71 55.025 71 35.5C71 15.975 55.025 0 35.5 0ZM7.1 35.5C7.1 19.88 19.88 7.1 35.5 7.1C41.89 7.1 47.925 9.23 52.895 13.135L13.135 52.895C9.23 47.925 7.1 41.89 7.1 35.5ZM35.5 63.9C29.11 63.9 23.075 61.77 18.105 57.865L57.865 18.105C61.77 23.075 63.9 29.11 63.9 35.5C63.9 51.12 51.12 63.9 35.5 63.9Z" fill="#FF9595"/>
</g>
</svg>
