<svg width="143" height="136" viewBox="0 0 143 136" fill="none" xmlns="http://www.w3.org/2000/svg">
<g opacity="0.2">
<path d="M61.5823 135.767C60.9376 135.767 60.2932 135.767 59.6486 135.767C43.7605 135.766 37.3368 129.621 36.8596 113.966C36.548 103.744 27.0606 98.2987 17.9806 103.134C16.6189 103.859 15.3054 104.682 13.9131 105.341C7.87471 108.197 1.57129 108.407 -3.73469 104.453C-12.1618 98.1737 -17.1976 89.2922 -18.7554 79.0234C-19.8188 72.0132 -16.2019 66.4197 -10.2366 62.5103C-8.73277 61.5247 -7.09676 60.7317 -5.62932 59.6994C1.56245 54.6402 1.50434 44.5183 -5.73705 39.4956C-7.00093 38.6191 -8.39599 37.9318 -9.70982 37.1239C-18.6997 31.5947 -21.5435 21.3306 -16.5702 12.0781C-14.6902 8.58028 -12.6607 5.15812 -10.6057 1.75725C-4.72126 -7.98177 5.78807 -10.7153 15.722 -5.14045C16.731 -4.57415 17.7173 -3.96256 18.7551 -3.45438C27.1523 0.656403 36.3927 -4.74174 36.841 -14.0216C36.9089 -15.4282 36.8396 -16.8406 36.8777 -18.2493C37.1499 -28.3637 44.952 -36.2088 55.0943 -36.4703C59.3457 -36.5802 63.6036 -36.5612 67.8561 -36.4801C78.2499 -36.2818 86.1166 -28.4802 86.3878 -18.1759C86.4316 -16.5111 86.3168 -14.8328 86.4887 -13.1829C87.3774 -4.65963 96.0203 0.310402 103.887 -3.18744C105.762 -4.02102 107.489 -5.17559 109.341 -6.06729C117.835 -10.1571 127.673 -7.61415 132.867 0.227955C135.553 4.28332 138.021 8.51168 140.229 12.8428C144.564 21.3434 141.807 31.2436 133.843 36.5495C132.24 37.6172 130.484 38.4626 128.908 39.5652C121.7 44.6092 121.745 54.7409 128.995 59.7572C130.577 60.8516 132.334 61.6957 133.931 62.7705C141.885 68.1223 144.565 78.0026 140.189 86.5053C138.023 90.7154 135.62 94.8282 133.029 98.795C127.619 107.078 117.339 109.594 108.541 104.976C106.948 104.14 105.44 103.122 103.798 102.402C95.7909 98.8913 87.0107 104.219 86.4408 112.909C86.3321 114.569 86.4367 116.241 86.3715 117.905C85.9905 127.607 78.2757 135.337 68.5426 135.732C66.2262 135.826 63.9027 135.746 61.5826 135.746C61.5823 135.753 61.5823 135.76 61.5823 135.767ZM92.5655 49.9273C92.7853 33.3605 79.1246 19.2069 62.612 18.8937C44.9989 18.5595 30.8682 32.1245 30.7041 49.5238C30.5484 66.0626 44.2659 80.1043 60.8417 80.3736C78.2292 80.6564 92.3374 67.1161 92.5655 49.9273Z" fill="#FF9595"/>
<path d="M71.7947 48.8693C71.7196 54.5135 67.0872 58.9594 61.3778 58.8668C55.9349 58.7783 51.4306 54.1678 51.4819 48.7369C51.5356 43.0235 56.1758 38.5694 61.9593 38.6792C67.3811 38.782 71.8667 43.4293 71.7947 48.8693Z" fill="#FF9595"/>
</g>
</svg>
