<svg width="7" height="11" viewBox="0 0 7 11" fill="none" xmlns="http://www.w3.org/2000/svg">
<path d="M6.30471 5.24644L1.16831 0.110295C1.09481 0.0368679 1.01022 0 0.914753 0C0.819243 0 0.734697 0.0368679 0.661232 0.110295L0.110218 0.661422C0.0366364 0.734888 0 0.819279 0 0.914942C0 1.01061 0.0366364 1.095 0.110218 1.16846L4.44189 5.50012L0.110218 9.83185C0.0366364 9.90531 0 9.98986 0 10.0853C0 10.1809 0.0366364 10.2654 0.110218 10.3389L0.66127 10.8898C0.734736 10.9634 0.819282 11 0.914791 11C1.01026 11 1.09481 10.9633 1.16831 10.8898L6.30444 5.75364C6.37787 5.68021 6.41462 5.59562 6.41462 5.50012C6.41462 5.40461 6.37814 5.32006 6.30471 5.24644Z" fill="#130F40" fill-opacity="0.7"/>
</svg>
