<svg width="7" height="12" viewBox="0 0 7 12" fill="none" xmlns="http://www.w3.org/2000/svg">
<path d="M6.59658 5.94378L1.44369 0.824187C1.36995 0.750997 1.28524 0.714402 1.18977 0.714709C1.09426 0.715016 1.00984 0.752156 0.936607 0.825819L0.38737 1.37872C0.314025 1.45242 0.27766 1.53693 0.277968 1.63259C0.278275 1.72825 0.315183 1.81252 0.389001 1.88575L4.73458 6.20345L0.416869 10.5491C0.343524 10.6228 0.30716 10.7075 0.307467 10.8028C0.307775 10.8985 0.344683 10.9829 0.4185 11.0561L0.971322 11.6053C1.04502 11.6786 1.12969 11.715 1.2252 11.7147C1.32067 11.7143 1.40509 11.6774 1.47836 11.6037L6.59794 6.45098C6.67113 6.37731 6.70761 6.29261 6.7073 6.1971C6.70699 6.10159 6.67024 6.01717 6.59658 5.94378Z" fill="white"/>
</svg>
