<svg width="30" height="30" viewBox="0 0 30 30" fill="none" xmlns="http://www.w3.org/2000/svg">
<rect opacity="0.1" width="30" height="30" rx="10" fill="#130F40"/>
<path d="M19.0166 14.6982C18.9465 14.6597 18.8713 14.621 18.7989 14.5825C18.1143 14.2379 17.4632 14.1375 16.8072 14.2763C16.4233 14.3612 16.0448 14.4513 15.7596 14.5206C15.5832 14.567 15.4122 14.567 15.2358 14.5206C14.9557 14.4511 14.6576 14.3818 14.2971 14.2993C14.048 14.2427 13.82 14.2144 13.5969 14.2144C13.4803 14.2144 13.3635 14.2221 13.2495 14.2402C12.832 14.2993 12.4145 14.4511 11.9711 14.7058C11.8311 14.7856 11.8103 14.8345 11.8517 15.0044C11.9736 15.537 12.2381 16.0052 12.5077 16.4299C12.736 16.7952 13.0395 17.001 13.4336 17.0655C13.6203 17.0937 13.7864 17.1144 13.934 17.0553C14.2529 16.9317 14.5148 16.7723 14.7379 16.5664C14.8884 16.4276 15.0725 16.2707 15.2956 16.1548C15.4435 16.0776 15.5886 16.0801 15.7131 16.1624C15.861 16.2602 15.9827 16.3425 16.1047 16.4327C16.1773 16.4892 16.25 16.5458 16.3198 16.6026C16.4418 16.7004 16.5689 16.8008 16.6986 16.8805C16.9217 17.0168 17.1135 17.1044 17.3312 17.0915C17.8239 17.0581 18.1585 16.8933 18.3919 16.5692C18.6695 16.1833 18.8718 15.8101 19.0143 15.4321C19.0585 15.3162 19.0947 15.1929 19.1257 15.0821L19.1309 15.0614C19.1437 15.0202 19.1542 14.9766 19.1671 14.9353V14.848C19.1437 14.7907 19.097 14.7443 19.0166 14.6982ZM14.683 16.0103C14.4262 16.1364 14.1746 16.1981 13.9361 16.1981C13.8013 16.1981 13.669 16.1775 13.5471 16.139C13.2048 16.0231 12.9195 15.7505 12.7198 15.349L12.6497 15.2102L12.7896 15.1432C13.1812 14.9501 13.565 14.904 13.8996 15.0069C14.255 15.1175 14.5428 15.3852 14.7528 15.802L14.8204 15.9408L14.683 16.0103ZM18.2774 15.349C18.0802 15.748 17.7924 16.0205 17.4527 16.1364C17.3281 16.1777 17.1959 16.1981 17.0611 16.1981C16.8226 16.1981 16.571 16.1364 16.3142 16.0103L16.1768 15.9408L16.2444 15.8045C16.4544 15.3878 16.7396 15.12 17.095 15.0095C17.4296 14.904 17.8134 14.9504 18.2076 15.1432L18.3475 15.2102L18.2774 15.349ZM19.0166 14.6982C18.9465 14.6597 18.8713 14.621 18.7989 14.5825C18.1143 14.2379 17.4632 14.1375 16.8072 14.2763C16.4233 14.3612 16.0448 14.4513 15.7596 14.5206C15.5832 14.567 15.4122 14.567 15.2358 14.5206C14.9557 14.4511 14.6576 14.3818 14.2971 14.2993C14.048 14.2427 13.82 14.2144 13.5969 14.2144C13.4803 14.2144 13.3635 14.2221 13.2495 14.2402C12.832 14.2993 12.4145 14.4511 11.9711 14.7058C11.8311 14.7856 11.8103 14.8345 11.8517 15.0044C11.9736 15.537 12.2381 16.0052 12.5077 16.4299C12.736 16.7952 13.0395 17.001 13.4336 17.0655C13.6203 17.0937 13.7864 17.1144 13.934 17.0553C14.2529 16.9317 14.5148 16.7723 14.7379 16.5664C14.8884 16.4276 15.0725 16.2707 15.2956 16.1548C15.4435 16.0776 15.5886 16.0801 15.7131 16.1624C15.861 16.2602 15.9827 16.3425 16.1047 16.4327C16.1773 16.4892 16.25 16.5458 16.3198 16.6026C16.4418 16.7004 16.5689 16.8008 16.6986 16.8805C16.9217 17.0168 17.1135 17.1044 17.3312 17.0915C17.8239 17.0581 18.1585 16.8933 18.3919 16.5692C18.6695 16.1833 18.8718 15.8101 19.0143 15.4321C19.0585 15.3162 19.0947 15.1929 19.1257 15.0821L19.1309 15.0614C19.1437 15.0202 19.1542 14.9766 19.1671 14.9353V14.848C19.1437 14.7907 19.097 14.7443 19.0166 14.6982ZM14.683 16.0103C14.4262 16.1364 14.1746 16.1981 13.9361 16.1981C13.8013 16.1981 13.669 16.1775 13.5471 16.139C13.2048 16.0231 12.9195 15.7505 12.7198 15.349L12.6497 15.2102L12.7896 15.1432C13.1812 14.9501 13.565 14.904 13.8996 15.0069C14.255 15.1175 14.5428 15.3852 14.7528 15.802L14.8204 15.9408L14.683 16.0103ZM18.2774 15.349C18.0802 15.748 17.7924 16.0205 17.4527 16.1364C17.3281 16.1777 17.1959 16.1981 17.0611 16.1981C16.8226 16.1981 16.571 16.1364 16.3142 16.0103L16.1768 15.9408L16.2444 15.8045C16.4544 15.3878 16.7396 15.12 17.095 15.0095C17.4296 14.904 17.8134 14.9504 18.2076 15.1432L18.3475 15.2102L18.2774 15.349ZM21.7447 21.0042V7.12864H18.1816V8.92455L15.5103 7L12.777 8.97091C11.636 9.79422 10.495 10.6175 9.35134 11.4408C9.29408 11.4793 9.28124 11.5076 9.28124 11.5797C9.28381 14.2014 9.28381 16.8235 9.28381 19.4478V20.994H8V22H23V21.0042H21.7447ZM19.2007 8.48716V8.30171C19.2007 8.26579 19.2135 8.23726 19.2215 8.22198L19.2526 8.15498L19.3589 8.12671C19.3848 8.12161 19.4082 8.11906 19.4341 8.11906H20.7179V10.7049L20.4948 10.5814C20.4663 10.5686 20.4429 10.5556 20.4195 10.5401L20.2822 10.4397C19.9659 10.2133 19.6495 9.9868 19.3381 9.75525C19.2759 9.71143 19.2033 9.62406 19.2007 9.52879C19.1981 9.18183 19.1981 8.83437 19.2007 8.48716ZM20.7282 19.2804V20.9915H10.308L10.3003 20.8165C10.2978 20.7778 10.2952 20.7393 10.2952 20.7006V19.0025C10.2952 16.7384 10.2952 14.4715 10.2926 12.2074C10.2926 12.0632 10.3445 11.9628 10.4585 11.8831C12.0769 10.7176 13.695 9.54942 15.3108 8.38144C15.4507 8.27853 15.5701 8.27853 15.7075 8.3789C17.3233 9.54967 18.9388 10.7151 20.5597 11.8808C20.6791 11.9682 20.731 12.0685 20.731 12.2178C20.7282 14.5721 20.7282 16.9264 20.7282 19.2804ZM19.0166 14.6982C18.9465 14.6597 18.8713 14.621 18.7989 14.5825C18.1143 14.2379 17.4632 14.1375 16.8072 14.2763C16.4233 14.3612 16.0448 14.4513 15.7596 14.5206C15.5832 14.567 15.4122 14.567 15.2358 14.5206C14.9557 14.4511 14.6576 14.3818 14.2971 14.2993C14.048 14.2427 13.82 14.2144 13.5969 14.2144C13.4803 14.2144 13.3635 14.2221 13.2495 14.2402C12.832 14.2993 12.4145 14.4511 11.9711 14.7058C11.8311 14.7856 11.8103 14.8345 11.8517 15.0044C11.9736 15.537 12.2381 16.0052 12.5077 16.4299C12.736 16.7952 13.0395 17.001 13.4336 17.0655C13.6203 17.0937 13.7864 17.1144 13.934 17.0553C14.2529 16.9317 14.5148 16.7723 14.7379 16.5664C14.8884 16.4276 15.0725 16.2707 15.2956 16.1548C15.4435 16.0776 15.5886 16.0801 15.7131 16.1624C15.861 16.2602 15.9827 16.3425 16.1047 16.4327C16.1773 16.4892 16.25 16.5458 16.3198 16.6026C16.4418 16.7004 16.5689 16.8008 16.6986 16.8805C16.9217 17.0168 17.1135 17.1044 17.3312 17.0915C17.8239 17.0581 18.1585 16.8933 18.3919 16.5692C18.6695 16.1833 18.8718 15.8101 19.0143 15.4321C19.0585 15.3162 19.0947 15.1929 19.1257 15.0821L19.1309 15.0614C19.1437 15.0202 19.1542 14.9766 19.1671 14.9353V14.848C19.1437 14.7907 19.097 14.7443 19.0166 14.6982ZM14.683 16.0103C14.4262 16.1364 14.1746 16.1981 13.9361 16.1981C13.8013 16.1981 13.669 16.1775 13.5471 16.139C13.2048 16.0231 12.9195 15.7505 12.7198 15.349L12.6497 15.2102L12.7896 15.1432C13.1812 14.9501 13.565 14.904 13.8996 15.0069C14.255 15.1175 14.5428 15.3852 14.7528 15.802L14.8204 15.9408L14.683 16.0103ZM18.2774 15.349C18.0802 15.748 17.7924 16.0205 17.4527 16.1364C17.3281 16.1777 17.1959 16.1981 17.0611 16.1981C16.8226 16.1981 16.571 16.1364 16.3142 16.0103L16.1768 15.9408L16.2444 15.8045C16.4544 15.3878 16.7396 15.12 17.095 15.0095C17.4296 14.904 17.8134 14.9504 18.2076 15.1432L18.3475 15.2102L18.2774 15.349Z" fill="#130F40"/>
</svg>
